<svg xmlns="http://www.w3.org/2000/svg" viewBox="0 0 464.38 620.82"><title>cube</title><g style="isolation:isolate"><g style="mix-blend-mode:multiply"><path d="M319.25 594.01c-20.17 32.44-38.1 29.15-83.48.89L48.42 517.26C2.77 488.77-9.3 429.77 10.91 397.43l106.21-276.32c20.22-32.34-29.06-16.47 16.59 11.92l307.6 126.68c45.6 28.4 8.37 164.68-11.8 197.11z" fill="#fefefe" opacity=".01"/><path d="M318.57 590.6c-20 32.23-38 28.88-82.79.92L49.89 514.17C4.53 485.86-7.88 427.47 12.2 395.33l105.77-272.8c20.09-32.14-28.36-16.76 17 11.46l304.74 125.43c45.31 28.22 9.6 162.73-10.44 195z" fill="#fdfdfd" opacity=".03"/><path d="M317.9 587.17c-19.91 32-37.86 28.6-82.1 1l-184.43-77C6.3 483.04-6.45 425.27 13.5 393.33l105.36-269.38c20-31.94-27.66-17.06 17.42 11l301.88 124.22c45 28 10.83 160.78-9.08 192.81z" fill="#fcfcfc" opacity=".04"/><path d="M317.23 583.77c-19.79 31.82-37.74 28.33-81.41 1l-183-76.67c-44.78-27.95-57.87-85.11-38-116.85l104.91-265.88c19.83-31.73-27-17.35 17.83 10.51l299 122.94c44.74 27.86 12.06 158.83-7.73 190.65z" fill="#fbfbfb" opacity=".06"/><path d="M316.56 580.36c-19.66 31.61-37.62 28.06-80.72 1L54.32 505.02C9.82 477.25-3.6 420.7 16.1 389.17l104.5-262.4c19.71-31.53-26.26-17.64 18.24 10l296.13 121.76c44.45 27.68 13.29 156.88-6.37 188.5z" fill="#fafafa" opacity=".07"/><path d="M315.88 576.94c-19.53 31.41-37.5 27.78-80 1.07l-180.05-76c-44.21-27.58-58-83.52-38.4-114.85l104.03-258.99c19.58-31.32-25.56-17.93 18.65 9.57l293.33 120.45c44.16 27.5 14.52 154.93-5 186.34z" fill="#f9f9f9" opacity=".09"/><path d="M315.21 573.53c-19.4 31.2-37.37 27.51-79.35 1.1l-178.6-75.7c-43.92-27.4-58-82.73-38.58-113.86l103.66-255.43c19.45-31.12-24.86-18.22 19.06 9.1l290.47 119.2c43.88 27.32 15.75 153-3.66 184.19z" fill="#f8f8f9" opacity=".1"/><path d="M314.54 570.11c-19.28 31-37.25 27.23-78.66 1.14L58.74 495.88C15.11 468.66.66 413.94 19.98 383.02l103.22-252c19.32-30.91-24.16-18.52 19.48 8.63l287.62 118c43.58 27.14 17 151-2.3 182z" fill="#f7f7f8" opacity=".12"/><path d="M313.86 566.7c-19.15 30.79-37.13 27-78 1.18l-175.68-75c-43.34-27-58.13-81.14-38.94-111.86l102.83-248.54c19.19-30.71-23.46-18.81 19.89 8.16l284.76 116.71c43.3 27 18.21 149.08-.94 179.88z" fill="#f6f6f7" opacity=".13"/><path d="M313.19 563.28c-19 30.58-37 26.68-77.28 1.21L61.69 489.77C18.64 462.91 3.51 409.42 22.57 378.9l102.4-245c19.06-30.5-22.76-19.1 20.3 7.69l281.91 115.46c43 26.78 19.44 147.13.41 177.73z" fill="#f5f5f6" opacity=".15"/><path d="M312.52 559.87c-18.9 30.38-36.89 26.41-76.59 1.25l-172.76-74.4c-42.76-26.68-58.23-79.56-39.3-109.87l101.94-241.53c18.94-30.3-22.06-19.39 20.71 7.22l279.06 114.21c42.72 26.6 20.66 145.18 1.77 175.58z" fill="#f4f4f5" opacity=".16"/><path d="M311.85 556.45c-18.77 30.17-36.77 26.14-75.9 1.29l-171.3-74.08c-42.47-26.5-58.28-78.76-39.47-108.87l101.51-238c18.81-30.1-21.36-19.69 21.12 6.75l276.2 113c42.43 26.42 21.89 143.23 3.13 173.42z" fill="#f3f4f4" opacity=".18"/><path d="M311.17 553.04c-18.64 30-36.64 25.86-75.21 1.32L66.12 480.61c-42.19-26.32-58.33-78-39.65-107.88l101.08-234.56c18.68-29.89-20.66-20 21.53 6.28l273.36 111.72c42.15 26.24 23.12 141.28 4.48 171.27z" fill="#f2f3f3" opacity=".19"/><path d="M310.5 549.62c-18.53 29.76-36.53 25.55-74.53 1.36L67.59 477.55c-41.9-26.14-58.38-77.18-39.83-106.88l100.66-231.09c18.55-29.69-20-20.27 21.95 5.81l270.5 110.47c41.86 26.06 24.35 139.33 5.84 169.11z" fill="#f1f2f2" opacity=".21"/><path d="M309.83 546.17c-18.39 29.55-36.4 25.31-73.84 1.39l-166.92-73.1c-41.61-26-58.43-76.38-40-105.89L129.29 141c18.42-29.48-19.26-20.56 22.36 5.34l267.64 109.23c41.57 25.88 25.58 137.39 7.2 167z" fill="#f0f1f1" opacity=".22"/><path d="M309.15 542.8c-18.26 29.35-36.28 25-73.15 1.43L70.54 471.45c-41.32-25.78-58.48-75.59-40.19-104.89l99.8-224.13c18.3-29.28-18.56-20.85 22.77 4.87l264.79 108c41.28 25.7 26.81 135.44 8.55 164.81z" fill="#eff0f0" opacity=".24"/><path d="M308.48 539.38c-18.13 29.14-36.16 24.77-72.46 1.46l-164-72.45c-41-25.59-58.53-74.8-40.37-103.89l99.38-220.65c18.17-29.07-17.86-21.15 23.18 4.4l261.94 106.72c41 25.53 28 133.49 9.91 162.65z" fill="#eeefef" opacity=".25"/><path d="M307.81 535.96c-18 28.94-36 24.49-71.77 1.5L73.5 465.33c-40.74-25.41-58.58-74-40.55-102.9l98.95-217.17c18-28.87-17.16-21.44 23.59 3.93l259.08 105.48c40.71 25.34 29.27 131.54 11.27 160.5z" fill="#edeeee" opacity=".26"/><path d="M307.14 532.55c-17.88 28.73-35.91 24.22-71.08 1.54L74.97 462.28c-40.45-25.23-58.63-73.21-40.73-101.9l98.52-213.7c17.91-28.66-16.46-21.73 24 3.46l256.21 104.24c40.42 25.17 30.5 129.59 12.62 158.34z" fill="#eceded" opacity=".28"/><path d="M306.46 529.17c-17.75 28.52-35.79 23.94-70.39 1.57L76.45 459.26c-40.16-25.05-58.69-72.42-40.91-100.9l98.09-210.22c17.78-28.46-15.76-22 24.42 3l253.37 103c40.13 25 31.73 127.64 14 156.19z" fill="#ebecec" opacity=".29"/><path d="M305.79 525.72c-17.62 28.32-35.67 23.67-69.7 1.61L77.97 456.17c-39.87-24.87-58.74-71.63-41.08-99.91l97.67-206.74c17.65-28.25-15.06-22.32 24.83 2.52l250.52 101.74c39.84 24.81 33 125.69 15.34 154z" fill="#eaebec" opacity=".31"/><path d="M305.12 522.31c-17.5 28.11-35.55 23.4-69 1.65L79.4 453.17c-39.59-24.69-58.79-70.83-41.26-98.91L135.38 151c17.53-28-14.36-22.61 25.24 2l247.67 100.5c39.55 24.67 34.18 123.73 16.68 151.88z" fill="#e9eaeb" opacity=".32"/><path d="M304.44 518.89c-17.37 27.91-35.43 23.12-68.32 1.68l-155.24-70.5c-39.3-24.51-58.84-70-41.44-97.92l96.81-199.78c17.4-27.85-13.66-22.9 25.65 1.58l244.81 99.22c39.27 24.45 35.42 121.79 18 149.73z" fill="#e8e9ea" opacity=".34"/><path d="M303.77 515.48c-17.24 27.7-35.3 22.85-67.63 1.72L82.36 447.02c-39-24.33-58.89-69.25-41.62-96.92l96.39-196.3c17.27-27.64-13-23.19 26.06 1.11l242 98c39 24.27 36.65 119.84 19.41 147.57z" fill="#e7e8e9" opacity=".35"/><path d="M303.1 512.06c-17.11 27.49-35.18 22.57-66.95 1.76L83.83 443.96c-38.72-24.15-58.94-68.45-41.8-95.92l95.94-192.87c17.14-27.44-12.26-23.49 26.48.64l239.1 96.76c38.69 24.09 37.88 117.89 20.76 145.42z" fill="#e6e7e8" opacity=".37"/><path d="M302.43 508.65c-17 27.29-35.06 22.3-66.26 1.79L85.31 440.9c-38.43-24-59-67.66-42-94.93l95.53-189.35c17-27.23-11.56-23.78 26.89.17l236.24 95.52c38.4 23.91 39.11 115.94 22.12 143.27z" fill="#e5e6e7" opacity=".38"/><path d="M301.75 505.23c-16.86 27.08-34.94 22-65.57 1.83l-149.4-69.21c-38.14-23.79-59-66.87-42.16-93.93l95.1-185.87c16.89-27-10.86-24.07 27.3-.3l233.4 94.26c38.11 23.73 40.33 114 23.48 141.11z" fill="#e4e5e6" opacity=".4"/><path d="M301.08 501.82c-16.73 26.88-34.82 21.75-64.88 1.86L88.26 434.79c-37.86-23.61-59.09-66.07-42.34-92.93l94.68-182.39c16.76-26.82-10.16-24.36 27.71-.77l230.54 93c37.82 23.55 41.56 112 24.83 139z" fill="#e3e4e5" opacity=".41"/><path d="M300.41 498.4c-16.6 26.67-34.7 21.48-64.19 1.9L89.74 431.74c-37.57-23.42-59.14-65.28-42.52-91.94l94.25-178.91c16.63-26.62-9.46-24.65 28.12-1.24l227.69 91.77c37.54 23.37 42.79 110.09 26.19 136.8z" fill="#e2e3e4" opacity=".43"/><path d="M299.74 494.99c-16.48 26.46-34.58 21.2-63.5 1.94l-145-68.24c-37.27-23.25-59.27-64.52-42.73-90.95l93.82-175.43c16.5-26.41-8.76-24.95 28.54-1.71l224.84 90.57c37.25 23.19 44 108.14 27.54 134.65z" fill="#e1e2e3" opacity=".44"/><path d="M299.06 491.57c-16.35 26.26-34.45 20.93-62.81 2L92.69 425.65c-37-23.06-59.25-63.69-42.87-89.95l93.39-172c16.38-26.21-8.06-25.24 28.95-2.19l222 89.28c37 23 45.25 106.19 28.9 132.5z" fill="#e0e1e2" opacity=".46"/><path d="M298.39 488.17c-16.22 26.05-34.33 20.65-62.12 2L94.16 422.58c-36.7-22.88-59.29-62.9-43.05-89l93-168.47c16.25-26-7.36-25.53 29.36-2.66l219.13 88c36.67 22.83 46.48 104.24 30.26 130.34z" fill="#dfe0e1" opacity=".47"/><path d="M297.72 484.75c-16.1 25.85-34.21 20.38-61.44 2L95.64 419.48c-36.41-22.7-59.35-62.11-43.23-88l92.54-165c16.12-25.8-6.66-25.82 29.77-3.13l216.25 86.88c36.39 22.65 47.71 102.29 31.62 128.19z" fill="#dedfe0" opacity=".49"/><path d="M297.04 481.33c-16 25.64-34.09 20.11-60.75 2.08L97.11 416.47c-36.12-22.52-59.4-61.31-43.41-87l92.11-161.52c16-25.6-6-26.12 30.18-3.6l213.42 85.54c36.1 22.47 48.94 100.34 33 126z" fill="#dddee0" opacity=".5"/><path d="M296.37 477.92c-15.84 25.44-34 19.83-60.06 2.12L98.58 413.42c-35.83-22.34-59.45-60.52-43.59-86l91.69-158c15.86-25.39-5.26-26.41 30.59-4.07l210.56 84.29c35.81 22.29 50.17 98.4 34.33 123.88z" fill="#dcdddf" opacity=".51"/><path d="M295.7 474.5c-15.71 25.23-33.84 19.56-59.37 2.15l-136.27-66.29c-35.55-22.16-59.5-59.73-43.77-85l91.26-154.56c15.73-25.19-4.56-26.7 31-4.54l207.71 83c35.52 22.11 51.4 96.45 35.69 121.73z" fill="#dbddde" opacity=".53"/><path d="M295.02 471.09c-15.59 25-33.72 19.28-58.68 2.19l-134.81-66c-35.26-22-59.55-58.94-43.95-84l90.83-151.08c15.61-25-3.86-27 31.42-5L384.69 249c35.23 21.93 52.63 94.5 37 119.57z" fill="#dbdcdd" opacity=".54"/><path d="M294.35 467.67c-15.46 24.82-33.6 19-58 2.23l-133.38-65.65c-35-21.8-59.6-58.14-44.12-83l90.4-147.6c15.48-24.78-3.16-27.28 31.83-5.48l202 80.55c34.95 21.75 53.86 92.55 38.4 117.42z" fill="#dadbdc" opacity=".56"/><path d="M293.68 464.26c-15.33 24.61-33.48 18.74-57.3 2.26l-131.89-65.35c-34.68-21.61-59.65-57.35-44.3-82l90-144.12c15.35-24.57-2.46-27.58 32.24-5.95l199.15 79.3c34.66 21.58 55.09 90.6 39.76 115.26z" fill="#d9dadb" opacity=".57"/><path d="M292.97 460.84c-15.21 24.41-33.36 18.46-56.61 2.3l-130.39-64.97c-34.39-21.43-59.7-56.56-44.48-81l89.55-140.64c15.22-24.37-1.76-27.87 32.65-6.42l196.28 78.06c34.37 21.4 56.32 88.65 41.11 113.11z" fill="#d8d9da" opacity=".59"/><path d="M292.33 457.43c-15.08 24.2-33.23 18.19-55.92 2.34l-129-64.67c-34.1-21.25-59.75-55.76-44.66-80l89.12-137.17c15.1-24.17-1.06-28.16 33.07-6.89l193.44 76.81c34.08 21.22 57.55 86.7 42.47 111z" fill="#d7d8d9" opacity=".6"/><path d="M291.66 454.01c-14.95 24-33.11 17.91-55.24 2.37l-127.51-64.35c-33.81-21.07-59.8-55-44.84-79l88.7-133.69c15-24-.36-28.45 33.48-7.36l190.59 75.56c33.79 21 58.78 84.75 43.83 108.8z" fill="#d6d7d8" opacity=".62"/><path d="M290.97 450.6c-14.82 23.79-33 17.64-54.55 2.41l-126-64c-33.52-20.89-59.86-54.18-45-78l88.27-130.21c14.84-23.75.34-28.75 33.89-7.83l187.69 74.3c33.5 20.86 60 82.8 45.18 106.65z" fill="#d5d6d7" opacity=".63"/><path d="M290.32 447.17c-14.7 23.58-32.87 17.36-53.86 2.44l-124.59-63.7c-33.24-20.71-59.91-53.38-45.2-77l87.84-126.74c14.71-23.55 1-29 34.3-8.3l184.88 73.07c33.22 20.68 61.23 80.85 46.54 104.49z" fill="#d4d5d6" opacity=".65"/><path d="M289.64 443.77c-14.57 23.38-32.75 17.09-53.17 2.48l-123.13-63.38c-32.95-20.53-60-52.59-45.38-76l87.41-123.25c14.58-23.35 1.74-29.33 34.71-8.77l182 71.82c32.93 20.5 62.46 78.9 47.9 102.34z" fill="#d3d4d5" opacity=".66"/><path d="M288.97 440.35c-14.44 23.17-32.63 16.82-52.48 2.52l-121.67-63.05c-32.66-20.35-60-51.8-45.55-75l87-119.77c14.45-23.14 2.44-29.62 35.13-9.24l179.17 70.58c32.64 20.32 63.69 77 49.25 100.19z" fill="#d2d3d4" opacity=".68"/><path d="M288.3 436.94c-14.31 23-32.51 16.54-51.79 2.55L116.3 376.76c-32.37-20.17-60.06-51-45.73-74l86.56-116.29c14.33-22.94 3.14-29.91 35.54-9.71l176.3 69.32c32.35 20.14 64.92 75 50.61 98z" fill="#d1d2d3" opacity=".69"/><path d="M287.62 433.52c-14.19 22.76-32.38 16.27-51.1 2.59l-118.75-62.4c-32.08-20-60.11-50.21-45.91-73l86.11-112.82c14.2-22.73 3.84-30.21 35.95-10.18l173.46 68.08c32.06 20 66.15 73.05 52 95.88z" fill="#d0d1d3" opacity=".71"/><path d="M286.97 430.11c-14.06 22.55-32.26 16-50.41 2.63l-117.29-62.08c-31.79-19.8-60.16-49.42-46.09-72l85.71-109.34c14.07-22.53 4.54-30.5 36.36-10.65l170.61 66.83c31.78 19.78 67.38 71.1 53.32 93.72z" fill="#cfd0d2" opacity=".72"/><path d="M286.28 426.7c-13.93 22.35-32.14 15.72-49.72 2.66l-115.83-61.75c-31.5-19.62-60.21-48.62-46.27-71l85.28-105.86c13.94-22.32 5.24-30.79 36.77-11.12l167.75 65.54c31.49 19.6 68.61 69.15 54.68 91.57z" fill="#cecfd1" opacity=".74"/><path d="M285.61 423.28c-13.8 22.14-32 15.45-49 2.7l-114.37-61.43c-31.21-19.44-60.26-47.83-46.45-70l84.81-102.38c13.81-22.12 5.94-31.08 37.18-11.59l164.9 64.34c31.2 19.42 69.84 67.2 56 89.42z" fill="#cdced0" opacity=".75"/><path d="M284.97 419.87c-13.68 21.94-31.9 15.17-48.35 2.73l-112.95-61.11c-30.92-19.26-60.31-47-46.63-69l84.42-98.9c13.69-21.92 6.64-31.38 37.6-12.06l162 63.09c30.91 19.24 71.07 65.25 57.39 87.26z" fill="#cccdcf" opacity=".76"/><path d="M284.26 416.45c-13.55 21.73-31.78 14.9-47.66 2.77l-111.45-60.78c-30.64-19.08-60.36-46.25-46.81-68l84-95.42c13.56-21.71 7.34-31.67 38-12.53l159.19 61.85c30.63 19.06 72.3 63.31 58.75 85.11z" fill="#cbccce" opacity=".78"/><path d="M283.59 413.04c-13.42 21.52-31.65 14.62-47 2.81l-110-60.46c-30.35-18.9-60.42-45.45-47-67l83.57-91.94c13.43-21.51 8-32 38.42-13l156.39 60.56c30.34 18.88 73.53 61.36 60.11 83z" fill="#cacbcd" opacity=".79"/><path d="M282.92 409.62c-13.29 21.32-31.53 14.35-46.28 2.84l-108.53-60.13c-30.06-18.72-60.46-44.66-47.16-66l83.14-88.46c13.3-21.3 8.74-32.25 38.83-13.47l153.49 59.36c30 18.7 74.76 59.41 61.46 80.8z" fill="#c9cacc" opacity=".81"/><path d="M282.24 406.17c-13.17 21.11-31.41 14.08-45.59 2.88l-107.07-59.78c-29.77-18.54-60.52-43.87-47.34-65l82.71-85c13.17-21.1 9.44-32.55 39.24-13.94l150.63 58.11c29.76 18.52 76 57.46 62.82 78.65z" fill="#c8c9cb" opacity=".82"/><path d="M281.57 402.79c-13 20.91-31.29 13.8-44.9 2.92l-105.61-59.49c-29.48-18.36-60.57-43.07-47.52-64l82.29-81.51c13-20.89 10.14-32.84 39.65-14.41l147.77 56.87c29.47 18.34 77.22 55.51 64.18 76.49z" fill="#c7c8ca" opacity=".84"/><path d="M280.9 399.38c-12.91 20.7-31.16 13.53-44.21 3l-104.16-59.21c-29.19-18.18-60.62-42.28-47.7-63l81.86-78c12.92-20.69 10.84-33.13 40.07-14.88l144.93 55.61c29.19 18.16 78.45 53.56 65.53 74.34z" fill="#c6c7c9" opacity=".85"/><path d="M280.22 395.96c-12.79 20.49-31 13.25-43.53 3l-102.72-58.85c-28.9-18-60.67-41.49-47.88-62l81.43-74.55c12.79-20.48 11.54-33.42 40.48-15.36l142.07 54.37c28.9 18 79.68 51.61 66.89 72.18z" fill="#c5c6c8" opacity=".87"/><path d="M279.55 392.55c-12.66 20.29-30.92 13-42.84 3l-101.23-58.51c-28.62-17.81-60.72-40.69-48.06-61.05l81-71.07c12.66-20.28 12.24-33.71 40.89-15.82l139.22 53.12c28.61 17.8 80.9 49.66 68.25 70z" fill="#c4c6c7" opacity=".88"/><path d="M278.88 389.17c-12.53 20.08-30.8 12.71-42.15 3.06L136.97 334c-28.33-17.63-60.77-39.9-48.24-60.06l80.58-67.59c12.53-20.07 12.94-34 41.3-16.3l136.36 51.88c28.32 17.63 82.13 47.71 69.6 67.88z" fill="#c3c5c7" opacity=".9"/><path d="M278.21 385.72c-12.4 19.88-30.68 12.43-41.46 3.09l-98.31-57.87c-28-17.45-60.82-39.11-48.41-59.06l80.15-64.11c12.41-19.87 13.64-34.3 41.71-16.77l133.51 50.63c28 17.45 83.36 45.76 71 65.72z" fill="#c2c4c6" opacity=".91"/><path d="M277.53 382.3c-12.28 19.67-30.56 12.16-40.77 3.13l-96.86-57.54c-27.75-17.27-60.87-38.31-48.59-58.06l79.73-60.66c12.28-19.66 14.33-34.59 42.13-17.24l130.66 49.38c27.74 17.27 84.59 43.81 72.32 63.57z" fill="#c1c3c5" opacity=".93"/><path d="M276.86 378.89c-12.15 19.46-30.44 11.88-40.08 3.17l-95.4-57.22c-27.46-17.09-60.92-37.52-48.77-57.07l79.3-57.15c12.15-19.46 15-34.88 42.54-17.71l127.8 48.13c27.46 17.09 85.82 41.86 73.67 61.41z" fill="#c0c2c4" opacity=".94"/><path d="M276.19 375.47c-12 19.26-30.31 11.61-39.39 3.2l-93.94-56.89c-27.17-16.91-61-36.73-49-56.07l78.87-53.68c12-19.26 15.74-35.17 43-18.18l124.95 46.89c27.17 16.91 87.05 39.91 75 59.26z" fill="#bfc1c3" opacity=".96"/><path d="M275.51 372.06c-11.89 19.05-30.19 11.34-38.7 3.24l-92.48-56.57c-26.88-16.73-61-35.93-49.13-55.07l78.44-50.2c11.89-19.05 16.44-35.47 43.36-18.65l122.09 45.64c26.88 16.73 88.28 38 76.39 57.11z" fill="#bec0c2" opacity=".97"/><path d="M274.84 368.65c-11.77 18.85-30.07 11.06-38 3.28l-91-56.24c-26.6-16.55-61.08-35.14-49.31-54.08l78-46.72c11.77-18.85 17.13-35.76 43.77-19.12l119.23 44.4c26.59 16.55 89.51 36 77.74 55z" fill="#bdbfc1" opacity=".99"/><path d="M274.17 365.23c-11.64 18.64-29.95 10.79-37.33 3.31l-89.56-55.92c-26.3-16.37-61.12-34.35-49.49-53.08l77.59-43.24c11.64-18.64 17.83-36.05 44.19-19.59l116.4 43.15c26.3 16.37 90.74 34.06 79.1 52.8z" fill="#b3b3b3"/></g><path fill="#fafafa" d="M418.75 98.59L248.86 0 78.49 97.74l169.89 98.69 170.37-97.84z"/><path fill="#b3b3b3" d="M248.38 196.43l-.47 196.43 170.37-97.84.47-196.43-170.37 97.84z"/><path fill="#e6e6e6" d="M78.49 97.74l-.47 196.53 169.89 98.59.47-196.43L78.49 97.74z"/><path d="M142.11 274.1l-5.4-3.23a2.33 2.33 0 0 1-1-2.18v-55a.63.63 0 0 0-.14-.44c-.09-.1-.17-.08-.23.07l-3.92 14.25-9.05 29.88c-.12.21-.31.5-.56.87s-.65.39-1.21.06l-3.64-2.17a3.69 3.69 0 0 1-1.17-1.05 5.43 5.43 0 0 1-.7-1.9l-8.59-39.37-4-19.64q-.28-.59-.28-.17v54.45q0 1.7-1 1.07l-5.31-3.17a2.4 2.4 0 0 1-1.14-2.23v-83.03q0-2.68 1.71-1.68l3.69 2.19a4.58 4.58 0 0 1 1.61 1.31 12.91 12.91 0 0 1 .76 2.22l12.43 58.11 3.55 17.69q.46 1.41.84.64.93-3.27 1.82-6.92t1.82-6.92l12.41-43.22a2.24 2.24 0 0 1 .9-1 1.78 1.78 0 0 1 1.38.39l3.79 2.24a3 3 0 0 1 1.37 1.52 5.9 5.9 0 0 1 .33 2V273q-.03 1.72-1.07 1.1zm47.47-50.04a5 5 0 0 1 .47 1.77 1.52 1.52 0 0 1-.75 1.19l-3.56 2.45c-.25.23-.58.16-1-.23a4.14 4.14 0 0 1-1-1.51 33.37 33.37 0 0 0-4.4-7.87 20.12 20.12 0 0 0-5.62-5.32q-4.49-2.66-6.88-.24t-2.39 8.53v41.34a26.14 26.14 0 0 0 2.62 11.44 18.41 18.41 0 0 0 7.11 8.15 6.85 6.85 0 0 0 5.43 1 9.78 9.78 0 0 0 4.12-2.17 2.78 2.78 0 0 1 .94-.79c.31-.15.72.21 1.22 1.08l3.74 6.93a2.58 2.58 0 0 1 .33 1.19 2.79 2.79 0 0 1-.14 1.2 9.48 9.48 0 0 1-6.93 4.26 14.33 14.33 0 0 1-8.7-2.36 31.54 31.54 0 0 1-7-5.73 36.92 36.92 0 0 1-5.57-7.94 44.84 44.84 0 0 1-5.05-20.84v-41.42a29.1 29.1 0 0 1 1.26-9.26 11.61 11.61 0 0 1 3.51-5.52 7.73 7.73 0 0 1 5.38-1.65 15.19 15.19 0 0 1 6.88 2.36 35.6 35.6 0 0 1 8.37 7.07 47.24 47.24 0 0 1 7.61 12.89zm47.22 44.67a29.22 29.22 0 0 1-1.31 9.21 13.82 13.82 0 0 1-3.65 6 8.41 8.41 0 0 1-5.52 2.21 12.88 12.88 0 0 1-6.93-2.12l-8.61-5.12q-.75-.45-.75.84v33.21q0 1.71-1.12 1l-5.62-3.36a2.4 2.4 0 0 1-1.12-2.24v-84.68q0-1.57 1.12-.9l16 9.47a28 28 0 0 1 7.35 6.34 40.51 40.51 0 0 1 5.47 8.73 50 50 0 0 1 3.46 10.33 51.2 51.2 0 0 1 1.23 11.08zm-26-31.26q-.84-.5-.84.64v28.93a1.84 1.84 0 0 0 .75 1.73l8.61 5.12q4.4 2.61 7.07 0t2.67-9.9a32 32 0 0 0-.61-5.93 31.19 31.19 0 0 0-1.82-6.15 26.49 26.49 0 0 0-3-5.44 14.26 14.26 0 0 0-4.26-3.95z" fill="#010101"/></g></svg>