<svg xmlns="http://www.w3.org/2000/svg" viewBox="0 0 47.27 47.27"><title>Vector Smart Object</title><path fill="#ed1c24" d="M0 0h47.27v47.27H0z"/><path d="M17.96 25.97a4.14 4.14 0 0 1-.3 1.62 3.51 3.51 0 0 1-2.09 2 4.67 4.67 0 0 1-1.59.26 5.17 5.17 0 0 1-2-.41 3.69 3.69 0 0 1-1.63-1.24.44.44 0 0 1-.13-.27.58.58 0 0 1 .13-.32l.75-.8a.25.25 0 0 1 .25-.15.8.8 0 0 1 .25.22 3.39 3.39 0 0 0 1.1.81 2.91 2.91 0 0 0 1.23.29 2.3 2.3 0 0 0 1.62-.52 1.84 1.84 0 0 0 .56-1.43 1.67 1.67 0 0 0-.2-.84 2.14 2.14 0 0 0-.52-.6 3.55 3.55 0 0 0-.73-.45q-.41-.19-.86-.37t-1.12-.51a4.63 4.63 0 0 1-1-.72 3.32 3.32 0 0 1-.76-1.06 3.56 3.56 0 0 1-.29-1.51 4.3 4.3 0 0 1 .27-1.57 3.25 3.25 0 0 1 1.88-1.91 3.68 3.68 0 0 1 1.38-.26 6.47 6.47 0 0 1 1.63.22 4.22 4.22 0 0 1 1.58.82.31.31 0 0 1 .16.28 1.17 1.17 0 0 1-.18.26l-.44 1a.27.27 0 0 1-.23.17.57.57 0 0 1-.33-.12 7.29 7.29 0 0 0-1.13-.57 2.79 2.79 0 0 0-1-.21 2.47 2.47 0 0 0-.7.1 1.42 1.42 0 0 0-.57.32 1.66 1.66 0 0 0-.39.58 2.32 2.32 0 0 0-.15.9 1.28 1.28 0 0 0 .2.71 2.1 2.1 0 0 0 .5.53 3.66 3.66 0 0 0 .68.4l.71.32q.62.26 1.23.56a5.26 5.26 0 0 1 1.11.73 3.16 3.16 0 0 1 .8 1.09 3.93 3.93 0 0 1 .32 1.65zm6.48 3.84a4 4 0 0 1-1.46-.26 3.23 3.23 0 0 1-1.14-.74 3.34 3.34 0 0 1-.74-1.18 4.4 4.4 0 0 1-.26-1.58v-6.09a4.34 4.34 0 0 1 .26-1.56 3.42 3.42 0 0 1 .73-1.18 3.3 3.3 0 0 1 1.12-.76 3.65 3.65 0 0 1 1.4-.25 4.5 4.5 0 0 1 1.77.36 3.66 3.66 0 0 1 1.56 1.44.37.37 0 0 1 .08.25.47.47 0 0 1-.16.27l-.86.78a.21.21 0 0 1-.24.05.41.41 0 0 1-.15-.19 2.38 2.38 0 0 0-.83-.79 2.12 2.12 0 0 0-1.07-.29 1.55 1.55 0 0 0-1.29.55 2.12 2.12 0 0 0-.44 1.37v6.09a2 2 0 0 0 .47 1.34 1.65 1.65 0 0 0 1.31.54 1.88 1.88 0 0 0 1-.31 3.2 3.2 0 0 0 .85-.73l.2-.21a.17.17 0 0 1 .25 0l.94.76a.31.31 0 0 1 .09.43 3.77 3.77 0 0 1-1.48 1.49 4 4 0 0 1-1.91.4zm13.03-11.55h-2.35a.2.2 0 0 0-.23.22v11a.25.25 0 0 1-.26.3h-1.28a.26.26 0 0 1-.3-.28v-11a.34.34 0 0 0 0-.17.2.2 0 0 0-.19-.06h-2.3a.27.27 0 0 1-.28-.32V16.7a.26.26 0 0 1 .28-.3h6.91a.24.24 0 0 1 .26.28v1.25a.26.26 0 0 1-.26.33z" fill="#fff"/></svg>