<svg xmlns="http://www.w3.org/2000/svg" viewBox="0 0 123.04 74.78"><defs><clipPath id="a" transform="translate(-6.53 -59.25)"><path fill="none" d="M59.73 98.76l.01-6.9 12.67 7.31-.02 6.91-12.66-7.32z"/></clipPath><clipPath id="b" transform="translate(-6.53 -59.25)"><path fill="none" d="M12.7 101.69l.01-3.54 10.24 5.91-.01 3.55-10.24-5.92z"/></clipPath><clipPath id="c" transform="translate(-6.53 -59.25)"><path fill="none" d="M42.54 80.73l.01-4.09 6.83 3.94-.01 4.1-6.83-3.95z"/></clipPath><clipPath id="d" transform="translate(-6.53 -59.25)"><path fill="none" d="M103.65 107.09v-3.43l10.04 5.79-.02 3.44-10.02-5.8z"/></clipPath><clipPath id="e" transform="translate(-6.53 -59.25)"><path fill="none" d="M116.07 113.13v-3.63l8.68-5.01v3.62l-8.68 5.02z"/></clipPath></defs><title>scheme_2</title><g style="isolation:isolate"><g style="mix-blend-mode:multiply"><path d="M47.74 39.99c-1.09 1.75-2.05 1.57-4.5 0l-10.1-4.14c-2.46-1.53-3.11-4.71-2-6.46l5.73-14.89c1.09-1.75-1.57-.89.89.64l16.58 6.83c2.46 1.53.45 8.88-.63 10.62z" fill="#fefefe" opacity=".01"/><path d="M47.7 39.81c-1.08 1.73-2 1.56-4.46 0l-10-4.17c-2.44-1.52-3.11-4.67-2-6.4l5.7-14.71c1.08-1.73-1.53-.91.92.62l16.37 6.8c2.44 1.52.52 8.77-.56 10.51z" fill="#fdfdfd" opacity=".03"/><path d="M47.67 39.62c-1.07 1.72-2 1.54-4.42.05l-9.94-4.15c-2.43-1.51-3.12-4.63-2-6.35l5.63-14.52c1.07-1.72-1.49-.92.94.59l16.27 6.69c2.43 1.51.59 8.67-.49 10.39z" fill="#fcfcfc" opacity=".04"/><path d="M47.63 39.44c-1.07 1.71-2 1.53-4.39.05l-9.86-4.14c-2.41-1.5-3.12-4.58-2.05-6.3l5.65-14.3c1.07-1.71-1.45-.94 1 .57l16.12 6.63c2.41 1.5.65 8.56-.41 10.28z" fill="#fbfbfb" opacity=".06"/><path d="M47.59 39.25c-1.06 1.7-2 1.51-4.35.06l-9.77-4.12c-2.4-1.49-3.12-4.54-2.06-6.24l5.64-14.14c1.06-1.7-1.42-1 1 .54l16 6.56c2.4 1.49.72 8.46-.34 10.16z" fill="#fafafa" opacity=".07"/><path d="M47.56 39.07c-1.05 1.69-2 1.5-4.31.06l-9.71-4.1c-2.38-1.48-3.12-4.5-2.07-6.19l5.61-14c1.05-1.69-1.38-1 1 .51l15.81 6.49c2.38 1.48.78 8.35-.27 10z" fill="#f9f9f9" opacity=".09"/><path d="M47.52 38.88c-1 1.68-2 1.48-4.28.06l-9.63-4.08c-2.36-1.47-3.14-4.45-2.07-6.11l5.59-13.77c1-1.68-1.34-1 1 .49l15.66 6.43c2.37 1.47.85 8.25-.2 9.93z" fill="#f8f8f9" opacity=".1"/><path d="M47.47 38.75c-1 1.67-2 1.47-4.24.06l-9.55-4.06c-2.35-1.46-3.13-4.41-2.09-6.08l5.58-13.63c1-1.67-1.3-1 1 .46l15.5 6.36c2.35 1.46.92 8.14-.12 9.81z" fill="#f7f7f8" opacity=".12"/><path d="M47.47 38.52c-1 1.66-2 1.45-4.2.06l-9.47-4c-2.34-1.45-3.13-4.37-2.1-6l5.54-13.39c1-1.66-1.26-1 1.07.44l15.35 6.29c2.33 1.45 1 8 0 9.69z" fill="#f6f6f7" opacity=".13"/><path d="M47.41 38.33c-1 1.65-2 1.44-4.16.06l-9.39-4c-2.32-1.44-3.14-4.33-2.11-6l5.52-13.21c1-1.65-1.23-1 1.09.41l15.19 6.22c2.32 1.44 1 7.93 0 9.58z" fill="#f5f5f6" opacity=".15"/><path d="M47.37 38.15c-1 1.64-2 1.42-4.13.07l-9.31-4c-2.31-1.43-3.14-4.29-2.12-5.92l5.5-13c1-1.64-1.19-1 1.12.39l15 6.16c2.3 1.44 1.12 7.83.1 9.46z" fill="#f4f4f5" opacity=".16"/><path d="M47.34 37.96c-1 1.62-2 1.41-4.09.07l-9.23-4c-2.29-1.43-3.14-4.24-2.13-5.87l5.47-12.83c1-1.62-1.15-1.06 1.14.36l14.88 6.06c2.29 1.43 1.18 7.72.17 9.35z" fill="#f3f4f4" opacity=".18"/><path d="M47.3 37.75c-1 1.61-2 1.39-4.05.07l-9.16-4c-2.27-1.42-3.14-4.2-2.14-5.81l5.45-12.64c1-1.61-1.11-1.08 1.16.34l14.73 6c2.27 1.42 1.25 7.62.24 9.23z" fill="#f2f3f3" opacity=".19"/><path d="M47.27 37.6c-1 1.6-2 1.38-4 .07l-9.1-3.92c-2.26-1.41-3.15-4.16-2.15-5.76l5.45-12.5c1-1.6-1.08-1.1 1.18.31l14.58 6c2.26 1.41 1.31 7.51.32 9.11z" fill="#f1f2f2" opacity=".21"/><path d="M47.23 37.41c-1 1.59-2 1.36-4 .08l-9-3.94c-2.24-1.4-3.15-4.12-2.16-5.71l5.4-12.27c1-1.59-1-1.11 1.2.29l14.46 5.89c2.24 1.4 1.38 7.41.39 9z" fill="#f0f1f1" opacity=".22"/><path d="M47.19 37.23c-1 1.58-2 1.35-3.94.08l-8.92-3.92c-2.23-1.39-3.15-4.07-2.17-5.65l5.39-12.09c1-1.58-1-1.13 1.23.26l14.26 5.84c2.23 1.39 1.45 7.3.46 8.88z" fill="#eff0f0" opacity=".24"/><path d="M47.16 37.04c-1 1.57-1.95 1.34-3.9.08l-8.84-3.91c-2.21-1.38-3.15-4-2.18-5.6l5.35-11.86c1-1.57-1-1.14 1.25.23l14.12 5.77c2.21 1.38 1.51 7.2.54 8.77z" fill="#eeefef" opacity=".25"/><path d="M47.12 36.86c-1 1.56-1.94 1.32-3.87.08l-8.78-3.89c-2.2-1.37-3.16-4-2.19-5.54l5.33-11.71c1-1.56-.92-1.16 1.27.21l14 5.69c2.19 1.36 1.59 7.05.59 8.65z" fill="#edeeee" opacity=".26"/><path d="M47.08 36.68c-1 1.55-1.94 1.31-3.83.08l-8.68-3.87c-2.18-1.36-3.16-3.94-2.2-5.49l5.31-11.52c1-1.55-.89-1.17 1.29.18l13.81 5.62c2.18 1.36 1.65 7 .68 8.53z" fill="#eceded" opacity=".28"/><path d="M47.05 36.49c-1 1.54-1.93 1.29-3.79.08l-8.61-3.82c-2.18-1.37-3.18-3.93-2.18-5.46l5.26-11.34c1-1.54-.85-1.19 1.32.16l13.66 5.55c2.16 1.35 1.71 6.88.76 8.42z" fill="#ebecec" opacity=".29"/><path d="M47.01 36.31c-.95 1.53-1.92 1.28-3.76.09l-8.53-3.84c-2.15-1.34-3.17-3.86-2.22-5.38l5.27-11.14c1-1.52-.81-1.21 1.34.13l13.5 5.49c2.15 1.34 1.78 6.78.83 8.3z" fill="#eaebec" opacity=".31"/><path d="M46.98 36.12c-.94 1.51-1.92 1.26-3.72.09l-8.45-3.82c-2.13-1.33-3.17-3.82-2.22-5.33l5.24-11c.94-1.51-.77-1.22 1.36.11l13.35 5.42c2.13 1.33 1.84 6.67.9 8.18z" fill="#e9eaeb" opacity=".32"/><path d="M46.94 35.94c-.94 1.5-1.91 1.25-3.68.09l-8.37-3.8c-2.12-1.32-3.17-3.77-2.24-5.28l5.22-10.77c.94-1.5-.74-1.24 1.38.08l13.22 5.36c2.12 1.32 1.91 6.57 1 8.07z" fill="#e8e9ea" opacity=".34"/><path d="M46.9 35.75c-.93 1.49-1.9 1.23-3.64.09l-8.29-3.78c-2.1-1.31-3.17-3.73-2.24-5.22l5.2-10.58c.93-1.49-.7-1.25 1.4.06l13 5.28c2.1 1.31 2 6.46 1 8z" fill="#e7e8e9" opacity=".35"/><path d="M46.87 35.57c-.92 1.48-1.9 1.22-3.61.09l-8.21-3.77c-2.09-1.3-3.18-3.69-2.25-5.17l5.17-10.38c.92-1.48-.66-1.27 1.43 0l12.89 5.22c2.09 1.3 2 6.36 1.12 7.84z" fill="#e6e7e8" opacity=".37"/><path d="M46.83 35.39c-.92 1.47-1.89 1.2-3.57.1l-8.13-3.74c-2.07-1.29-3.18-3.65-2.26-5.12l5.15-10.21c.92-1.47-.62-1.28 1.45 0l12.73 5.15c2.07 1.29 2.11 6.25 1.19 7.72z" fill="#e5e6e7" opacity=".38"/><path d="M46.79 35.2c-.91 1.46-1.88 1.19-3.53.1l-8.05-3.73c-2.06-1.28-3.18-3.6-2.27-5.06l5.13-10c.91-1.46-.58-1.3 1.47 0l12.57 5.04c2.06 1.28 2.18 6.15 1.27 7.6z" fill="#e4e5e6" opacity=".4"/><path d="M46.76 35.02c-.9 1.45-1.88 1.17-3.5.1l-8-3.71c-2-1.27-3.18-3.56-2.28-5l5.1-9.83c.9-1.45-.55-1.32 1.49 0l12.43 5c2 1.27 2.24 6 1.34 7.49z" fill="#e3e4e5" opacity=".41"/><path d="M46.72 34.84c-.89 1.44-1.87 1.16-3.46.1l-7.9-3.7c-2-1.26-3.19-3.52-2.29-5l5.08-9.64c.9-1.44-.51-1.33 1.52-.07l12.27 4.95c2 1.26 2.31 5.94 1.41 7.37z" fill="#e2e3e4" opacity=".43"/><path d="M46.69 34.65c-.89 1.43-1.86 1.14-3.42.1l-7.8-3.67c-2-1.25-3.19-3.48-2.3-4.9l5.03-9.43c.89-1.43-.47-1.35 1.54-.09l12.12 4.88c2 1.25 2.38 5.83 1.49 7.26z" fill="#e1e2e3" opacity=".44"/><path d="M46.65 34.47c-.88 1.42-1.86 1.13-3.38.11l-7.74-3.66c-2-1.24-3.19-3.43-2.31-4.85l5-9.27c.88-1.42-.43-1.36 1.56-.12l12 4.81c2 1.24 2.44 5.72 1.56 7.14z" fill="#e0e1e2" opacity=".46"/><path d="M46.61 34.28c-.87 1.4-1.85 1.11-3.35.11l-7.65-3.64c-2-1.23-3.2-3.39-2.32-4.79l5-9.08c.87-1.4-.4-1.38 1.58-.15l11.81 4.75c2 1.23 2.51 5.62 1.63 7z" fill="#dfe0e1" opacity=".47"/><path d="M46.58 34.1c-.87 1.39-1.84 1.1-3.31.11l-7.58-3.63c-2-1.22-3.2-3.35-2.33-4.74l5-8.89c.87-1.39-.36-1.39 1.6-.17l11.66 4.68c2 1.22 2.57 5.52 1.71 6.91z" fill="#dedfe0" opacity=".49"/><path d="M46.54 33.92c-.86 1.38-1.84 1.08-3.27.11l-7.5-3.61c-1.95-1.21-3.2-3.3-2.34-4.69l5-8.71c.86-1.38-.32-1.41 1.63-.2l11.41 4.62c1.95 1.21 2.64 5.41 1.78 6.79z" fill="#dddee0" opacity=".5"/><path d="M46.47 33.75c-.85 1.37-1.83 1.07-3.24.11l-7.39-3.61c-1.93-1.2-3.2-3.26-2.35-4.63l4.98-8.52c.85-1.37-.28-1.43 1.65-.22l11.35 4.55c1.93 1.2 2.71 5.31 1.85 6.68z" fill="#dcdddf" opacity=".51"/><path d="M46.47 33.55c-.85 1.36-1.82 1.05-3.2.12l-7.34-3.57c-1.92-1.19-3.21-3.22-2.36-4.58l4.9-8.34c.85-1.36-.25-1.44 1.67-.25l11.2 4.48c1.92 1.19 2.77 5.2 1.93 6.56z" fill="#dbddde" opacity=".53"/><path d="M46.47 33.36c-.84 1.35-1.82 1-3.16.12l-7.27-3.56c-1.94-1.17-3.25-3.17-2.41-4.52l4.9-8.14c.84-1.35-.21-1.46 1.69-.27l11 4.41c1.9 1.18 2.84 5.09 2 6.44z" fill="#dbdcdd" opacity=".54"/><path d="M46.39 33.18c-.83 1.34-1.81 1-3.12.12l-7.19-3.55c-1.88-1.17-3.21-3.13-2.38-4.47l4.87-8c.83-1.34-.17-1.47 1.71-.3l10.89 4.34c1.88 1.17 2.91 5 2.07 6.33z" fill="#dadbdc" opacity=".56"/><path d="M46.36 33c-.83 1.33-1.8 1-3.09.12l-7.11-3.52c-1.87-1.16-3.22-3.09-2.39-4.42l4.85-7.77c.83-1.33-.13-1.49 1.74-.32l10.73 4.28c1.87 1.16 3 4.88 2.15 6.21z" fill="#d9dadb" opacity=".57"/><path d="M46.32 32.81c-.82 1.32-1.8 1-3.05.12l-7-3.5c-1.85-1.15-3.22-3-2.4-4.36l4.83-7.58c.82-1.32-.09-1.5 1.76-.35l10.55 4.21c1.85 1.15 3 4.78 2.22 6.1z" fill="#d8d9da" opacity=".59"/><path d="M46.29 32.63c-.81 1.3-1.79 1-3 .13l-7-3.49c-1.84-1.14-3.22-3-2.41-4.31l4.8-7.39c.81-1.3-.06-1.52 1.78-.37l10.43 4.14c1.84 1.14 3.1 4.67 2.29 6z" fill="#d7d8d9" opacity=".6"/><path d="M46.25 32.44c-.81 1.29-1.78 1-3 .13l-6.87-3.47c-1.82-1.13-3.22-3-2.42-4.26l4.78-7.21c.81-1.29 0-1.54 1.8-.4l10.27 4.08c1.82 1.13 3.17 4.57 2.37 5.86z" fill="#d6d7d8" opacity=".62"/><path d="M46.21 32.26c-.8 1.28-1.78 1-2.94.13l-6.8-3.45c-1.81-1.12-3.23-2.92-2.43-4.2l4.76-7c.8-1.28 0-1.55 1.83-.43l10.12 4c1.81 1.13 3.24 4.46 2.44 5.75z" fill="#d5d6d7" opacity=".63"/><path d="M46.18 32.07c-.79 1.27-1.77.94-2.9.13l-6.72-3.45c-1.79-1.12-3.23-2.88-2.44-4.15l4.74-6.85c.79-1.27.06-1.57 1.85-.45l10 3.94c1.79 1.12 3.3 4.36 2.51 5.63z" fill="#d4d5d6" opacity=".65"/><path d="M46.14 31.89c-.78 1.26-1.76.92-2.86.13l-6.64-3.42c-1.78-1.11-3.23-2.84-2.45-4.1l4.71-6.64c.79-1.26.09-1.58 1.87-.48l9.81 3.87c1.78 1.11 3.37 4.25 2.59 5.52z" fill="#d3d4d5" opacity=".66"/><path d="M46.1 31.75c-.78 1.25-1.76.91-2.83.14l-6.56-3.4c-1.76-1.1-3.23-2.79-2.46-4l4.69-6.46c.78-1.25.13-1.6 1.89-.5l9.64 3.72c1.76 1.1 3.43 4.15 2.66 5.4z" fill="#d2d3d4" opacity=".68"/><path d="M46.07 31.52c-.77 1.24-1.75.89-2.79.14l-6.48-3.38c-1.75-1.09-3.24-2.75-2.47-4L39 18.01c.77-1.24.17-1.61 1.91-.53l9.5 3.74c1.74 1.09 3.5 4 2.73 5.28z" fill="#d1d2d3" opacity=".69"/><path d="M46.03 31.34c-.76 1.23-1.75.88-2.75.14l-6.4-3.36c-1.73-1.08-3.24-2.71-2.48-3.93l4.64-6.08c.76-1.23.21-1.63 1.94-.55l9.35 3.67c1.73 1.08 3.57 3.94 2.8 5.17z" fill="#d0d1d3" opacity=".71"/><path d="M46 31.15c-.76 1.22-1.74.86-2.72.14l-6.32-3.34c-1.71-1.07-3.24-2.66-2.49-3.88l4.62-5.89c.76-1.22.25-1.65 2-.58l9.2 3.6c1.71 1.07 3.63 3.83 2.88 5.05z" fill="#cfd0d2" opacity=".72"/><path d="M45.96 30.97c-.75 1.21-1.73.85-2.68.14l-6.24-3.36c-1.7-1.06-3.25-2.62-2.49-3.83l4.6-5.71c.75-1.21.28-1.66 2-.6l9 3.54c1.7 1.06 3.7 3.73 3 4.93z" fill="#cecfd1" opacity=".74"/><path d="M45.92 30.75c-.74 1.19-1.72.83-2.64.15l-6.16-3.31c-1.68-1-3.25-2.58-2.5-3.77l4.57-5.52c.74-1.19.32-1.68 2-.63l8.89 3.47c1.68 1 3.77 3.62 3 4.82z" fill="#cdced0" opacity=".75"/><path d="M45.89 30.6c-.74 1.15-1.72.82-2.61.15l-6.09-3.29c-1.67-1-3.25-2.54-2.51-3.72l4.55-5.33c.74-1.18.36-1.69 2-.65l8.73 3.4c1.67 1 3.83 3.52 3.1 4.7z" fill="#cccdcf" opacity=".76"/><path d="M45.85 30.42c-.73 1.17-1.71.8-2.57.15l-6-3.28c-1.65-1-3.25-2.49-2.52-3.67l4.53-5.14c.73-1.17.4-1.71 2-.68l8.58 3.34c1.65 1 3.9 3.41 3.17 4.59z" fill="#cbccce" opacity=".78"/><path d="M45.81 30.23c-.72 1.16-1.7.79-2.53.15l-5.93-3.26c-1.64-1-3.26-2.45-2.53-3.61l4.5-5c.72-1.16.43-1.72 2.07-.71l8.43 3.27c1.64 1 4 3.31 3.24 4.47z" fill="#cacbcd" opacity=".79"/><path d="M45.78 30.05c-.72 1.15-1.7.77-2.49.15l-5.82-3.24c-1.62-1-3.26-2.41-2.54-3.56l4.48-4.77c.72-1.15.47-1.74 2.09-.73l8.27 3.2c1.62 1 4 3.2 3.32 4.35z" fill="#c9cacc" opacity=".81"/><path d="M45.74 29.87c-.71 1.14-1.69.76-2.46.15l-5.81-3.27c-1.6-1-3.26-2.37-2.55-3.5l4.55-4.5c.71-1.14.51-1.75 2.11-.76l8.12 3.13c1.61 1 4.1 3.1 3.39 4.24z" fill="#c8c9cb" opacity=".82"/><path d="M45.7 29.68c-.7 1.13-1.68.74-2.42.16l-5.69-3.21c-1.59-1-3.27-2.32-2.56-3.45l4.44-4.43c.7-1.13.55-1.77 2.14-.78l8 3.07c1.59 1 4.16 3 3.46 4.12z" fill="#c7c8ca" opacity=".84"/><path d="M45.67 29.5c-.7 1.12-1.68.73-2.38.16l-5.62-3.19c-1.57-1-3.27-2.28-2.57-3.4l4.37-4.2c.69-1.12.58-1.79 2.16-.81l7.81 3c1.57 1 4.23 2.89 3.54 4z" fill="#c6c7c9" opacity=".85"/><path d="M45.63 29.31c-.69 1.11-1.67.71-2.34.16l-5.53-3.17c-1.56-1-3.27-2.24-2.58-3.34l4.39-4c.69-1.11.62-1.8 2.18-.83l7.66 2.93c1.56 1 4.3 2.78 3.61 3.89z" fill="#c5c6c8" opacity=".87"/><path d="M45.6 29.13c-.68 1.1-1.67.7-2.31.16l-5.46-3.15c-1.54-1-3.27-2.2-2.59-3.29l4.37-3.83c.68-1.09.66-1.82 2.2-.86l7.5 2.87c1.54 1 4.36 2.68 3.68 3.77z" fill="#c4c6c7" opacity=".88"/><path d="M45.56 28.94c-.67 1.08-1.66.68-2.27.17l-5.38-3.13c-1.53-1-3.28-2.15-2.6-3.24l4.34-3.64c.67-1.08.7-1.83 2.23-.88l7.35 2.8c1.53 1 4.43 2.57 3.76 3.66z" fill="#c3c5c7" opacity=".9"/><path d="M45.52 28.75a1.36 1.36 0 0 1-2.23.17l-5.3-3.12c-1.52-.93-3.28-2.05-2.61-3.17l4.32-3.45c.67-1.07.74-1.85 2.25-.91l7.2 2.73c1.51.94 4.5 2.47 3.83 3.54z" fill="#c2c4c6" opacity=".91"/><path d="M45.47 28.58a1.34 1.34 0 0 1-2.2.17l-5.2-3.1c-1.5-.93-3.28-2.07-2.62-3.13l4.3-3.27c.66-1.06.77-1.87 2.27-.93l7 2.66c1.5.93 4.56 2.36 3.9 3.42z" fill="#c1c3c5" opacity=".93"/><path d="M45.47 28.39a1.32 1.32 0 0 1-2.16.17l-5.14-3.08c-1.48-.92-3.28-2-2.63-3.08l4.27-3.08c.65-1.05.81-1.88 2.29-1l6.89 2.6c1.48.92 4.63 2.26 4 3.31z" fill="#c0c2c4" opacity=".94"/><path d="M45.41 28.21a1.3 1.3 0 0 1-2.12.17l-5.06-3.06c-1.46-.91-3.29-2-2.64-3l4.25-2.89c.65-1 .85-1.9 2.31-1l6.73 2.53c1.46.91 4.69 2.15 4 3.19z" fill="#bfc1c3" opacity=".96"/><path d="M45.38 28.02a1.27 1.27 0 0 1-2.09.17l-5-3c-1.45-.9-3.29-1.94-2.65-3l4.23-2.71c.64-1 .89-1.91 2.34-1l6.58 2.46c1.45.9 4.76 2 4.12 3.08z" fill="#bec0c2" opacity=".97"/><path d="M45.34 27.84a1.25 1.25 0 0 1-2 .18l-4.91-3c-1.43-.89-3.29-1.9-2.66-2.91l4.21-2.52c.63-1 .92-1.93 2.36-1l6.43 2.4c1.43.89 4.83 1.94 4.19 3z" fill="#bdbfc1" opacity=".99"/><path d="M45.31 27.66a1.23 1.23 0 0 1-2 .18l-4.83-3c-1.42-.88-3.3-1.85-2.67-2.86l4.18-2.33c.63-1 1-1.94 2.38-1.06l6.27 2.33c1.42.83 4.89 1.83 4.26 2.83z" fill="#b3b3b3"/></g><path fill="#fafafa" d="M53.1 13.29l-9.16-5.32-9.18 5.27 9.15 5.32 9.19-5.27z"/><path fill="#b3b3b3" d="M43.91 18.56l-.02 10.59 9.18-5.27.03-10.59-9.19 5.27z"/><path fill="#e6e6e6" d="M34.76 13.24l-.03 10.59 9.16 5.32.02-10.59-9.15-5.32z"/><g style="mix-blend-mode:multiply"><path d="M21.97 67.43c-1.39 2.23-2.62 2-5.74.06l-12.9-5.34c-3.14-2-4-6-2.58-8.24l7.31-19c1.39-2.23-2-1.14 1.14.82l21.16 8.71c3.14 2 .58 11.33-.81 13.56z" fill="#fefefe" opacity=".01"/><path d="M21.92 67.2c-1.38 2.21-2.61 2-5.7.06L3.47 61.94c-3.12-1.94-4-6-2.59-8.17L8.16 35c1.38-2.21-2-1.16 1.17.79l21 8.63c3.12 1.94.66 11.19-.72 13.41z" fill="#fdfdfd" opacity=".03"/><path d="M21.87 66.96c-1.37 2.2-2.6 2-5.65.07L3.54 61.75c-3.1-1.93-4-5.91-2.61-8.1l7.25-18.53c1.37-2.2-1.9-1.18 1.2.75l20.76 8.54c3.1 1.93.75 11.06-.62 13.26z" fill="#fcfcfc" opacity=".04"/><path d="M21.83 66.75c-1.36 2.19-2.6 1.95-5.6.07L3.64 61.54c-3.08-1.92-4-5.85-2.62-8l7.22-18.29c1.36-2.19-1.86-1.2 1.23.72l20.57 8.46c3.08 1.92.83 10.93-.53 13.11z" fill="#fbfbfb" opacity=".06"/><path d="M21.78 66.49c-1.35 2.17-2.59 1.93-5.55.07L3.74 61.31c-3.06-1.91-4-5.8-2.63-8l7.19-18c1.35-2.17-1.81-1.22 1.25.69l20.37 8.37c3.06 1.91.92 10.79-.44 13z" fill="#fafafa" opacity=".07"/><path d="M21.73 66.26c-1.34 2.16-2.58 1.91-5.51.07L3.83 61.1c-3-1.89-4-5.74-2.64-7.9l7.16-17.81c1.34-2.16-1.76-1.24 1.28.66l20.17 8.29c3 1.89 1 10.66-.34 12.82z" fill="#f9f9f9" opacity=".09"/><path d="M21.69 66.02c-1.34 2.14-2.57 1.89-5.46.08L3.94 60.89c-3-1.88-4-5.69-2.66-7.83l7.13-17.57c1.34-2.14-1.71-1.26 1.31.63l20 8.2c3 1.88 1.08 10.52-.25 12.67z" fill="#f8f8f9" opacity=".1"/><path d="M21.64 65.75c-1.33 2.13-2.56 1.87-5.41.08L4.04 60.64c-3-1.87-4-5.63-2.67-7.76l7.1-17.29c1.33-2.13-1.66-1.28 1.34.59l19.78 8.11c3 1.87 1.17 10.39-.16 12.52z" fill="#f7f7f8" opacity=".12"/><path d="M21.59 65.55c-1.32 2.12-2.55 1.86-5.36.08L4.14 60.47c-3-1.86-4-5.58-2.68-7.69l7.07-17.09c1.32-2.11-1.61-1.3 1.37.56l19.59 8c3 1.86 1.25 10.26-.06 12.37z" fill="#f6f6f7" opacity=".13"/><path d="M21.55 65.32c-1.31 2.1-2.55 1.84-5.32.08l-12-5.14c-3-1.84-4-5.52-2.69-7.63l7-16.85c1.31-2.1-1.57-1.32 1.4.53l19.39 7.94c3 1.84 1.34 10.12 0 12.22z" fill="#f5f5f6" opacity=".15"/><path d="M21.47 65.08c-1.3 2.09-2.54 1.82-5.27.09L4.35 60.05c-2.94-1.83-4-5.47-2.7-7.56l7-16.61c1.3-2.09-1.52-1.34 1.42.5l19.19 7.86c2.94 1.83 1.42 10 .12 12.08z" fill="#f4f4f5" opacity=".16"/><path d="M21.47 64.85c-1.29 2.07-2.53 1.8-5.22.09l-11.78-5.1c-2.92-1.82-4-5.42-2.72-7.49l7-16.37c1.29-2.07-1.47-1.36 1.45.46l19 7.77c2.92 1.82 1.51 9.85.22 11.93z" fill="#f3f4f4" opacity=".18"/><path d="M21.41 64.62c-1.28 2.06-2.52 1.78-5.17.09L4.56 59.64c-2.9-1.81-4-5.36-2.73-7.42l7-16.13c1.28-2.06-1.42-1.38 1.48.43l18.8 7.69c2.9 1.81 1.59 9.72.31 11.78z" fill="#f2f3f3" opacity=".19"/><path d="M21.36 64.38c-1.27 2-2.51 1.76-5.13.09L4.65 59.42c-2.88-1.79-4-5.31-2.74-7.35l6.93-15.9c1.27-2-1.37-1.4 1.51.4l18.6 7.6c2.88 1.79 1.68 9.59.4 11.63z" fill="#f1f2f2" opacity=".21"/><path d="M21.32 64.15c-1.27 2-2.5 1.74-5.08.1l-11.48-5C1.9 57.47.76 54 2.01 51.97l6.9-15.66c1.27-2-1.32-1.42 1.54.37l18.41 7.51c2.86 1.78 1.76 9.45.5 11.48z" fill="#f0f1f1" opacity=".22"/><path d="M21.27 63.91c-1.26 2-2.5 1.72-5 .1l-11.38-5c-2.84-1.77-4-5.2-2.77-7.21l6.87-15.42c1.26-2-1.28-1.44 1.57.33l18.21 7.43c2.84 1.77 1.85 9.32.59 11.34z" fill="#eff0f0" opacity=".24"/><path d="M21.22 63.68c-1.25 2-2.49 1.7-5 .1l-11.28-5c-2.82-1.76-4-5.14-2.78-7.15L9 36.45c1.25-2-1.23-1.46 1.59.3l18 7.34c2.82 1.76 1.93 9.18.68 11.19z" fill="#eeefef" opacity=".25"/><path d="M21.18 63.44c-1.24 2-2.48 1.69-4.94.1l-11.18-5c-2.8-1.75-4-5.09-2.79-7.08l6.81-14.94c1.24-2-1.18-1.48 1.62.27l17.77 7.3c2.8 1.75 2 9 .78 11z" fill="#edeeee" opacity=".26"/><path d="M21.13 63.21c-1.23 2-2.47 1.67-4.89.11L5.16 58.38c-2.78-1.73-4-5-2.8-7l6.78-14.7c1.23-2-1.13-1.5 1.65.24l17.62 7.17c2.78 1.73 2.1 8.92.87 10.89z" fill="#eceded" opacity=".28"/><path d="M21.08 62.97c-1.22 2-2.46 1.65-4.84.11l-11-4.92c-2.76-1.72-4-5-2.82-6.94L9.2 36.75c1.22-2-1.08-1.52 1.68.2l17.43 7.09c2.76 1.72 2.19 8.78 1 10.74z" fill="#ebecec" opacity=".29"/><path d="M21.04 62.75c-1.21 1.95-2.45 1.63-4.79.11l-10.88-4.9c-2.74-1.71-4-4.92-2.83-6.87l6.72-14.22c1.21-1.95-1-1.54 1.71.17l17.23 7c2.74 1.71 2.27 8.65 1.06 10.59z" fill="#eaebec" opacity=".31"/><path d="M20.99 62.5c-1.2 1.93-2.45 1.61-4.75.11L5.47 57.75c-2.72-1.7-4-4.87-2.84-6.8l6.69-14c1.2-1.93-1-1.56 1.74.14l17 6.91c2.72 1.7 2.35 8.51 1.15 10.45z" fill="#e9eaeb" opacity=".32"/><path d="M20.95 62.27c-1.2 1.92-2.44 1.59-4.7.12L5.57 57.53c-2.71-1.68-4.1-4.78-2.86-6.78l6.67-13.7c1.2-1.92-.94-1.58 1.76.11l16.84 6.83c2.7 1.68 2.44 8.38 1.24 10.3z" fill="#e8e9ea" opacity=".34"/><path d="M20.9 62.03c-1.19 1.9-2.43 1.57-4.65.12L5.67 57.32c-2.68-1.67-4-4.76-2.86-6.67l6.66-13.5c1.19-1.9-.89-1.6 1.79.07l16.64 6.74c2.68 1.67 2.52 8.24 1.34 10.15z" fill="#e7e8e9" opacity=".35"/><path d="M20.85 61.75c-1.18 1.89-2.42 1.55-4.6.12L5.77 57.11c-2.66-1.66-4.05-4.71-2.88-6.6l6.58-13.26c1.18-1.89-.84-1.62 1.82 0l16.45 6.66c2.66 1.66 2.61 8.11 1.43 10z" fill="#e6e7e8" opacity=".37"/><path d="M20.81 61.56c-1.17 1.88-2.41 1.53-4.56.12L5.87 56.9c-2.64-1.65-4.06-4.65-2.89-6.53l6.57-13c1.17-1.88-.8-1.64 1.85 0l16.25 6.57c2.64 1.65 2.69 8 1.52 9.85z" fill="#e5e6e7" opacity=".38"/><path d="M20.76 61.33c-1.16 1.86-2.4 1.52-4.51.13L5.97 56.69c-2.62-1.63-4.06-4.6-2.9-6.46l6.55-12.78c1.16-1.86-.75-1.66 1.88 0l16.05 6.49c2.62 1.63 2.78 7.84 1.62 9.71z" fill="#e4e5e6" opacity=".4"/><path d="M20.71 61.09c-1.15 1.85-2.39 1.5-4.46.13L6.07 56.48c-2.6-1.62-4.06-4.54-2.91-6.39l6.51-12.55c1.15-1.85-.7-1.68 1.91-.06l15.89 6.41c2.6 1.62 2.86 7.71 1.71 9.56z" fill="#e3e4e5" opacity=".41"/><path d="M20.67 60.86c-1.14 1.83-2.39 1.48-4.41.13L6.18 56.27c-2.58-1.61-4.07-4.49-2.93-6.32l6.48-12.31c1.14-1.83-.65-1.7 1.93-.09l15.66 6.31c2.58 1.61 2.95 7.58 1.8 9.41z" fill="#e2e3e4" opacity=".43"/><path d="M20.62 60.62c-1.13 1.82-2.38 1.46-4.37.13l-10-4.69c-2.56-1.6-4.07-4.44-2.94-6.25L9.8 37.75c1.13-1.82-.6-1.72 2-.12l15.46 6.23c2.56 1.6 3 7.44 1.9 9.26z" fill="#e1e2e3" opacity=".44"/><path d="M20.58 60.39c-1.13 1.81-2.37 1.44-4.32.13l-9.88-4.67c-2.54-1.58-4.07-4.38-3-6.19l6.43-11.83c1.12-1.81-.55-1.74 2-.15l15.27 6.14c2.54 1.58 3.11 7.31 2 9.11z" fill="#e0e1e2" opacity=".46"/><path d="M20.53 60.15c-1.12 1.79-2.36 1.42-4.27.14l-9.79-4.65c-2.52-1.57-4.08-4.33-3-6.12l6.4-11.59c1.12-1.79-.51-1.76 2-.19l15.07 6.06c2.52 1.57 3.2 7.17 2.08 9z" fill="#dfe0e1" opacity=".47"/><path d="M20.47 59.92c-1.11 1.78-2.35 1.4-4.22.14l-9.67-4.63c-2.5-1.56-4.08-4.27-3-6l6.39-11.4c1.11-1.78-.46-1.78 2-.22l14.88 6c2.5 1.56 3.28 7 2.18 8.82z" fill="#dedfe0" opacity=".49"/><path d="M20.47 59.68c-1.1 1.76-2.34 1.38-4.18.14l-9.57-4.6c-2.48-1.55-4.09-4.22-3-6l6.34-11.11c1.1-1.76-.41-1.8 2.08-.25l14.65 5.89c2.48 1.55 3.37 6.9 2.27 8.67z" fill="#dddee0" opacity=".5"/><path d="M20.39 59.45c-1.09 1.75-2.34 1.36-4.13.15l-9.47-4.58c-2.46-1.54-4.09-4.16-3-5.91l6.31-10.87c1.09-1.75-.36-1.82 2.1-.28l14.48 5.79c2.46 1.54 3.45 6.77 2.37 8.52z" fill="#dcdddf" opacity=".51"/><path d="M20.34 59.21c-1.08 1.74-2.33 1.35-4.08.15L6.89 54.8c-2.44-1.52-4.09-4.11-3-5.84l6.28-10.63c1.08-1.74-.31-1.84 2.13-.32l14.27 5.74c2.44 1.52 3.54 6.64 2.46 8.37z" fill="#dbddde" opacity=".53"/><path d="M20.3 58.98c-1.07 1.72-2.32 1.33-4 .15l-9.27-4.54c-2.43-1.51-4.1-4.05-3-5.77l6.25-10.39c1.07-1.72-.26-1.86 2.16-.35l14.03 5.67c2.42 1.51 3.62 6.5 2.55 8.22z" fill="#dbdcdd" opacity=".54"/><path d="M20.25 58.75c-1.06 1.71-2.31 1.31-4 .15l-9.17-4.51c-2.4-1.5-4.1-4-3-5.71l6.19-10.16c1.06-1.71-.22-1.88 2.19-.38l13.89 5.54c2.41 1.5 3.71 6.37 2.64 8.08z" fill="#dadbdc" opacity=".56"/><path d="M20.2 58.51c-1.05 1.69-2.3 1.29-3.94.16l-9.07-4.49c-2.39-1.49-4.1-3.95-3-5.64l6.19-9.91c1.05-1.69-.17-1.9 2.22-.41l13.7 5.46c2.39 1.49 3.79 6.23 2.74 7.93z" fill="#d9dadb" opacity=".57"/><path d="M20.16 58.27c-1 1.68-2.29 1.27-3.89.16l-9-4.47c-2.37-1.47-4.11-3.89-3.06-5.57l6.18-9.64c1-1.68-.12-1.92 2.25-.45l13.5 5.37c2.37 1.47 3.88 6.1 2.83 7.78z" fill="#d8d9da" opacity=".59"/><path d="M20.11 58.04c-1 1.67-2.29 1.25-3.85.16l-8.87-4.45c-2.35-1.46-4.11-3.84-3.07-5.5l6.15-9.44c1-1.66-.07-1.94 2.27-.48l13.3 5.29c2.35 1.46 4 6 2.92 7.63z" fill="#d7d8d9" opacity=".6"/><path d="M20.07 57.8c-1 1.65-2.28 1.23-3.8.16l-8.8-4.42c-2.33-1.45-4.11-3.78-3.09-5.43l6.1-9.2c1-1.65 0-2 2.3-.51l13.11 5.2c2.33 1.45 4 5.83 3 7.48z" fill="#d6d7d8" opacity=".62"/><path d="M20.02 57.57c-1 1.64-2.27 1.21-3.75.16l-8.67-4.4c-2.31-1.44-4.12-3.73-3.1-5.36l6.07-9c1-1.64 0-2 2.33-.54l12.91 5.11c2.31 1.44 4.13 5.7 3.11 7.33z" fill="#d5d6d7" opacity=".63"/><path d="M19.97 57.33c-1 1.62-2.26 1.19-3.7.17L7.7 53.12c-2.29-1.42-4.12-3.67-3.11-5.3l6-8.72c1-1.62.07-2 2.36-.58l12.72 5c2.29 1.42 4.21 5.56 3.2 7.19z" fill="#d4d5d6" opacity=".65"/><path d="M19.93 57.1c-1 1.61-2.25 1.18-3.66.17L7.8 52.91c-2.27-1.41-4.12-3.62-3.12-5.23l6-8.48c1-1.61.12-2 2.39-.61l12.52 4.94c2.27 1.41 4.3 5.43 3.3 7z" fill="#d3d4d5" opacity=".66"/><path d="M19.88 56.86c-1 1.6-2.24 1.16-3.61.17L7.9 52.75c-2.25-1.4-4.13-3.56-3.14-5.16l6-8.24c1-1.59.17-2 2.42-.64l12.29 4.81c2.25 1.4 4.38 5.29 3.39 6.89z" fill="#d2d3d4" opacity=".68"/><path d="M19.83 56.63c-1 1.58-2.23 1.14-3.56.17L8 52.49c-2.23-1.39-4.13-3.51-3.15-5.09l6-8c1-1.58.22-2.06 2.44-.67l12.13 4.77c2.23 1.39 4.47 5.16 3.49 6.74z" fill="#d1d2d3" opacity=".69"/><path d="M19.79 56.39c-1 1.57-2.23 1.12-3.51.18l-8.17-4.29c-2.21-1.37-4.13-3.45-3.16-5l5.93-7.76c1-1.57.26-2.08 2.47-.7l11.93 4.69c2.21 1.37 4.55 5 3.58 6.59z" fill="#d0d1d3" opacity=".71"/><path d="M19.74 56.16c-1 1.55-2.22 1.1-3.47.18L8.2 52.07c-2.19-1.36-4.14-3.4-3.17-5l5.9-7.52c1-1.55.31-2.1 2.5-.74l11.73 4.6c2.19 1.36 4.64 4.89 3.67 6.45z" fill="#cfd0d2" opacity=".72"/><path d="M19.69 55.92c-1 1.54-2.21 1.08-3.42.18l-8-4.25C6.1 50.5 4.13 48.5 5.09 46.97l5.87-7.28c1-1.54.36-2.12 2.53-.77l11.54 4.51c2.17 1.35 4.72 4.76 3.76 6.3z" fill="#cecfd1" opacity=".74"/><path d="M19.65 55.69c-.95 1.52-2.2 1.06-3.37.19l-7.87-4.22c-2.15-1.34-4.14-3.29-3.2-4.82l5.84-7c.95-1.52.41-2.14 2.56-.8l11.34 4.43c2.15 1.34 4.81 4.62 3.86 6.15z" fill="#cdced0" opacity=".75"/><path d="M19.6 55.45c-.94 1.51-2.19 1-3.32.19l-7.81-4.2c-2.13-1.32-4.15-3.24-3.21-4.75l5.81-6.8c.94-1.51.46-2.16 2.59-.83l11.15 4.34c2.13 1.32 4.89 4.49 4 6z" fill="#cccdcf" opacity=".76"/><path d="M19.56 55.22c-.93 1.5-2.18 1-3.28.19l-7.67-4.18c-2.14-1.31-4.14-3.18-3.22-4.68l5.78-6.56c.93-1.5.51-2.18 2.61-.87l10.95 4.26c2.11 1.31 5 4.36 4 5.85z" fill="#cbccce" opacity=".78"/><path d="M19.47 54.98c-.92 1.48-2.18 1-3.23.19l-7.57-4.16c-2.09-1.3-4.16-3.13-3.23-4.61l5.75-6.32c.92-1.48.55-2.2 2.64-.9l10.75 4.17c2.09 1.3 5.06 4.22 4.14 5.7z" fill="#cacbcd" opacity=".79"/><path d="M19.47 54.75c-.91 1.47-2.17 1-3.18.19l-7.47-4.13c-2.07-1.29-4.16-3.07-3.25-4.54l5.72-6.09c.91-1.47.6-2.22 2.67-.93l10.51 4.09c2.07 1.29 5.14 4.09 4.23 5.56z" fill="#c9cacc" opacity=".81"/><path d="M19.42 54.51c-.9 1.45-2.16 1-3.13.2L8.92 50.6c-2-1.27-4.16-3-3.26-4.47l5.69-5.85c.91-1.45.65-2.24 2.7-1l10.36 4c2 1.28 5.23 4 4.33 5.41z" fill="#c8c9cb" opacity=".82"/><path d="M19.37 54.28c-.9 1.44-2.15.95-3.09.2l-7.26-4.09c-2-1.26-4.17-3-3.27-4.4l5.66-5.61c.9-1.44.7-2.26 2.73-1l10.16 3.91c2 1.26 5.31 3.82 4.42 5.26z" fill="#c7c8ca" opacity=".84"/><path d="M19.32 54.04c-.89 1.43-2.14.93-3 .2l-7.16-4.07c-2-1.25-4.17-2.91-3.28-4.34l5.59-5.35c.89-1.43.75-2.28 2.75-1l10 3.83c2 1.25 5.4 3.69 4.51 5.11z" fill="#c6c7c9" opacity=".85"/><path d="M19.28 53.81c-.88 1.41-2.13.91-3 .21l-7.06-4c-2-1.24-4.17-2.86-3.29-4.27l5.6-5.13c.88-1.41.79-2.3 2.78-1.06l9.77 3.74c2 1.24 5.48 3.55 4.61 5z" fill="#c5c6c8" opacity=".87"/><path d="M19.23 53.57c-.87 1.4-2.13.89-2.94.21l-7-4c-2-1.23-4.18-2.8-3.31-4.2l5.57-4.89c.87-1.4.84-2.32 2.81-1.09l9.58 3.66c2 1.23 5.57 3.42 4.7 4.82z" fill="#c4c6c7" opacity=".88"/><path d="M19.19 53.34c-.86 1.38-2.12.87-2.9.21l-6.86-4c-1.95-1.21-4.18-2.75-3.32-4.13l5.54-4.67c.86-1.38.89-2.34 2.84-1.13l9.38 3.57c1.95 1.21 5.65 3.28 4.79 4.67z" fill="#c3c5c7" opacity=".9"/><path d="M19.14 53.1c-.85 1.37-2.11.86-2.85.21l-6.76-4c-1.93-1.2-4.18-2.69-3.33-4.06l5.51-4.41c.85-1.37.94-2.36 2.87-1.16l9.18 3.49c1.93 1.2 5.74 3.15 4.89 4.52z" fill="#c2c4c6" opacity=".91"/><path d="M19.09 52.87c-.84 1.36-2.1.84-2.8.21l-6.66-4c-1.91-1.19-4.19-2.64-3.34-4l5.48-4.17c.84-1.35 1-2.38 2.9-1.19l9 3.4c1.91 1.19 5.82 3 5 4.37z" fill="#c1c3c5" opacity=".93"/><path d="M19.05 52.63a1.68 1.68 0 0 1-2.75.22l-6.56-3.93C7.85 47.74 5.55 46.34 6.38 45l5.45-3.93c.84-1.34 1-2.4 2.93-1.22l8.79 3.31c1.89 1.18 5.91 2.88 5.07 4.22z" fill="#c0c2c4" opacity=".94"/><path d="M19 52.4a1.65 1.65 0 0 1-2.71.22l-6.46-3.87c-1.87-1.16-4.19-2.53-3.37-3.86l5.42-3.69c.83-1.33 1.08-2.42 3-1.26l8.59 3.19c1.87 1.16 6 2.75 5.17 4.07z" fill="#bfc1c3" opacity=".96"/><path d="M18.95 52.16a1.62 1.62 0 0 1-2.66.22l-6.36-3.89c-1.85-1.15-4.2-2.47-3.38-3.79l5.4-3.45c.82-1.31 1.13-2.44 3-1.29l8.4 3.14c1.85 1.15 6.08 2.61 5.26 3.93z" fill="#bec0c2" opacity=".97"/><path d="M18.91 51.93a1.6 1.6 0 0 1-2.61.22l-6.26-3.86c-1.83-1.14-4.2-2.42-3.39-3.72l5.37-3.21c.81-1.3 1.18-2.46 3-1.32l8.2 3.06c1.83 1.14 6.16 2.48 5.35 3.78z" fill="#bdbfc1" opacity=".99"/><path d="M18.86 51.69a1.57 1.57 0 0 1-2.56.23l-6.16-3.84c-1.81-1.13-4.21-2.37-3.41-3.65l5.34-3c.8-1.28 1.23-2.48 3-1.35l8 3c1.81 1.13 6.25 2.35 5.45 3.63z" fill="#b3b3b3"/></g><path fill="#fafafa" d="M28.8 33.36l-11.68-6.79L5.4 33.3l11.69 6.79 11.71-6.73z"/><path fill="#b3b3b3" d="M17.09 40.09l-.04 13.51 11.72-6.73.03-13.51-11.71 6.73z"/><path fill="#e6e6e6" d="M5.4 33.3l-.03 13.51 11.68 6.79.04-13.51L5.4 33.3z"/><path d="M48.72 21.58a2.85 2.85 0 0 0 2.8 1.94c2.57-.27 3.31-2.33 8.32-1.48 3.92 1.77 6.57 3.17 8.16 5.11" fill="none" stroke="#231f20" stroke-miterlimit="10" stroke-width=".14"/><g style="mix-blend-mode:multiply"><path d="M112.98 72.94c-1.38 2.22-2.62 2-5.73.06l-12.86-5.33c-3.13-2-4-6-2.58-8.23l7.29-19c1.38-2.22-2-1.13 1.14.82l21.11 8.7c3.13 2 .57 11.3-.81 13.53z" fill="#fefefe" opacity=".01"/><path d="M112.93 72.75c-1.38 2.21-2.61 2-5.68.06l-12.78-5.35c-3.11-1.94-4-5.95-2.59-8.16l7.26-18.73c1.38-2.21-1.95-1.15 1.17.78l20.92 8.61c3.11 1.94.66 11.17-.71 13.38z" fill="#fdfdfd" opacity=".03"/><path d="M112.88 72.47c-1.37 2.2-2.6 2-5.64.07l-12.66-5.29c-3.09-1.93-4-5.89-2.6-8.09l7.24-18.49c1.37-2.2-1.9-1.17 1.2.75l20.72 8.52c3.09 1.93.74 11-.62 13.23z" fill="#fcfcfc" opacity=".04"/><path d="M112.84 72.24c-1.36 2.18-2.59 1.95-5.59.07l-12.56-5.27c-3.07-1.91-4-5.84-2.61-8l7.2-18.29c1.36-2.18-1.85-1.19 1.22.72l20.53 8.44c3.07 1.91.83 10.9-.53 13.09z" fill="#fbfbfb" opacity=".06"/><path d="M112.79 72c-1.35 2.17-2.58 1.93-5.54.07l-12.46-5.24c-3.05-1.9-4-5.79-2.63-8l7.18-18c1.35-2.17-1.8-1.21 1.25.69l20.33 8.35c3.05 1.9.91 10.77-.44 12.94z" fill="#fafafa" opacity=".07"/><path d="M112.75 71.75c-1.34 2.15-2.58 1.91-5.49.07L94.9 66.6c-3-1.89-4-5.73-2.64-7.88l7.15-17.77c1.34-2.15-1.75-1.23 1.28.65l20.13 8.27c3 1.89 1 10.64-.34 12.79z" fill="#f9f9f9" opacity=".09"/><path d="M112.7 71.54c-1.33 2.14-2.57 1.89-5.45.08l-12.26-5.2c-3-1.88-4-5.68-2.65-7.81l7.13-17.54c1.33-2.14-1.71-1.25 1.31.62l19.94 8.18c3 1.88 1.08 10.5-.25 12.64z" fill="#f8f8f9" opacity=".1"/><path d="M112.65 71.3c-1.32 2.13-2.56 1.87-5.4.08L95.09 66.2c-3-1.87-4-5.62-2.66-7.75l7.04-17.29c1.32-2.12-1.66-1.27 1.34.59l19.74 8.1c3 1.86 1.17 10.37-.16 12.49z" fill="#f7f7f8" opacity=".12"/><path d="M112.61 71.07c-1.32 2.11-2.55 1.85-5.35.08L95.2 66c-3-1.85-4-5.57-2.68-7.68l7.06-17.06c1.32-2.11-1.61-1.29 1.37.56l19.54 8c3 1.85 1.25 10.24-.06 12.35z" fill="#f6f6f7" opacity=".13"/><path d="M112.56 70.83c-1.31 2.1-2.54 1.83-5.3.08l-12-5.13c-3-1.84-4-5.51-2.69-7.61l7-16.82c1.31-2.1-1.56-1.31 1.39.53l19.35 7.93c3 1.84 1.34 10.1 0 12.2z" fill="#f5f5f6" opacity=".15"/><path d="M112.47 70.6c-1.3 2.08-2.53 1.81-5.26.09l-11.86-5.11c-2.94-1.83-4-5.46-2.7-7.54l7-16.58c1.3-2.08-1.51-1.33 1.42.49l19.2 7.8c2.93 1.83 1.42 10 .12 12.05z" fill="#f4f4f5" opacity=".16"/><path d="M112.47 70.36c-1.29 2.07-2.53 1.79-5.21.09l-11.79-5.08c-2.92-1.82-4-5.41-2.71-7.47l7-16.34c1.29-2.07-1.46-1.35 1.45.46l19 7.76c2.92 1.82 1.51 9.83.22 11.9z" fill="#f3f4f4" opacity=".18"/><path d="M112.47 70.13c-1.28 2.05-2.52 1.78-5.16.09l-11.66-5.06c-2.9-1.8-4-5.35-2.72-7.4l6.94-16.1c1.28-2.05-1.42-1.37 1.48.43l18.71 7.66c2.9 1.8 1.59 9.7.31 11.75z" fill="#f2f3f3" opacity=".19"/><path d="M112.37 69.89c-1.27 2-2.51 1.76-5.11.09l-11.56-5c-2.88-1.79-4-5.3-2.74-7.34l6.92-15.89c1.27-2-1.37-1.39 1.51.4l18.56 7.6c2.87 1.79 1.67 9.57.4 11.61z" fill="#f1f2f2" opacity=".21"/><path d="M112.33 69.66c-1.26 2-2.5 1.74-5.07.1l-11.46-5c-2.86-1.78-4-5.24-2.75-7.27l6.88-15.62c1.26-2-1.32-1.41 1.54.36l18.37 7.5c2.86 1.78 1.76 9.43.5 11.46z" fill="#f0f1f1" opacity=".22"/><path d="M112.28 69.43c-1.25 2-2.49 1.72-5 .1l-11.36-5c-2.84-1.77-4-5.19-2.76-7.2l6.85-15.38c1.25-2-1.27-1.43 1.56.33l18.17 7.41c2.84 1.77 1.84 9.3.59 11.31z" fill="#eff0f0" opacity=".24"/><path d="M112.24 69.19c-1.24 2-2.48 1.7-5 .1l-11.26-5c-2.82-1.75-4-5.13-2.77-7.13l6.82-15.15c1.24-2-1.22-1.45 1.59.3l18 7.33c2.82 1.75 1.93 9.16.68 11.16z" fill="#eeefef" opacity=".25"/><path d="M112.19 68.96c-1.24 2-2.47 1.68-4.93.1l-11.16-5c-2.8-1.74-4-5.08-2.79-7.06l6.79-14.91c1.24-2-1.18-1.47 1.62.27l17.75 7.29c2.8 1.74 2 9 .78 11z" fill="#edeeee" opacity=".26"/><path d="M112.14 68.75c-1.23 2-2.47 1.66-4.88.11L96.2 63.93c-2.78-1.73-4-5-2.8-7l6.77-14.67c1.23-2-1.13-1.5 1.65.23l17.59 7.16c2.78 1.73 2.1 8.9.87 10.87z" fill="#eceded" opacity=".28"/><path d="M112.1 68.49c-1.22 2-2.46 1.64-4.83.11l-11-4.91c-2.76-1.72-4-5-2.81-6.93l6.74-14.43c1.22-2-1.08-1.51 1.68.2l17.39 7.07c2.76 1.72 2.18 8.76 1 10.72z" fill="#ebecec" opacity=".29"/><path d="M112.05 68.25c-1.21 1.94-2.45 1.63-4.79.11L96.4 63.48c-2.74-1.71-4-4.92-2.82-6.86l6.71-14.19c1.21-1.94-1-1.53 1.71.17l17.19 7c2.74 1.71 2.26 8.63 1.05 10.57z" fill="#eaebec" opacity=".31"/><path d="M112.01 68.02c-1.2 1.93-2.44 1.61-4.74.11l-10.8-4.86c-2.72-1.69-4-4.86-2.83-6.79l6.68-14c1.2-1.93-1-1.55 1.73.14l17 6.9c2.72 1.69 2.35 8.5 1.15 10.42z" fill="#e9eaeb" opacity=".32"/><path d="M111.96 67.75c-1.19 1.92-2.43 1.59-4.69.12l-10.66-4.84c-2.7-1.68-4-4.81-2.85-6.72l6.65-13.71c1.19-1.91-.94-1.57 1.76.11l16.8 6.81c2.7 1.68 2.43 8.36 1.24 10.28z" fill="#e8e9ea" opacity=".34"/><path d="M111.91 67.55c-1.18 1.9-2.42 1.57-4.64.12l-10.56-4.82c-2.68-1.67-4-4.75-2.86-6.65l6.62-13.45c1.18-1.9-.89-1.59 1.79.07l16.61 6.73c2.68 1.67 2.52 8.23 1.34 10.13z" fill="#e7e8e9" opacity=".35"/><path d="M111.87 67.32c-1.18 1.89-2.42 1.55-4.59.12l-10.46-4.8c-2.66-1.66-4-4.7-2.87-6.58l6.59-13.24c1.18-1.89-.84-1.61 1.82 0l16.41 6.64c2.66 1.66 2.6 8.09 1.43 10z" fill="#e6e7e8" opacity=".37"/><path d="M111.82 67.08c-1.17 1.87-2.41 1.53-4.55.12l-10.36-4.77c-2.64-1.64-4-4.64-2.88-6.52l6.56-13c1.17-1.87-.79-1.63 1.85 0l16.21 6.56c2.64 1.64 2.69 8 1.52 9.83z" fill="#e5e6e7" opacity=".38"/><path d="M111.77 66.85c-1.16 1.86-2.4 1.51-4.5.13l-10.26-4.75c-2.62-1.63-4.05-4.59-2.89-6.45l6.53-12.76c1.16-1.86-.74-1.66 1.87 0l16 6.47c2.62 1.63 2.77 7.83 1.61 9.69z" fill="#e4e5e6" opacity=".4"/><path d="M111.73 66.61c-1.15 1.85-2.39 1.49-4.45.13l-10.16-4.73c-2.6-1.62-4.05-4.54-2.91-6.38l6.5-12.52c1.15-1.84-.7-1.68 1.9-.06l15.86 6.39c2.6 1.62 2.86 7.69 1.71 9.54z" fill="#e3e4e5" opacity=".41"/><path d="M111.68 66.38c-1.14 1.83-2.38 1.48-4.4.13L97.22 61.8c-2.58-1.61-4.06-4.48-2.92-6.31l6.47-12.28c1.14-1.83-.65-1.7 1.93-.09l15.63 6.3c2.58 1.61 2.94 7.56 1.8 9.39z" fill="#e2e3e4" opacity=".43"/><path d="M111.64 66.14c-1.13 1.82-2.37 1.46-4.36.13l-10-4.68c-2.56-1.59-4.06-4.43-2.93-6.24l6.44-12c1.13-1.82-.6-1.71 2-.12l15.43 6.22c2.56 1.59 3 7.42 1.89 9.24z" fill="#e1e2e3" opacity=".44"/><path d="M111.59 65.91c-1.12 1.8-2.37 1.44-4.31.14l-9.81-4.67c-2.54-1.58-4.07-4.37-2.95-6.17l6.41-11.8c1.12-1.8-.55-1.73 2-.15l15.23 6.13c2.54 1.58 3.11 7.29 2 9.09z" fill="#e0e1e2" opacity=".46"/><path d="M111.54 65.67c-1.11 1.79-2.36 1.42-4.26.14l-9.76-4.64c-2.52-1.57-4.07-4.32-3-6.11l6.38-11.56c1.11-1.79-.5-1.75 2-.19l15 6c2.52 1.57 3.19 7.16 2.08 8.95z" fill="#dfe0e1" opacity=".47"/><path d="M111.47 65.44c-1.1 1.78-2.35 1.4-4.21.14l-9.65-4.62c-2.5-1.56-4.07-4.26-3-6l6.35-11.33c1.1-1.77-.46-1.77 2-.22l14.84 6c2.5 1.56 3.28 7 2.17 8.8z" fill="#dedfe0" opacity=".49"/><path d="M111.47 65.21c-1.1 1.76-2.34 1.38-4.17.14l-9.57-4.6c-2.48-1.54-4.08-4.21-3-6l6.32-11.09c1.1-1.76-.41-1.79 2.07-.25l14.65 5.87c2.48 1.54 3.36 6.89 2.27 8.65z" fill="#dddee0" opacity=".5"/><path d="M111.4 64.97c-1.09 1.75-2.33 1.36-4.12.15l-9.46-4.57c-2.46-1.53-4.08-4.15-3-5.9l6.31-10.9c1.09-1.75-.36-1.81 2.1-.28l14.45 5.79c2.46 1.53 3.45 6.76 2.36 8.5z" fill="#dcdddf" opacity=".51"/><path d="M111.36 64.75c-1.08 1.73-2.32 1.34-4.07.15l-9.36-4.55c-2.44-1.52-4.08-4.1-3-5.83l6.27-10.61c1.08-1.73-.31-1.83 2.13-.32l14.26 5.7c2.44 1.52 3.53 6.62 2.45 8.35z" fill="#dbddde" opacity=".53"/><path d="M111.31 64.5c-1.07 1.72-2.31 1.32-4 .15l-9.26-4.53c-2.42-1.51-4.09-4-3-5.76l6.24-10.37c1.07-1.72-.27-1.86 2.16-.35l14.02 5.62c2.42 1.51 3.62 6.49 2.54 8.21z" fill="#dbdcdd" opacity=".54"/><path d="M111.26 64.27c-1.06 1.7-2.31 1.31-4 .15l-9.15-4.5c-2.4-1.5-4.09-4-3-5.69l6.21-10.13c1.06-1.7-.21-1.87 2.19-.38l13.87 5.53c2.4 1.5 3.7 6.35 2.64 8.06z" fill="#dadbdc" opacity=".56"/><path d="M111.22 64.03c-1.05 1.69-2.3 1.29-3.93.16l-9.06-4.44c-2.38-1.48-4.09-3.94-3-5.63l6.18-9.89c1.05-1.69-.17-1.9 2.21-.41l13.67 5.45c2.38 1.48 3.79 6.22 2.73 7.91z" fill="#d9dadb" opacity=".57"/><path d="M111.17 63.75c-1 1.68-2.29 1.27-3.88.16l-9-4.46c-2.36-1.47-4.1-3.88-3.05-5.56l6.15-9.65c1-1.68-.12-1.91 2.24-.44l13.47 5.36c2.36 1.47 3.87 6.09 2.83 7.76z" fill="#d8d9da" opacity=".59"/><path d="M111.13 63.56c-1 1.66-2.28 1.25-3.84.16l-8.82-4.43c-2.34-1.46-4.1-3.83-3.07-5.49l6.12-9.42c1-1.66-.07-1.94 2.27-.48l13.28 5.27c2.34 1.46 4 6 2.92 7.61z" fill="#d7d8d9" opacity=".6"/><path d="M111.08 63.33c-1 1.65-2.27 1.23-3.79.16l-8.75-4.41c-2.32-1.45-4.11-3.77-3.08-5.42l6.09-9.18c1-1.65 0-2 2.3-.51l13.08 5.19c2.32 1.45 4 5.82 3 7.47z" fill="#d6d7d8" opacity=".62"/><path d="M111.03 63.1c-1 1.63-2.27 1.21-3.74.17l-8.65-4.39c-2.3-1.43-4.11-3.72-3.09-5.35l6.06-8.94c1-1.63 0-2 2.33-.54l12.88 5.1c2.3 1.43 4.12 5.69 3.11 7.32z" fill="#d5d6d7" opacity=".63"/><path d="M110.99 62.86c-1 1.62-2.26 1.19-3.7.17l-8.55-4.37c-2.28-1.42-4.11-3.66-3.1-5.28l6-8.7c1-1.62.07-2 2.35-.57l12.69 5c2.28 1.42 4.21 5.55 3.2 7.17z" fill="#d4d5d6" opacity=".65"/><path d="M110.94 62.63c-1 1.61-2.25 1.17-3.65.17l-8.45-4.35c-2.26-1.41-4.12-3.61-3.12-5.22l6-8.46c1-1.61.12-2 2.38-.61l12.49 4.93c2.26 1.41 4.29 5.42 3.29 7z" fill="#d3d4d5" opacity=".66"/><path d="M110.9 62.39c-1 1.59-2.24 1.16-3.6.17l-8.35-4.33c-2.24-1.4-4.12-3.56-3.13-5.15l6-8.22c1-1.59.17-2 2.41-.64l12.3 4.85c2.24 1.4 4.38 5.28 3.38 6.88z" fill="#d2d3d4" opacity=".68"/><path d="M110.85 62.16c-1 1.58-2.23 1.14-3.55.18l-8.25-4.3c-2.22-1.39-4.12-3.5-3.14-5.08l5.94-8c1-1.58.21-2.06 2.44-.67l12.1 4.76c2.22 1.38 4.46 5.15 3.48 6.73z" fill="#d1d2d3" opacity=".69"/><path d="M110.8 61.92c-1 1.56-2.22 1.12-3.5.18l-8.15-4.28c-2.2-1.37-4.13-3.45-3.15-5l5.91-7.74c1-1.56.26-2.08 2.47-.7l11.91 4.68c2.2 1.37 4.54 5 3.57 6.58z" fill="#d0d1d3" opacity=".71"/><path d="M110.76 61.69c-1 1.55-2.21 1.1-3.46.18l-8.05-4.26c-2.18-1.36-4.13-3.39-3.16-4.94l5.88-7.51c1-1.55.31-2.1 2.49-.74l11.71 4.59c2.18 1.36 4.63 4.88 3.66 6.43z" fill="#cfd0d2" opacity=".72"/><path d="M110.71 61.45c-1 1.54-2.2 1.08-3.41.18l-8-4.24c-2.16-1.35-4.13-3.34-3.18-4.87l5.85-7.27c1-1.54.36-2.11 2.52-.77l11.51 4.5c2.16 1.35 4.71 4.75 3.76 6.28z" fill="#cecfd1" opacity=".74"/><path d="M110.66 61.22c-.95 1.52-2.2 1.06-3.36.19l-7.83-4.22c-2.14-1.34-4.13-3.29-3.19-4.81l5.82-7c.95-1.52.41-2.14 2.55-.8L115.97 49c2.14 1.33 4.8 4.62 3.85 6.14z" fill="#cdced0" opacity=".75"/><path d="M110.62 60.99c-.94 1.51-2.19 1-3.32.19l-7.75-4.19c-2.12-1.32-4.14-3.23-3.2-4.74l5.79-6.79c.94-1.51.46-2.16 2.58-.83l11.12 4.33c2.12 1.32 4.88 4.48 3.94 6z" fill="#cccdcf" opacity=".76"/><path d="M110.57 60.75c-.93 1.49-2.18 1-3.27.19l-7.65-4.19c-2.1-1.31-4.14-3.18-3.21-4.67l5.77-6.55c.93-1.49.5-2.17 2.61-.87l10.92 4.25c2.1 1.31 5 4.35 4 5.84z" fill="#cbccce" opacity=".78"/><path d="M110.52 60.52c-.92 1.48-2.17 1-3.22.19l-7.55-4.15c-2.08-1.3-4.15-3.12-3.22-4.6l5.73-6.31c.92-1.48.55-2.2 2.64-.9l10.73 4.16c2.08 1.3 5.05 4.21 4.13 5.69z" fill="#cacbcd" opacity=".79"/><path d="M110.47 60.28c-.91 1.47-2.16 1-3.17.19l-7.45-4.12c-2.06-1.29-4.15-3.07-3.24-4.53l5.71-6.07c.91-1.46.6-2.21 2.67-.93l10.53 4.08c2.06 1.29 5.13 4.08 4.22 5.54z" fill="#c9cacc" opacity=".81"/><path d="M110.47 60.05c-.9 1.45-2.16 1-3.13.2l-7.35-4.1c-2-1.27-4.15-3-3.25-4.46l5.68-5.83c.9-1.45.65-2.24 2.69-1l10.34 4c2 1.27 5.22 3.95 4.32 5.4z" fill="#c8c9cb" opacity=".82"/><path d="M110.39 59.81c-.89 1.44-2.15.95-3.08.2l-7.25-4.08c-2-1.26-4.16-3-3.26-4.39l5.65-5.6c.89-1.44.7-2.26 2.72-1l10.14 3.91c2 1.26 5.3 3.81 4.41 5.25z" fill="#c7c8ca" opacity=".84"/><path d="M110.34 59.58c-.88 1.42-2.14.93-3 .2l-7.18-4.03c-2-1.25-4.16-2.9-3.28-4.33l5.62-5.36c.88-1.42.74-2.27 2.75-1l9.95 3.82c2 1.25 5.39 3.68 4.5 5.1z" fill="#c6c7c9" opacity=".85"/><path d="M110.29 59.34c-.88 1.41-2.13.91-3 .21l-7.05-4c-2-1.24-4.16-2.85-3.29-4.26l5.59-5.12c.88-1.41.79-2.29 2.78-1.06l9.75 3.73c2 1.24 5.47 3.55 4.6 5z" fill="#c5c6c8" opacity=".87"/><path d="M110.25 59.11c-.87 1.4-2.12.89-2.94.21l-6.95-4c-2-1.23-4.17-2.8-3.3-4.19l5.56-4.88c.87-1.39.84-2.32 2.81-1.09l9.55 3.65c2 1.22 5.56 3.41 4.69 4.81z" fill="#c4c6c7" opacity=".88"/><path d="M110.2 58.88c-.86 1.38-2.11.87-2.89.21l-6.85-4c-1.94-1.21-4.17-2.74-3.31-4.12l5.53-4.64c.86-1.38.89-2.33 2.84-1.12l9.35 3.54c1.95 1.21 5.64 3.28 4.78 4.66z" fill="#c3c5c7" opacity=".9"/><path d="M110.16 58.64c-.85 1.37-2.11.85-2.84.21l-6.75-4c-1.92-1.2-4.18-2.69-3.32-4.05l5.5-4.4c.85-1.37.94-2.36 2.86-1.16l9.16 3.51c1.93 1.2 5.73 3.14 4.87 4.51z" fill="#c2c4c6" opacity=".91"/><path d="M110.11 58.41c-.84 1.35-2.1.84-2.79.21l-6.65-3.94c-1.9-1.19-4.18-2.63-3.34-4l5.47-4.16c.84-1.35 1-2.37 2.89-1.19l9 3.39c1.9 1.19 5.81 3 5 4.36z" fill="#c1c3c5" opacity=".93"/><path d="M110.06 58.17a1.67 1.67 0 0 1-2.75.22l-6.55-3.92c-1.88-1.18-4.18-2.58-3.35-3.92l5.44-3.92c.83-1.34 1-2.4 2.92-1.22l8.77 3.31c1.89 1.18 5.9 2.88 5.06 4.21z" fill="#c0c2c4" opacity=".94"/><path d="M110.02 57.94a1.65 1.65 0 0 1-2.7.22l-6.45-3.9c-1.87-1.16-4.19-2.52-3.36-3.85l5.41-3.69c.82-1.32 1.08-2.42 2.95-1.25l8.57 3.22c1.87 1.16 6 2.74 5.16 4.07z" fill="#bfc1c3" opacity=".96"/><path d="M109.97 57.75a1.62 1.62 0 0 1-2.65.22l-6.35-3.88c-1.85-1.15-4.19-2.47-3.37-3.78l5.38-3.45c.81-1.31 1.13-2.44 3-1.29l8.38 3.14c1.85 1.15 6.06 2.61 5.25 3.92z" fill="#bec0c2" opacity=".97"/><path d="M109.92 57.47a1.59 1.59 0 0 1-2.61.22l-6.25-3.86c-1.82-1.14-4.19-2.42-3.38-3.71l5.35-3.21c.8-1.3 1.18-2.45 3-1.32l8.18 3.05c1.83 1.14 6.15 2.48 5.34 3.77z" fill="#bdbfc1" opacity=".99"/><path d="M109.88 57.23a1.56 1.56 0 0 1-2.56.23l-6.15-3.83c-1.8-1.13-4.2-2.36-3.4-3.64l5.32-3c.8-1.28 1.22-2.48 3-1.35l8 3c1.81 1.13 6.23 2.34 5.44 3.62z" fill="#b3b3b3"/></g><path d="M23.22 43.41a13 13 0 0 0 8.1 1.34c9.75-1.36 9.06-10.41 16.85-12.33 3.88-.72 4-.24 4-.24" fill="none" stroke="#231f20" stroke-miterlimit="10" stroke-width=".2"/><path fill="#fafafa" d="M119.8 38.94l-11.66-6.77-11.69 6.71 11.66 6.77 11.69-6.71z"/><path fill="#b3b3b3" d="M108.11 45.65l-.03 13.49 11.69-6.72.03-13.48-11.69 6.71z"/><path fill="#e6e6e6" d="M96.45 38.88l-.04 13.48 11.67 6.78.03-13.49-11.66-6.77z"/><g style="mix-blend-mode:multiply"><path d="M73.06 69.75c-1.77 2.84-3.34 2.56-7.32.08L49.3 63.01c-4-2.49-5.06-7.67-3.29-10.51l9.32-24.24c1.77-2.84-2.55-1.45 1.45 1l27 11.11c4 2.49.74 14.45-1 17.29z" fill="#fefefe" opacity=".01"/><path d="M73 69.46c-1.76 2.82-3.33 2.53-7.26.08l-16.27-6.79c-4-2.48-5.07-7.6-3.31-10.42l9.28-23.93c1.76-2.82-2.49-1.48 1.49 1l26.73 11c4 2.48.85 14.28-.91 17.1z" fill="#fdfdfd" opacity=".03"/><path d="M72.94 69.16c-1.75 2.81-3.32 2.51-7.2.08l-16.18-6.76c-4-2.46-5.07-7.53-3.32-10.33l9.23-23.63c1.75-2.81-2.43-1.5 1.53 1l26.47 10.86c4 2.46 1 14.11-.79 16.91z" fill="#fcfcfc" opacity=".04"/><path d="M72.88 68.86c-1.74 2.79-3.31 2.49-7.14.09l-16.05-6.73c-3.93-2.44-5.08-7.46-3.34-10.25l9.21-23.32c1.74-2.79-2.37-1.53 1.56.92l26.23 10.78c3.92 2.45 1.06 13.93-.68 16.72z" fill="#fbfbfb" opacity=".06"/><path d="M72.82 68.56c-1.73 2.77-3.3 2.46-7.08.09l-15.93-6.7c-3.9-2.43-5.08-7.39-3.36-10.16l9.17-23c1.73-2.77-2.3-1.55 1.6.88l26 10.68c3.9 2.43 1.17 13.76-.56 16.53z" fill="#fafafa" opacity=".07"/><path d="M72.76 68.26c-1.71 2.75-3.29 2.44-7 .09l-15.8-6.67c-3.88-2.41-5.08-7.32-3.37-10.07l9.13-22.71c1.75-2.76-2.25-1.58 1.62.85L83.08 40.3c3.87 2.41 1.28 13.59-.44 16.34z" fill="#f9f9f9" opacity=".09"/><path d="M72.7 67.96c-1.7 2.73-3.28 2.41-7 .1l-15.67-6.65c-3.85-2.4-5.09-7.25-3.39-10L55.74 29c1.7-2.73-2.18-1.6 1.67.8l25.53 10.47c3.85 2.4 1.38 13.42-.32 16.15z" fill="#f8f8f9" opacity=".1"/><path d="M72.65 67.66c-1.69 2.71-3.27 2.39-6.9.1l-15.54-6.62c-3.83-2.38-5.09-7.18-3.4-9.9l9.06-22.1c1.69-2.72-2.12-1.63 1.71.76L82.8 40.25c3.82 2.38 1.49 13.25-.2 16z" fill="#f7f7f8" opacity=".12"/><path d="M72.59 67.36c-1.68 2.7-3.26 2.36-6.84.1l-15.41-6.59c-3.8-2.37-5.1-7.11-3.42-9.81l9-21.8c1.68-2.7-2.06-1.65 1.74.71l25 10.24c3.8 2.37 1.6 13.08-.08 15.78z" fill="#f6f6f7" opacity=".13"/><path d="M72.53 67.06c-1.67 2.68-3.25 2.34-6.78.11l-15.28-6.56c-3.78-2.35-5.1-7-3.43-9.72l9-21.49c1.67-2.68-2-1.68 1.78.67l24.7 10.13c3.77 2.35 1.71 12.91 0 15.59z" fill="#f5f5f6" opacity=".15"/><path d="M72.47 66.75c-1.66 2.66-3.24 2.32-6.72.11l-15.16-6.53c-3.75-2.33-5.11-7-3.45-9.63l8.95-21.19c1.66-2.66-1.94-1.71 1.82.63l24.48 10c3.75 2.34 1.82 12.74.16 15.4z" fill="#f4f4f5" opacity=".16"/><path d="M72.41 66.46c-1.65 2.64-3.23 2.29-6.66.11l-15-6.5c-3.73-2.32-5.11-6.9-3.47-9.55l8.89-20.88c1.65-2.64-1.87-1.73 1.85.59l24.23 9.91c3.72 2.32 1.92 12.57.28 15.21z" fill="#f3f4f4" opacity=".18"/><path d="M72.35 66.16c-1.64 2.63-3.21 2.27-6.6.12l-14.9-6.47c-3.7-2.3-5.12-6.84-3.48-9.46l8.87-20.6c1.64-2.63-1.81-1.76 1.89.55l24 9.8c3.7 2.3 2 12.4.4 15z" fill="#f2f3f3" opacity=".19"/><path d="M72.29 65.86c-1.62 2.61-3.2 2.24-6.54.12l-14.77-6.45c-3.67-2.29-5.12-6.77-3.5-9.37l8.83-20.27c1.62-2.61-1.75-1.78 1.92.51l23.74 9.69c3.67 2.29 2.14 12.22.51 14.83z" fill="#f1f2f2" opacity=".21"/><path d="M72.23 65.56c-1.61 2.59-3.19 2.22-6.48.12l-14.64-6.42c-3.65-2.27-5.12-6.7-3.51-9.29l8.8-20c1.61-2.59-1.69-1.81 2 .47l23.48 9.58c3.59 2.32 2.2 12.1.59 14.73z" fill="#f0f1f1" opacity=".22"/><path d="M72.17 65.26c-1.6 2.57-3.18 2.2-6.42.13L51.23 59c-3.62-2.26-5.13-6.63-3.53-9.2l8.77-19.66c1.6-2.57-1.63-1.83 2 .42l23.23 9.47c3.62 2.26 2.36 11.88.75 14.45z" fill="#eff0f0" opacity=".24"/><path d="M72.11 64.96c-1.59 2.55-3.17 2.17-6.36.13l-14.38-6.34c-3.6-2.24-5.13-6.56-3.54-9.11l8.72-19.36c1.59-2.55-1.57-1.86 2 .38l23 9.36c3.6 2.24 2.46 11.71.87 14.27z" fill="#eeefef" opacity=".25"/><path d="M72.05 64.66c-1.58 2.54-3.16 2.15-6.29.13l-14.29-6.33c-3.57-2.22-5.14-6.49-3.56-9l8.68-19.05c1.58-2.54-1.51-1.88 2.07.34L81.39 40c3.57 2.22 2.57 11.54 1 14.08z" fill="#edeeee" opacity=".26"/><path d="M72 64.36c-1.57 2.52-3.15 2.12-6.23.13l-14.13-6.3c-3.55-2.21-5.14-6.42-3.57-8.94l8.65-18.75c1.57-2.52-1.44-1.91 2.1.3l22.48 9.15c3.54 2.21 2.68 11.37 1.11 13.89z" fill="#eceded" opacity=".28"/><path d="M71.94 64.06c-1.56 2.5-3.14 2.1-6.17.14l-14-6.27c-3.52-2.19-5.15-6.35-3.59-8.85l8.61-18.44c1.56-2.5-1.38-1.94 2.14.26l22.23 9c3.52 2.19 2.79 11.2 1.23 13.7z" fill="#ebecec" opacity=".29"/><path d="M71.88 63.75c-1.55 2.48-3.13 2.08-6.11.14l-13.88-6.25c-3.5-2.18-5.15-6.28-3.61-8.76l8.57-18.13c1.55-2.48-1.32-2 2.18.22l22 8.93c3.5 2.18 2.89 11 1.35 13.51z" fill="#eaebec" opacity=".31"/><path d="M71.82 63.47c-1.53 2.46-3.12 2.05-6.05.14l-13.75-6.22c-3.47-2.16-5.16-6.21-3.62-8.67l8.53-17.83c1.53-2.46-1.26-2 2.21.18l21.73 8.81c3.47 2.16 3 10.86 1.47 13.32z" fill="#e9eaeb" opacity=".32"/><path d="M71.76 63.17c-1.52 2.45-3.11 2-6 .15l-13.62-6.19c-3.45-2.14-5.16-6.14-3.64-8.59L57 31.02c1.52-2.45-1.2-2 2.25.13l21.47 8.71c3.45 2.15 3.11 10.69 1.59 13.13z" fill="#e8e9ea" opacity=".34"/><path d="M71.7 62.87c-1.51 2.43-3.1 2-5.93.15l-13.49-6.16c-3.42-2.13-5.16-6.07-3.65-8.5l8.46-17.22c1.51-2.43-1.14-2 2.28.09l21.22 8.6c3.42 2.13 3.22 10.52 1.71 12.94z" fill="#e7e8e9" opacity=".35"/><path d="M71.64 62.57c-1.5 2.41-3.09 2-5.87.15l-13.36-6.13c-3.4-2.11-5.17-6-3.67-8.41l8.42-16.91c1.5-2.41-1.08-2.06 2.32.05l21 8.49c3.39 2.11 3.32 10.34 1.82 12.75z" fill="#e6e7e8" opacity=".37"/><path d="M71.58 62.27c-1.49 2.39-3.08 2-5.81.16l-13.23-6.1c-3.37-2.1-5.17-5.93-3.68-8.32l8.38-16.61c1.49-2.39-1-2.09 2.36 0l20.72 8.35c3.37 2.1 3.43 10.17 1.94 12.56z" fill="#e5e6e7" opacity=".38"/><path d="M71.52 61.97c-1.48 2.37-3.06 1.93-5.75.16l-13.1-6.08c-3.35-2.08-5.18-5.86-3.7-8.24l8.35-16.3c1.48-2.37-1-2.11 2.39 0l20.47 8.24c3.34 2.08 3.54 10 2.06 12.38z" fill="#e4e5e6" opacity=".4"/><path d="M71.47 61.67c-1.47 2.36-3.05 1.91-5.69.16l-13-6c-3.32-2.07-5.18-5.79-3.72-8.15l8.31-16c1.47-2.36-.89-2.14 2.43-.07l20.24 8.14c3.32 2.07 3.65 9.83 2.18 12.19z" fill="#e3e4e5" opacity=".41"/><path d="M71.41 61.37c-1.46 2.34-3 1.88-5.63.17l-12.85-6c-3.3-2.05-5.19-5.73-3.73-8.06l8.27-15.73c1.46-2.34-.83-2.17 2.47-.11l20 8.05c3.29 2.05 3.76 9.66 2.3 12z" fill="#e2e3e4" opacity=".43"/><path d="M71.35 61.07c-1.44 2.32-3 1.86-5.57.17l-12.72-6c-3.27-2-5.19-5.66-3.75-8l8.23-15.39c1.45-2.32-.77-2.19 2.5-.15l19.72 7.94c3.27 2 3.86 9.49 2.42 11.81z" fill="#e1e2e3" opacity=".44"/><path d="M71.29 60.75c-1.43 2.3-3 1.83-5.51.17l-12.59-6c-3.25-2-5.2-5.59-3.76-7.89l8.2-15.08c1.43-2.3-.71-2.22 2.54-.2l19.46 7.9c3.24 2 4 9.32 2.54 11.62z" fill="#e0e1e2" opacity=".46"/><path d="M71.23 60.47c-1.42 2.28-3 1.81-5.45.18l-12.47-5.9c-3.22-2-5.2-5.52-3.78-7.8l8.16-14.78c1.42-2.28-.65-2.24 2.57-.24l19.21 7.69c3.22 2 4.08 9.15 2.66 11.43z" fill="#dfe0e1" opacity=".47"/><path d="M71.17 60.17c-1.41 2.27-3 1.79-5.39.18l-12.31-5.9c-3.19-2-5.21-5.45-3.79-7.71l8.09-14.48c1.41-2.27-.58-2.27 2.61-.28l19 7.61c3.19 2 4.19 9 2.78 11.24z" fill="#dedfe0" opacity=".49"/><path d="M71.11 59.87c-1.4 2.25-3 1.76-5.33.18l-12.21-5.87c-3.17-2-5.21-5.38-3.81-7.62l8.08-14.17c1.4-2.25-.52-2.29 2.65-.32l18.72 7.51c3.17 2 4.3 8.81 2.9 11.05z" fill="#dddee0" opacity=".5"/><path d="M71.05 59.57c-1.39 2.23-3 1.74-5.27.19L53.7 53.91c-3.14-2-5.21-5.31-3.83-7.54l8-13.86c1.39-2.23-.46-2.32 2.68-.36l18.52 7.4c3.14 2 4.4 8.63 3 10.87z" fill="#dcdddf" opacity=".51"/><path d="M70.99 59.27c-1.38 2.21-3 1.71-5.21.19l-12-5.82c-3.12-1.94-5.22-5.24-3.84-7.45l8-13.56c1.38-2.21-.4-2.34 2.72-.4l18.22 7.29c3.12 1.94 4.51 8.46 3.13 10.68z" fill="#dbddde" opacity=".53"/><path d="M70.93 58.97c-1.37 2.19-3 1.69-5.15.19l-11.83-5.79c-3.09-1.92-5.22-5.17-3.86-7.36l7.98-13.26c1.37-2.2-.34-2.37 2.75-.44l18 7.18c3.09 1.93 4.62 8.29 3.25 10.49z" fill="#dbdcdd" opacity=".54"/><path d="M70.87 58.67c-1.35 2.18-2.95 1.67-5.08.19l-11.7-5.76c-3.07-1.91-5.23-5.1-3.87-7.28l7.93-12.95c1.36-2.18-.28-2.4 2.79-.48l17.72 7.07c3.06 1.91 4.73 8.12 3.37 10.3z" fill="#dadbdc" opacity=".56"/><path d="M70.81 58.37c-1.34 2.16-2.94 1.64-5 .2l-11.57-5.73c-3-1.89-5.23-5-3.89-7.19l7.89-12.64c1.34-2.16-.22-2.42 2.83-.53l17.47 7c3 1.89 4.84 8 3.49 10.11z" fill="#d9dadb" opacity=".57"/><path d="M70.76 58.07c-1.33 2.14-2.93 1.62-5 .2l-11.44-5.7c-3-1.88-5.24-5-3.9-7.1l7.86-12.34c1.33-2.14-.15-2.45 2.86-.57l17.22 6.85c3 1.88 4.94 7.78 3.61 9.92z" fill="#d8d9da" opacity=".59"/><path d="M70.7 57.75c-1.32 2.12-2.92 1.59-4.9.2L54.47 52.3c-3-1.86-5.24-4.89-3.92-7l7.82-12c1.32-2.12-.09-2.47 2.9-.61l17 6.74c3 1.86 5.05 7.61 3.73 9.73z" fill="#d7d8d9" opacity=".6"/><path d="M70.64 57.47c-1.31 2.1-2.91 1.57-4.84.21l-11.19-5.65c-3-1.85-5.25-4.82-3.94-6.93l7.8-11.72c1.31-2.1 0-2.5 2.94-.65l16.72 6.63c3 1.85 5.16 7.44 3.85 9.54z" fill="#d6d7d8" opacity=".62"/><path d="M70.58 57.18c-1.3 2.09-2.89 1.54-4.78.21l-11.06-5.64c-2.94-1.83-5.25-4.75-4-6.84l7.74-11.42c1.3-2.09 0-2.52 3-.69l16.49 6.54c2.94 1.83 5.27 7.27 4 9.35z" fill="#d5d6d7" opacity=".63"/><path d="M70.47 56.88c-1.29 2.07-2.88 1.52-4.72.21L54.87 51.5c-2.92-1.81-5.25-4.68-4-6.75l7.71-11.12c1.29-2.07.09-2.55 3-.73l16.22 6.41c2.91 1.82 5.38 7.1 4.09 9.16z" fill="#d4d5d6" opacity=".65"/><path d="M70.47 56.58c-1.28 2.05-2.87 1.5-4.66.22l-10.8-5.56c-2.89-1.8-5.26-4.61-4-6.66l7.67-10.83c1.28-2.05.15-2.58 3-.77l16 6.3c2.89 1.8 5.48 6.92 4.21 9z" fill="#d3d4d5" opacity=".66"/><path d="M70.4 56.28c-1.27 2-2.86 1.47-4.6.22l-10.67-5.53c-2.87-1.78-5.26-4.54-4-6.58l7.63-10.51c1.27-2 .21-2.6 3.08-.82l15.72 6.19c2.86 1.78 5.59 6.75 4.32 8.79z" fill="#d2d3d4" opacity=".68"/><path d="M70.34 55.98c-1.25 2-2.85 1.45-4.54.22l-10.54-5.5c-2.84-1.77-5.27-4.48-4-6.49l7.59-10.2c1.26-2 .28-2.63 3.12-.86l15.47 6.09c2.84 1.77 5.7 6.58 4.44 8.6z" fill="#d1d2d3" opacity=".69"/><path d="M70.28 55.68c-1.24 2-2.84 1.42-4.48.23l-10.42-5.47c-2.81-1.75-5.27-4.41-4-6.4l7.56-9.9c1.24-2 .34-2.65 3.15-.9l15.22 6c2.81 1.75 5.81 6.41 4.56 8.41z" fill="#d0d1d3" opacity=".71"/><path d="M70.22 55.38c-1.23 2-2.83 1.4-4.42.23l-10.33-5.45c-2.79-1.74-5.28-4.34-4-6.31l7.52-9.59c1.23-2 .4-2.68 3.19-.94l15 5.87c2.79 1.74 5.91 6.24 4.68 8.22z" fill="#cfd0d2" opacity=".72"/><path d="M70.17 55.08c-1.22 2-2.82 1.38-4.36.23l-10.16-5.42c-2.76-1.72-5.28-4.27-4.06-6.23l7.48-9.29c1.22-2 .46-2.7 3.22-1l14.72 5.76c2.76 1.72 6 6.07 4.8 8z" fill="#cecfd1" opacity=".74"/><path d="M70.11 54.75c-1.21 1.94-2.81 1.35-4.3.24l-10-5.39c-2.74-1.7-5.29-4.2-4.08-6.14l7.44-9c1.21-1.94.52-2.73 3.26-1l14.44 5.67c2.74 1.71 6.13 5.9 4.92 7.84z" fill="#cdced0" opacity=".75"/><path d="M70.05 54.48c-1.2 1.92-2.8 1.33-4.24.24l-9.9-5.36c-2.71-1.69-5.29-4.13-4.09-6.05l7.41-8.68c1.2-1.93.58-2.75 3.3-1.06l14.22 5.54c2.71 1.69 6.24 5.73 5 7.65z" fill="#cccdcf" opacity=".76"/><path d="M69.99 54.18c-1.19 1.91-2.79 1.3-4.18.24l-9.78-5.33c-2.69-1.67-5.3-4.06-4.11-6l7.37-8.34c1.19-1.91.64-2.78 3.33-1.11l14 5.43c2.69 1.67 6.35 5.56 5.16 7.46z" fill="#cbccce" opacity=".78"/><path d="M69.93 53.88c-1.18 1.89-2.78 1.28-4.12.24l-9.65-5.3c-2.66-1.66-5.3-4-4.12-5.88l7.33-8.06c1.18-1.89.71-2.81 3.37-1.15l13.73 5.32c2.66 1.66 6.45 5.39 5.28 7.27z" fill="#cacbcd" opacity=".79"/><path d="M69.87 53.58c-1.17 1.87-2.77 1.26-4.06.25l-9.52-5.27c-2.64-1.64-5.3-3.92-4.14-5.79L59.47 35c1.16-1.87.77-2.83 3.4-1.19l13.46 5.21c2.64 1.64 6.56 5.21 5.39 7.09z" fill="#c9cacc" opacity=".81"/><path d="M69.81 53.28c-1.15 1.85-2.75 1.23-4 .25l-9.34-5.24c-2.61-1.63-5.31-3.85-4.15-5.7l7.26-7.46c1.15-1.85.83-2.86 3.44-1.23L76.23 39c2.61 1.63 6.67 5 5.52 6.9z" fill="#c8c9cb" opacity=".82"/><path d="M69.75 52.98c-1.14 1.83-2.74 1.21-3.94.25l-9.26-5.22c-2.59-1.61-5.31-3.78-4.17-5.62l7.22-7.15c1.14-1.84.89-2.88 3.48-1.27l13 5c2.59 1.61 6.78 4.87 5.63 6.71z" fill="#c7c8ca" opacity=".84"/><path d="M69.69 52.68c-1.13 1.82-2.73 1.18-3.88.26l-9.13-5.19c-2.56-1.59-5.32-3.71-4.19-5.53l7.18-6.84c1.13-1.82 1-2.91 3.51-1.31l12.72 4.88c2.56 1.6 6.88 4.7 5.75 6.52z" fill="#c6c7c9" opacity=".85"/><path d="M69.63 52.38c-1.12 1.8-2.72 1.16-3.82.26l-9-5.16c-2.54-1.58-5.32-3.64-4.2-5.44l7.14-6.54c1.12-1.8 1-2.93 3.55-1.35l12.46 4.77c2.54 1.58 7 4.53 5.87 6.33z" fill="#c5c6c8" opacity=".87"/><path d="M69.57 52.08c-1.11 1.78-2.71 1.14-3.76.26l-8.88-5.13c-2.51-1.56-5.33-3.57-4.22-5.35l7.11-6.23c1.11-1.78 1.07-3 3.59-1.4l12.21 4.66c2.51 1.56 7.1 4.36 6 6.14z" fill="#c4c6c7" opacity=".88"/><path d="M69.47 51.75c-1.1 1.76-2.7 1.11-3.7.27l-8.75-5.1c-2.48-1.55-5.33-3.5-4.23-5.27l7.11-5.9c1.1-1.76 1.14-3 3.62-1.44l12 4.55c2.48 1.55 7.21 4.19 6.11 6z" fill="#c3c5c7" opacity=".9"/><path d="M69.47 51.48c-1.09 1.74-2.69 1.09-3.63.27l-8.62-5.07c-2.46-1.53-5.34-3.43-4.25-5.18l7-5.62c1.09-1.75 1.2-3 3.66-1.48l11.71 4.44c2.46 1.53 7.31 4 6.23 5.76z" fill="#c2c4c6" opacity=".91"/><path d="M69.4 51.18c-1.08 1.73-2.68 1.06-3.57.27l-8.5-5c-2.43-1.52-5.34-3.36-4.26-5.09l7-5.32c1.08-1.73 1.26-3 3.69-1.52l11.46 4.33c2.43 1.52 7.42 3.85 6.35 5.57z" fill="#c1c3c5" opacity=".93"/><path d="M69.34 50.88c-1.06 1.71-2.67 1-3.51.28l-8.37-5c-2.41-1.5-5.35-3.29-4.28-5l7-5c1.06-1.71 1.32-3.06 3.73-1.56l11.16 4.15c2.41 1.5 7.53 3.68 6.47 5.39z" fill="#c0c2c4" opacity=".94"/><path d="M69.28 50.59c-1.05 1.69-2.66 1-3.45.28l-8.24-5c-2.38-1.48-5.35-3.23-4.3-4.92l6.92-4.71c1.05-1.69 1.38-3.09 3.77-1.6l11 4.12c2.38 1.49 7.64 3.51 6.59 5.2z" fill="#bfc1c3" opacity=".96"/><path d="M69.22 50.29a2.07 2.07 0 0 1-3.39.28l-8.11-5c-2.36-1.47-5.35-3.16-4.31-4.83l6.88-4.4c1-1.67 1.44-3.11 3.8-1.64l10.71 4c2.36 1.47 7.75 3.33 6.71 5z" fill="#bec0c2" opacity=".97"/><path d="M69.16 49.99a2 2 0 0 1-3.33.29l-8-4.93c-2.36-1.46-5.36-3.1-4.36-4.75l6.84-4.1c1-1.66 1.5-3.14 3.84-1.68l10.51 3.93c2.33 1.45 7.86 3.16 6.82 4.82z" fill="#bdbfc1" opacity=".99"/><path d="M69.1 49.69a2 2 0 0 1-3.27.29l-7.85-4.9c-2.31-1.44-5.36-3-4.34-4.66l6.83-3.79c1-1.64 1.57-3.16 3.87-1.73l10.21 3.79c2.31 1.44 8 3 6.94 4.63z" fill="#b3b3b3"/></g><path fill="#fafafa" d="M81.78 26.3l-14.9-8.65-14.94 8.58 14.9 8.65 14.94-8.58z"/><path fill="#b3b3b3" d="M66.84 34.88l-.04 17.23 14.94-8.58.04-17.23-14.94 8.58z"/><path fill="#e6e6e6" d="M51.94 26.23l-.04 17.23 14.9 8.65.04-17.23-14.9-8.65z"/><path d="M74.86 39.13a6.87 6.87 0 0 0 6.93 3c5.66-.74 6.09-3.94 11.34-5.5 2.94-.87 4.19-.85 6.31.49" fill="none" stroke="#231f20" stroke-miterlimit="10" stroke-width=".2"/><ellipse cx="29.75" cy="101.98" rx="1.14" ry=".39" transform="rotate(-87.12 -4.674 75.786)" fill="#231f20"/><ellipse cx="55.26" cy="80.47" rx=".67" ry=".23" transform="rotate(-87.1 20.823 54.28)" fill="#231f20"/><ellipse cx="81.39" cy="98.38" rx="1.22" ry=".42" transform="rotate(-87.07 46.943 72.188)" fill="#231f20"/><g clip-path="url(#a)" fill="#010101" style="isolation:isolate"><path d="M57.34 35.08l-.33-.19h-.12l-.08.07-1.11 3.27v1.06l-.08-.06-.31-1.38-1.09-4.55-.06-.18h-.06l-.74-.37h-.07a.1.1 0 0 0 0 .05.37.37 0 0 0 0 .09v6.42a.24.24 0 0 0 0 .06l.47.38h.07a.21.21 0 0 0 0-.05v-4.21l.35 1.54.75 3.08.06.15.1.08.38.21h.11v-.07l.89-2.26.35-1.08v4.27a.24.24 0 0 0 0 .06l.48.28h.17a.21.21 0 0 0 0-.05v-6.58l-.12-.13m2.94 1.71l-.16-.08-.16-.06h-.65l-.1.06-.1.07-.09.06-.07.11-.06.13a1.22 1.22 0 0 0-.05.15 1.6 1.6 0 0 0 0 .17v4.24l.04.2.07.21.08.2.09.19.1.18.11.18.13.15.13.16.14.15.14.14.15.12.16.11.16.1.2.1.2.07h.56l.16-.06.15-.09.13-.12v-.19l-.33-.55-.17-.05-.08.05h-.72l-.13-.06-.18.01-.17-.15-.15-.18a1.77 1.77 0 0 1-.13-.21 2 2 0 0 1-.1-.22 1.86 1.86 0 0 1-.07-.22 1.78 1.78 0 0 1 0-.22 1.76 1.76 0 0 1 0-.23V38.1a1.67 1.67 0 0 1 0-.22 1 1 0 0 1 0-.18.61.61 0 0 1 .07-.14.42.42 0 0 1 .09-.1.33.33 0 0 1 .12-.06h.31l.19.09.17.1.12.1.12.12.12.14.12.15.1.15.09.16.08.16.09.13h.09l.31-.16.06-.1v-.13l-.16-.31-.23-.25-.17-.24-.17-.2-.18-.18-.18-.16-.21-.15-.19-.12m3.28 5.18l-.09-.13v-2.23h.08l.75.44.17.02.1.08.09.09.08.1.07.1.07.11.06.11.06.12v.95a2 2 0 0 1 0 .25 1.19 1.19 0 0 1 0 .21.7.7 0 0 1-.07.16.48.48 0 0 1-.11.12.38.38 0 0 1-.13.07h-.32l-.18-.09-.77-.44m.78-2.76l-1.42-.82v6.51a.22.22 0 0 0 0 .06l.5.29a.2.2 0 0 0 0-.05v-2.4l.07-.06.76.44.36.05.16.06h.69l.11-.07.1-.08.09-.1.08-.12.06-.14.05-.16v-1.39l-.06-.21-.11-.22-.08-.2-.09-.2-.11-.19-.12-.18-.13-.17-.14-.16-.15-.15-.16-.14-.19-.13-.18-.11"/></g><g clip-path="url(#b)" fill="#010101" style="isolation:isolate"><path d="M6.57 42.26v-1.24l.43.25h.17v.06l.15.23v.06l.15.13v.37a1.06 1.06 0 0 1 0 .13.65.65 0 0 1 0 .11v.08l-.05.06h-.37l-.48-.28m0-1.68v-.97l.43.18.09.06.08.07.07.08.05.09v.21a.9.9 0 0 1 0 .11.92.92 0 0 1 0 .11.77.77 0 0 1 0 .1.52.52 0 0 1 0 .09v.13h-.28l-.43-.25m.43-1.2l-.78-.45h-.05v3.41l.06.1.83.48h.51v-1.27l-.06-.13-.07-.12.02-.07.12-.07.09-.12.06-.15v-.18a1.81 1.81 0 0 0 0-.22 1.64 1.64 0 0 0 0-.21 1.56 1.56 0 0 0-.15-.38l-.12-.22-.13-.15-.15-.13-.16-.11m2.9 1.71l-1.39-.81-.06.04-.01 3.41.06.1 1.41.82.05-.05v-.28l-.05-.09-1.07-.62-.03-.07V42.4l.04-.03.87.51.05-.04v-.29l-.06-.1-.86-.5-.04-.06.01-.98.03-.03 1.06.61.05-.04v-.28l-.06-.1m2.22 1.28l-.26-.15h-.06l-.05.11-.05.11-.05.11-.05.12-.05.11-.06.11-.06.11-.05.11-.49-1.34v-.07h-.06l-.29-.17v.05l.6 1.89v.14l-.7 1.22v.12l.27.15h.06l.49-1 .48 1.55v.07h.06l.27.15v-2.26l.08-.15.08-.15.08-.15.08-.15.08-.15.08-.15.08-.15.08-.15v-.11m1.5 1.27l-1.4-.8-.05.03-.01 3.42.05.09 1.41.82.05-.05v-.28l-.05-.09-1.07-.62-.03-.07v-1.11l.04-.04.87.51.05-.04v-.29l-.05-.09-.88-.51-.02-.06v-.98l.03-.02 1.06.6.05-.04v-.28l-.05-.1m1.01.59l-.26-.15-.05.04-.01 3.41.05.1 1.38.79.05-.04V48l-.05-.09-1.03-.59-.04-.08.01-3.01-.05-.09"/></g><g clip-path="url(#c)" fill="#010101" style="isolation:isolate"><path d="M36.95 21.55l-.12-.08-.1-.09-.09-.11-.07-.12-.1-.13v-.13a1.14 1.14 0 0 1 0-.14 1.24 1.24 0 0 1 0-.15v-1.85a.83.83 0 0 1 0-.12.53.53 0 0 1 0-.1v-.08l.06-.06h.27l.11.05.11.08.1.09.09.11.08.13.06.13v.13a1.07 1.07 0 0 1 0 .14 1.1 1.1 0 0 1 0 .14v1.86a1 1 0 0 1 0 .14.58.58 0 0 1 0 .11v.09l-.06.06h-.22l-.12-.06m0-3.62h-.67l-.05.05v3.2l.05.11.06.11.07.1.06.02v.09l.11.1.09.08.09.08.09.07.1.06.1.05h.61l.05-.05v-3.23l-.03-.06-.06-.11-.07-.11-.08-.14-.08-.09-.08-.08-.09-.08-.09-.07-.09-.07-.09-.06m2.52 5.05l-.12-.08-.1-.09-.12-.07-.07-.12-.06-.13a1.07 1.07 0 0 1 0-.13 1.1 1.1 0 0 1 0-.14 1.22 1.22 0 0 1 0-.15v-1.9a.74.74 0 0 1 0-.12.5.5 0 0 1 0-.1v-.08l.06-.06h.27l.14.03.11.07.1.09.09.11.08.13.06.13v.13a1.07 1.07 0 0 1 0 .14 1.1 1.1 0 0 1 0 .14v1.86a1 1 0 0 1 0 .14.55.55 0 0 1 0 .11.32.32 0 0 1 0 .08l-.06.06h-.3l-.08-.05m0-3.62l-.1-.05h-.64l-.05.05v3.2l.05.11.04.07.07.1.07.1.08.09.08.09.08.08.09.08.1.07.13.1.1.05h.6l.05-.05v-3.21l-.06-.11-.06-.11-.07-.11-.07-.1-.08-.07-.08-.09-.08-.08-.09-.07-.09-.07-.07-.07m2 3.12v-1.4l.45.26h.12l.05.05.05.06.17.29v.55a1.25 1.25 0 0 1 0 .15.71.71 0 0 1 0 .12.39.39 0 0 1 0 .1l-.02.08h-.37l-.45-.26m.46-1.64l-.84-.48h-.06v3.86l.06.11.29.17h.06v-1.52l.45.26h.68l.06-.05.05-.06v-1.46l-.06-.11-.06-.11-.09-.09-.08-.1-.08-.1-.08-.09-.09-.08-.1-.07-.11-.07"/></g><g clip-path="url(#d)" fill="#010101" style="isolation:isolate"><path d="M97.47 47.63v-1.18l.41.24h.17v.05l.13.22v.49a1 1 0 0 1 0 .12.6.6 0 0 1 0 .1v.14h-.3l-.46-.27m0-1.58V45l.4.23.09.06.08.07.07.08.05.09v.2a.89.89 0 0 1 0 .1 1 1 0 0 1 0 .11.72.72 0 0 1 0 .09.53.53 0 0 1 0 .08v.12h-.05.01-.17l-.4-.23m.4-1.14l-.73-.42v3.4l.8.46h.53v-1.2l-.06-.12-.07-.12-.08-.11.11-.07.09-.11.06-.14v-.17a1.77 1.77 0 0 0 0-.21 1.53 1.53 0 0 0 0-.2 1.38 1.38 0 0 0-.06-.19 1.32 1.32 0 0 0-.09-.17l-.1-.16-.12-.14-.14-.12-.16-.11m1.75.94l-.25-.14-.05.03v3.24l.05.09 1.31.76.04-.04v-.27l-.05-.1-.98-.56-.03-.07v-2.86l-.04-.08m2.41 4.39l-.1-.07-.09-.08-.08-.09-.06-.1-.05-.11v-.11a.94.94 0 0 1 0-.12 1 1 0 0 1 0-.12v-1.56a.61.61 0 0 1 0-.1.43.43 0 0 1 0-.09v-.07l.05-.05h.32l.1.06.09.08.07.09.06.1.05.11v.11a.89.89 0 0 1 0 .11.91.91 0 0 1 0 .12v1.56a.78.78 0 0 1 0 .11.44.44 0 0 1 0 .09v.07h-.37m0-3h-.61v2.79l.05.09.05.08.06.08.06.08.07.08.07.07.08.06.08.06.08.05h.56v-2.81l-.05-.09-.06-.09-.06-.08-.07-.08-.07-.07-.07-.07-.07-.06-.08-.05h-.08m2.3 1.27h-.54v2.86l.05.08.06.08.06.08.07.07.07.07.08.06.08.06.08.05.1.05h.53l.07-.06v-.08l-.17-.28h-.34l-.09-.06-.08-.08-.07-.09-.06-.1-.05-.11v-.11a.88.88 0 0 1 0-.11.9.9 0 0 1 0-.11v-1.58a.76.76 0 0 1 0-.11.49.49 0 0 1 0-.09v-.12h.43l.06.06.06.07.06.08.05.08v.22l.15-.09v-.07l-.08-.16-.08-.14-.08-.12-.09-.1-.09-.09-.09-.08-.09-.07-.09-.06m2.86 1.77l-.27-.16h-.06l-.86.89v-1.46l-.27-.15v3.34l.27.16v-.94a1.13 1.13 0 0 1 0-.13.68.68 0 0 1 0-.11.4.4 0 0 1 0-.09l.05-.06h.25l.11.05h.13l.05.05v.06l.13.23.06.24v1.28l.24.14-.06-1.08v-.39a1.78 1.78 0 0 0 0-.18l-.06-.16-.08-.15-.1-.14-.11-.12-.13-.1h-.12l.77-.79-.05-.05"/></g><g clip-path="url(#e)" fill="#010101" style="isolation:isolate"><path d="M110.24 49.85h-.08l-.07.05-.07.06-.06.07-.06.07-.06.08-.05.08v3.12h.46l.09-.06.09-.07.09-.09.09-.1.08-.11.08-.12.07-.13.06-.14v-.09l-.16-.1h-.05v.35l-.05.07-.06.06h-.42v-.14a.54.54 0 0 1 0-.09.87.87 0 0 1 0-.11v-1.79a1.09 1.09 0 0 1 0-.12v-.22l.05-.1.07-.09.08-.07.09-.06h.29l.15-.27v-.13l-.07-.07h-.62m2.69-1.22l-.23.13-.05.09v1.39l-.03.07-.82.47-.03-.03V49.1l-.05-.04-.23.14-.04.08-.01 3.42.05.04.24-.14.04-.1v-1.49l.03-.08.82-.47.03.03V52l.04.04.24-.14.05-.1v-3.4l-.05-.03m1.08 1.7l.17-1.15.1-.77.11.66.17.93-.53.31m.44-2.59l-.33.19v.06l-.63 3.79v.07l.21-.12v-.07l.12-.82.69-.4.13.67h.05l.23-.13v-.11l-.58-3h-.06m1.64-.96l-.24.14-.04.08-.01 3.42.04.03.24-.13.05-.1v-3.41l-.04-.03m2.27-1.31l-.22.12-.04.09-.01 2.5h-.01l-.89-1.94-.03-.05-.07.01-.14.08-.07.08-.01.12-.01 3.32.05.04.22-.13.04-.09V47l.01-.01.9 1.94.04.05.06-.03.15-.08.05-.04.02-.12.01-3.36-.05-.03"/></g><text transform="matrix(1 0 0 1.15 17.1 21.89)" font-size="2.76" fill="#444" font-family="Roboto Slab">Material<tspan x="0" y="2.88">Objects</tspan></text><text transform="matrix(1 0 0 1.15 43.93 2.72)" font-size="2.76" fill="#444" font-family="Roboto Slab">Object-Oriented <tspan x="0" y="2.88">P</tspan><tspan x="1.76" y="2.88">r</tspan><tspan x="2.87" y="2.88">ogrammi</tspan><tspan x="14.79" y="2.88">n</tspan><tspan x="16.55" y="2.88">g</tspan></text><text transform="matrix(1 0 0 1.15 66.86 12.39)" font-size="2.76" fill="#444" font-family="Roboto Slab">Main Cont<tspan x="13.59" y="0">ro</tspan><tspan x="16.23" y="0">l</tspan><tspan x="0" y="2.88">P</tspan><tspan x="1.76" y="2.88">r</tspan><tspan x="2.87" y="2.88">ogram</tspan></text><text transform="matrix(1 0 0 1.15 108.12 24.37)" font-size="2.76" fill="#444" font-family="Roboto Slab">Fina<tspan x="5.93" y="0">n</tspan><tspan x="7.69" y="0">cial &amp;</tspan><tspan x="0" y="2.88">Real Estate</tspan><tspan x="0" y="5.77">Operations</tspan></text></g></svg>