<svg xmlns="http://www.w3.org/2000/svg" viewBox="0 0 1651.36 815.17"><title>Vector Smart Object1</title><g style="isolation:isolate"><text transform="matrix(1 0 0 1.15 638.71 23.61)" font-size="24" fill="#525252" font-family="Roboto Slab">Объектно-<tspan x="0" y="25.04">ориентированная </tspan><tspan x="0" y="50.09">пл</tspan><tspan x="31.78" y="50.09">а</tspan><tspan x="44.81" y="50.09">т</tspan><tspan x="57.77" y="50.09">форма данных</tspan></text><text transform="matrix(1 0 0 1.15 1395.57 323.82)" font-size="21.88" fill="#525252" font-family="Roboto Slab">Финансовые операции<tspan x="0" y="22.83">и операции с</tspan><tspan x="0" y="45.65">недвижимостью</tspan></text><text transform="matrix(1 0 0 1.15 207.34 195.43)" font-size="24.22" fill="#525252" font-family="Roboto Slab">М<tspan x="22.53" y="0">а</tspan><tspan x="35.67" y="0">т</tspan><tspan x="48.75" y="0">ериальные</tspan><tspan x="0" y="25.27">объекты</tspan></text><g style="mix-blend-mode:multiply"><path d="M847.66 736.19c-20.17 32.44-38.1 29.15-83.48.89l-187.32-77.64c-45.68-28.45-57.75-87.45-37.54-119.84l106.21-276.31c20.22-32.34-29.06-16.47 16.59 11.92l307.6 126.68c45.6 28.4 8.37 164.68-11.8 197.11z" fill="#fefefe" opacity=".01"/><path d="M846.99 732.78c-20 32.23-38 28.88-82.79.92l-185.89-77.32c-45.36-28.31-57.77-86.7-37.69-118.84L646.4 264.71c20.09-32.14-28.36-16.76 17 11.46L968.14 401.6c45.31 28.21 9.6 162.73-10.44 195z" fill="#fdfdfd" opacity=".03"/><path d="M846.32 729.36c-19.91 32-37.86 28.6-82.1 1l-184.43-77c-45.07-28.13-57.82-85.9-37.87-117.84l105.35-269.39c20-31.94-27.66-17.06 17.42 11l301.89 124.19c45 28 10.83 160.78-9.08 192.81z" fill="#fcfcfc" opacity=".04"/><path d="M845.64 725.99c-19.79 31.82-37.74 28.33-81.41 1l-183-76.67c-44.78-27.95-57.87-85.11-38-116.85l104.91-265.92c19.83-31.73-27-17.35 17.83 10.51l299 122.94c44.74 27.86 12.06 158.83-7.73 190.65z" fill="#fbfbfb" opacity=".06"/><path d="M844.97 722.53c-19.66 31.61-37.62 28.06-80.72 1l-181.52-76.31c-44.5-27.76-57.92-84.32-38.22-115.85l104.5-262.38c19.7-31.53-26.26-17.64 18.24 10l296.18 121.69c44.45 27.68 13.29 156.88-6.37 188.5z" fill="#fafafa" opacity=".07"/><path d="M844.3 719.12c-19.53 31.41-37.5 27.78-80 1.07l-180.05-76c-44.21-27.58-58-83.52-38.4-114.85l104.01-258.95c19.58-31.32-25.56-17.93 18.65 9.57l293.35 120.45c44.16 27.5 14.52 154.93-5 186.34z" fill="#f9f9f9" opacity=".09"/><path d="M843.63 715.7c-19.41 31.2-37.37 27.51-79.35 1.1l-178.6-75.7c-43.92-27.4-58-82.73-38.58-113.86l103.65-255.43c19.45-31.12-24.86-18.22 19.06 9.1l290.47 119.2c43.87 27.32 15.75 153-3.66 184.19z" fill="#f8f8f9" opacity=".1"/><path d="M842.95 712.29c-19.28 31-37.25 27.23-78.66 1.14l-177.13-75.37c-43.63-27.22-58.08-81.94-38.76-112.86l103.22-252c19.32-30.91-24.16-18.52 19.48 8.63l287.62 118c43.58 27.14 17 151-2.3 182z" fill="#f7f7f8" opacity=".12"/><path d="M842.28 708.87c-19.15 30.79-37.13 27-78 1.18l-175.64-75.06c-43.34-27-58.13-81.14-38.94-111.86l102.79-248.47c19.19-30.71-23.46-18.81 19.89 8.16l284.76 116.71c43.3 27 18.21 149.08-.94 179.88z" fill="#f6f6f7" opacity=".13"/><path d="M841.61 705.46c-19 30.58-37 26.68-77.28 1.21l-174.22-74.68c-43.05-26.86-58.18-80.35-39.12-110.87l102.37-245c19.06-30.5-22.76-19.1 20.3 7.69l281.91 115.46c43 26.78 19.43 147.13.41 177.73z" fill="#f5f5f6" opacity=".15"/><path d="M840.93 702.05c-18.9 30.38-36.89 26.41-76.59 1.25l-172.76-74.4c-42.72-26.68-58.22-79.56-39.29-109.91L654.23 277.5c18.94-30.3-22.06-19.39 20.71 7.22L954 398.93c42.72 26.6 20.66 145.18 1.77 175.57z" fill="#f4f4f5" opacity=".16"/><path d="M840.26 698.63c-18.77 30.17-36.77 26.14-75.9 1.29l-171.3-74.08c-42.47-26.5-58.28-78.76-39.48-108.88l101.51-238c18.81-30.1-21.36-19.69 21.12 6.75l276.2 113c42.43 26.42 21.89 143.23 3.13 173.42z" fill="#f3f4f4" opacity=".18"/><path d="M839.59 695.22c-18.64 30-36.64 25.86-75.21 1.32l-169.84-73.75c-42.19-26.32-58.33-78-39.65-107.88l101.08-234.57c18.68-29.89-20.66-20 21.53 6.28l273.36 111.72c42.15 26.24 23.12 141.28 4.48 171.27z" fill="#f2f3f3" opacity=".19"/><path d="M838.92 691.8c-18.51 29.76-36.52 25.59-74.52 1.36l-168.39-73.43c-41.9-26.14-58.38-77.18-39.83-106.88l100.68-231.09c18.55-29.69-20-20.27 21.95 5.81l270.5 110.47c41.86 26.06 24.35 139.33 5.84 169.11z" fill="#f1f2f2" opacity=".21"/><path d="M838.24 688.39c-18.38 29.6-36.38 25.31-73.83 1.39l-166.92-73.1c-41.61-26-58.43-76.38-40-105.89l100.22-227.61c18.42-29.48-19.26-20.56 22.36 5.34l267.64 109.23c41.57 25.88 25.58 137.38 7.2 167z" fill="#f0f1f1" opacity=".22"/><path d="M837.57 684.99c-18.26 29.35-36.28 25-73.15 1.43l-165.45-72.8c-41.32-25.78-58.48-75.59-40.19-104.89l99.8-224.13c18.3-29.28-18.56-20.85 22.77 4.87l264.79 108c41.28 25.7 26.81 135.44 8.55 164.81z" fill="#eff0f0" opacity=".24"/><path d="M836.86 681.56c-18.13 29.14-36.16 24.77-72.46 1.47l-164-72.45c-41-25.59-58.53-74.8-40.37-103.89l99.42-220.7c18.17-29.07-17.86-21.15 23.18 4.4l261.93 106.76c41 25.52 28 133.49 9.91 162.65z" fill="#eeefef" opacity=".25"/><path d="M836.22 678.14c-18 28.94-36 24.49-71.77 1.5l-162.53-72.12c-40.74-25.41-58.58-74-40.55-102.9l98.95-217.17c18-28.87-17.16-21.44 23.59 3.93l259.08 105.49c40.71 25.34 29.27 131.54 11.27 160.5z" fill="#edeeee" opacity=".26"/><path d="M835.55 674.73c-17.88 28.73-35.91 24.22-71.08 1.54l-161.08-71.81c-40.45-25.23-58.64-73.21-40.73-101.9l98.52-213.7c17.91-28.66-16.46-21.73 24 3.46l256.23 104.24c40.42 25.16 30.5 129.59 12.62 158.34z" fill="#eceded" opacity=".28"/><path d="M834.86 671.31c-17.75 28.52-35.79 23.94-70.39 1.58l-159.61-71.48c-40.16-25.05-58.69-72.42-40.9-100.9l98.1-210.23c17.78-28.46-15.76-22 24.42 3l253.37 103c40.13 25 31.73 127.64 14 156.19z" fill="#ebecec" opacity=".29"/><path d="M834.21 667.9c-17.62 28.32-35.67 23.67-69.7 1.61l-158.17-71.16c-39.88-24.87-58.74-71.63-41.08-99.91l97.67-206.74c17.66-28.25-15.06-22.32 24.83 2.52l250.51 101.77c39.84 24.81 33 125.69 15.34 154z" fill="#eaebec" opacity=".31"/><path d="M833.53 664.48c-17.5 28.11-35.55 23.4-69 1.65L607.86 595.3c-39.59-24.69-58.79-70.83-41.26-98.91l97.24-203.26c17.53-28-14.36-22.61 25.24 2l247.67 100.5c39.55 24.63 34.19 123.74 16.69 151.88z" fill="#e9eaeb" opacity=".32"/><path d="M832.86 661.07c-17.37 27.91-35.43 23.12-68.32 1.68l-155.25-70.51c-39.3-24.51-58.84-70-41.44-97.92l96.81-199.78c17.4-27.85-13.66-22.9 25.65 1.58l244.81 99.25c39.27 24.45 35.42 121.79 18 149.73z" fill="#e8e9ea" opacity=".34"/><path d="M832.19 657.66c-17.24 27.7-35.3 22.85-67.64 1.72l-153.78-70.19c-39-24.33-58.89-69.25-41.62-96.92l96.38-196.28c17.27-27.64-13-23.19 26.07 1.11l242 98c39 24.27 36.65 119.84 19.41 147.57z" fill="#e7e8e9" opacity=".35"/><path d="M831.51 654.24c-17.11 27.5-35.18 22.57-66.95 1.76l-152.31-69.86c-38.72-24.15-58.94-68.45-41.8-95.92l96-192.83c17.1-27.4-12.3-23.49 26.41.6l239.1 96.76c38.69 24.09 37.88 117.89 20.76 145.42z" fill="#e6e7e8" opacity=".37"/><path d="M830.86 650.83c-17 27.29-35.06 22.3-66.26 1.79l-150.88-69.54c-38.43-24-59-67.66-42-94.93l95.53-189.35c17-27.23-11.56-23.78 26.89.17l236.25 95.51c38.4 23.91 39.11 115.94 22.12 143.26z" fill="#e5e6e7" opacity=".38"/><path d="M830.17 647.41c-16.86 27.08-34.94 22-65.57 1.83l-149.4-69.25c-38.14-23.79-59-66.87-42.16-93.93l95.1-185.87c16.89-27-10.86-24.07 27.3-.3l233.42 94.3c38.11 23.73 40.33 114 23.48 141.11z" fill="#e4e5e6" opacity=".4"/><path d="M829.5 643.99c-16.73 26.88-34.82 21.75-64.88 1.86l-147.95-68.86c-37.81-23.62-59.09-66.09-42.33-93l94.68-182.39c16.76-26.82-10.16-24.36 27.71-.77l230.54 93c37.83 23.55 41.56 112 24.83 139z" fill="#e3e4e5" opacity=".41"/><path d="M828.86 640.58c-16.6 26.67-34.7 21.48-64.19 1.9l-146.52-68.56c-37.57-23.42-59.14-65.28-42.51-91.94l94.22-178.91c16.63-26.62-9.46-24.65 28.12-1.24l227.69 91.77c37.54 23.37 42.79 110.09 26.19 136.8z" fill="#e2e3e4" opacity=".43"/><path d="M828.15 637.17c-16.48 26.46-34.57 21.2-63.5 1.94l-145-68.24c-37.28-23.24-59.19-64.49-42.69-90.94l93.79-175.44c16.5-26.41-8.76-24.95 28.54-1.71l224.83 90.52c37.25 23.19 44 108.14 27.55 134.65z" fill="#e1e2e3" opacity=".44"/><path d="M827.48 633.75c-16.35 26.26-34.45 20.93-62.81 2L621.1 567.81c-37-23.06-59.25-63.69-42.87-89.95l93.39-172c16.38-26.21-8.06-25.24 28.95-2.19l222 89.28c37 23 45.25 106.19 28.9 132.5z" fill="#e0e1e2" opacity=".46"/><path d="M826.81 630.34c-16.22 26.05-34.33 20.65-62.13 2l-142.1-67.59c-36.7-22.88-59.3-62.9-43.05-88.95l93-168.47c16.25-26-7.36-25.53 29.36-2.66l219.13 88c36.67 22.83 46.48 104.24 30.26 130.34z" fill="#dfe0e1" opacity=".47"/><path d="M826.13 626.92c-16.1 25.85-34.21 20.38-61.44 2L624.05 561.7c-36.41-22.7-59.35-62.11-43.23-88l92.54-165c16.12-25.8-6.66-25.82 29.77-3.13l216.27 86.78c36.39 22.65 47.71 102.29 31.62 128.19z" fill="#dedfe0" opacity=".49"/><path d="M825.46 623.51c-16 25.64-34.09 20.11-60.75 2.08l-139.18-66.94c-36.12-22.52-59.4-61.32-43.41-87l92.11-161.52c16-25.6-6-26.12 30.18-3.6l213.45 85.58c36.1 22.47 48.94 100.35 33 126z" fill="#dddee0" opacity=".5"/><path d="M824.79 620.09c-15.84 25.44-34 19.83-60.06 2.12L627 555.59c-35.83-22.34-59.45-60.52-43.59-86l91.69-158c15.86-25.39-5.26-26.41 30.59-4.07l210.56 84.29c35.81 22.29 50.17 98.4 34.33 123.88z" fill="#dcdddf" opacity=".51"/><path d="M824.11 616.68c-15.71 25.23-33.84 19.56-59.37 2.15l-136.26-66.29c-35.55-22.16-59.5-59.73-43.77-85l91.26-154.55c15.74-25.19-4.56-26.7 31-4.54l207.71 83c35.52 22.11 51.4 96.45 35.69 121.73z" fill="#dbddde" opacity=".53"/><path d="M823.44 613.26c-15.59 25-33.72 19.28-58.68 2.19l-134.81-66c-35.26-22-59.55-58.94-43.95-84l90.86-151.01c15.61-25-3.86-27 31.42-5l204.86 81.8c35.23 21.93 52.63 94.5 37 119.57z" fill="#dbdcdd" opacity=".54"/><path d="M822.77 609.85c-15.46 24.82-33.6 19-58 2.23l-133.34-65.65c-35-21.8-59.6-58.14-44.12-83l90.4-147.6c15.48-24.78-3.16-27.28 31.83-5.48l202 80.55c34.94 21.75 53.86 92.55 38.4 117.42z" fill="#dadbdc" opacity=".56"/><path d="M822.1 606.43c-15.33 24.61-33.48 18.74-57.3 2.26l-131.94-65.31c-34.68-21.62-59.65-57.35-44.3-82l90-144.12c15.35-24.57-2.46-27.58 32.24-5.95l199.15 79.3c34.66 21.57 55.09 90.6 39.76 115.26z" fill="#d9dadb" opacity=".57"/><path d="M821.42 602.99c-15.2 24.41-33.36 18.46-56.61 2.3l-130.43-65c-34.39-21.43-59.7-56.56-44.48-81l89.55-140.64c15.22-24.37-1.76-27.87 32.65-6.42l196.3 78.06c34.37 21.4 56.32 88.65 41.11 113.11z" fill="#d8d9da" opacity=".59"/><path d="M820.75 599.6c-15.08 24.2-33.23 18.19-55.92 2.34l-128.97-64.67c-34.1-21.25-59.75-55.76-44.66-80l89.12-137.17c15.09-24.16-1.06-28.16 33.07-6.89l193.47 76.78c34.08 21.22 57.55 86.7 42.47 111z" fill="#d7d8d9" opacity=".6"/><path d="M820.08 596.19c-15 24-33.11 17.91-55.24 2.37l-127.51-64.35c-33.81-21.07-59.8-55-44.84-79l88.7-133.69c15-24-.36-28.45 33.48-7.36l190.59 75.56c33.79 21 58.78 84.75 43.83 108.8z" fill="#d6d7d8" opacity=".62"/><path d="M819.4 592.78c-14.82 23.79-33 17.64-54.55 2.41l-126-64c-33.52-20.89-59.86-54.18-45-78l88.21-130.2c14.84-23.76.34-28.75 33.89-7.83l187.73 74.32c33.51 20.86 60 82.8 45.18 106.65z" fill="#d5d6d7" opacity=".63"/><path d="M818.73 589.36c-14.69 23.63-32.87 17.37-53.87 2.44l-124.59-63.7c-33.24-20.71-59.91-53.38-45.2-77l87.84-126.73c14.71-23.55 1-29 34.3-8.3l184.88 73.07c33.22 20.68 61.23 80.85 46.54 104.49z" fill="#d4d5d6" opacity=".65"/><path d="M818.06 585.99c-14.57 23.38-32.75 17.09-53.17 2.48l-123.13-63.42c-32.95-20.53-60-52.59-45.38-76l87.41-123.25c14.58-23.35 1.74-29.33 34.71-8.77l182 71.82c32.93 20.5 62.46 78.9 47.9 102.34z" fill="#d3d4d5" opacity=".66"/><path d="M817.39 582.53c-14.44 23.17-32.63 16.82-52.48 2.52l-121.67-63.06c-32.66-20.35-60-51.8-45.55-75l87-119.77c14.46-23.14 2.44-29.62 35.12-9.24l179.17 70.58c32.64 20.32 63.69 77 49.25 100.19z" fill="#d2d3d4" opacity=".68"/><path d="M816.71 579.12c-14.31 23-32.5 16.54-51.79 2.55l-120.21-62.68c-32.37-20.17-60.06-51-45.73-74l86.56-116.29c14.33-22.94 3.14-29.92 35.54-9.71l176.32 69.33c32.35 20.14 64.92 75 50.61 98z" fill="#d1d2d3" opacity=".69"/><path d="M816.04 575.7c-14.19 22.76-32.38 16.27-51.1 2.59l-118.75-62.4c-32.08-20-60.11-50.21-45.91-73l86.13-112.81c14.2-22.73 3.84-30.21 35.95-10.18l173.5 68.09c32.06 20 66.15 73.05 52 95.88z" fill="#d0d1d3" opacity=".71"/><path d="M815.37 572.29c-14.06 22.55-32.26 16-50.41 2.63l-117.3-62.09c-31.79-19.81-60.16-49.42-46.09-72l85.7-109.34c14.08-22.5 4.59-30.5 36.37-10.66l170.61 66.84c31.78 19.78 67.38 71.1 53.32 93.73z" fill="#cfd0d2" opacity=".72"/><path d="M814.7 568.87c-13.93 22.35-32.14 15.72-49.73 2.66l-115.83-61.75c-31.5-19.62-60.21-48.62-46.27-71l85.28-105.86c13.94-22.32 5.24-30.79 36.77-11.12l167.76 65.59c31.49 19.6 68.61 69.15 54.68 91.57z" fill="#cecfd1" opacity=".74"/><path d="M814.02 565.46c-13.8 22.14-32 15.45-49 2.7l-114.41-61.44c-31.21-19.44-60.26-47.83-46.45-70l84.85-102.38c13.81-22.12 5.94-31.08 37.18-11.59l164.9 64.34c31.2 19.42 69.84 67.2 56 89.42z" fill="#cdced0" opacity=".75"/><path d="M813.35 562.04c-13.68 21.93-31.9 15.17-48.35 2.73l-112.91-61.1c-30.92-19.26-60.31-47-46.63-69l84.4-98.92c13.69-21.92 6.64-31.38 37.6-12.06l162 63.09c30.91 19.24 71.07 65.25 57.39 87.26z" fill="#cccdcf" opacity=".76"/><path d="M812.68 558.63c-13.55 21.73-31.77 14.9-47.66 2.77l-111.45-60.78c-30.64-19.08-60.36-46.25-46.81-68l84-95.42c13.56-21.71 7.34-31.67 38-12.53l159.19 61.85c30.63 19.06 72.3 63.3 58.75 85.11z" fill="#cbccce" opacity=".78"/><path d="M812 555.21c-13.42 21.52-31.65 14.62-47 2.81l-110-60.46c-30.35-18.9-60.41-45.45-47-67l83.57-91.94c13.43-21.51 8-32 38.42-13l156.34 60.6c30.34 18.88 73.53 61.36 60.11 83z" fill="#cacbcd" opacity=".79"/><path d="M811.33 551.8c-13.29 21.32-31.53 14.35-46.28 2.84l-108.53-60.13c-30.06-18.72-60.46-44.66-47.16-66l83.14-88.52c13.3-21.3 8.74-32.25 38.83-13.47l153.53 59.37c30 18.7 74.76 59.41 61.46 80.8z" fill="#c9cacc" opacity=".81"/><path d="M810.66 548.38c-13.17 21.11-31.41 14.08-45.59 2.88l-107.08-59.81c-29.77-18.54-60.52-43.87-47.34-65l82.71-85c13.17-21.1 9.44-32.55 39.24-13.94l150.63 58.11c29.76 18.52 76 57.46 62.82 78.65z" fill="#c8c9cb" opacity=".82"/><path d="M809.99 544.99c-13 20.91-31.29 13.8-44.9 2.91l-105.62-59.5c-29.48-18.36-60.57-43.07-47.52-64l82.29-81.51c13.04-20.9 10.13-32.9 39.62-14.45l147.78 56.86c29.47 18.34 77.22 55.51 64.18 76.49z" fill="#c7c8ca" opacity=".84"/><path d="M809.31 541.56c-12.91 20.7-31.16 13.53-44.21 3l-104.16-59.22c-29.19-18.18-60.62-42.28-47.7-63l81.86-78c12.92-20.69 10.84-33.13 40.07-14.88l144.93 55.53c29.18 18.17 78.45 53.56 65.53 74.34z" fill="#c6c7c9" opacity=".85"/><path d="M808.64 538.14c-12.79 20.49-31 13.25-43.53 3l-102.69-58.85c-28.9-18-60.67-41.49-47.88-62l81.43-74.55c12.79-20.48 11.54-33.42 40.48-15.36l142.07 54.37c28.9 18 79.67 51.61 66.89 72.18z" fill="#c5c6c8" opacity=".87"/><path d="M807.97 534.73c-12.66 20.29-30.92 13-42.84 3l-101.27-58.49c-28.62-17.82-60.72-40.69-48.06-61.05l81-71.07c12.66-20.28 12.24-33.71 40.89-15.83l139.22 53.12c28.61 17.81 80.91 49.66 68.25 70z" fill="#c4c6c7" opacity=".88"/><path d="M807.29 531.31c-12.53 20.08-30.8 12.71-42.15 3.06l-99.78-58.19c-28.33-17.64-60.77-39.9-48.24-60.06l80.58-67.59c12.53-20.07 12.94-34 41.3-16.3l136.36 51.87c28.32 17.63 82.13 47.71 69.6 67.88z" fill="#c3c5c7" opacity=".9"/><path d="M806.62 527.9c-12.41 19.88-30.68 12.43-41.46 3.09l-98.3-57.86c-28-17.45-60.82-39.11-48.41-59.06l80.13-64.08c12.41-19.87 13.64-34.3 41.71-16.77l133.51 50.63c28 17.45 83.36 45.76 71 65.72z" fill="#c2c4c6" opacity=".91"/><path d="M805.95 524.48c-12.28 19.67-30.56 12.16-40.77 3.13l-96.86-57.54c-27.75-17.27-60.87-38.31-48.59-58.07l79.72-60.63c12.28-19.67 14.34-34.59 42.13-17.24l130.66 49.38c27.75 17.27 84.59 43.81 72.32 63.57z" fill="#c1c3c5" opacity=".93"/><path d="M805.28 521.07c-12.15 19.46-30.44 11.88-40.08 3.17l-95.4-57.25c-27.46-17.06-60.94-37.49-48.77-57l79.3-57.16c12.15-19.46 15-34.88 42.54-17.71l127.8 48.13c27.46 17.09 85.82 41.86 73.67 61.42z" fill="#c0c2c4" opacity=".94"/><path d="M804.6 517.65c-12 19.26-30.31 11.61-39.39 3.2l-93.94-56.86c-27.17-16.91-61-36.73-49-56.07l78.87-53.68c12-19.26 15.74-35.18 43-18.18l124.95 46.89c27.17 16.91 87.05 39.91 75 59.26z" fill="#bfc1c3" opacity=".96"/><path d="M803.93 514.24c-11.9 19.05-30.19 11.33-38.7 3.24l-92.48-56.57c-26.88-16.73-61-35.93-49.13-55.08l78.44-50.2c11.89-19.05 16.43-35.47 43.36-18.65l122.09 45.64c26.88 16.73 88.28 38 76.39 57.11z" fill="#bec0c2" opacity=".97"/><path d="M803.26 510.82c-11.77 18.85-30.07 11.06-38 3.28l-91-56.24c-26.59-16.55-61.08-35.14-49.31-54.08l78-46.72c11.76-18.85 17.13-35.76 43.77-19.12l119.24 44.39c26.59 16.55 89.51 36 77.74 55z" fill="#bdbfc1" opacity=".99"/><path d="M802.58 507.41c-11.64 18.64-29.95 10.79-37.33 3.31l-89.56-55.92c-26.31-16.37-61.13-34.35-49.49-53.08l77.59-43.24c11.64-18.64 17.83-36.05 44.19-19.59l116.39 43.1c26.3 16.37 90.74 34.06 79.1 52.8z" fill="#b3b3b3"/></g><g style="mix-blend-mode:multiply"><path d="M576.16 362.88c-11.06 17.79-20.9 16-45.78.49l-102.75-42.59c-25-15.62-31.66-48-20.57-65.72l58.25-151.54c11.09-17.74-15.94-9 9.1 6.54l168.69 69.47c25 15.57 4.59 90.31-6.47 108.1z" fill="#fefefe" opacity=".01"/><path d="M575.79 360.99c-11 17.68-20.83 15.84-45.4.51l-101.95-42.4c-24.88-15.52-31.68-47.54-20.67-65.17l58-149.63c11-17.63-15.55-9.19 9.32 6.28l167.13 68.79c24.85 15.47 5.27 89.24-5.72 106.92z" fill="#fdfdfd" opacity=".03"/><path d="M575.42 359.13c-10.92 17.56-20.76 15.69-45 .53l-101.17-42.23c-24.72-15.43-31.71-47.11-20.76-64.63l57.77-147.71c10.95-17.51-15.17-9.35 9.55 6l165.56 68.11c24.69 15.38 5.94 88.17-5 105.74z" fill="#fcfcfc" opacity=".04"/><path d="M575.05 357.26c-10.85 17.45-20.7 15.54-44.65.55l-100.35-42c-24.56-15.33-31.74-46.67-20.86-64.08l57.54-145.81c10.88-17.4-14.78-9.51 9.78 5.77l164 67.42c24.54 15.28 6.61 87.1-4.24 104.56z" fill="#fbfbfb" opacity=".06"/><path d="M574.68 355.39c-10.78 17.34-20.63 15.39-44.27.57l-99.55-41.88c-24.4-15.23-31.77-46.24-21-63.53l57.31-143.9c10.81-17.29-14.4-9.67 10 5.51l162.48 66.73c24.38 15.18 7.29 86-3.49 103.38z" fill="#fafafa" opacity=".07"/><path d="M574.31 353.51c-10.71 17.23-20.56 15.24-43.89.59l-98.75-41.69c-24.24-15.13-31.79-45.8-21.06-63l57.08-142c10.74-17.18-14-9.83 10.23 5.25l160.87 66.05c24.22 15.08 8 85-2.75 102.2z" fill="#f9f9f9" opacity=".09"/><path d="M573.94 351.64c-10.64 17.11-20.5 15.09-43.51.61l-97.95-41.51c-24.08-15-31.82-45.37-21.16-62.44l56.84-140.09c10.67-17.07-13.63-10 10.45 5l159.3 65.37c24.06 15 8.64 83.9-2 101z" fill="#f8f8f9" opacity=".1"/><path d="M573.57 349.77c-10.57 17-20.43 14.94-43.13.63l-97.15-41.34c-23.93-14.93-31.85-44.93-21.25-61.89l56.61-138.18c10.59-17-13.25-10.16 10.68 4.73l157.73 64.68c23.9 14.88 9.31 82.83-1.26 99.83z" fill="#f7f7f8" opacity=".12"/><path d="M573.2 347.9c-10.5 16.89-20.36 14.79-42.76.65l-96.35-41.16c-23.77-14.83-31.88-44.5-21.35-61.35l56.37-136.27c10.53-16.84-12.86-10.32 10.91 4.48l156.17 64c23.75 14.79 10 81.76-.52 98.65z" fill="#f6f6f7" opacity=".13"/><path d="M572.86 345.99c-10.43 16.77-20.3 14.64-42.38.67l-95.54-41c-23.61-14.73-31.91-44.06-21.45-60.8l56.14-134.37c10.45-16.73-12.48-10.48 11.13 4.22l154.6 63.32c23.59 14.69 10.66 80.69.23 97.47z" fill="#f5f5f6" opacity=".15"/><path d="M572.47 344.15c-10.36 16.66-20.23 14.49-42 .69l-94.75-40.85c-23.45-14.63-31.93-43.63-21.55-60.25l55.9-132.46c10.38-16.62-12.1-10.64 11.36 4l153 62.64c23.43 14.59 11.33 79.62 1 96.29z" fill="#f4f4f5" opacity=".16"/><path d="M572.1 342.28c-10.29 16.55-20.16 14.33-41.62.7l-93.94-40.62c-23.29-14.53-32-43.19-21.65-59.71l55.67-130.55c10.31-16.5-11.71-10.8 11.58 3.7l151.47 62c23.27 14.49 12 78.55 1.72 95.11z" fill="#f3f4f4" opacity=".18"/><path d="M571.73 340.41c-10.22 16.43-20.1 14.18-41.25.72l-93.14-40.45c-23.13-14.43-32-42.76-21.75-59.16l55.44-128.64c10.24-16.39-11.33-11 11.81 3.44l149.91 61.27c23.11 14.39 12.68 77.48 2.46 93.93z" fill="#f2f3f3" opacity=".19"/><path d="M571.36 338.53c-10.15 16.32-20 14-40.87.74l-92.34-40.28c-23-14.33-32-42.32-21.84-58.62l55.2-126.73c10.17-16.28-10.95-11.12 12 3.19l148.35 60.6c23 14.29 13.36 76.41 3.2 92.75z" fill="#f1f2f2" opacity=".21"/><path d="M570.99 336.66c-10.08 16.21-20 13.88-40.49.76l-91.54-40.09c-22.82-14.23-32-41.89-21.94-58.07l55-124.83c10.1-16.17-10.56-11.28 12.26 2.93l146.78 59.9c22.8 14.19 14 75.34 3.95 91.56z" fill="#f0f1f1" opacity=".22"/><path d="M570.62 334.79c-10 16.09-19.89 13.73-40.11.78l-90.74-39.91c-22.66-14.14-32.07-41.45-22-57.52l54.69-122.92c10-16.06-10.18-11.44 12.49 2.67l145.21 59.21c22.64 14.1 14.7 74.27 4.69 90.38z" fill="#eff0f0" opacity=".24"/><path d="M570.25 332.91c-9.94 16-19.83 13.58-39.73.8l-89.94-39.72c-22.5-14-32.1-41-22.14-57l54.5-121c10-15.94-9.79-11.6 12.71 2.41l143.65 58.59c22.48 14 15.38 73.21 5.44 89.2z" fill="#eeefef" opacity=".25"/><path d="M569.86 331.04c-9.87 15.87-19.76 13.43-39.36.82l-89.14-39.56c-22.34-13.94-32.13-40.59-22.24-56.43l54.26-119.1c9.89-15.83-9.41-11.76 12.94 2.16l142.08 57.85c22.32 13.9 16.05 72.14 6.18 88z" fill="#edeeee" opacity=".26"/><path d="M569.51 329.17c-9.8 15.76-19.7 13.28-39 .84l-88.34-39.38c-22.18-13.84-32.16-40.15-22.33-55.88l54-117.2c9.82-15.72-9-11.92 13.16 1.9l140.52 57.17c22.17 13.8 16.73 71.07 6.92 86.84z" fill="#eceded" opacity=".28"/><path d="M569.15 327.3c-9.73 15.64-19.63 13.13-38.6.86l-87.54-39.17c-22-13.74-32.18-39.71-22.43-55.34l53.8-115.29c9.75-15.61-8.64-12.08 13.39 1.64l139 56.48c22 13.7 17.4 70 7.67 85.66z" fill="#ebecec" opacity=".29"/><path d="M568.78 325.42c-9.66 15.53-19.56 13-38.22.88l-86.74-39c-21.87-13.64-32.21-39.28-22.53-54.79l53.57-113.4c9.68-15.5-8.26-12.24 13.62 1.38l137.38 55.8c21.85 13.6 18.08 68.93 8.41 84.48z" fill="#eaebec" opacity=".31"/><path d="M568.41 323.55c-9.59 15.42-19.49 12.83-37.85.9l-85.94-38.85c-21.71-13.54-32.24-38.85-22.63-54.24l53.33-111.47c9.61-15.38-7.87-12.4 13.84 1.12l135.82 55.12c21.69 13.51 18.75 67.86 9.16 83.29z" fill="#e9eaeb" opacity=".32"/><path d="M568.04 321.68c-9.52 15.3-19.43 12.68-37.47.92l-85.14-38.67c-21.55-13.44-32.27-38.41-22.73-53.7l53.09-109.56c9.54-15.27-7.49-12.56 14.07.87l134.27 54.45c21.53 13.41 19.42 66.79 9.9 82.11z" fill="#e8e9ea" opacity=".34"/><path d="M567.67 319.81c-9.45 15.19-19.36 12.53-37.09.94l-84.34-38.49c-21.39-13.34-32.3-38-22.82-53.15l52.86-107.66c9.47-15.16-7.11-12.72 14.29.61l132.69 53.74c21.38 13.31 20.1 65.72 10.64 80.93z" fill="#e7e8e9" opacity=".35"/><path d="M567.3 317.93c-9.38 15.08-19.29 12.38-36.71 1l-83.54-38.31c-21.19-13.28-32.32-37.58-22.92-52.63l52.62-105.75c9.4-15-6.72-12.88 14.52.35l131.13 53.06c21.22 13.21 20.77 64.65 11.39 79.75z" fill="#e6e7e8" opacity=".37"/><path d="M566.93 316.06c-9.31 15-19.23 12.23-36.33 1l-82.74-38.15c-21.08-13.14-32.35-37.11-23-52.06l52.37-103.86c9.33-14.93-6.34-13 14.75.09l129.56 52.38c21.06 13.11 21.45 63.58 12.13 78.57z" fill="#e5e6e7" opacity=".38"/><path d="M566.56 314.19c-9.24 14.85-19.16 12.08-36 1l-81.94-38c-20.92-13-32.38-36.67-23.12-51.51l52.21-101.89c9.26-14.82-6-13.2 15-.17l128 51.7c20.9 13 22.12 62.51 12.88 77.39z" fill="#e4e5e6" opacity=".4"/><path d="M566.19 312.31c-9.17 14.74-19.09 11.93-35.58 1l-81.14-37.78c-20.76-12.94-32.41-36.23-23.22-51l51.92-100c9.19-14.71-5.57-13.36 15.2-.42l126.43 51c20.74 12.91 22.79 61.45 13.62 76.21z" fill="#e3e4e5" opacity=".41"/><path d="M565.86 310.44c-9.1 14.63-19 11.78-35.2 1l-80.33-37.6c-20.6-12.85-32.43-35.8-23.31-50.42l51.69-98.12c9.12-14.6-5.19-13.52 15.42-.68l124.82 50.37c20.59 12.82 23.47 60.38 14.36 75z" fill="#e2e3e4" opacity=".43"/><path d="M565.46 308.57c-9 14.51-19 11.63-34.82 1.06l-79.53-37.42c-20.44-12.75-32.46-35.37-23.41-49.87l51.45-96.21c9.05-14.49-4.8-13.68 15.65-.94l123.3 49.65c20.43 12.72 24.14 59.31 15.11 73.84z" fill="#e1e2e3" opacity=".44"/><path d="M565.09 306.7c-9 14.4-18.89 11.48-34.45 1.08l-78.78-37.25c-20.28-12.65-32.49-34.93-23.51-49.33l51.22-94.3c9-14.37-4.42-13.84 15.87-1.2l121.74 49c20.27 12.62 24.82 58.24 15.85 72.66z" fill="#e0e1e2" opacity=".46"/><path d="M564.72 304.82c-8.89 14.29-18.83 11.33-34.07 1.1l-77.93-37.07c-20.13-12.55-32.52-34.5-23.61-48.78l51-92.39c8.91-14.26-4-14 16.1-1.46l120.15 48.28c20.12 12.49 25.5 57.17 16.6 71.49z" fill="#dfe0e1" opacity=".47"/><path d="M564.35 302.99c-8.82 14.17-18.76 11.18-33.69 1.12l-77.13-36.89c-20-12.45-32.55-34.06-23.71-48.23l50.75-90.49c8.84-14.15-3.65-14.16 16.33-1.71l118.61 47.59c20 12.42 26.17 56.1 17.34 70.3z" fill="#dedfe0" opacity=".49"/><path d="M563.98 301.08c-8.76 14.06-18.69 11-33.31 1.14l-76.33-36.71c-19.81-12.35-32.57-33.62-23.81-47.69l50.52-88.58c8.77-14-3.27-14.32 16.55-2l117 46.91c19.8 12.32 26.84 55 18.08 69.12z" fill="#dddee0" opacity=".5"/><path d="M563.61 299.21c-8.69 13.95-18.63 10.88-32.94 1.16l-75.53-36.54c-19.65-12.25-32.6-33.19-23.9-47.14l50.28-86.7c8.7-13.92-2.88-14.48 16.78-2.23l115.48 46.23c19.64 12.23 27.51 54 18.83 67.94z" fill="#dcdddf" opacity=".51"/><path d="M563.24 297.33c-8.62 13.84-18.56 10.73-32.56 1.18l-74.73-36.36c-19.49-12.15-32.63-32.76-24-46.6l50-84.76c8.63-13.81-2.5-14.64 17-2.49l113.91 45.54c19.48 12.13 28.19 52.89 19.57 66.76z" fill="#dbddde" opacity=".53"/><path d="M562.86 295.46c-8.55 13.72-18.49 10.58-32.18 1.2l-73.92-36.18c-19.33-12.05-32.66-32.32-24.1-46l49.81-82.86c8.56-13.7-2.12-14.8 17.23-2.75l112.35 44.82c19.32 12 28.86 51.82 20.32 65.58z" fill="#dbdcdd" opacity=".54"/><path d="M562.5 293.59c-8.48 13.61-18.43 10.43-31.8 1.22l-73.13-36c-19.18-12-32.69-31.89-24.2-45.5l49.58-80.95c8.49-13.59-1.73-15 17.45-3l110.78 44.17c19.16 11.93 29.54 50.75 21.06 64.39z" fill="#dadbdc" opacity=".56"/><path d="M562.14 291.72c-8.41 13.5-18.36 10.28-31.42 1.24l-72.33-35.82c-19-11.85-32.71-31.45-24.3-45l49.35-79c8.42-13.48-1.35-15.12 17.68-3.26l109.22 43.49c19 11.83 30.21 49.69 21.8 63.21z" fill="#d9dadb" opacity=".57"/><path d="M561.77 289.84c-8.34 13.38-18.29 10.13-31 1.26l-71.53-35.65c-18.86-11.75-32.74-31-24.39-44.41l49.01-77.12c8.35-13.36-1-15.28 17.91-3.52l107.65 42.81c18.85 11.73 30.89 48.62 22.55 62z" fill="#d8d9da" opacity=".59"/><path d="M561.4 287.99c-8.27 13.27-18.23 10-30.67 1.28L460 253.8c-18.7-11.66-32.77-30.58-24.49-43.86l48.88-75.22c8.28-13.25-.58-15.44 18.13-3.78l106.09 42.12c18.68 11.62 31.55 47.53 23.25 60.83z" fill="#d7d8d9" opacity=".6"/><path d="M561.03 286.1c-8.2 13.16-18.16 9.82-30.29 1.3l-69.93-35.29c-18.54-11.56-32.8-30.15-24.59-43.32l48.64-73.32c8.21-13.14-.2-15.6 18.36-4l104.52 41.44c18.53 11.54 32.23 46.48 24 59.67z" fill="#d6d7d8" opacity=".62"/><path d="M560.66 284.22c-8.13 13-18.09 9.67-29.91 1.32l-69.13-35.11c-18.38-11.46-32.83-29.71-24.69-42.77l48.41-71.41c8.14-13 .19-15.76 18.59-4.29l103 40.76c18.37 11.44 32.91 45.41 24.78 58.49z" fill="#d5d6d7" opacity=".63"/><path d="M560.29 282.35c-8.06 12.93-18 9.52-29.54 1.34l-68.33-34.94c-18.23-11.36-32.85-29.28-24.79-42.22l48.23-69.54c8.07-12.92.57-15.92 18.81-4.55l101.39 40.07c18.22 11.34 33.58 44.34 25.52 57.31z" fill="#d4d5d6" opacity=".65"/><path d="M559.92 280.48c-8 12.82-18 9.37-29.16 1.36l-67.53-34.76c-18.07-11.26-32.88-28.84-24.88-41.68l47.94-67.59c8-12.8 1-16.08 19-4.81l99.87 39.39c18.06 11.24 34.26 43.27 26.27 56.13z" fill="#d3d4d5" opacity=".66"/><path d="M559.55 278.61c-7.92 12.71-17.89 9.22-28.78 1.38l-66.73-34.58c-17.91-11.16-32.91-28.41-25-41.13l47.71-65.68c7.93-12.69 1.34-16.25 19.26-5.07l98.26 38.71c17.9 11.14 34.93 42.2 27 54.94z" fill="#d2d3d4" opacity=".68"/><path d="M559.18 276.73c-7.85 12.59-17.83 9.07-28.4 1.4l-65.92-34.4c-17.75-11.06-32.94-28-25.08-40.58l47.47-63.78c7.86-12.58 1.72-16.41 19.49-5.33l96.7 38c17.74 11 35.6 41.13 27.75 53.76z" fill="#d1d2d3" opacity=".69"/><path d="M558.86 274.86c-7.78 12.48-17.76 8.92-28 1.42l-65.2-34.22c-17.59-11-33-27.54-25.18-40l47.24-61.87c7.79-12.47 2.11-16.56 19.71-5.58l95.13 37.34c17.58 10.95 36.28 40.06 28.5 52.58z" fill="#d0d1d3" opacity=".71"/><path d="M558.45 272.99c-7.71 12.37-17.69 8.77-27.65 1.44l-64.32-34c-17.43-10.86-33-27.1-25.28-39.49l47-60c7.72-12.35 2.49-16.73 19.94-5.84l93.57 36.65c17.43 10.85 37 39 29.24 51.4z" fill="#cfd0d2" opacity=".72"/><path d="M558.08 271.12c-7.64 12.25-17.63 8.62-27.27 1.46l-63.52-33.87c-17.28-10.76-33-26.67-25.37-38.95l46.77-58.05c7.65-12.24 2.87-16.89 20.17-6.1l92 36c17.27 10.75 37.63 37.93 30 50.22z" fill="#cecfd1" opacity=".74"/><path d="M557.71 269.24c-7.57 12.14-17.56 8.47-26.89 1.48l-62.73-33.73c-17.12-10.66-33-26.23-25.47-38.4l46.53-56.15c7.58-12.13 3.26-17 20.39-6.36l90.44 35.29c17.11 10.65 38.3 36.86 30.73 49z" fill="#cdced0" opacity=".75"/><path d="M557.34 267.37c-7.5 12-17.49 8.32-26.51 1.5l-61.97-33.51c-17-10.56-33.08-25.8-25.57-37.85l46.3-54.24c7.51-12 3.64-17.21 20.62-6.61l88.87 34.6c17 10.55 39 35.79 31.48 47.86z" fill="#cccdcf" opacity=".76"/><path d="M556.97 265.5c-7.43 11.92-17.42 8.17-26.14 1.52l-61.12-33.34c-16.8-10.46-33.1-25.36-25.67-37.31l46.07-52.33c7.43-11.91 4-17.37 20.84-6.87l87.31 33.92c16.79 10.45 39.65 34.72 32.22 46.67z" fill="#cbccce" opacity=".78"/><path d="M556.6 263.63c-7.36 11.8-17.36 8-25.76 1.54l-60.32-33.18c-16.64-10.37-33.13-24.93-25.77-36.76l45.83-50.42c7.36-11.79 4.41-17.53 21.07-7.13l85.74 33.23c16.64 10.36 40.32 33.65 33 45.49z" fill="#cacbcd" opacity=".79"/><path d="M556.23 261.75c-7.29 11.69-17.29 7.87-25.38 1.56l-59.52-33c-16.48-10.27-33.16-24.49-25.86-36.21l45.6-48.52c7.29-11.68 4.79-17.69 21.3-7.39l84.18 32.55c16.48 10.26 41 32.58 33.71 44.31z" fill="#c9cacc" opacity=".81"/><path d="M555.86 259.88c-7.22 11.58-17.22 7.72-25 1.58l-58.72-32.8c-16.33-10.17-33.19-24.06-26-35.67l45.36-46.61c7.22-11.57 5.18-17.85 21.52-7.65l82.61 31.87c16.32 10.16 41.67 31.51 34.45 43.13z" fill="#c8c9cb" opacity=".82"/><path d="M555.49 257.99c-7.15 11.46-17.16 7.57-24.63 1.6l-57.91-32.6c-16.17-10.07-33.21-23.62-26.06-35.12l45.13-44.7c7.15-11.46 5.56-18 21.75-7.9l81 31.18c16.16 10.06 42.35 30.44 35.2 41.95z" fill="#c7c8ca" opacity=".84"/><path d="M555.13 256.14c-7.08 11.35-17.09 7.42-24.25 1.62l-57.12-32.45c-16-10-33.24-23.19-26.16-34.57l44.89-42.75c7.08-11.35 5.94-18.17 22-8.16l79.48 30.5c16 10 43 29.37 35.94 40.77z" fill="#c6c7c9" opacity=".85"/><path d="M554.76 254.26c-7 11.24-17 7.27-23.87 1.64l-56.32-32.27c-15.85-9.87-33.27-22.75-26.26-34l44.66-40.88c7-11.23 6.33-18.33 22.2-8.42l77.91 29.82c15.85 9.86 43.69 28.3 36.68 39.59z" fill="#c5c6c8" opacity=".87"/><path d="M554.39 252.39c-6.94 11.13-17 7.12-23.49 1.66l-55.52-32.06c-15.69-9.77-33.3-22.32-26.36-33.48l44.43-39c6.94-11.12 6.71-18.49 22.43-8.68l76.34 29.16c15.69 9.76 44.37 27.23 37.43 38.41z" fill="#c4c6c7" opacity=".88"/><path d="M554.02 250.52c-6.87 11-16.89 7-23.12 1.68l-54.72-31.91c-15.53-9.67-33.33-21.88-26.45-32.94l44.19-37.07c6.87-11 7.09-18.65 22.65-8.94l74.79 28.45c15.53 9.67 45 26.17 38.17 37.22z" fill="#c3c5c7" opacity=".9"/><path d="M553.65 248.64c-6.8 10.9-16.82 6.82-22.74 1.7l-53.92-31.74c-15.38-9.57-33.35-21.45-26.55-32.39l44-35.16c6.8-10.9 7.48-18.81 22.88-9.19l73.22 27.76c15.37 9.57 45.72 25.1 38.92 36z" fill="#c2c4c6" opacity=".91"/><path d="M553.28 246.77c-6.73 10.79-16.76 6.67-22.36 1.72l-53.12-31.56c-15.22-9.47-33.38-21-26.65-31.84l43.71-33.25c6.73-10.78 7.86-19 23.1-9.45l71.65 27.08c15.21 9.47 46.39 24 39.66 34.86z" fill="#c1c3c5" opacity=".93"/><path d="M552.91 244.9c-6.66 10.67-16.69 6.52-22 1.74l-52.32-31.38c-15.06-9.37-33.41-20.58-26.75-31.3l43.49-31.35c6.66-10.67 8.25-19.13 23.33-9.71l70.09 26.4c15.06 9.37 47.07 23 40.4 33.68z" fill="#c0c2c4" opacity=".94"/><path d="M552.54 242.99c-6.59 10.56-16.62 6.37-21.6 1.76l-51.52-31.2c-14.9-9.27-33.44-20.14-26.85-30.75l43.29-29.41c6.59-10.56 8.63-19.29 23.55-10l68.45 25.75c14.9 9.27 47.74 21.89 41.15 32.5z" fill="#bfc1c3" opacity=".96"/><path d="M552.17 241.15c-6.52 10.45-16.56 6.22-21.23 1.78l-50.72-31c-14.74-9.17-33.47-19.71-26.94-30.2l43-27.53c6.52-10.45 9-19.45 23.78-10.23l67 25c14.74 9.17 48.41 20.82 41.89 31.32z" fill="#bec0c2" opacity=".97"/><path d="M551.8 239.28c-6.45 10.33-16.49 6.07-20.85 1.8l-49.91-30.85c-14.58-9.08-33.49-19.27-27-29.66l42.75-25.58c6.45-10.33 9.4-19.61 24-10.48l65.39 24.35c14.59 9.03 49.09 19.71 42.68 30.13z" fill="#bdbfc1" opacity=".99"/><path d="M551.44 237.41c-6.38 10.22-16.42 5.92-20.47 1.82l-49.11-30.67c-14.43-9-33.52-18.84-27.14-29.11l42.55-23.71c6.38-10.22 9.78-19.77 24.23-10.74l63.83 23.66c14.42 9 49.76 18.68 43.38 29z" fill="#b3b3b3"/></g><path fill="#fafafa" d="M947.16 240.77l-169.89-98.59-170.36 97.74 169.89 98.69 170.36-97.84z"/><path fill="#b3b3b3" d="M776.8 338.61l-.47 196.43 170.36-97.84.47-196.43-170.36 97.84z"/><path fill="#e6e6e6" d="M606.91 239.92l-.48 196.52 169.9 98.6.47-196.43-169.89-98.69z"/><path fill="#fafafa" d="M630.72 91.18l-93.17-54.07-93.43 53.6 93.17 54.13 93.43-53.66z"/><path fill="#b3b3b3" d="M537.29 144.84l-.26 107.72 93.43-53.65.26-107.73-93.43 53.66z"/><path fill="#e6e6e6" d="M444.12 90.71l-.26 107.78 93.17 54.07.26-107.72-93.17-54.13z"/><g style="mix-blend-mode:multiply"><path d="M258.6 724.84c-16.33 26.28-30.86 23.62-67.62.72L39.22 662.67c-37-23.08-46.76-70.87-30.38-97.07l86-223.83c16.37-26.2-23.54-13.34 13.44 9.66l249.2 102.62c36.94 23 6.78 133.4-9.55 159.67z" fill="#fefefe" opacity=".01"/><path d="M258.06 722.08c-16.23 26.11-30.77 23.39-67.06.75L40.41 660.19c-36.74-22.93-46.79-70.2-30.55-96.26l85.69-221c16.27-26-23-13.58 13.77 9.28l246.88 101.6c36.71 22.86 7.78 131.82-8.46 157.93z" fill="#fdfdfd" opacity=".03"/><path d="M257.51 719.31c-16.13 25.94-30.67 23.17-66.5.78l-149.4-62.37C5.1 634.93-5.23 588.14 10.94 562.26l85.34-218.19c16.17-25.87-22.4-13.82 14.11 8.9l244.54 100.6c36.47 22.71 8.77 130.24-7.36 156.18z" fill="#fcfcfc" opacity=".04"/><path d="M256.97 716.54c-16 25.78-30.57 22.95-65.94.81L42.81 655.24C6.53 632.6-4.07 586.3 12 560.59l85-215.37c16.06-25.7-21.84-14.05 14.44 8.52l242.22 99.59c36.2 22.56 9.76 128.66-6.26 154.44z" fill="#fbfbfb" opacity=".06"/><path d="M256.42 713.78c-15.92 25.61-30.47 22.73-65.38.84l-147-61.84c-36-22.49-46.92-68.3-31-93.84l84.65-212.55c16-25.54-21.27-14.29 14.77 8.14l239.92 98.56c36 22.42 10.76 127.08-5.16 152.69z" fill="#fafafa" opacity=".07"/><path d="M255.86 710.99c-15.82 25.44-30.37 22.5-64.83.87L45.2 650.3c-35.81-22.34-47-67.66-31.1-93l84.3-209.74c15.86-25.37-20.7-14.53 15.11 7.75l237.61 97.57c35.74 22.24 11.74 125.47-4.07 150.92z" fill="#f9f9f9" opacity=".09"/><path d="M255.33 708.25c-15.72 25.27-30.27 22.28-64.27.89L46.39 647.82c-35.57-22.2-47-67-31.25-92.23l84-206.92c15.75-25.21-20.14-14.76 15.44 7.37l235.28 96.57c35.54 22.13 12.76 123.92-3 149.2z" fill="#f8f8f9" opacity=".1"/><path d="M254.79 705.48c-15.61 25.11-30.17 22.06-63.71.92L47.59 645.35c-35.34-22.05-47-66.37-31.39-91.42l83.61-204.1c15.65-25-19.57-15 15.77 7l233 95.55c35.31 22 13.75 122.34-1.86 147.46z" fill="#f7f7f8" opacity=".12"/><path d="M254.24 702.71c-15.51 24.94-30.08 21.84-63.15 1L48.78 642.87c-35.11-21.91-47.08-65.73-31.54-90.61l83.27-201.27c15.54-24.88-19-15.24 16.11 6.61l230.67 94.54c35.07 21.84 14.75 120.76-.76 145.71z" fill="#f6f6f7" opacity=".13"/><path d="M253.7 699.99c-15.41 24.77-30 21.62-62.6 1L49.98 640.4c-34.87-21.76-47.13-65.09-31.68-89.81l82.92-198.46c15.44-24.71-18.44-15.47 16.44 6.23l228.35 93.53c34.84 21.69 15.74 119.18.34 144z" fill="#f5f5f6" opacity=".15"/><path d="M253.15 697.18c-15.3 24.61-29.88 21.39-62 1L51.17 637.93c-34.64-21.61-47.17-64.44-31.83-89l82.57-195.65c15.34-24.54-17.87-15.71 16.77 5.85l226 92.52c34.61 21.55 16.74 117.6 1.43 142.22z" fill="#f4f4f5" opacity=".16"/><path d="M252.61 694.42c-15.2 24.44-29.78 21.17-61.48 1l-138.76-60c-34.4-21.47-47.21-63.8-32-88.19L102.6 354.4c15.23-24.38-17.3-15.95 17.11 5.47l223.74 91.51c34.37 21.4 17.74 116 2.53 140.48z" fill="#f3f4f4" opacity=".18"/><path d="M252.06 691.65c-15.1 24.27-29.68 21-60.92 1.07L53.56 632.99c-34.17-21.32-47.25-63.16-32.12-87.39l81.88-190c15.13-24.21-16.74-16.18 17.44 5.09l221.42 90.5c34.14 21.26 18.73 114.45 3.63 138.74z" fill="#f2f3f3" opacity=".19"/><path d="M251.52 688.88c-15 24.11-29.58 20.73-60.36 1.1L54.76 630.5c-33.9-21.17-47.29-62.51-32.27-86.57l81.54-187.19c15-24-16.17-16.42 17.77 4.71l219.11 89.49c33.91 21.11 19.73 112.87 4.73 137z" fill="#f1f2f2" opacity=".21"/><path d="M250.97 686.12c-14.89 23.94-29.48 20.51-59.81 1.13L55.95 627.99c-33.7-21-47.33-61.87-32.41-85.77l81.19-184.37c14.92-23.88-15.6-16.66 18.11 4.33l216.8 88.48c33.67 21 20.72 111.29 5.83 135.24z" fill="#f0f1f1" opacity=".22"/><path d="M250.43 683.35c-14.79 23.77-29.39 20.28-59.25 1.16l-134-59c-33.47-20.88-47.37-61.23-32.55-85l80.81-181.52c14.82-23.72-15-16.89 18.44 3.94l214.49 87.47c33.49 20.87 21.72 109.76 6.93 133.59z" fill="#eff0f0" opacity=".24"/><path d="M249.86 680.59c-14.68 23.61-29.29 20.06-58.69 1.19l-132.82-58.7c-33.24-20.73-47.42-60.59-32.7-84.16l80.5-178.74c14.71-23.55-14.47-17.13 18.78 3.56l212.18 86.46c33.21 20.68 22.71 108.13 8 131.76z" fill="#eeefef" opacity=".25"/><path d="M249.34 677.82c-14.58 23.44-29.19 19.84-58.13 1.22L59.54 620.61c-33-20.59-47.46-59.95-32.84-83.35l80.16-175.92c14.6-23.35-13.91-17.35 19.1 3.18l209.9 85.47c33 20.53 23.71 106.55 9.13 130z" fill="#edeeee" opacity=".26"/><path d="M248.79 675.05c-14.48 23.27-29.09 19.62-57.57 1.25L60.74 618.13c-32.77-20.44-47.5-59.3-33-82.54l79.81-173.1c14.51-23.22-13.33-17.6 19.44 2.8l207.55 84.44c32.74 20.39 24.71 105 10.23 128.27z" fill="#eceded" opacity=".28"/><path d="M248.25 672.29c-14.38 23.11-29 19.4-57 1.28l-129.3-57.9c-32.53-20.29-47.54-58.66-33.13-81.74l79.44-170.29c14.4-23.05-12.77-17.84 19.78 2.42l205.24 83.43c32.51 20.24 25.7 103.39 11.33 126.52z" fill="#ebecec" opacity=".29"/><path d="M247.7 669.52c-14.27 22.94-28.89 19.17-56.46 1.3L63.13 613.19c-32.27-20.2-47.58-58.02-33.27-80.93l79.1-167.47c14.3-22.89-12.2-18.08 20.11 2L332 449.21c32.27 20.09 26.7 101.81 12.42 124.78z" fill="#eaebec" opacity=".31"/><path d="M247.16 666.76c-14.17 22.77-28.79 19-55.9 1.34L64.32 610.71c-32.07-20-47.62-57.38-33.42-80.12l78.77-164.65c14.2-22.72-11.63-18.31 20.44 1.66l200.62 81.39c32 19.95 27.69 100.23 13.52 123z" fill="#e9eaeb" opacity=".32"/><path d="M246.61 663.99c-14.07 22.61-28.7 18.73-55.34 1.36L65.52 608.24c-31.83-19.85-47.66-56.73-33.57-79.31l78.42-161.84c14.09-22.56-11.07-18.55 20.78 1.28l198.31 80.4c31.81 19.8 28.69 98.65 14.62 121.29z" fill="#e8e9ea" opacity=".34"/><path d="M246.07 661.22c-14 22.44-28.6 18.51-54.79 1.39L66.71 605.76c-31.6-19.71-47.7-56.09-33.71-78.51l78.08-159c14-22.39-10.5-18.79 21.11.9l196 79.39c31.57 19.64 29.67 97.06 15.67 119.53z" fill="#e7e8e9" opacity=".35"/><path d="M245.52 658.46c-13.86 22.27-28.5 18.29-54.23 1.42L67.86 603.29c-31.37-19.56-47.74-55.45-33.86-77.7l77.73-156.2c13.88-22.23-9.93-19 21.44.52l193.69 78.37c31.34 19.51 30.68 95.5 16.82 117.8z" fill="#e6e7e8" opacity=".37"/><path d="M244.98 655.69c-13.76 22.1-28.4 18.06-53.67 1.45L69.1 600.82c-31.13-19.41-47.78-54.81-34-76.89l77.38-153.38c13.78-22.06-9.37-19.26 21.78.13l191.37 77.37c31.11 19.37 31.68 93.92 17.92 116.05z" fill="#e5e6e7" opacity=".38"/><path d="M244.43 652.93c-13.65 21.94-28.3 17.84-53.11 1.48l-121-56.07c-30.9-19.27-47.83-54.16-34.15-76.09l77-150.56c13.68-21.89-8.8-19.5 22.11-.25l189.08 76.37c30.87 19.22 32.67 92.34 19 114.31z" fill="#e4e5e6" opacity=".4"/><path d="M243.86 650.16c-13.55 21.77-28.2 17.62-52.55 1.51l-119.84-55.8c-30.66-19.12-47.87-53.52-34.29-75.28l76.68-147.75c13.57-21.73-8.23-19.73 22.45-.63l186.75 75.35c30.64 19.08 33.67 90.76 20.12 112.56z" fill="#e3e4e5" opacity=".41"/><path d="M243.34 647.39c-13.45 21.6-28.1 17.4-52 1.54L72.69 593.39c-30.43-19-47.91-52.88-34.44-74.47l76.35-144.93c13.47-21.56-7.66-20 22.78-1l184.48 74.34c30.41 18.93 34.66 89.18 21.21 110.82z" fill="#e2e3e4" opacity=".43"/><path d="M242.8 644.63c-13.34 21.44-28 17.18-51.44 1.57l-117.5-55.28c-30.2-18.83-48-52.24-34.58-73.67l76-142.11c13.37-21.4-7.1-20.21 23.11-1.39l182.12 73.33c30.17 18.79 35.66 87.6 22.31 109.07z" fill="#e1e2e3" opacity=".44"/><path d="M242.25 641.86c-13.24 21.27-27.91 17-50.88 1.6l-116.29-55c-30-18.68-48-51.59-34.73-72.86L116 376.31c13.26-21.23-6.53-20.44 23.45-1.77l179.81 72.32c29.94 18.64 36.66 86 23.41 107.33z" fill="#e0e1e2" opacity=".46"/><path d="M241.71 639.1c-13.14 21.1-27.81 16.73-50.32 1.63L76.28 585.99c-29.73-18.53-48-51-34.87-72.05l75.31-136.47c13.16-21.07-6-20.68 23.78-2.15L318 446.63c29.71 18.5 37.65 84.44 24.51 105.58z" fill="#dfe0e1" opacity=".47"/><path d="M241.16 636.33c-13 20.94-27.71 16.51-49.76 1.66L77.47 583.5c-29.49-18.39-48.07-50.31-35-71.24l75-133.65c13.06-20.9-5.4-20.92 24.11-2.53l175.19 70.3c29.47 18.35 38.65 82.86 25.61 103.84z" fill="#dedfe0" opacity=".49"/><path d="M240.62 633.56c-12.93 20.77-27.61 16.29-49.21 1.69L78.67 580.99c-29.26-18.24-48.11-49.67-35.16-70.44l74.62-130.83c13-20.73-4.83-21.15 24.45-2.91l172.88 69.29c29.24 18.2 39.64 81.28 26.71 102.09z" fill="#dddee0" opacity=".5"/><path d="M240.07 630.8c-12.83 20.6-27.51 16.06-48.65 1.72L79.86 578.55c-29-18.09-48.16-49-35.31-69.63l74.27-128c12.85-20.57-4.26-21.39 24.78-3.29l170.57 68.26c29 18.06 40.64 79.7 27.81 100.35z" fill="#dcdddf" opacity=".51"/><path d="M239.53 627.99c-12.73 20.44-27.41 15.84-48.09 1.75L81.06 576.07c-28.79-17.95-48.2-48.38-35.45-68.82l73.92-125.2c12.74-20.4-3.7-21.63 25.12-3.67l168.21 67.26c28.77 17.91 41.64 78.13 28.91 98.6z" fill="#dbddde" opacity=".53"/><path d="M238.98 625.27c-12.62 20.27-27.32 15.62-47.53 1.77L82.25 573.6c-28.56-17.8-48.24-47.74-35.6-68l73.58-122.38c12.64-20.24-3.13-21.86 25.45-4.06l165.94 66.26c28.54 17.77 42.63 76.55 30 96.86z" fill="#dbdcdd" opacity=".54"/><path d="M238.44 622.5c-12.52 20.1-27.22 15.4-47 1.8l-108-53.18c-28.32-17.66-48.28-47.1-35.74-67.21l73.23-119.56c12.54-20.07-2.56-22.1 25.78-4.44l163.63 65.25c28.31 17.62 43.63 75 31.11 95.11z" fill="#dadbdc" opacity=".56"/><path d="M237.86 619.73c-12.42 19.94-27.12 15.18-46.42 1.83l-106.8-52.91c-28.09-17.51-48.32-46.45-35.89-66.4l72.89-116.75c12.43-19.91-2-22.34 26.12-4.82l161.32 64.24c28.07 17.48 44.62 73.39 32.2 93.37z" fill="#d9dadb" opacity=".57"/><path d="M237.35 616.99c-12.31 19.77-27 15-45.86 1.86L85.86 566.18c-27.86-17.36-48.36-45.81-36-65.59l72.54-113.93c12.33-19.74-1.43-22.57 26.45-5.2l159 63.23c27.84 17.33 45.62 71.81 33.3 91.62z" fill="#d8d9da" opacity=".59"/><path d="M236.8 614.2c-12.21 19.6-26.92 14.73-45.3 1.89L87.03 563.7c-27.62-17.21-48.4-45.17-36.18-64.79l72.19-111.11c12.23-19.57-.86-22.81 26.78-5.58l156.7 62.22c27.61 17.19 46.62 70.23 34.4 89.88z" fill="#d7d8d9" opacity=".6"/><path d="M236.26 611.44c-12.11 19.44-26.82 14.51-44.74 1.92L88.23 561.23c-27.39-17.07-48.44-44.53-36.32-64l71.85-108.24c12.12-19.41-.29-23 27.12-6l154.38 61.21c27.37 17 47.61 68.65 35.5 88.13z" fill="#d6d7d8" opacity=".62"/><path d="M235.71 608.67c-12 19.27-26.72 14.29-44.18 2L89.43 558.8c-27.16-16.92-48.49-43.88-36.47-63.17l71.5-105.47c12-19.24.27-23.28 27.45-6.34l152.07 60.17c27.14 16.89 48.61 67.07 36.6 86.39z" fill="#d5d6d7" opacity=".63"/><path d="M235.17 605.9c-11.9 19.1-26.63 14.07-43.63 2L90.62 556.3c-26.92-16.78-48.53-43.24-36.61-62.37l71.16-102.66c11.91-19.08.84-23.52 27.78-6.72l149.76 59.19c26.91 16.75 49.6 65.49 37.7 84.64z" fill="#d4d5d6" opacity=".65"/><path d="M234.62 603.14c-11.8 18.93-26.53 13.84-43.07 2l-99.69-51.33c-26.69-16.63-48.57-42.6-36.76-61.56l70.76-99.84c11.81-18.91 1.41-23.76 28.12-7.1l147.45 58.18c26.67 16.6 50.6 63.91 38.8 82.9z" fill="#d3d4d5" opacity=".66"/><path d="M234.08 600.37c-11.69 18.77-26.43 13.62-42.51 2l-98.56-51.08c-26.45-16.48-48.61-42-36.9-60.75l70.46-97c11.71-18.75 2-24 28.45-7.48l145.14 57.18c26.44 16.46 51.59 62.33 39.9 81.16z" fill="#d2d3d4" opacity=".68"/><path d="M233.53 597.6c-11.59 18.6-26.33 13.4-42 2.07l-97.38-50.81c-26.22-16.34-48.65-41.31-37-59.95l70.12-94.2c11.6-18.58 2.54-24.23 28.78-7.86l142.81 56.14c26.21 16.31 52.59 60.75 41 79.41z" fill="#d1d2d3" opacity=".69"/><path d="M232.99 594.84c-11.49 18.44-26.23 13.18-41.39 2.1l-96.19-50.55c-26-16.19-48.69-40.67-37.19-59.14l69.77-91.38c11.5-18.41 3.11-24.47 29.12-8.25l140.51 55.15c26 16.17 53.59 59.17 42.1 77.66z" fill="#d0d1d3" opacity=".71"/><path d="M232.44 592.07c-11.38 18.27-26.13 13-40.84 2.13l-95-50.29c-25.75-16-48.73-40-37.33-58.33l69.42-88.59c11.4-18.25 3.67-24.71 29.45-8.63l138.2 54.14c25.74 16 54.58 57.6 43.19 75.92z" fill="#cfd0d2" opacity=".72"/><path d="M231.86 589.31c-11.28 18.1-26 12.73-40.28 2.16l-93.83-50c-25.52-15.9-48.77-39.39-37.48-57.52l69.08-85.75c11.29-18.08 4.24-24.94 29.79-9l135.89 53.13c25.51 15.88 55.58 56 44.29 74.17z" fill="#cecfd1" opacity=".74"/><path d="M231.35 586.54c-11.18 17.93-25.94 12.51-39.72 2.18l-92.64-49.73c-25.28-15.75-48.81-38.74-37.62-56.72l68.73-82.93c11.19-17.92 4.81-25.18 30.12-9.39l133.58 52.12c25.27 15.73 56.57 54.44 45.39 72.43z" fill="#cdced0" opacity=".75"/><path d="M230.81 583.78c-11.08 17.77-25.84 12.29-39.16 2.21l-91.46-49.5c-25-15.6-48.86-38.1-37.77-55.91l68.39-80.11c11.08-17.75 5.38-25.42 30.45-9.77l131.27 51.11c25 15.59 57.57 52.86 46.49 70.69z" fill="#cccdcf" opacity=".76"/><path d="M230.26 580.99c-11 17.6-25.74 12.07-38.6 2.24l-90.28-49.24c-24.82-15.46-48.9-37.46-37.92-55.1l68-77.3c11-17.59 5.94-25.65 30.79-10.15l129 50.1c24.8 15.45 58.61 51.3 47.61 68.96z" fill="#cbccce" opacity=".78"/><path d="M229.72 578.24c-10.87 17.43-25.64 11.85-38 2.27l-89.1-49c-24.58-15.31-48.94-36.82-38.06-54.3l67.7-74.48c10.88-17.42 6.51-25.89 31.12-10.53l126.64 49.09c24.57 15.29 59.56 49.7 48.69 67.2z" fill="#cacbcd" opacity=".79"/><path d="M229.18 575.48c-10.77 17.27-25.54 11.63-37.49 2.3l-87.92-48.71c-24.35-15.16-49-36.17-38.2-53.49l67.35-71.66c10.77-17.25 7.08-26.12 31.45-10.91l124.33 48.08c24.34 15.15 60.56 48.12 49.79 65.45z" fill="#c9cacc" opacity=".81"/><path d="M228.63 572.71c-10.66 17.1-25.44 11.4-36.93 2.33l-86.74-48.45c-24.11-15-49-35.53-38.35-52.68l67-68.84c10.67-17.09 7.64-26.36 31.79-11.29l122 47.07c24.11 15 61.55 46.54 50.89 63.71z" fill="#c8c9cb" opacity=".82"/><path d="M228.08 569.99c-10.56 16.93-25.34 11.18-36.37 2.36l-85.55-48.23c-23.88-14.87-49.06-34.89-38.49-51.87l66.66-66c10.57-16.92 8.21-26.6 32.12-11.67l119.71 46.06c23.87 14.86 62.55 45 52 62z" fill="#c7c8ca" opacity=".84"/><path d="M227.54 567.18c-10.46 16.77-25.25 11-35.81 2.39l-84.37-47.93c-23.65-14.72-49.1-34.25-38.64-51.07l66.31-63.21c10.46-16.76 8.78-26.84 32.45-12.06l117.4 45c23.64 14.71 63.54 43.38 53.08 60.22z" fill="#c6c7c9" opacity=".85"/><path d="M226.99 564.41c-10.35 16.6-25.15 10.74-35.26 2.42l-83.19-47.66c-23.41-14.58-49.14-33.6-38.78-50.26l66-60.39c10.36-16.59 9.34-27.07 32.79-12.44l115.08 44c23.41 14.57 64.54 41.8 54.18 58.47z" fill="#c5c6c8" opacity=".87"/><path d="M226.45 561.65c-10.25 16.43-25 10.51-34.7 2.45l-82-47.4c-23.18-14.43-49.18-33-38.93-49.45l65.62-57.57c10.26-16.42 9.91-27.31 33.12-12.82l112.77 43c23.17 14.42 65.54 40.23 55.28 56.73z" fill="#c4c6c7" opacity=".88"/><path d="M225.86 558.88c-10.15 16.27-24.95 10.29-34.14 2.48l-80.82-47.14c-22.95-14.28-49.22-32.32-39.07-48.65l65.27-54.75c10.15-16.26 10.48-27.55 33.46-13.2l110.46 42c22.94 14.28 66.53 38.65 56.38 55z" fill="#c3c5c7" opacity=".9"/><path d="M225.36 556.11c-10 16.1-24.85 10.07-33.58 2.51l-79.64-46.87c-22.71-14.14-49.27-31.68-39.22-47.84l64.94-51.92c10-16.1 11-27.78 33.79-13.58l108.15 41c22.71 14.13 67.53 37.07 57.48 53.24z" fill="#c2c4c6" opacity=".91"/><path d="M224.86 553.35c-9.94 15.93-24.75 9.85-33 2.54l-78.46-46.61c-22.48-14-49.31-31-39.36-47l64.58-49.12c9.94-15.93 11.61-28 34.12-14l105.84 40c22.47 14 68.52 35.49 58.58 51.49z" fill="#c1c3c5" opacity=".93"/><path d="M224.27 550.58c-9.84 15.77-24.65 9.63-32.47 2.57l-77.27-46.35c-22.24-13.84-49.35-30.39-39.51-46.23l64.24-46.3c9.84-15.76 12.18-28.26 34.46-14.34l103.53 39c22.24 13.84 69.52 33.91 59.68 49.75z" fill="#c0c2c4" opacity=".94"/><path d="M223.73 547.82c-9.74 15.6-24.56 9.4-31.91 2.6l-76.09-46.09c-22-13.7-49.39-29.75-39.65-45.42l63.89-43.48c9.74-15.6 12.75-28.49 34.79-14.72l101.21 38c22 13.7 70.51 32.33 60.78 48z" fill="#bfc1c3" opacity=".96"/><path d="M223.18 545.05c-9.63 15.43-24.46 9.18-31.35 2.63l-74.91-45.83c-21.78-13.55-49.43-29.11-39.8-44.61l63.54-40.66c9.63-15.43 13.31-28.73 35.12-15.11l98.9 37c21.77 13.55 71.51 30.75 61.88 46.26z" fill="#bec0c2" opacity=".97"/><path d="M222.64 542.28c-9.53 15.27-24.36 9-30.79 2.65l-73.73-45.56c-21.54-13.4-49.47-28.46-39.94-43.8l63.2-37.84c9.53-15.27 13.88-29 35.46-15.49l96.59 36c21.54 13.4 72.51 29.17 63 44.51z" fill="#bdbfc1" opacity=".99"/><path d="M222.09 539.52c-9.43 15.1-24.26 8.74-30.24 2.68l-72.54-45.3c-21.31-13.26-49.51-27.82-40.09-43l62.85-35c9.43-15.1 14.45-29.2 35.79-15.87l94.28 35c21.31 13.26 73.5 27.59 64.07 42.77z" fill="#b3b3b3"/></g><path d="M670.52 416.28l-5.4-3.23a2.33 2.33 0 0 1-1-2.18v-55a.63.63 0 0 0-.14-.44c-.09-.1-.17-.08-.23.07l-3.92 14.25-9.05 29.88c-.12.21-.31.5-.56.87s-.65.39-1.21.06l-3.64-2.17a3.69 3.69 0 0 1-1.17-1.05 5.43 5.43 0 0 1-.7-1.9l-8.64-39.38-4-19.64q-.28-.59-.28-.17v54.45q0 1.7-1 1.07l-5.31-3.17a2.4 2.4 0 0 1-1.14-2.23v-83q0-2.69 1.71-1.68l3.69 2.19a4.57 4.57 0 0 1 1.61 1.31 13 13 0 0 1 .76 2.22l12.51 58.08 3.45 17.7q.46 1.41.84.64.93-3.27 1.82-6.92t1.82-6.92l12.41-43.22a2.24 2.24 0 0 1 .9-1 1.78 1.78 0 0 1 1.38.39l3.79 2.24a3 3 0 0 1 1.37 1.52 5.89 5.89 0 0 1 .33 2v83.26q.05 1.72-1 1.1zM718 366.24a5 5 0 0 1 .47 1.77 1.52 1.52 0 0 1-.75 1.19l-3.56 2.45c-.25.23-.58.16-1-.23a4.14 4.14 0 0 1-1-1.51 33.37 33.37 0 0 0-4.4-7.87 20.12 20.12 0 0 0-5.62-5.32q-4.49-2.66-6.88-.24t-2.34 8.51v41.34a26.14 26.14 0 0 0 2.62 11.44 18.41 18.41 0 0 0 7.11 8.15 6.85 6.85 0 0 0 5.43 1 9.78 9.78 0 0 0 4.12-2.17 2.78 2.78 0 0 1 .94-.79c.31-.15.72.21 1.22 1.08l3.74 6.93a2.58 2.58 0 0 1 .33 1.19 2.8 2.8 0 0 1-.14 1.2 9.48 9.48 0 0 1-6.93 4.26 14.33 14.33 0 0 1-8.7-2.36 31.54 31.54 0 0 1-7-5.73 36.92 36.92 0 0 1-5.57-7.94 44.84 44.84 0 0 1-5.05-20.84v-41.39a29.09 29.09 0 0 1 1.26-9.26 11.61 11.61 0 0 1 3.51-5.52 7.73 7.73 0 0 1 5.38-1.65 15.19 15.19 0 0 1 6.88 2.36 35.6 35.6 0 0 1 8.33 7.06 47.23 47.23 0 0 1 7.6 12.89zm47.22 44.67a29.21 29.21 0 0 1-1.31 9.21 13.82 13.82 0 0 1-3.65 6 8.41 8.41 0 0 1-5.52 2.21 12.87 12.87 0 0 1-6.93-2.12l-8.61-5.12q-.75-.45-.75.84v33.21q0 1.71-1.12 1l-5.62-3.36a2.4 2.4 0 0 1-1.12-2.24v-84.68q0-1.57 1.12-.9l16 9.47a28.06 28.06 0 0 1 7.35 6.34 40.5 40.5 0 0 1 5.47 8.73 50 50 0 0 1 3.46 10.33 51.2 51.2 0 0 1 1.23 11.08zm-26-31.26q-.84-.5-.84.64v28.93a1.84 1.84 0 0 0 .75 1.73l8.61 5.12q4.4 2.61 7.07 0t2.67-9.9a32 32 0 0 0-.61-5.93 31.17 31.17 0 0 0-1.82-6.15 26.47 26.47 0 0 0-3-5.44 14.27 14.27 0 0 0-4.26-3.95z" fill="#010101"/><path fill="#fafafa" d="M339.2 323.53l-137.62-79.86-138 79.17 137.62 79.94 138-79.25z"/><path fill="#b3b3b3" d="M201.2 402.78l-.39 159.12 138.01-79.25.38-159.12-138 79.25z"/><path fill="#e6e6e6" d="M63.58 322.84l-.38 159.2 137.61 79.86.39-159.12-137.62-79.94z"/><path d="M92.37 427.99a15.21 15.21 0 0 1-.6 4.57 6.14 6.14 0 0 1-1.71 2.84 3.92 3.92 0 0 1-2.69 1 7.38 7.38 0 0 1-3.52-1.13l-9.2-5.28a1.11 1.11 0 0 1-.57-1v-38.73q0-.71.52-.43l8.53 4.61a15.45 15.45 0 0 1 6.12 6 18 18 0 0 1 2.26 9.13 8.68 8.68 0 0 1-.24 2 7.77 7.77 0 0 1-.67 1.8 6.3 6.3 0 0 1-1 1.42 3.75 3.75 0 0 1-1.24.89.54.54 0 0 0 0 .49 17.42 17.42 0 0 1 3 5.66 20.4 20.4 0 0 1 1.01 6.16zm-4.81-20.7a10.11 10.11 0 0 0-1.14-4.79 8 8 0 0 0-3.33-3.36l-4.62-2.52c-.25-.14-.38 0-.38.31v10.62a.83.83 0 0 0 .38.8l4.67 2.58q2.24 1.24 3.33 0a5.34 5.34 0 0 0 1.09-3.65zm.86 18.7a16.66 16.66 0 0 0-.26-2.87 11.85 11.85 0 0 0-.88-2.86 11.59 11.59 0 0 0-1.62-2.58 8.43 8.43 0 0 0-2.43-2l-4.77-2.69c-.25-.14-.38 0-.38.31v13.3a.84.84 0 0 0 .38.8l5.29 3q2.19 1.25 3.43 0t1.24-4.41zm27 27.31l-15.56-8.89a1.12 1.12 0 0 1-.57-1.06v-39.42q0-.73.57-.42l15.34 8.29a1.13 1.13 0 0 1 .62 1.07v3.29q0 .81-.57.49l-11.58-6.3q-.38-.21-.38.32v11.37a.74.74 0 0 0 .33.72l9.58 5.31a1.17 1.17 0 0 1 .57 1.12v3.35q0 .74-.52.45l-9.57-5.34q-.38-.21-.38.38v12.9a.83.83 0 0 0 .33.79l11.77 6.69a1.13 1.13 0 0 1 .57 1.06v3.36q.02.8-.55.47zm16.71-6.31a1 1 0 0 0-.21-.43c-.11-.13-.2-.1-.26.09l-5.29 12.12a.58.58 0 0 1-.45.38 1.67 1.67 0 0 1-.6-.24l-3-1.69a.93.93 0 0 1-.43-1.32l7.34-15.74a1.73 1.73 0 0 0 .14-1q-.1-.39-.19-.72l-6.67-21.78q-.38-1.15.52-.66l3.14 1.7a1.77 1.77 0 0 1 .62.5 2.65 2.65 0 0 1 .33.76l4.62 16.09q.19.38.38.21 1.19-2.67 2.38-5.46t2.33-5.58a.66.66 0 0 1 .33-.4.88.88 0 0 1 .62.16l2.86 1.55a1 1 0 0 1 .52 1.24q-1.67 3.75-3.41 7.44t-3.41 7.39a2 2 0 0 0 0 1.36q.86 2.79 1.79 5.87t1.91 6.25l1.93 6.28 1.81 5.92q.38 1.31-.43.85l-3-1.69a2.92 2.92 0 0 1-.49-.45 2.15 2.15 0 0 1-.43-.89zm32.25 34.34l-15.52-8.89a1.15 1.15 0 0 1-.57-1.08v-40.93q0-.76.57-.45l15.34 8.29a1.16 1.16 0 0 1 .62 1.1v3.41q0 .84-.57.52l-11.59-6.31q-.38-.21-.38.34v11.8a.76.76 0 0 0 .33.74l9.58 5.31a1.2 1.2 0 0 1 .57 1.15v3.48q0 .77-.52.47l-9.58-5.29q-.38-.21-.38.41v13.38a.86.86 0 0 0 .33.81l11.77 6.69a1.15 1.15 0 0 1 .57 1.09v3.48q0 .81-.57.48zm23.19 13.27l-15.15-8.67a1.16 1.16 0 0 1-.57-1.1v-41.64q0-.77.52-.49l2.91 1.57a1 1 0 0 1 .52 1v36.85a.89.89 0 0 0 .38.85l11.34 6.45a1.17 1.17 0 0 1 .57 1.1v3.54q.01.84-.52.54zm286.79-324.02a7.51 7.51 0 0 1-.69 3.51 3.62 3.62 0 0 1-1.91 1.76 5 5 0 0 1-2.9.14 12.34 12.34 0 0 1-3.6-1.51 20.14 20.14 0 0 1-3.6-2.71 19.65 19.65 0 0 1-2.88-3.42 16.38 16.38 0 0 1-1.93-4 13.62 13.62 0 0 1-.69-4.3v-15.29a6.84 6.84 0 0 1 .71-3.37 3.86 3.86 0 0 1 1.93-1.76 5.12 5.12 0 0 1 2.86-.2 11.75 11.75 0 0 1 3.55 1.33 18.31 18.31 0 0 1 3.5 2.51 18.85 18.85 0 0 1 2.91 3.34 16.27 16.27 0 0 1 2 4 13.5 13.5 0 0 1 .71 4.34v15.65zm-4-17.78a8.73 8.73 0 0 0-1.38-4.58 9.78 9.78 0 0 0-3.67-3.53q-2.33-1.29-3.72-.54a3.05 3.05 0 0 0-1.38 3v15.15a9 9 0 0 0 1.31 4.61 10.24 10.24 0 0 0 3.74 3.66q2.38 1.4 3.74.72t1.36-3.1v-15.4zm28.66 32.08a8 8 0 0 1-.69 3.63 3.77 3.77 0 0 1-1.91 1.85 4.82 4.82 0 0 1-2.86.17 11.89 11.89 0 0 1-3.6-1.49 19.73 19.73 0 0 1-6.48-6.21 16.77 16.77 0 0 1-1.93-4.05 14.36 14.36 0 0 1-.69-4.43v-15.78a7.34 7.34 0 0 1 .71-3.49 4 4 0 0 1 1.93-1.85 5 5 0 0 1 2.86-.26 11.32 11.32 0 0 1 3.55 1.31 17.88 17.88 0 0 1 3.5 2.53 18.8 18.8 0 0 1 2.91 3.4 16.67 16.67 0 0 1 2 4.07 14.22 14.22 0 0 1 .71 4.46v16.15zm-4-18.28a9.1 9.1 0 0 0-1.38-4.7 9.67 9.67 0 0 0-3.67-3.58q-2.33-1.29-3.72-.49t-1.39 3.09v15.65a9.34 9.34 0 0 0 1.31 4.73 10.12 10.12 0 0 0 3.74 3.7q2.38 1.4 3.74.67t1.36-3.22V166.6zm29.16 17.39a9 9 0 0 1-.67 3.64 4.77 4.77 0 0 1-1.86 2.24 4.59 4.59 0 0 1-2.81.59 8.57 8.57 0 0 1-3.52-1.22l-4.38-2.52q-.38-.22-.38.29v13.16q0 .68-.57.34l-2.86-1.69a1.06 1.06 0 0 1-.57-1v-33.35q0-.62.57-.3l8.15 4.47a15.61 15.61 0 0 1 3.74 2.85 18.26 18.26 0 0 1 2.79 3.74 19 19 0 0 1 1.76 4.3 17.09 17.09 0 0 1 .61 4.46zm-13.24-13.71q-.43-.24-.43.21v11.5a.77.77 0 0 0 .38.73l4.38 2.49q2.24 1.27 3.6.36t1.36-3.83a10.6 10.6 0 0 0-.31-2.4 11.49 11.49 0 0 0-2.48-4.86 7.84 7.84 0 0 0-2.17-1.77z" fill="#010101"/><g style="mix-blend-mode:multiply"><path d="M1316.86 793.45c-16.33 26.28-30.86 23.62-67.62.72l-151.77-62.89c-37-23.08-46.76-70.87-30.38-97.07l86-223.83c16.37-26.2-23.54-13.34 13.44 9.66l249.17 102.62c36.94 23 6.78 133.39-9.55 159.67z" fill="#fefefe" opacity=".01"/><path d="M1316.29 790.69c-16.23 26.11-30.77 23.39-67.06.75l-150.58-62.63c-36.74-22.93-46.8-70.23-30.52-96.26l85.69-221c16.27-26-23-13.58 13.77 9.28l246.85 101.61c36.71 22.86 7.78 131.82-8.45 157.93z" fill="#fdfdfd" opacity=".03"/><path d="M1315.74 787.92c-16.13 25.94-30.67 23.17-66.5.78l-149.38-62.37c-36.51-22.79-46.84-69.58-30.67-95.45l85.34-218.19c16.17-25.87-22.4-13.82 14.11 8.9l244.54 100.6c36.47 22.71 8.77 130.24-7.36 156.18z" fill="#fcfcfc" opacity=".04"/><path d="M1315.2 785.15c-16 25.78-30.57 22.95-65.94.81l-148.22-62.11c-36.28-22.64-46.88-68.94-30.81-94.65l85-215.37c16.06-25.7-21.84-14.05 14.44 8.52l242.19 99.59c36.24 22.57 9.77 128.66-6.26 154.44z" fill="#fbfbfb" opacity=".06"/><path d="M1314.65 782.39c-15.92 25.61-30.47 22.73-65.38.84l-147-61.84c-36-22.49-46.92-68.3-31-93.84l84.65-212.56c16-25.54-21.27-14.29 14.77 8.13l239.92 98.58c36 22.42 10.76 127.08-5.16 152.69z" fill="#fafafa" opacity=".07"/><path d="M1314.11 779.62c-15.82 25.44-30.37 22.5-64.83.87l-145.86-61.58c-35.81-22.35-47-67.66-31.1-93l84.3-209.74c15.86-25.37-20.7-14.53 15.11 7.75l237.61 97.57c35.77 22.28 11.76 125.5-4.06 150.95z" fill="#f9f9f9" opacity=".09"/><path d="M1313.56 776.86c-15.72 25.27-30.27 22.28-64.27.89l-144.67-61.32c-35.57-22.2-47-67-31.25-92.23l84-206.92c15.75-25.21-20.14-14.76 15.44 7.37l235.29 96.56c35.54 22.13 12.76 123.92-3 149.21z" fill="#f8f8f9" opacity=".1"/><path d="M1313.02 774.09c-15.61 25.11-30.17 22.06-63.71.92l-143.45-61.02c-35.34-22.05-47-66.37-31.39-91.42l83.61-204.1c15.65-25-19.57-15 15.77 7l233 95.55c35.31 22 13.75 122.34-1.86 147.46z" fill="#f7f7f8" opacity=".12"/><path d="M1312.47 771.32c-15.51 24.94-30.08 21.84-63.15 1l-142.31-60.83c-35.11-21.91-47.09-65.73-31.54-90.61l83.27-201.28c15.54-24.87-19-15.24 16.11 6.61l230.67 94.54c35.07 21.84 14.75 120.76-.76 145.71z" fill="#f6f6f7" opacity=".13"/><path d="M1311.93 768.56c-15.41 24.78-30 21.62-62.59 1l-141.13-60.57c-34.87-21.76-47.13-65.09-31.68-89.81l82.92-198.46c15.41-24.73-18.44-15.45 16.41 6.27l228.36 93.53c34.84 21.69 15.74 119.18.34 144z" fill="#f5f5f6" opacity=".15"/><path d="M1311.38 765.79c-15.3 24.61-29.88 21.39-62 1l-139.94-60.27c-34.64-21.61-47.17-64.44-31.83-89l82.57-195.65c15.34-24.54-17.87-15.71 16.78 5.85l226 92.52c34.61 21.55 16.74 117.6 1.44 142.23z" fill="#f4f4f5" opacity=".16"/><path d="M1310.86 762.99c-15.2 24.44-29.78 21.17-61.48 1l-138.76-60c-34.41-21.46-47.21-63.8-32-88.19l82.24-192.76c15.23-24.38-17.3-15.95 17.11 5.47l223.73 91.48c34.37 21.4 17.73 116 2.53 140.48z" fill="#f3f4f4" opacity=".18"/><path d="M1310.29 760.26c-15.1 24.27-29.68 20.95-60.92 1.07l-137.58-59.74c-34.17-21.32-47.25-63.16-32.12-87.39l81.88-190c15.13-24.21-16.74-16.18 17.44 5.09l221.42 90.5c34.14 21.26 18.73 114.45 3.63 138.73z" fill="#f2f3f3" opacity=".19"/><path d="M1309.75 757.49c-15 24.11-29.58 20.73-60.36 1.1l-136.4-59.48c-33.94-21.17-47.29-62.52-32.26-86.58l81.54-187.19c15-24-16.17-16.42 17.78 4.71l219.11 89.49c33.91 21.11 19.73 112.87 4.73 137z" fill="#f1f2f2" opacity=".21"/><path d="M1309.2 754.73c-14.89 23.94-29.48 20.51-59.81 1.13l-135.21-59.22c-33.7-21-47.33-61.87-32.41-85.77l81.19-184.38c14.92-23.88-15.6-16.66 18.11 4.33l216.79 88.48c33.67 21 20.72 111.29 5.83 135.24z" fill="#f0f1f1" opacity=".22"/><path d="M1308.66 751.99c-14.79 23.77-29.39 20.29-59.25 1.16l-134-59c-33.47-20.88-47.37-61.23-32.55-85l80.84-181.56c14.82-23.72-15-16.89 18.44 3.94L1396.63 519c33.44 20.82 21.72 109.71 6.93 133.5z" fill="#eff0f0" opacity=".24"/><path d="M1308.11 749.2c-14.68 23.61-29.29 20.06-58.69 1.19l-132.85-58.7c-33.24-20.73-47.41-60.59-32.7-84.16l80.5-178.74c14.71-23.55-14.47-17.13 18.78 3.56l212.18 86.46c33.21 20.68 22.71 108.13 8 131.76z" fill="#eeefef" opacity=".25"/><path d="M1307.57 746.43c-14.58 23.44-29.19 19.84-58.13 1.22l-131.67-58.43c-33-20.59-47.46-59.95-32.84-83.35l80.15-175.88c14.61-23.38-13.9-17.37 19.11 3.18l209.87 85.45c33 20.53 23.71 106.55 9.13 130z" fill="#edeeee" opacity=".26"/><path d="M1307.02 743.66c-14.48 23.27-29.09 19.62-57.57 1.25l-130.48-58.17c-32.77-20.44-47.5-59.3-33-82.54l79.8-173.1c14.51-23.22-13.33-17.6 19.44 2.8l207.55 84.44c32.74 20.38 24.71 105 10.23 128.26z" fill="#eceded" opacity=".28"/><path d="M1306.48 740.9c-14.38 23.11-29 19.4-57 1.28l-129.3-57.9c-32.53-20.29-47.54-58.66-33.13-81.73l79.46-170.29c14.4-23.05-12.77-17.84 19.78 2.42l205.24 83.43c32.51 20.24 25.7 103.39 11.33 126.52z" fill="#ebecec" opacity=".29"/><path d="M1305.93 738.13c-14.27 22.94-28.89 19.17-56.46 1.3l-128.11-57.63c-32.3-20.15-47.58-58-33.28-80.93l79.11-167.47c14.3-22.89-12.2-18.08 20.11 2l202.93 82.42c32.27 20.09 26.7 101.81 12.42 124.78z" fill="#eaebec" opacity=".31"/><path d="M1305.39 735.37c-14.17 22.77-28.79 19-55.9 1.33l-126.94-57.38c-32.07-20-47.62-57.38-33.42-80.12l78.73-164.65c14.2-22.72-11.63-18.31 20.45 1.66l200.62 81.41c32 19.95 27.69 100.23 13.52 123z" fill="#e9eaeb" opacity=".32"/><path d="M1304.86 732.6c-14.07 22.61-28.7 18.73-55.34 1.37l-125.75-57.12c-31.83-19.85-47.66-56.73-33.57-79.31l78.42-161.83c14.09-22.56-11.07-18.55 20.78 1.28l198.31 80.4c31.81 19.8 28.69 98.65 14.62 121.29z" fill="#e8e9ea" opacity=".34"/><path d="M1304.3 729.83c-14 22.44-28.6 18.51-54.78 1.39l-124.57-56.86c-31.6-19.71-47.7-56.09-33.71-78.51l78.08-159c14-22.39-10.5-18.79 21.11.9l196 79.39c31.57 19.66 29.69 97.08 15.72 119.54z" fill="#e7e8e9" opacity=".35"/><path d="M1303.75 727.07c-13.86 22.27-28.5 18.29-54.23 1.42l-123.39-56.59c-31.36-19.56-47.74-55.45-33.86-77.7l77.74-156.21c13.89-22.22-9.93-19 21.45.52l193.68 78.38c31.34 19.51 30.68 95.5 16.82 117.8z" fill="#e6e7e8" opacity=".37"/><path d="M1303.21 724.3c-13.76 22.11-28.4 18.06-53.67 1.45l-122.21-56.33c-31.13-19.41-47.79-54.81-34-76.89l77.38-153.38c13.78-22.06-9.36-19.26 21.78.13l191.37 77.38c31.11 19.37 31.68 93.92 17.92 116.05z" fill="#e5e6e7" opacity=".38"/><path d="M1302.66 721.54c-13.65 21.94-28.3 17.84-53.11 1.48l-121-56.07c-30.9-19.27-47.83-54.16-34.15-76.09l77-150.56c13.68-21.89-8.8-19.5 22.11-.25l189.06 76.36c30.87 19.22 32.67 92.34 19 114.31z" fill="#e4e5e6" opacity=".4"/><path d="M1302.12 718.77c-13.55 21.77-28.2 17.62-52.55 1.51l-119.84-55.8c-30.66-19.12-47.87-53.52-34.29-75.28l76.69-147.74c13.57-21.73-8.23-19.73 22.45-.63l186.75 75.35c30.64 19.08 33.67 90.76 20.12 112.56z" fill="#e3e4e5" opacity=".41"/><path d="M1301.57 715.99c-13.45 21.61-28.1 17.4-52 1.54l-118.65-55.54c-30.43-19-47.91-52.88-34.44-74.47l76.38-144.91c13.47-21.56-7.66-20 22.78-1l184.44 74.34c30.41 18.93 34.66 89.18 21.21 110.82z" fill="#e2e3e4" opacity=".43"/><path d="M1301.03 713.24c-13.34 21.44-28 17.18-51.44 1.57l-117.48-55.28c-30.2-18.83-48-52.24-34.58-73.67l76-142.11c13.37-21.4-7.1-20.21 23.11-1.39l182.13 73.33c30.17 18.79 35.66 87.6 22.31 109.07z" fill="#e1e2e3" opacity=".44"/><path d="M1300.48 710.47c-13.24 21.27-27.91 17-50.88 1.6l-116.29-55c-30-18.68-48-51.59-34.73-72.86l75.65-139.29c13.26-21.23-6.53-20.44 23.45-1.77l179.81 72.32c29.94 18.64 36.66 86 23.41 107.33z" fill="#e0e1e2" opacity=".46"/><path d="M1299.94 707.71c-13.14 21.1-27.81 16.73-50.32 1.63l-115.11-54.75c-29.73-18.54-48-51-34.87-72.05l75.31-136.47c13.16-21.06-6-20.68 23.78-2.15l177.5 71.31c29.71 18.49 37.65 84.44 24.51 105.58z" fill="#dfe0e1" opacity=".47"/><path d="M1299.39 704.94c-13 20.94-27.71 16.51-49.76 1.66l-113.93-54.49c-29.49-18.39-48.07-50.31-35-71.24l75-133.65c13.06-20.9-5.4-20.92 24.11-2.53l175.14 70.3c29.47 18.35 38.65 82.86 25.61 103.84z" fill="#dedfe0" opacity=".49"/><path d="M1298.86 702.17c-12.93 20.77-27.61 16.29-49.21 1.69l-112.79-54.23c-29.26-18.24-48.11-49.67-35.16-70.44l74.62-130.83c13-20.73-4.83-21.16 24.45-2.91l172.88 69.29c29.24 18.2 39.64 81.28 26.71 102.09z" fill="#dddee0" opacity=".5"/><path d="M1298.3 699.41c-12.83 20.6-27.51 16.07-48.65 1.72l-111.56-54c-29-18.09-48.16-49-35.31-69.63l74.27-128c12.85-20.57-4.26-21.39 24.78-3.29l170.57 68.28c29 18.06 40.64 79.7 27.81 100.35z" fill="#dcdddf" opacity=".51"/><path d="M1297.76 696.64c-12.73 20.44-27.41 15.84-48.09 1.74l-110.38-53.7c-28.79-17.95-48.2-48.38-35.45-68.82l73.92-125.2c12.74-20.4-3.7-21.63 25.12-3.67l168.25 67.27c28.77 17.91 41.63 78.13 28.91 98.6z" fill="#dbddde" opacity=".53"/><path d="M1297.21 693.87c-12.62 20.27-27.32 15.62-47.53 1.78l-109.2-53.44c-28.56-17.8-48.24-47.74-35.6-68l73.58-122.38c12.64-20.24-3.13-21.86 25.45-4.05l165.95 66.21c28.54 17.77 42.63 76.55 30 96.86z" fill="#dbdcdd" opacity=".54"/><path d="M1296.67 691.11c-12.52 20.1-27.22 15.4-47 1.8l-108-53.18c-28.32-17.65-48.28-47.1-35.74-67.21l73.24-119.53c12.54-20.07-2.56-22.1 25.78-4.44l163.63 65.25c28.31 17.62 43.63 75 31.11 95.11z" fill="#dadbdc" opacity=".56"/><path d="M1296.12 688.34c-12.42 19.94-27.12 15.18-46.42 1.83l-106.84-52.91c-28.09-17.51-48.32-46.45-35.89-66.4l72.89-116.74c12.43-19.91-2-22.34 26.12-4.82l161.32 64.24c28.07 17.48 44.62 73.39 32.2 93.37z" fill="#d9dadb" opacity=".57"/><path d="M1295.58 685.58c-12.31 19.77-27 15-45.86 1.86l-105.65-52.65c-27.86-17.36-48.36-45.81-36-65.6l72.54-113.93c12.33-19.74-1.43-22.57 26.45-5.2l159 63.23c27.84 17.33 45.62 71.81 33.3 91.63z" fill="#d8d9da" opacity=".59"/><path d="M1295.03 682.81c-12.21 19.6-26.92 14.73-45.3 1.89l-104.47-52.39c-27.62-17.21-48.4-45.17-36.18-64.79l72.19-111.11c12.23-19.57-.86-22.81 26.78-5.58l156.7 62.22c27.61 17.18 46.61 70.23 34.4 89.88z" fill="#d7d8d9" opacity=".6"/><path d="M1294.49 680.05c-12.11 19.44-26.82 14.51-44.74 1.92l-103.29-52.13c-27.39-17.07-48.44-44.53-36.32-64l71.85-108.29c12.12-19.41-.29-23 27.12-6l154.38 61.21c27.37 17 47.61 68.65 35.5 88.13z" fill="#d6d7d8" opacity=".62"/><path d="M1293.94 677.28c-12 19.27-26.72 14.29-44.18 2l-102.11-51.87c-27.15-16.92-48.48-43.88-36.46-63.17l71.5-105.47c12-19.24.27-23.29 27.45-6.34l152.07 60.2c27.14 16.9 48.61 67.07 36.6 86.39z" fill="#d5d6d7" opacity=".63"/><path d="M1293.4 674.51c-11.9 19.1-26.63 14.07-43.63 2l-100.91-51.62c-26.92-16.78-48.53-43.24-36.61-62.37l71.16-102.66c11.91-19.08.84-23.52 27.78-6.72l149.76 59.19c26.91 16.75 49.6 65.49 37.7 84.64z" fill="#d4d5d6" opacity=".65"/><path d="M1292.86 671.75c-11.8 18.94-26.53 13.85-43.07 2l-99.74-51.34c-26.69-16.63-48.57-42.6-36.75-61.56l70.8-99.86c11.81-18.91 1.41-23.76 28.12-7.1l147.45 58.18c26.67 16.6 50.6 63.91 38.8 82.9z" fill="#d3d4d5" opacity=".66"/><path d="M1292.31 668.99c-11.69 18.77-26.43 13.62-42.51 2l-98.56-51c-26.45-16.48-48.61-42-36.9-60.75l70.46-97c11.71-18.74 2-24 28.45-7.48l145.14 57.17c26.44 16.46 51.59 62.33 39.9 81.15z" fill="#d2d3d4" opacity=".68"/><path d="M1291.76 666.22c-11.59 18.6-26.33 13.4-42 2.07l-97.38-50.81c-26.22-16.34-48.65-41.31-37-59.94l70.12-94.2c11.6-18.58 2.54-24.23 28.79-7.86l142.83 56.16c26.21 16.31 52.59 60.75 41 79.41z" fill="#d1d2d3" opacity=".69"/><path d="M1291.22 663.45c-11.49 18.44-26.23 13.18-41.39 2.1l-96.2-50.56c-26-16.19-48.69-40.67-37.19-59.14l69.77-91.38c11.5-18.41 3.11-24.47 29.12-8.25l140.53 55.15c26 16.17 53.59 59.18 42.09 77.66z" fill="#d0d1d3" opacity=".71"/><path d="M1290.67 660.68c-11.39 18.27-26.13 13-40.84 2.13l-95-50.29c-25.75-16-48.73-40-37.33-58.33l69.43-88.57c11.4-18.25 3.67-24.71 29.45-8.63l138.2 54.14c25.74 16 54.58 57.6 43.19 75.92z" fill="#cfd0d2" opacity=".72"/><path d="M1290.13 657.92c-11.28 18.1-26 12.73-40.28 2.16l-93.83-50c-25.52-15.9-48.77-39.39-37.48-57.52l69.08-85.75c11.29-18.08 4.24-24.94 29.79-9l135.89 53.13c25.51 15.88 55.58 56 44.29 74.18z" fill="#cecfd1" opacity=".74"/><path d="M1289.58 655.15c-11.18 17.93-25.94 12.51-39.72 2.18l-92.65-49.76c-25.28-15.75-48.81-38.75-37.62-56.72l68.73-82.93c11.19-17.92 4.81-25.18 30.12-9.39l133.58 52.12c25.27 15.73 56.57 54.44 45.39 72.43z" fill="#cdced0" opacity=".75"/><path d="M1289.04 652.39c-11.08 17.77-25.84 12.29-39.16 2.21l-91.46-49.5c-25-15.6-48.86-38.1-37.77-55.91l68.39-80.11c11.09-17.75 5.38-25.42 30.45-9.77l131.27 51.11c25 15.59 57.57 52.86 46.49 70.69z" fill="#cccdcf" opacity=".76"/><path d="M1288.49 649.62c-11 17.6-25.74 12.07-38.6 2.24l-90.28-49.24c-24.82-15.46-48.9-37.46-37.91-55.1l68-77.29c11-17.59 5.94-25.65 30.79-10.15l129 50.1c24.81 15.44 58.56 51.28 47.59 68.94z" fill="#cbccce" opacity=".78"/><path d="M1287.95 646.85c-10.87 17.43-25.64 11.85-38 2.27l-89.1-49c-24.58-15.31-48.94-36.82-38.06-54.3l67.69-74.48c10.88-17.42 6.51-25.89 31.12-10.53l126.64 49.09c24.57 15.29 59.56 49.7 48.69 67.2z" fill="#cacbcd" opacity=".79"/><path d="M1287.4 644.09c-10.77 17.27-25.54 11.63-37.49 2.3l-87.92-48.71c-24.35-15.16-49-36.17-38.2-53.49l67.35-71.66c10.77-17.25 7.08-26.12 31.45-10.91l124.33 48.08c24.34 15.15 60.56 48.12 49.79 65.45z" fill="#c9cacc" opacity=".81"/><path d="M1286.86 641.32c-10.66 17.1-25.44 11.4-36.93 2.33l-86.73-48.45c-24.11-15-49-35.53-38.35-52.68l67-68.84c10.67-17.09 7.64-26.36 31.79-11.29l122 47.07c24.1 15 61.55 46.54 50.88 63.71z" fill="#c8c9cb" opacity=".82"/><path d="M1286.31 638.56c-10.56 16.93-25.34 11.18-36.37 2.36l-85.55-48.19c-23.88-14.87-49.06-34.89-38.49-51.87l66.66-66c10.57-16.92 8.21-26.6 32.12-11.67l119.71 46.06c23.87 14.86 62.55 45 52 62z" fill="#c7c8ca" opacity=".84"/><path d="M1285.77 635.79c-10.46 16.77-25.25 11-35.82 2.39l-84.37-47.93c-23.65-14.72-49.1-34.25-38.64-51.07l66.32-63.19c10.46-16.76 8.78-26.84 32.45-12.06l117.4 45c23.64 14.71 63.54 43.38 53.08 60.22z" fill="#c6c7c9" opacity=".85"/><path d="M1285.22 632.99c-10.35 16.6-25.15 10.74-35.26 2.42l-83.19-47.66c-23.41-14.58-49.14-33.6-38.78-50.26l66-60.39c10.36-16.59 9.34-27.07 32.79-12.44l115.09 44c23.41 14.57 64.54 41.8 54.18 58.47z" fill="#c5c6c8" opacity=".87"/><path d="M1284.68 630.26c-10.25 16.43-25 10.51-34.7 2.45l-82-47.4c-23.18-14.43-49.18-33-38.93-49.45l65.62-57.57c10.25-16.42 9.91-27.31 33.12-12.82l112.77 43c23.17 14.42 65.54 40.23 55.28 56.73z" fill="#c4c6c7" opacity=".88"/><path d="M1284.13 627.49c-10.15 16.27-24.95 10.29-34.14 2.48l-80.82-47.14c-22.95-14.28-49.23-32.32-39.07-48.65l65.27-54.75c10.15-16.26 10.48-27.55 33.46-13.2l110.46 42c22.94 14.28 66.53 38.65 56.38 55z" fill="#c3c5c7" opacity=".9"/><path d="M1283.59 624.73c-10 16.1-24.85 10.07-33.58 2.51l-79.64-46.87c-22.71-14.14-49.27-31.68-39.22-47.84l64.93-51.93c10-16.09 11-27.78 33.79-13.58l108.15 41c22.71 14.13 67.53 37.07 57.48 53.24z" fill="#c2c4c6" opacity=".91"/><path d="M1283.04 621.99c-9.94 15.93-24.75 9.85-33 2.54l-78.46-46.61c-22.48-14-49.31-31-39.36-47l64.58-49.12c9.94-15.93 11.61-28 34.12-14l105.84 40c22.47 14 68.52 35.49 58.58 51.49z" fill="#c1c3c5" opacity=".93"/><path d="M1282.5 619.19c-9.84 15.77-24.65 9.63-32.47 2.57l-77.27-46.35c-22.24-13.84-49.35-30.39-39.51-46.23l64.24-46.3c9.84-15.76 12.18-28.26 34.46-14.34l103.53 39c22.24 13.84 69.52 33.91 59.68 49.75z" fill="#c0c2c4" opacity=".94"/><path d="M1281.95 616.43c-9.74 15.6-24.55 9.4-31.91 2.6l-76.09-46.09c-22-13.7-49.39-29.75-39.65-45.42l63.89-43.53c9.74-15.6 12.75-28.49 34.79-14.72l101.21 38c22 13.69 70.51 32.33 60.78 48z" fill="#bfc1c3" opacity=".96"/><path d="M1281.41 613.66c-9.63 15.43-24.46 9.18-31.35 2.63l-74.91-45.83c-21.78-13.55-49.43-29.11-39.8-44.61l63.51-40.66c9.63-15.43 13.31-28.73 35.12-15.1l98.9 37c21.77 13.55 71.51 30.75 61.88 46.26z" fill="#bec0c2" opacity=".97"/><path d="M1280.86 610.9c-9.53 15.26-24.36 9-30.79 2.65l-73.73-45.56c-21.54-13.4-49.47-28.46-39.94-43.8l63.2-37.85c9.53-15.27 13.88-29 35.46-15.48l96.59 36c21.54 13.4 72.51 29.17 63 44.51z" fill="#bdbfc1" opacity=".99"/><path d="M1280.32 608.13c-9.43 15.1-24.26 8.74-30.24 2.68l-72.54-45.3c-21.31-13.26-49.51-27.82-40.09-43l62.85-35c9.43-15.1 14.45-29.2 35.79-15.87l94.28 35c21.3 13.26 73.5 27.59 64.07 42.77z" fill="#b3b3b3"/></g><path fill="#fafafa" d="M1397.43 392.14l-137.62-79.86-138 79.17 137.62 79.94 138-79.25z"/><path fill="#b3b3b3" d="M1259.43 471.39l-.38 159.12 138-79.25.38-159.12-138 79.25z"/><path fill="#e6e6e6" d="M1121.81 391.45l-.38 159.2 137.62 79.86.38-159.12-137.62-79.94z"/><path d="M1150.6 495.99a15.17 15.17 0 0 1-.6 4.57 6.1 6.1 0 0 1-1.71 2.83 3.91 3.91 0 0 1-2.69.95 7.43 7.43 0 0 1-3.52-1.15l-9.19-5.31a1.11 1.11 0 0 1-.57-1v-38.72c0-.47.17-.62.52-.43l8.53 4.66a15.59 15.59 0 0 1 6.12 6 18 18 0 0 1 2.26 9.14 8.65 8.65 0 0 1-.24 2 7.75 7.75 0 0 1-.67 1.8 6.26 6.26 0 0 1-1 1.42 3.74 3.74 0 0 1-1.24.88.54.54 0 0 0 0 .49 17.52 17.52 0 0 1 3 5.67 20.42 20.42 0 0 1 1 6.2zm-4.81-20.72a10.16 10.16 0 0 0-1.14-4.8 8.09 8.09 0 0 0-3.33-3.38l-4.62-2.54c-.26-.14-.38 0-.38.31v10.62a.83.83 0 0 0 .38.8l4.67 2.61q2.24 1.25 3.33.06a5.31 5.31 0 0 0 1.09-3.7zm.86 18.68a16.72 16.72 0 0 0-.26-2.87 11.9 11.9 0 0 0-.88-2.86 11.67 11.67 0 0 0-1.62-2.59 8.5 8.5 0 0 0-2.43-2l-4.76-2.68c-.26-.14-.38 0-.38.31v13.3a.85.85 0 0 0 .38.81l5.29 3q2.19 1.26 3.43 0t1.23-4.45zm26.75 27.32l-15.15-8.75a1.13 1.13 0 0 1-.57-1.06v-39.47c0-.48.17-.63.52-.44l2.91 1.59a1 1 0 0 1 .52.95v34.9a.86.86 0 0 0 .38.82l11.34 6.51a1.13 1.13 0 0 1 .57 1.06v3.36q0 .83-.52.53zm24.72 3.01a12.65 12.65 0 0 1-.69 4.56 5.22 5.22 0 0 1-1.91 2.55 4.25 4.25 0 0 1-2.86.64 9.18 9.18 0 0 1-3.6-1.3 16.5 16.5 0 0 1-3.6-2.82 19.11 19.11 0 0 1-2.88-3.86 19.77 19.77 0 0 1-1.93-4.72 20.5 20.5 0 0 1-.69-5.38V494.4a11.69 11.69 0 0 1 .71-4.42 5.49 5.49 0 0 1 1.93-2.55 4.38 4.38 0 0 1 2.86-.7 8.83 8.83 0 0 1 3.55 1.16 15.34 15.34 0 0 1 3.5 2.66 18.79 18.79 0 0 1 2.91 3.8 20.1 20.1 0 0 1 2.69 10.12v19.81zm-4-21.89a12 12 0 0 0-1.38-5.6 9.08 9.08 0 0 0-3.67-3.92q-2.33-1.28-3.72-.12t-1.38 4v19.34a12.41 12.41 0 0 0 1.31 5.65 9.32 9.32 0 0 0 3.74 4q2.38 1.37 3.74.28t1.36-4.16v-19.48zm28.09 8.76a2.34 2.34 0 0 1 .24.86.76.76 0 0 1-.38.59l-1.81 1.22c-.13.12-.29.08-.5-.1a2 2 0 0 1-.5-.73 15.71 15.71 0 0 0-2.24-3.8 9.84 9.84 0 0 0-2.86-2.54q-2.29-1.26-3.5-.06t-1.21 4.15v20a12.21 12.21 0 0 0 1.33 5.55 9.15 9.15 0 0 0 3.62 4 3.62 3.62 0 0 0 2.76.51 5 5 0 0 0 2.1-1.05 1.42 1.42 0 0 1 .48-.39q.24-.11.62.53l1.91 3.38a1.22 1.22 0 0 1 .17.58 1.3 1.3 0 0 1-.07.59 4.83 4.83 0 0 1-3.53 2.07 7.57 7.57 0 0 1-4.43-1.17 16.11 16.11 0 0 1-3.55-2.81 18.15 18.15 0 0 1-2.83-3.87 21.1 21.1 0 0 1-1.88-4.72 20.53 20.53 0 0 1-.69-5.38v-20.03a13.55 13.55 0 0 1 .64-4.49 5.75 5.75 0 0 1 1.79-2.7 4.13 4.13 0 0 1 2.74-.84 7.85 7.85 0 0 1 3.5 1.08 17.38 17.38 0 0 1 4.24 3.36 22.19 22.19 0 0 1 3.84 6.21zm24.93 9.04a1 1 0 0 1 .57.63.69.69 0 0 1-.09.62l-8.81 11.15a.45.45 0 0 0-.09.47.73.73 0 0 0 .33.36c.25.14.48.26.69.35a3.09 3.09 0 0 1 .64.39 13 13 0 0 1 4.88 6.12 28.06 28.06 0 0 1 1.83 9.31l.71 13.93c0 .47-.16.62-.48.43l-2.76-1.6a1 1 0 0 1-.53-.94l-.57-13c0-.77-.11-1.66-.24-2.68a14.7 14.7 0 0 0-.71-3 11.51 11.51 0 0 0-1.48-2.84 7.76 7.76 0 0 0-2.57-2.26q-2.72-1.53-4.1 0t-1.38 5.25v12.11q0 .7-.43.45l-3.1-1.79a1 1 0 0 1-.52-.93v-41.73q0-.7.52-.41l3.1 1.69a.9.9 0 0 1 .43.86v17.38a.65.65 0 0 0 .19.67.36.36 0 0 0 .33-.09l9.86-12.41a.48.48 0 0 1 .67-.13z" fill="#010101"/><text transform="matrix(1 0 0 1.15 959.32 205.24)" font-size="28.71" fill="#525252" font-family="Roboto Slab"><tspan letter-spacing="-3">Г</tspan><tspan x="13.67" y="0">лавная управляющая</tspan><tspan x="0" y="29.96">программа</tspan></text><path d="M1292.34 515.99a.86.86 0 0 1 .24.58 2.43 2.43 0 0 1-.38 1l-1.81 3.14a.76.76 0 0 1-.5.44.47.47 0 0 1-.5-.16 3.32 3.32 0 0 0-2.24-1.26 4.63 4.63 0 0 0-2.86.63 8.29 8.29 0 0 0-3.5 3.73 12 12 0 0 0-1.21 5.36v19.54q0 2.82 1.33 3.94t3.62-.11a8.63 8.63 0 0 0 2.76-2.53 24 24 0 0 0 2.1-3.32 6.54 6.54 0 0 1 .48-.9.43.43 0 0 1 .62-.17l1.91 1.19a.41.41 0 0 1 .17.38 1.8 1.8 0 0 1-.07.64 22.57 22.57 0 0 1-3.53 5.87 15.59 15.59 0 0 1-4.43 3.73 9.35 9.35 0 0 1-3.55 1.18 4.25 4.25 0 0 1-2.83-.65 5.26 5.26 0 0 1-1.88-2.53 12.25 12.25 0 0 1-.69-4.48v-19.59a20.33 20.33 0 0 1 2.43-9.64 17.9 17.9 0 0 1 2.74-3.78 14.33 14.33 0 0 1 3.5-2.73 10 10 0 0 1 4.24-1.32 4.84 4.84 0 0 1 3.84 1.82zm25.12 23.53l-2.91 1.57q-.57.31-.57-.43v-17.79q0-.61-.38-.4l-10.15 5.52a.84.84 0 0 0-.38.81v17.66a1.13 1.13 0 0 1-.52 1.09l-2.91 1.57q-.57.31-.57-.43v-40.07a1.07 1.07 0 0 1 .52-1l2.91-1.6q.57-.31.57.36v16.38c0 .4.13.54.38.4l10.15-5.53a.84.84 0 0 0 .38-.82v-16.38a1.07 1.07 0 0 1 .52-1l2.91-1.6q.62-.34.62.34v40.26a1.16 1.16 0 0 1-.57 1.09zm23.65-12.75q-.62.33-.67-.12l-1.57-8c-.06-.15-.13-.2-.19-.17l-8.43 4.57a.42.42 0 0 0-.21.18 1.13 1.13 0 0 1-.07.17l-1.52 9.71a1 1 0 0 1-.62.81l-2.57 1.39a.56.56 0 0 1-.55.09.91.91 0 0 1-.07-.77l7-43.86a2.13 2.13 0 0 1 .21-.7 1.28 1.28 0 0 1 .55-.54l4-2.22q.57-.31.71.29l7.24 36.21a1.76 1.76 0 0 1 0 .72.83.83 0 0 1-.48.67zm-8.1-22.94l-2.15 13.66a1.6 1.6 0 0 0 0 .45c0 .06.1 0 .26 0l6.57-3.57a.59.59 0 0 0 .29-.26 1 1 0 0 0 0-.44l-2.1-11.09-1.33-7.83c0-.12-.07-.16-.12-.14a.32.32 0 0 0-.12.2zm21.9 15.49l-3 1.59q-.57.31-.57-.44v-40.59a1.12 1.12 0 0 1 .57-1.06l3-1.62q.57-.31.57.37v40.64a1.16 1.16 0 0 1-.57 1.11zm11.36-48.33a.8.8 0 0 1 .81-.14 2.23 2.23 0 0 1 .48.53l11.1 23.37a.18.18 0 0 0 .09.12v-30.05a1.09 1.09 0 0 1 .53-1l2.7-1.48q.58-.32.58.37v40.28a2.16 2.16 0 0 1-.31 1.3 2 2 0 0 1-.6.57l-1.83 1a1.06 1.06 0 0 1-.79.19.91.91 0 0 1-.46-.54l-11.1-23.33c-.09-.08-.14-.06-.14.08v29.53a1.14 1.14 0 0 1-.52 1.1l-2.71 1.46c-.38.21-.57.06-.57-.44v-39.75a4.56 4.56 0 0 1 .17-1.39 1.63 1.63 0 0 1 .83-.87z" fill="#010101"/><text transform="matrix(1 0 0 1.15 344.42 522.56)" font-size="21.26" fill="#525252" font-family="Roboto Slab">Дизайн<tspan x="0" y="22.18">Р</tspan><tspan x="13.39" y="22.18">азвитие во времени</tspan><tspan x="0" y="44.36">Денежные п</tspan><tspan x="135.21" y="44.36">о</tspan><tspan x="146.91" y="44.36">т</tspan><tspan x="158.78" y="44.36">оки</tspan><tspan x="0" y="66.54">Э</tspan><tspan x="13.05" y="66.54">к</tspan><tspan x="26" y="66.54">спл</tspan><tspan x="65.6" y="66.54">у</tspan><tspan x="77.51" y="66.54">ат</tspan><tspan x="101.19" y="66.54">ация</tspan></text><text transform="matrix(1 0 0 1.15 1259.05 680.04)" font-size="21.71" fill="#525252" font-family="Roboto Slab">Денежные п<tspan x="138.12" y="0">о</tspan><tspan x="150.07" y="0">т</tspan><tspan x="162.2" y="0">оки</tspan><tspan x="0" y="22.66">Э</tspan><tspan x="13.33" y="22.66">к</tspan><tspan x="26.56" y="22.66">спл</tspan><tspan x="67.01" y="22.66">у</tspan><tspan x="79.17" y="22.66">ат</tspan><tspan x="103.37" y="22.66">ация</tspan><tspan x="0" y="45.31">К</tspan><tspan x="15.15" y="45.31">р</tspan><tspan x="28.3" y="45.31">а</tspan><tspan x="40.1" y="45.31">у</tspan><tspan x="51.82" y="45.31">дфандинг</tspan><tspan x="0" y="67.97">Обеспеченные вл</tspan><tspan x="196.01" y="67.97">о</tspan><tspan x="207.96" y="67.97">ж</tspan><tspan x="226.07" y="67.97">ения</tspan><tspan x="0" y="90.63">Все операции с недвижимостью</tspan></text><path d="M864.37 383.99s27.19 46.56 86 38.55c55-7.5 58.76-33 106.38-51.7 54.79-21.48 100.42.38 100.42.38" fill="none" stroke="#231f20" stroke-miterlimit="10" stroke-width="2"/><ellipse cx="1088.51" cy="531.96" rx="11.75" ry="5.01" transform="rotate(-88.97 900.528 571.582)" fill="#231f20"/><ellipse cx="814.63" cy="318.37" rx="8.81" ry="3.76" transform="rotate(-85.24 621.573 365.665)" fill="#231f20"/><path d="M589.04 172.7s0 13.63 15.16 18.94c19.25 6.74 18.89-1.64 43.13 9.69 11.53 5.39 10.74 9.25 10.74 9.25" fill="none" stroke="#231f20" stroke-miterlimit="10"/><ellipse cx="499.16" cy="584.18" rx="11.75" ry="5.01" transform="matrix(.08 -1 1 .08 -346.63 886.81)" fill="#231f20"/><path d="M275.02 435.17s61.49 39.33 135.44 0c70.5-37.49 43-73.82 127-114.27 37.43-14.91 69.48-8.62 69.48-8.62" fill="none" stroke="#231f20" stroke-miterlimit="10" stroke-width="2"/></g></svg>