<svg xmlns="http://www.w3.org/2000/svg" viewBox="0 0 94.52 96.07"><title>side_bg</title><path d="M12.34 21.08l-.51-2.63 3.75-3.28zm-.51-2.61l.49 2.48 3.14-5.63zm-9.49 16.7l2.1-8.67 2 5.41zm2.11-8.51l-2 8.38 4-3.15z" fill="#ccc"/><path d="M8.83 22.44l.12-4.38 3.45 3zm.16-4.27l-.16 4.2 3.43-1.36zM6.6 25.34l1.59-.9 2 .49zm1.58-.89l-1.47.83 3.33-.38z" fill="#ccc"/><path d="M10.17 24.97l-1.34-2.58 3.59-1.43zm-1.29-2.55l1.29 2.45 2.13-3.81z" fill="#ccc"/><path d="M8.15 24.44l.7-2.1 1.37 2.61zm.71-2l-.64 1.94 1.92.47zM1.63 45.68l2.4-5.51.8 1.55-3.17 4zm2.4-5.42l-2.29 5.28 3.09-3.83zm6.05-4.75l7.19-.17-.83 2.23zm7.13-.17l-7 .17 6.19 2zM6.39 31.93l-2-5.39 5.38 4zm-1.9-5.28l1.93 5.22 3.26-1.34z" fill="#ccc"/><path d="M7.83 39.71l2.26-4.25 6.42 2.08h-.08zm2.28-4.19l-2.19 4.12 8.44-2.1zm11.04-14.35l3.68-5.16 1.38 4.49zm3.67-5l-3.57 5 4.91-.62zM4.83 41.75L4 40.17l3.83-.52zm-.75-1.52l.75 1.45 2.93-2z" fill="#ccc"/><path d="M21.2 21.17l-5.67-6h.06l9.24.87zm-5.55-5.91l5.54 5.84 3.59-5zM4.38 51.29L1.6 45.63l5.14 2.58zm-2.67-5.55l2.68 5.43 2.29-3zm10.83-16.91l8.42-3.84-.17 1.81zm8.35-3.81l-8.06 3.7 7.95-2z" fill="#ccc"/><path d="M24.83 16.17L24 11.09l2.64 1.9zm-.77-5l.77 4.82 1.72-3z" fill="#ccc"/><path d="M15.5 15.22l8.53-4.16.82 5zm8.5-4.05l-8.32 4 9.15.86zm-4.97 32.36l-2.63-6 6.4.8zm-2.57-6l2.58 5.87 3.66-5.09zm-.95-6.08l-3-2.64 8.26-2.08zm-2.92-2.63l2.92 2.56 5.15-4.6zm36.74-15.27l-1.7-5.32 2.88 3.94zm-1.61-5.19l1.62 5.09 1.11-1.28zM1.62 45.7l3.2-4 1.9 6.57zm3.21-3.93l-3.12 3.92 5 2.5z" fill="#ccc"/><path d="M6.69 48.24l-1.86-6.53 3.08-2.07v.05l-1.18 8.54zm-1.86-6.51l1.85 6.39 1.15-8.4zm23.58-15.37l-2.23-5.84 6.74-2.57v.06zm-2.19-5.87l2.2 5.75 4.41-8.27zM10.01 35.51h.06l5.45-4.09 1.74 3.93zm5.49-4.06l-5.35 4 7.05-.17zm5.39-6.44l.28-3.91 5.16 3.23zm.33-3.84l-.27 3.8 5.25-.68zm15.98-8.81v-.05l-.29-5.71 5.8.57zm-.25-5.71l.29 5.61 5.36-5.09zM2.68 58.37l1.79-2.71 5.36 1.96zm1.81-2.65l-1.71 2.59 6.92-.69z" fill="#ccc"/><path d="M26.2 20.5l4.54-3.48 2.22.95zm4.52-3.46l-4.39 3.36 6.5-2.47zM7.83 39.67l8.66-2.15.21 6.31zm8.62-2.09l-8.52 2.1 8.68 4.07zm8.5-8.2l1.3-5.14 2.2 2.06zm1.32-5.05l-1.24 4.92 3.34-2.95zM9.83 57.7l-3.15-9.53 9.15-.63zm-3-9.45l3 9.34 5.94-10z" fill="#ccc"/><path d="M15.77 47.56l.84-3.79 2.48-.31-3.26 4.12zm.88-3.75l-.82 3.66 3.14-4zM32.98.37l15.65 4.44-6 2.36zm15.5 4.44L33.12.41l9.54 6.7zM35.72 23.17l-2.89-5.26 4.83.13zm-2.81-5.21l2.8 5.09 1.87-5z" fill="#ccc"/><path d="M6.71 48.25l10-4.46-.88 3.8zm9.88-4.43l-9.76 4.35 8.93-.66zm16.24-25.87l.43-4.78 4.41 4.92zm.46-4.67l-.41 4.63 4.67.13zm3.88-.96l5.51-5.24-.6 5.92zm5.46-5.15l-5.35 5.09 4.77.65zm6.08 11.16l.61-4.85 2.51.69zm.64-4.79l-.52 4.63 3-4zM28.64 32.6L25 29.35l3.46-3zm-3.61-3.28l3.56 3.17-.2-6.14zM4.28 65.91l4.06-3.23-2.09 4zm4-3.12L4.37 65.9l1.89.75zm3.68 14.91l-5.71-11 9.08 3.84zm-5.63-11l5.63 10.86 3.28-7.09z" fill="#ccc"/><path d="M42.58 7.17l6-2.37-.91 3.49zm5.94-2.3l-5.78 2.3 4.9 1zm-38.47 60.5L8.32 62.7l6-.61zm-1.66-2.65l1.67 2.58 4.11-3.13zm40.91-49.2l1.18-1.42 1.35 2.13zm1.18-1.35l-1.1 1.32 2.38.68z" fill="#ccc"/><path d="M50.47 12.17l-2.87-4 5.71 2.51zm-2.74-3.88l2.76 3.82 2.7-1.42z" fill="#ccc"/><path d="M47.62 8.27l.91-3.48 6.19 1zm.95-3.43l-.88 3.33 6.93-2.38zM20.07 59l1.86-5 4.18 2.53zm1.88-4.95l-1.8 4.86 5.88-2.39zm29.88-39.82l-1.4-2.13 2.79.87zm-1.28-2l1.28 1.94 1.3-1.17z" fill="#ccc"/><path d="M50.42 12.17l2.85-1.5-.08 2.36zm2.8-1.42l-2.68 1.42 2.6.81zM15.24 70.53l-1-8.44 6 4.81zm-1-8.38l1 8.29 4.9-3.59z" fill="#ccc"/><path d="M14.2 62.17l3.86-6.92 2.09 3.72zm3.86-6.82l-3.74 6.7 5.76-3.09z" fill="#ccc"/><path d="M20.24 66.9l-6-4.81 5.89-3.16zm-5.95-4.8l5.9 4.7-.11-7.81zM53.14 13l.08-2.37 1.87 2.15zm.12-2.25l-.08 2.2 1.8-.21z" fill="#ccc"/><path d="M55.06 12.82l-1.85-2.14 1.88-1.71zm-1.79-2.13l1.74 2V9.07zM23.78 63.65l6.05.24-.7 2.53zm6 .29l-5.91-.28 5.24 2.7zm6.51-36.77l4-4.3 7-1.51zm4-4.3l-3.93 4.19 10.78-5.67zm13.68-4.4l-2.21-4.3 2.57 1.36zm-2.14-4.22l2.07 4.06.34-2.78zM6.21 66.68l3.85-1.37 5.21 5.15zm3.84-1.32l-3.72 1.32 8.82 3.73z" fill="#ccc"/><path d="M15.2 70.5l5-3.69.78 4.22zm5-3.61l-4.87 3.58 5.63.51zm42.5-51.72l-3-4.85 8.71-.23zm-2.87-4.8l2.93 4.73 5.57-5zm-7.06 11.26l-4.09-3.46 5.31.15zm-3.94-3.36l3.93 3.28 1.18-3.14z" fill="#ccc"/><path d="M48.7 18.27l3.13-4.1 2.18 4.27zm3.11-4l-3 4 5.12.15zm6.36.9l-3.18-2.44 4.84-2.43zm-3.09-2.44l3.07 2.36 1.55-4.72z" fill="#ccc"/><path d="M47.3 21.32l1.44-3.15 4.09 3.45zm1.45-3l-1.38 3 5.31.29z" fill="#ccc"/><path d="M52.72 21.62l1.23-3.27 3.47 2.5zm1.25-3.19l-1.14 3.13 4.51-.74z" fill="#ccc"/><path d="M57.38 20.88l-3.46-2.49 4.27-3.29zM54 18.39l3.35 2.4.78-5.62z" fill="#ccc"/><path d="M58.13 15.17l1.6-4.86 3 4.87zm1.62-4.78l-1.55 4.78h4.47zm-34.8 72.32l.48-4.44 4.52-1.2-.05.06zm.52-4.41l-.46 4.26 4.82-5.39z" fill="#ccc"/><path d="M25.47 78.35l-4.54-7.39h.06l5 1.84zm-4.43-7.3l4.4 7.12.47-5.36zm41.6-50.28l-4.53-5.6h4.62zm-4.43-5.6l4.38 5.46.09-5.46zm14.29 7.25l.33-3.59 5.08-1.39zm.39-3.55l-.33 3.44 5.27-4.8z" fill="#ccc"/><path d="M65.4 19.45l7.48-.58-.34 3.54zm7.43-.58l-7.33.57 7 2.88zm.35 13.5l2.86-3.2.4 1.27zm2.84-3.08l-2.72 3 3.09-1.81zM17.35 78.76l8.13-.5-.48 4.41zm8.08-.45l-7.9.49 7.44 3.81zm2.81-8.93l.9-3 5.08 2.86zm.93-3l-.86 2.91 5.77-.12z" fill="#ccc"/><path d="M65.36 19.46l4.05-5.64 3.5 5zm4.05-5.55l-4 5.5 7.42-.58zm1.42 61.5l-.19-7.24.82.25-.63 6.99zm-.12-7.13l.12 6.7.56-6.48zM57.24 27.17L69 24.42l-2.11 7.32zm11.69-2.69l-11.55 2.7 9.45 4.57zm-40.8 61.24l-3.15-3.05 5-5.6zm-3.12-3.08l3.09 3 1.73-8.47zm10.2-8.26l-7-5 6-.15zm-6.87-5l6.8 4.89-1-5zm39.69-18.12l-1-3.72 2.42-.51zm-1-3.69l1 3.52 1.32-4z" fill="#ccc"/><path d="M72.83 18.87l-3.5-5.05L78 17.47zm-3.38-5l3.4 4.9 5-1.37zm4.33 11.92l7.48-4.94-3.77 7.18zm7.46-4.88l-7.41 4.88 3.68 2.18zM36.83 82.58l-7-5.49 5.31-2.79zm-6.88-5.48l6.81 5.36-1.6-8.1z" fill="#ccc"/><path d="M28.09 85.71l1.79-8.61 7 5.47zm1.83-8.54l-1.77 8.49 8.59-3.12zm36.7-43.89l.21-1.52 6.3.57zm.27-1.46l-.21 1.41 6.29-.86z" fill="#ccc"/><path d="M66.83 31.81l2.12-7.35v.05l4.22 7.9zm2.14-7.26l-2.07 7.22 6.22.56z" fill="#ccc"/><path d="M73.18 32.43v-.07l-4.22-7.91h.05l4.82 1.32zm-4.17-7.91l4.14 7.75.68-6.47zM41.73 74.75l2.65-3.68 4.65 1zm2.67-3.63l-2.57 3.53 7-2.48zm23.7-18.86l-.1-1.17 1.15 1.62zm0-1l.08 1 .87.37zm-30.41 36.3l-.92-5.06 2.72-.26-1.76 5.33zm-.86-5l.89 4.92 1.73-5.17z" fill="#ccc"/><path d="M28.03 85.68h.08l8.72-3.19.92 5.07zm8.74-3.12l-8.57 3.11 9.47 1.87zm32.29-29.9l.31-5.62 3.46-.92-3.7 6.5zm.35-5.58l-.3 5.48 3.63-6.39zM49.62 88.17l-.72-3.24 3.47.91zM48.97 85l.68 3.09 2.66-2.21zm27.5-48.95V36l-.09-5.58 3.57 2.56zm0-5.54l.09 5.44 3.36-3zm1.04-2.48l3.79-7.24.18 6.81zm3.77-7.09l-3.69 7 3.86-.45z" fill="#ccc"/><path d="M69.39 47.11l-1.56-3.14 3 .72zm-1.49-3.07l1.49 3 1.33-2.29zm8.62-7.98l-3.39-3.71 3.27-1.92zm-3.31-3.7l3.26 3.57-.08-5.43z" fill="#ccc"/><path d="M79.97 33.05l-3.61-2.6 2-.8zm-3.51-2.58l3.37 2.44-1.49-3.19zM67 47.58l.83-3.65 1.58 3.14zm.83-3.51l-.8 3.45 2.29-.48zm-12.25 37.1l-.5-.69 5.78-1.95zm-.42-.67l.44.67 5-2.43z" fill="#ccc"/><path d="M81.38 32.98l-3-3.26 3.17-2.19zm-3-3.3l2.93 3.18.12-5.28zM48.9 72.12l1.47-.71 3.18 3.11zm1.46-.65l-1.35.65 4.4 2.33zm14.63-15.88l3.14-3.42 1.16 4.12zm3.12-3.3l-3 3.26 4.14.7zm7.99-8.97l.37-7.37 3.25 2.34zm.41-7.28l-.35 7.13 3.5-4.87z" fill="#ccc"/><path d="M79.67 38.29l.22-5.34 1.5-.06-1.67 5.37zm.27-5.29l-.21 5.11 1.61-5.16zm-9.35 20.99l-1.56-1.35 6.44-.67zm-1.45-1.32l1.46 1.26 4.71-1.91zM56.27 86.58v-.06l-.71-5.35 5.83-1.5zm-.65-5.41l.68 5.27 5-6.73zm-6.79 3.89v-.08l4.63-10.51 1.6 6.06zm4.66-10.44l-4.54 10.3 6.1-4.41zm-.26-4.06l7.6-4.22 1.57 3.45zm7.6-4.16l-7.46 4.1 9-.74z" fill="#ccc"/><path d="M87.48 37.51l-6.18-4.6h.06l9.76-.68zm-6.05-4.56l6 4.5 3.56-5.17zM55.11 80.58l-1.6-6.06 5.67 1.06zm-1.53-6l1.55 5.9 4-4.87zm26.54-21.19l.29-5.09 2 2.38zm.33-5l-.27 4.83 2.15-2.57z" fill="#ccc"/><path d="M82.37 50.74l-2-2.39 2.57-.89zm-1.9-2.37l1.87 2.26.55-3.1zm-12.7 15.62l-2.76-8.45 4.28.72-1.46 7.73zm-2.7-8.39l2.76 8.29 1.45-7.59z" fill="#ccc"/><path d="M80.42 48.39l-4.29-5.12 6.83 4.28zm-4.17-5l4.19 5 2.39-.9zm6.84-2.62l-3.47-2.49h.06l7.87-.83zm-3.34-2.46l3.34 2.4 4.29-3.2z" fill="#ccc"/><path d="M72.74 46.17l3.39-3 4.35 5.18zm3.39-2.89l-3.3 2.89 7.53 2.17zM69.22 56.3l1.36-2.37L74.64 57zM70.6 54l-1.3 2.26 5.17.66zM52.32 85.91l3.29-4.8v.06l.7 5.38zm3.26-4.67l-3.18 4.63 3.86.62zm15.09-12.95l-2.92-4.32 5.53-1.55zM67.83 64l2.83 4.17 2.56-5.71zm8.55-3.67l5.73-4.69.19 2.81zm5.67-4.64l-5.57 4.56 5.74-1.83z" fill="#ccc"/><path d="M56.24 86.53l5.1-6.88 2.13 10.21zm5.09-6.79l-5 6.77 7.11 3.25zM75.42 52l5-3.66-.29 5zm5-3.59l-4.88 3.57 4.6 1.31zm-4.05 11.93l-1.85-3.4 7.64-1.34zm-1.78-3.36l1.79 3.29 5.61-4.59z" fill="#ccc"/><path d="M52.3 95.57l11.18-5.8.94 5.73zm11.14-5.73l-11 5.68 12-.07z" fill="#ccc"/><path d="M64.37 95.48l-.93-5.68 4.16-4-3.23 9.72zm-.88-5.67l.91 5.56 3.17-9.54zm18.83-39.09l.58-3.22 4 1.76zm.62-3.19l-.56 3.12 4.4-1.43z" fill="#ccc"/><path d="M82.9 47.51l.17-6.76 3.78 8.54zm.21-6.67l-.16 6.64 3.88 1.69z" fill="#ccc"/><path d="M86.83 49.23l-3.76-8.5 4.42-3.29v.05l-.66 11.73zm-3.7-8.49l3.7 8.43.62-11.6zm-18.89 35.9l6.59-1.26-4.54 2.38zm6.44-1.19l-6.3 1.22 1.94 1.09zM52.25 95.59v-.06l4-9 7.22 3.3zm4-9l-3.95 8.94 11.06-5.69zm5.11-6.88l3-3 2 1.15zm3-3l-2.87 2.94 4.82-1.85z" fill="#ccc"/><path d="M66.24 77.77l5.5-.53-1.76 2.67zm5.4-.47l-5.25.5 3.54 2.09zm-9.33-7.53h.06l8.32-1.6.14 7.28zm8.34-1.5l-8.22 1.53 8.4 5.56zM86.52 54.7l.31-5.53 7.45-2.31zm.31-5.46l-.29 5.34 7.63-7.62zm-9 18.56l-.06-.07-4.54-5.28 3.14-2.17zm-4.51-5.35l4.43 5.18-1.37-7.29z" fill="#ccc"/><path d="M71.4 68.51l1.85-6.07 4.58 5.3zm1.88-6l-1.81 6 6.26-.75zm-1.6 14.78l7.46-.12.69 2.36zm7.43-.12l-7.28.12 7.9 2.17z" fill="#ccc"/><path d="M71.43 68.51l6.4-.82v2.14zm6.32-.76l-6.17.74 6.25 1.28zm-10.14 18.1l-1.33-8.11 3.64 2.15zm-1.27-8l1.29 7.82 2.28-5.74zm5.34-.55l-.85-1.91 6.41-.87zm-.85-1.88l.83 1.81 5.41-2.65zm10.66-5.92l.55-5.55 2.39 5.65zm.59-5.48l-.54 5.43 2.86.07zm2.28-.43l-2.13-5.17 5.5 2.52zm-2.06-5.1l2.08 5 3.24-2.59z" fill="#ccc"/><path d="M84.42 69.55l-2.39-5.64 2.36-.39.07 6zm-2.32-5.61l2.32 5.48-.07-5.85zm-2.27 15.64l-.73-2.41 2-3zm-.67-2.41l.67 2.23 1.26-5.09z" fill="#ccc"/><path d="M67.57 85.81v-.06l2.33-5.85 9.93-.43zm2.38-5.87l-2.29 5.77 12-6.19zM9.29 18.34a.4.4 0 1 1-.64-.46.4.4 0 1 1 .64.46zm-2.91 4.32a.301.301 0 1 1-.49-.35.301.301 0 0 1 .49.35zm-1.55 4.17a.423.423 0 1 1-.69-.49.423.423 0 1 1 .69.49zm2.06-1.3a.351.351 0 1 1-.57-.41.351.351 0 1 1 .57.41zm2.28-2.9a.39.39 0 1 1-.63-.46.39.39 0 1 1 .63.46zm2.9-4.01a.272.272 0 1 1-.44-.32.272.272 0 1 1 .44.32zm-3.72 5.92a.204.204 0 1 1-.33-.24.204.204 0 0 1 .33.24zm7.42-9.2a.222.222 0 0 1-.36-.26.222.222 0 1 1 .36.26zm-3.17 5.83a.3.3 0 0 1-.48-.35.3.3 0 0 1 .48.35zM2.76 35.39a.473.473 0 1 1-.77-.55.473.473 0 1 1 .77.55zm7.75-10.22a.42.42 0 1 1-.68-.49.42.42 0 1 1 .68.49zM6.7 32.12a.37.37 0 1 1-.6-.43.37.37 0 1 1 .6.43zm3.29-1.39a.326.326 0 1 1-.53-.38.326.326 0 1 1 .53.38zm14.32-19.42a.37.37 0 1 1-.6-.43.37.37 0 1 1 .6.43zm3.25-4.39a.445.445 0 1 1-.73-.51.445.445 0 1 1 .73.51zM4.32 40.42a.36.36 0 1 1-.58-.42.36.36 0 1 1 .58.42zM33.27.55a.35.35 0 1 1-.56-.38.35.35 0 1 1 .56.38zM12.76 28.97a.28.28 0 1 1-.45-.32.28.28 0 1 1 .45.32zm-10.72 17a.48.48 0 1 1-.78-.56.48.48 0 0 1 .78.56zm3.11-4.02a.405.405 0 1 1-.66-.47.405.405 0 0 1 .66.47zm5.25-6.23a.394.394 0 1 1-.64-.46.394.394 0 1 1 .64.46zm16.62-22.46a.53.53 0 1 1-.85-.61.53.53 0 1 1 .85.61zm-1.85 3.05a.423.423 0 1 1-.69-.49.423.423 0 1 1 .69.49zm-3.54 5.12a.541.541 0 1 1-.88-.63.541.541 0 1 1 .88.63zM8.14 39.88a.351.351 0 1 1-.57-.41.351.351 0 1 1 .57.41zm7.69-8.24a.393.393 0 1 1-.63-.47.393.393 0 1 1 .63.47zM.6 53.38a.333.333 0 1 1-.54-.39.333.333 0 0 1 .54.39zm20.68-28.14a.441.441 0 0 1-.72-.51.441.441 0 0 1 .72.51zm-.3 1.66a.283.283 0 1 1-.46-.33.283.283 0 1 1 .46.33zm5.47-6.23a.32.32 0 1 1-.52-.37.32.32 0 1 1 .52.37zM4.65 51.44a.33.33 0 1 1-.53-.38.33.33 0 1 1 .53.38zm2.42-2.95a.444.444 0 1 1-.72-.52.444.444 0 1 1 .72.52zM37.23 6.83a.362.362 0 1 1-.59-.42.362.362 0 1 1 .59.42zM21.14 30.45a.45.45 0 1 1-.73-.52.45.45 0 1 1 .73.52zm-3.61 5.08a.36.36 0 1 1-.58-.42.36.36 0 1 1 .58.42zm16.12-22.04a.451.451 0 1 1-.73-.53.451.451 0 1 1 .73.53zm-2.58 3.77a.44.44 0 1 1-.71-.51.44.44 0 1 1 .71.51zm-14.34 20.5a.37.37 0 1 1-.6-.43.37.37 0 1 1 .6.43zm9.93-13.19a.503.503 0 1 1-.83-.57.503.503 0 1 1 .83.57zM4.67 55.83a.24.24 0 0 1-.39-.28.24.24 0 1 1 .39.28zM3 58.54a.34.34 0 1 1-.55-.4.34.34 0 0 1 .55.4zm30.17-40.37a.37.37 0 1 1-.6-.43.37.37 0 1 1 .6.43zm4.38-5.63a.4.4 0 1 1-.65-.46.4.4 0 1 1 .65.46zM25.28 29.52a.351.351 0 1 1-.57-.41.351.351 0 1 1 .57.41zm3.35-3.06a.27.27 0 1 1-.44-.29.27.27 0 1 1 .44.29zM43.14 7.49a.607.607 0 1 1-1-.69.607.607 0 1 1 1 .69zM17.1 44.17a.605.605 0 1 1-1-.68.605.605 0 1 1 1 .68zm7.11-9.63a.38.38 0 1 1-.61-.44.38.38 0 1 1 .61.44zm-8.02 13.31a.49.49 0 1 1-.79-.57.49.49 0 1 1 .79.57zm3.1-4.18a.32.32 0 1 1-.52-.37.32.32 0 1 1 .52.37zm3.67-5.18a.272.272 0 1 1-.44-.32.272.272 0 1 1 .44.32zm15.11-20.11a.55.55 0 1 1-.89-.64.55.55 0 1 1 .89.64zM10.04 57.82a.301.301 0 1 1-.49-.35.301.301 0 1 1 .49.35zm32.31-44.65a.35.35 0 1 1-.52-.4.35.35 0 0 1 .52.4zm-37.66 53a.45.45 0 1 1-.73-.52.45.45 0 1 1 .73.52zM48.83 5.02a.355.355 0 0 1-.58-.41.355.355 0 0 1 .58.41zM29.01 32.83a.49.49 0 1 1-.79-.57.49.49 0 1 1 .79.57zm6.96-9.54a.312.312 0 0 1-.51-.36.312.312 0 1 1 .51.36zM22.48 43.17a.31.31 0 1 1-.5-.36.31.31 0 0 1 .5.36zM8.59 62.87a.294.294 0 1 1-.48-.34.294.294 0 1 1 .48.34zM47.95 8.44a.36.36 0 1 1-.58-.42.36.36 0 1 1 .58.42zM6.52 66.86a.301.301 0 1 1-.49-.35.301.301 0 1 1 .49.35zm14.02-18.54a.362.362 0 1 1-.59-.42.362.362 0 1 1 .59.42zM33.6 30.49a.433.433 0 0 1-.7-.51.433.433 0 0 1 .7.51zM46.06 13.5a.263.263 0 1 1-.41-.33.263.263 0 0 1 .41.33zm-9.48 13.82a.37.37 0 1 1-.59-.43.37.37 0 1 1 .59.43zm4.01-4.31a.351.351 0 1 1-.57-.41.351.351 0 0 1 .57.41zM10.35 65.55a.36.36 0 0 1-.59-.38.36.36 0 1 1 .59.38zm8.04-10.02a.41.41 0 1 1-.66-.48.41.41 0 0 1 .66.48zM54.88 5.92a.204.204 0 1 1-.33-.24.204.204 0 1 1 .33.24zM14.62 62.36a.45.45 0 1 1-.72-.52.45.45 0 0 1 .72.52zm35.21-48.53a.56.56 0 1 1-.9-.65.56.56 0 0 1 .9.65zm1-1.47a.38.38 0 0 1-.62-.44.38.38 0 0 1 .62.44zM22.24 54.24a.38.38 0 1 1-.61-.44.38.38 0 0 1 .61.44zm31.32-43.33a.39.39 0 0 1-.63-.45.39.39 0 0 1 .63.45zm1.79-1.68a.35.35 0 0 1-.52-.41.35.35 0 0 1 .52.41zm-6.26 9.26a.42.42 0 1 1-.68-.49.42.42 0 1 1 .68.49zm2.94-4.14a.261.261 0 1 1-.42-.31.261.261 0 1 1 .42.31zM20.41 59.17a.37.37 0 1 1-.6-.43.37.37 0 1 1 .6.43zm33.02-46a.33.33 0 0 1-.53-.38.33.33 0 1 1 .53.38zm-5.86 8.29a.29.29 0 1 1-.47-.29.29.29 0 1 1 .47.29zm7.69-8.55a.27.27 0 0 1-.43-.31.27.27 0 1 1 .43.31zm-.75 2.75a.25.25 0 0 1-.4-.29.25.25 0 1 1 .4.29zM30.2 50.1a.36.36 0 1 1-.58-.42.36.36 0 1 1 .58.42zM15.58 70.71a.39.39 0 1 1-.63-.45.39.39 0 1 1 .63.45zM62.65 5.4a.37.37 0 0 1-.6-.43.37.37 0 0 1 .6.43zM26.26 56.66a.222.222 0 0 1-.36-.26.222.222 0 1 1 .36.26zm33.78-46.09a.37.37 0 1 1-.6-.4.37.37 0 1 1 .6.4zm-5.85 7.99a.29.29 0 0 1-.46-.33.29.29 0 1 1 .46.33zM12.12 77.77a.21.21 0 1 1-.29-.25.21.21 0 1 1 .29.25zm41.05-55.88a.516.516 0 1 1-.84-.6.516.516 0 0 1 .84.6zM20.44 67.02a.276.276 0 0 1-.45-.32.276.276 0 0 1 .45.32zm38.15-51.56a.53.53 0 1 1-.86-.61.53.53 0 1 1 .86.61zM24.03 63.81a.31.31 0 1 1-.5-.36.31.31 0 1 1 .5.36zm-2.83 7.36a.254.254 0 1 1-.41-.3.254.254 0 1 1 .41.3zm36.49-50.1a.4.4 0 0 1-.64-.46.4.4 0 0 1 .64.46zm9.95-12.9a.462.462 0 0 1-.75-.54.462.462 0 0 1 .75.54zM63 15.35a.362.362 0 1 1-.59-.42.362.362 0 0 1 .59.42zM17.73 78.98a.362.362 0 1 1-.59-.42.362.362 0 1 1 .59.42zm51.1-68.54a.54.54 0 0 1-.87-.63.54.54 0 0 1 .87.63zM30.07 64.09a.29.29 0 0 1-.47-.34.29.29 0 0 1 .47.34zm-.51 2.6a.501.501 0 1 1-.81-.59.501.501 0 1 1 .81.59zm28.27-39.12a.613.613 0 1 1-1-.71.613.613 0 1 1 1 .71zm5.1-6.64a.383.383 0 1 1-.62-.45.383.383 0 1 1 .62.45zm-34.4 48.61a.32.32 0 1 1-.52-.37.32.32 0 0 1 .52.37zm-2.09 3.63a.63.63 0 1 1-1-.74.63.63 0 1 1 1 .74zm43.27-59.09a.37.37 0 1 1-.6-.43.37.37 0 1 1 .6.43zm-4.03 5.54a.333.333 0 1 1-.54-.39.333.333 0 1 1 .54.39zM25.63 78.41a.22.22 0 1 1-.35-.24.22.22 0 1 1 .35.24zM37.5 64.1a.36.36 0 1 1-.58-.42.36.36 0 1 1 .58.42zm-3.08 5.3a.32.32 0 1 1-.52-.37.32.32 0 1 1 .52.37zm1.26-1.75a.19.19 0 1 1-.31-.22.19.19 0 1 1 .31.22zM25.25 82.83a.33.33 0 1 1-.53-.38.33.33 0 1 1 .53.38zm4.87-5.57a.272.272 0 0 1-.44-.32.272.272 0 1 1 .44.32zm43.1-58.16a.44.44 0 0 1-.71-.51.44.44 0 1 1 .71.51zm-3.82 5.7a.533.533 0 1 1-.86-.63.533.533 0 1 1 .86.63zm3.43-2.24a.344.344 0 1 1-.56-.4.344.344 0 1 1 .56.4zM35.54 74.58a.44.44 0 0 1-.71-.51.44.44 0 1 1 .71.51zm-7.18 11.26a.315.315 0 1 1-.53-.34.315.315 0 0 1 .53.34zm38.86-53.8a.43.43 0 0 1-.7-.5.43.43 0 0 1 .7.5zm11.04-14.36a.39.39 0 0 1-.63-.45.39.39 0 1 1 .63.45zM66.83 33.4a.265.265 0 0 1-.43-.31.265.265 0 1 1 .43.31zm-25 35.39a.405.405 0 0 1-.66-.47.405.405 0 0 1 .66.47zm3.62-4.75a.304.304 0 0 1-.49-.36.304.304 0 1 1 .49.36zM28.54 87.85a.351.351 0 0 1-.57-.41.351.351 0 0 1 .57.41zm45.52-61.89a.29.29 0 1 1-.47-.34.29.29 0 1 1 .47.34zM46.04 69a.505.505 0 1 1-.82-.59.505.505 0 1 1 .82.59zm-3.93 5.93a.4.4 0 1 1-.64-.46.4.4 0 1 1 .64.46zm2.52-3.67a.3.3 0 1 1-.48-.35.3.3 0 1 1 .48.35zm-7.56 11.46a.34.34 0 1 1-.55-.4.34.34 0 0 1 .55.4zM81.7 21.17a.487.487 0 1 1-.79-.57.487.487 0 1 1 .79.57zm-8.29 11.36a.304.304 0 0 1-.49-.36.304.304 0 0 1 .49.36zm2.85-3.11a.29.29 0 0 1-.43-.34.29.29 0 1 1 .43.34zm1.57-1.25a.31.31 0 1 1-.5-.36.31.31 0 0 1 .5.36zm-1.1 2.52a.4.4 0 1 1-.64-.46.4.4 0 1 1 .64.46zM39.68 82.41a.25.25 0 1 1-.4-.29.25.25 0 1 1 .4.29zm9.37-11.57a.47.47 0 1 1-.76-.54.47.47 0 1 1 .76.54zm23.36-32.62a.4.4 0 1 1-.64-.46.4.4 0 1 1 .64.46zm-4.26 5.95a.36.36 0 1 1-.58-.42.36.36 0 1 1 .58.42zm10.63-14.2a.5.5 0 0 1-.81-.58.5.5 0 1 1 .81.58zM42.24 81.75a.42.42 0 1 1-.68-.49.42.42 0 0 1 .68.49zm-4.22 6.03a.383.383 0 1 1-.62-.45.383.383 0 1 1 .62.45zm11.15-15.5a.272.272 0 0 1-.44-.32.272.272 0 1 1 .44.32zm18.33-24.4a.585.585 0 1 1-.93-.71.585.585 0 0 1 .93.71zM54.18 66.24a.423.423 0 0 1-.69-.49.423.423 0 0 1 .69.49zm27.65-38.42a.49.49 0 1 1-.79-.57.49.49 0 1 1 .79.57zM50.6 71.6a.29.29 0 1 1-.46-.33.29.29 0 1 1 .46.33zm13.99-18.55a.37.37 0 1 1-.6-.43.37.37 0 1 1 .6.43zm12.16-16.88a.322.322 0 0 1-.52-.38.322.322 0 1 1 .52.38zm-5.67 8.76a.4.4 0 0 1-.64-.46.4.4 0 0 1 .64.46zm-1.35 2.37a.412.412 0 1 1-.67-.48.412.412 0 1 1 .67.48zm-2.9 4.16a.33.33 0 1 1-.54-.38.33.33 0 0 1 .54.38zm13.35-18.29a.333.333 0 0 1-.54-.39.333.333 0 0 1 .54.39zM53.47 70.71a.294.294 0 0 1-.48-.34.294.294 0 1 1 .48.34z" fill="#ccc"/><path d="M67.27 51.71a.37.37 0 0 1-.6-.43.37.37 0 1 1 .6.43zM42.76 85.87a.322.322 0 1 1-.52-.38.322.322 0 0 1 .52.38zm22.07-30.38a.3.3 0 1 1-.45-.32.3.3 0 1 1 .45.32zm3.51-4.1a.376.376 0 1 1-.61-.44.376.376 0 1 1 .61.44z" fill="#ccc"/><path d="M65.32 55.78a.351.351 0 0 1-.57-.41.351.351 0 1 1 .57.41zm16.26-22.7a.272.272 0 0 1-.44-.32.272.272 0 1 1 .44.32zm4.51-5.04a.487.487 0 0 1-.79-.57.487.487 0 1 1 .79.57zm-17.7 24.4a.341.341 0 0 1-.56-.39.341.341 0 0 1 .56.39zm4.66-6.09a.333.333 0 1 1-.54-.39.333.333 0 1 1 .54.39zm-3.67 6.52a.37.37 0 1 1-.6-.43.37.37 0 0 1 .6.43zM54.34 73.62a.23.23 0 0 1-.37-.27.23.23 0 0 1 .37.27zm-.39 1.22a.505.505 0 0 1-.82-.59.505.505 0 1 1 .82.59zm22.53-31.35a.43.43 0 1 1-.69-.5.43.43 0 1 1 .69.5zm3.49-5a.35.35 0 0 1-.56-.4.35.35 0 0 1 .56.4zM61.14 66.61a.41.41 0 1 1-.66-.44.41.41 0 1 1 .66.44zm2.06-2.67a.326.326 0 1 1-.53-.38.326.326 0 1 1 .53.38zm7.78-9.7a.473.473 0 0 1-.77-.55.473.473 0 0 1 .77.55zm-1.54 2.18a.23.23 0 0 1-.37-.25.23.23 0 1 1 .37.25zM49.17 85.17a.29.29 0 1 1-.46-.33.29.29 0 1 1 .46.33zM83.45 41a.444.444 0 1 1-.72-.52.444.444 0 0 1 .72.52zM62.57 69.93a.254.254 0 0 1-.41-.3.254.254 0 0 1 .41.3zm13.17-17.76a.333.333 0 0 1-.54-.39.333.333 0 0 1 .54.39zM55.39 80.72a.341.341 0 1 1-.56-.39.341.341 0 1 1 .56.39zm-5.5 7.62a.32.32 0 0 1-.51-.37.32.32 0 1 1 .51.37zm9.59-12.5a.43.43 0 1 1-.69-.5.43.43 0 1 1 .69.5zm8.65-11.61a.42.42 0 0 1-.68-.49.42.42 0 1 1 .68.49zM55.9 81.4a.383.383 0 1 1-.62-.45.383.383 0 1 1 .62.45zm-3.07 4.77a.53.53 0 0 1-.86-.62.53.53 0 0 1 .86.62zm38.51-53.73a.333.333 0 0 1-.54-.39.333.333 0 1 1 .54.39zm-3.62 5.22a.312.312 0 1 1-.51-.36.312.312 0 1 1 .51.36zm-6.95 10.95a.426.426 0 1 1-.69-.5.426.426 0 1 1 .69.5zm-5.94 8.56a.344.344 0 1 1-.56-.4.344.344 0 0 1 .56.4zm8.3-9.52a.26.26 0 0 1-.42-.3.26.26 0 0 1 .42.3zM61.26 78.84a.455.455 0 0 1-.74-.53.455.455 0 0 1 .74.53zm12.25-16.21a.301.301 0 1 1-.49-.35.301.301 0 1 1 .49.35zM56.62 86.77a.42.42 0 0 1-.68-.49.42.42 0 0 1 .68.49zM80.4 53.5a.31.31 0 0 1-.51-.33.31.31 0 1 1 .51.33zM61.71 79.95a.444.444 0 0 1-.72-.52.444.444 0 1 1 .72.52zm20.95-29.04a.383.383 0 0 1-.62-.45.383.383 0 0 1 .62.45zM64.83 77.03a.64.64 0 1 1-1-.75.64.64 0 1 1 1 .75zM76.7 60.54a.394.394 0 0 1-.64-.46.394.394 0 0 1 .64.46zm-5.74 7.92a.362.362 0 0 1-.59-.42.362.362 0 0 1 .59.42z" fill="#ccc"/><path d="M71.83 68.77a.494.494 0 0 1-.8-.58.494.494 0 0 1 .8.58zM52.57 95.74a.333.333 0 1 1-.54-.39.333.333 0 1 1 .54.39zM82.29 55.8a.277.277 0 0 1-.46-.31.277.277 0 1 1 .46.31zm4.77-6.42a.272.272 0 0 1-.44-.32.272.272 0 1 1 .44.32zM66.64 78.02a.401.401 0 1 1-.65-.47.401.401 0 0 1 .65.47zm15.94-19.35a.41.41 0 1 1-.65-.5.41.41 0 0 1 .65.5zM71.12 75.6a.34.34 0 1 1-.55-.4.34.34 0 1 1 .55.4zm15.71-20.74a.376.376 0 1 1-.61-.44.376.376 0 1 1 .61.44zm-8.78 13.06a.34.34 0 1 1-.55-.4.34.34 0 1 1 .55.4zm-6.16 9.5a.254.254 0 0 1-.41-.3.254.254 0 1 1 .41.3zm-1.73 2.66a.272.272 0 1 1-.44-.32.272.272 0 1 1 .44.32zm8.01-10.04a.412.412 0 1 1-.67-.48.412.412 0 0 1 .67.48zm16.3-23a.222.222 0 1 1-.36-.26.222.222 0 0 1 .36.26zm-30.8 42.92a.26.26 0 1 1-.42-.3.26.26 0 1 1 .42.3zm18.71-25.79a.39.39 0 1 1-.63-.46.39.39 0 1 1 .63.46zM68.11 86.11a.61.61 0 0 1-1-.7.61.61 0 0 1 1 .7zm16.72-22.25a.53.53 0 1 1-.86-.62.53.53 0 1 1 .86.62zM77.5 74.72a.32.32 0 1 1-.51-.37.32.32 0 1 1 .51.37zm4.23-5.09a.265.265 0 1 1-.43-.31.265.265 0 1 1 .43.31zm6.15-8.56a.27.27 0 1 1-.43-.31.27.27 0 1 1 .43.31zM64.83 95.82a.607.607 0 0 1-1-.69.607.607 0 0 1 1 .69zm18.08-24.56a.401.401 0 1 1-.65-.47.401.401 0 1 1 .65.47zm-1.45 3.18a.444.444 0 1 1-.72-.52.444.444 0 1 1 .72.52zm3.28-4.68a.37.37 0 1 1-.6-.43.37.37 0 1 1 .6.43zm-5.26 7.63a.43.43 0 1 1-.7-.5.43.43 0 1 1 .7.5zm.64 2.34a.412.412 0 0 1-.67-.48.412.412 0 0 1 .67.48z" fill="#ccc"/><g opacity=".64" fill="#999"><path d="M16.83 47.94a.25.25 0 1 1-.5 0 .25.25 0 1 1 .5 0zm.06 3.23a.19.19 0 0 1-.38 0 .19.19 0 1 1 .38 0zm.71 2.73a.265.265 0 1 1-.53 0 .265.265 0 1 1 .53 0zm.59-1.43a.22.22 0 1 1-.44 0 .22.22 0 0 1 .44 0zm.1-2.3a.24.24 0 1 1-.46 0 .24.24 0 1 1 .46 0zm.01-3.1a.17.17 0 1 1-.34 0 .17.17 0 1 1 .34 0zm.27 4.37a.13.13 0 1 1-.25 0 .13.13 0 0 1 .25 0zm.41-7.39a.14.14 0 1 1-.28 0 .14.14 0 0 1 .28 0zm.52 4.12a.19.19 0 0 1-.37 0 .19.19 0 1 1 .37 0zm.19 10.81a.3.3 0 1 1-.59 0 .3.3 0 0 1 .59 0zm.2-8.02a.26.26 0 0 1-.52 0 .26.26 0 1 1 .52 0zm.61 4.92a.23.23 0 1 1-.46 0 .23.23 0 1 1 .46 0zm1.16-1.9a.205.205 0 1 1-.41 0 .205.205 0 1 1 .41 0zm.17-15.09a.23.23 0 0 1-.46 0 .23.23 0 1 1 .46 0zm.06-3.41a.275.275 0 1 1-.55 0 .275.275 0 1 1 .55 0zm.43 25.48a.225.225 0 1 1-.45 0 .225.225 0 0 1 .45 0zm.15-30.79a.22.22 0 1 1-.43 0 .22.22 0 1 1 .43 0zm-.04 21.9a.175.175 0 0 1-.35 0 .175.175 0 1 1 .35 0zm.76 12.54a.3.3 0 1 1-.6 0 .3.3 0 1 1 .6 0zm.11-3.17a.25.25 0 1 1-.5 0 .25.25 0 1 1 .5 0zm.39-5.08a.25.25 0 1 1-.49 0 .25.25 0 0 1 .49 0zm.24-17.47a.33.33 0 1 1-.66 0 .33.33 0 1 1 .66 0zm.18 2.23a.265.265 0 1 1-.53 0 .265.265 0 1 1 .53 0zm.07 3.89a.34.34 0 1 1-.67 0 .34.34 0 0 1 .67 0zm-.12 14.29a.22.22 0 0 1-.44 0 .22.22 0 0 1 .44 0zm.89-6.99a.24.24 0 0 1-.48 0 .24.24 0 1 1 .48 0zm.21 16.59a.21.21 0 1 1-.41 0 .21.21 0 0 1 .41 0zm.23-21.83a.28.28 0 1 1-.55 0 .28.28 0 1 1 .55 0zm.44.95a.18.18 0 1 1-.36 0 .18.18 0 0 1 .36 0zm.51-5.16a.2.2 0 1 1-.4 0 .2.2 0 1 1 .4 0zm.17 23.58a.21.21 0 1 1-.41 0 .21.21 0 1 1 .41 0zm.15-2.38a.28.28 0 0 1-.55 0 .28.28 0 1 1 .55 0zm.11-32.15a.23.23 0 1 1-.45 0 .23.23 0 1 1 .45 0zm.45 17.86a.28.28 0 1 1-.56 0 .28.28 0 0 1 .56 0zm.02 3.89a.225.225 0 0 1-.45 0 .225.225 0 1 1 .45 0zm.14-17.07a.28.28 0 1 1-.56 0 .28.28 0 1 1 .56 0zm.07 2.86a.275.275 0 1 1-.55 0 .275.275 0 1 1 .55 0zm.2 15.64a.235.235 0 1 1-.47 0 .235.235 0 1 1 .47 0zm.18-10.32a.305.305 0 0 1-.61 0 .305.305 0 0 1 .61 0zm.29 23.89a.15.15 0 1 1-.3 0 .15.15 0 0 1 .3 0zm.14 1.99a.21.21 0 1 1-.42 0 .21.21 0 1 1 .42 0zm.57-31.48a.23.23 0 0 1-.46 0 .23.23 0 1 1 .46 0zm.18-4.48a.25.25 0 0 1-.5 0 .25.25 0 0 1 .5 0zm-.03 13.09a.22.22 0 1 1-.44 0 .22.22 0 1 1 .44 0zm.59-2.77a.17.17 0 1 1-.34 0 .17.17 0 0 1 .34 0zm.44-14.93a.37.37 0 1 1-.74 0 .37.37 0 1 1 .74 0zm.15 28.09a.37.37 0 1 1-.73 0 .37.37 0 0 1 .73 0zm.11-7.45a.235.235 0 1 1-.47 0 .235.235 0 1 1 .47 0zm.78 9.69a.31.31 0 1 1-.61 0 .31.31 0 0 1 .61 0zm.06-3.24a.2.2 0 1 1-.4 0 .2.2 0 0 1 .4 0zm-.03-4a.17.17 0 0 1-.34 0 .17.17 0 1 1 .34 0zm.33-15.71a.345.345 0 1 1-.69 0 .345.345 0 1 1 .69 0zm.16 30.25a.19.19 0 1 1-.38 0 .19.19 0 1 1 .38 0zm.11-34.45a.22.22 0 0 1-.43 0 .22.22 0 1 1 .43 0zm.22 40.64a.28.28 0 0 1-.56 0 .28.28 0 1 1 .56 0zm.1-47.15a.22.22 0 1 1-.44 0 .22.22 0 0 1 .44 0zm.09 21.35a.305.305 0 1 1-.61 0 .305.305 0 1 1 .61 0zm.04-7.38a.195.195 0 1 1-.39 0 .195.195 0 1 1 .39 0zm.4 15a.195.195 0 1 1-.39 0 .195.195 0 0 1 .39 0zm.15 15.09a.185.185 0 1 1-.37 0 .185.185 0 0 1 .37 0zm.15-42a.225.225 0 1 1-.45 0 .225.225 0 1 1 .45 0zm.25 44.77a.19.19 0 1 1-.38 0 .19.19 0 0 1 .38 0zm.36-14.52a.23.23 0 1 1-.45 0 .23.23 0 1 1 .45 0zm.12-13.82a.27.27 0 1 1-.54 0 .27.27 0 1 1 .54 0zm.12-13.17a.16.16 0 1 1-.31 0 .16.16 0 1 1 .31 0zm.23 10.48a.23.23 0 1 1-.46 0 .23.23 0 1 1 .46 0zm.47-3.66a.22.22 0 0 1-.44 0 .22.22 0 1 1 .44 0zm.17 32.63a.23.23 0 1 1-.45 0 .23.23 0 1 1 .45 0zm.42-8.02a.26.26 0 0 1-.51 0 .26.26 0 1 1 .51 0zM35.4 25a.13.13 0 0 1-.25 0 .13.13 0 1 1 .25 0zm.15 43.34a.28.28 0 0 1-.56 0 .28.28 0 0 1 .56 0zm.15-37.46a.35.35 0 1 1-.69 0 .35.35 0 0 1 .69 0zm-.03-1.12a.24.24 0 1 1-.47 0 .24.24 0 1 1 .47 0zm.79 31.68a.235.235 0 0 1-.47 0 .235.235 0 0 1 .47 0zm.09-33.42a.24.24 0 1 1-.48 0 .24.24 0 0 1 .48 0zm.28-1.51a.22.22 0 1 1-.44 0 .22.22 0 1 1 .44 0zm.21 6.99a.26.26 0 1 1-.52 0 .26.26 0 0 1 .52 0zm-.02-3.18a.165.165 0 1 1-.33 0 .165.165 0 0 1 .33 0zm.31 34.29a.23.23 0 0 1-.46 0 .23.23 0 1 1 .46 0zm-.03-35.44a.205.205 0 1 1-.41 0 .205.205 0 1 1 .41 0zm.06 6.39a.18.18 0 1 1-.36 0 .18.18 0 0 1 .36 0zm.78-7.14a.17.17 0 0 1-.33 0 .17.17 0 1 1 .33 0zm.62 1.66a.155.155 0 1 1-.31 0 .155.155 0 1 1 .31 0zm.23 26.36a.225.225 0 1 1-.45 0 .225.225 0 1 1 .45 0zm.1 15.79a.24.24 0 1 1-.48 0 .24.24 0 0 1 .48 0zm.06-50.32a.23.23 0 0 1-.46 0 .23.23 0 0 1 .46 0zm.23 39.26a.14.14 0 0 1-.28 0 .14.14 0 0 1 .28 0zm.33-35.69a.235.235 0 1 1-.47 0 .235.235 0 1 1 .47 0zm-.05 6.19a.18.18 0 1 1-.36 0 .18.18 0 1 1 .36 0zm.25 45.41a.13.13 0 1 1-.26 0 .13.13 0 1 1 .26 0zm.45-43.35a.32.32 0 1 1-.64 0 .32.32 0 1 1 .64 0zm-.15 34.85a.17.17 0 0 1-.34 0 .17.17 0 0 1 .34 0zm.55-40.09a.33.33 0 1 1-.66 0 .33.33 0 1 1 .66 0zm.07 37.16a.19.19 0 1 1-.38 0 .19.19 0 1 1 .38 0zm1.27 4.76a.16.16 0 0 1-.32 0 .16.16 0 1 1 .32 0zm.25-38.74a.25.25 0 1 1-.5 0 .25.25 0 0 1 .5 0zm.36-10.16a.29.29 0 0 1-.58 0 .29.29 0 0 1 .58 0zm.25 5.32a.23.23 0 1 1-.45 0 .23.23 0 1 1 .45 0zm.24 48.82a.23.23 0 1 1-.45 0 .23.23 0 1 1 .45 0zm.9-53.43a.34.34 0 1 1-.67 0 .34.34 0 0 1 .67 0zm-.07 41.36a.18.18 0 0 1-.36 0 .18.18 0 0 1 .36 0zm.69 1.51a.315.315 0 0 1-.63 0 .315.315 0 1 1 .63 0zm.11-30.17a.38.38 0 0 1-.76 0 .38.38 0 0 1 .76 0zm.13-5.23a.24.24 0 0 1-.48 0 .24.24 0 1 1 .48 0zm.28 37.23a.2.2 0 1 1-.4 0 .2.2 0 1 1 .4 0zm.27 2.62a.4.4 0 1 1-.79 0 .4.4 0 1 1 .79 0zm.39-45.81a.23.23 0 1 1-.46 0 .23.23 0 0 1 .46 0zm-.07 4.29a.21.21 0 0 1-.41 0 .21.21 0 1 1 .41 0zM47 72.47a.14.14 0 1 1-.27 0 .14.14 0 0 1 .27 0zm.83-11.59a.225.225 0 1 1-.45 0 .225.225 0 1 1 .45 0zm.35 3.81a.2.2 0 1 1-.4 0 .2.2 0 1 1 .4 0zm-.01-1.35a.12.12 0 1 1-.24 0 .12.12 0 1 1 .24 0zm.25 11.51a.21.21 0 1 1-.41 0 .21.21 0 1 1 .41 0zm.41-4.6a.17.17 0 1 1-.34 0 .17.17 0 0 1 .34 0zM49.52 25a.27.27 0 0 1-.54 0 .27.27 0 0 1 .54 0zm.13 4.29a.33.33 0 0 1-.66 0 .33.33 0 0 1 .66 0zm.92-2.38a.215.215 0 1 1-.43 0 .215.215 0 1 1 .43 0zm.06 40.01a.28.28 0 0 1-.56 0 .28.28 0 0 1 .56 0zm.47 8.33a.19.19 0 1 1-.37 0 .19.19 0 0 1 .37 0zm.09-41.49a.27.27 0 0 1-.54 0 .27.27 0 1 1 .54 0zm.37-11.32a.24.24 0 0 1-.48 0 .24.24 0 1 1 .48 0zm-.05 12.14a.17.17 0 0 1-.33 0 .17.17 0 0 1 .33 0zm.21 27.1a.255.255 0 0 1-.51 0 .255.255 0 0 1 .51 0zm.11-3.73a.19.19 0 1 1-.38 0 .19.19 0 0 1 .38 0zm.09 18.22a.22.22 0 1 1-.44 0 .22.22 0 1 1 .44 0zm.52-48a.18.18 0 1 1-.36 0 .18.18 0 1 1 .36 0zm1.49 32.08a.32.32 0 0 1-.63 0 .32.32 0 0 1 .63 0zm.17 4.44a.25.25 0 1 1-.5 0 .25.25 0 1 1 .5 0zm-.06-2.77a.19.19 0 0 1-.37 0 .19.19 0 0 1 .37 0zm.34 8.57a.21.21 0 1 1-.42 0 .21.21 0 1 1 .42 0zm.18-47.55a.305.305 0 1 1-.61 0 .305.305 0 0 1 .61 0zm-.04 8.81a.19.19 0 1 1-.38 0 .19.19 0 1 1 .38 0zm.31-2.58a.18.18 0 1 1-.36 0 .18.18 0 1 1 .36 0zm.32-1.23a.19.19 0 1 1-.38 0 .19.19 0 1 1 .38 0zm.38 1.67a.25.25 0 0 1-.5 0 .25.25 0 0 1 .5 0zm.06 39.77a.155.155 0 0 1-.31 0 .155.155 0 0 1 .31 0zm.53-9.29a.29.29 0 1 1-.58 0 .29.29 0 1 1 .58 0zM56.08 35a.25.25 0 1 1-.5 0 .25.25 0 1 1 .5 0zm.03 4.6a.23.23 0 0 1-.45 0 .23.23 0 0 1 .45 0zm.19-11.11a.31.31 0 1 1-.62 0 .31.31 0 1 1 .62 0zm.35 39.62a.26.26 0 1 1-.52 0 .26.26 0 0 1 .52 0zm.06 4.6a.24.24 0 1 1-.48 0 .24.24 0 1 1 .48 0zm0-11.94a.17.17 0 0 1-.34 0 .17.17 0 1 1 .34 0zm.41-19.07a.36.36 0 0 1-.72 0 .36.36 0 0 1 .72 0zm-.07 14.18a.265.265 0 1 1-.53 0 .265.265 0 1 1 .53 0zm.04-29.61a.305.305 0 0 1-.61 0 .305.305 0 1 1 .61 0zm.1 33.64a.18.18 0 1 1-.36 0 .18.18 0 1 1 .36 0zm.34-14.53a.23.23 0 1 1-.46 0 .23.23 0 0 1 .46 0zm.01-13a.2.2 0 1 1-.4 0 .2.2 0 1 1 .4 0zm.29 6.51a.25.25 0 0 1-.5 0 .25.25 0 0 1 .5 0zm.2 1.7a.26.26 0 0 1-.52 0 .26.26 0 1 1 .52 0zm.04 3.18a.21.21 0 1 1-.41 0 .21.21 0 0 1 .41 0zm.12-14.16a.21.21 0 0 1-.42 0 .21.21 0 0 1 .42 0zm.13 28.8a.185.185 0 0 1-.37 0 .185.185 0 1 1 .37 0z"/><path d="M58.4 43.73a.23.23 0 0 1-.46 0 .23.23 0 1 1 .46 0zm.02 26.28a.2.2 0 1 1-.4 0 .2.2 0 1 1 .4 0zm.14-23.49a.19.19 0 1 1-.37 0 .19.19 0 1 1 .37 0zm.27-3.35a.235.235 0 1 1-.47 0 .235.235 0 1 1 .47 0z"/><path d="M58.89 46.5a.22.22 0 1 1-.44 0 .22.22 0 1 1 .44 0zm-.06-17.45a.17.17 0 0 1-.34 0 .17.17 0 0 1 .34 0zm.48-4.21a.305.305 0 1 1-.61 0 .305.305 0 1 1 .61 0zm-.08 18.85a.21.21 0 0 1-.42 0 .21.21 0 0 1 .42 0zm.14-4.8a.21.21 0 0 1-.41 0 .21.21 0 0 1 .41 0zm.52 4.66a.23.23 0 1 1-.46 0 .23.23 0 0 1 .46 0zm-.06 16.02a.145.145 0 0 1-.29 0 .145.145 0 0 1 .29 0zm.24.76a.32.32 0 0 1-.63 0 .32.32 0 1 1 .63 0zm0-24.16a.27.27 0 1 1-.53 0 .27.27 0 1 1 .53 0zm-.05-3.79a.22.22 0 0 1-.43 0 .22.22 0 0 1 .43 0zm.7 21.15a.26.26 0 0 1-.51 0 .26.26 0 1 1 .51 0zm.11-2.11a.205.205 0 1 1-.41 0 .205.205 0 0 1 .41 0zm.37-7.76a.3.3 0 0 1-.59 0 .3.3 0 1 1 .59 0zm.01 1.66a.14.14 0 1 1-.28 0 .14.14 0 1 1 .28 0zm.2 21.99a.18.18 0 1 1-.36 0 .18.18 0 1 1 .36 0zm1.29-34.93a.28.28 0 1 1-.56 0 .28.28 0 1 1 .56 0zm-.04 22.31a.16.16 0 0 1-.32 0 .16.16 0 1 1 .32 0zm.17-13.81a.21.21 0 1 1-.42 0 .21.21 0 1 1 .42 0zm.12 21.91a.21.21 0 0 1-.42 0 .21.21 0 0 1 .42 0zm-.01 5.87a.2.2 0 1 1-.39 0 .2.2 0 0 1 .39 0zm.3-9.84a.27.27 0 1 1-.53 0 .27.27 0 1 1 .53 0zm.16-9.05a.26.26 0 1 1-.52 0 .26.26 0 1 1 .52 0zm.06 13.18a.24.24 0 0 1-.48 0 .24.24 0 1 1 .48 0zm.17 3.57a.33.33 0 1 1-.66 0 .33.33 0 1 1 .66 0zm-.05-41.35a.21.21 0 1 1-.41 0 .21.21 0 1 1 .41 0zm.07 4a.195.195 0 1 1-.39 0 .195.195 0 1 1 .39 0zm.47 8.06a.27.27 0 0 1-.53 0 .27.27 0 1 1 .53 0zm.1 6.51a.215.215 0 1 1-.43 0 .215.215 0 1 1 .43 0zm.74-7.86a.16.16 0 1 1-.32 0 .16.16 0 1 1 .32 0zm.29 23.81a.285.285 0 0 1-.57 0 .285.285 0 1 1 .57 0zm.3-12.7a.19.19 0 0 1-.38 0 .19.19 0 1 1 .38 0zm.28 18.42a.26.26 0 1 1-.52 0 .26.26 0 0 1 .52 0zm-.12-25.56a.2.2 0 0 1-.39 0 .2.2 0 0 1 .39 0zm.12 20.24a.28.28 0 0 1-.55 0 .28.28 0 0 1 .55 0zm.09-22.39a.24.24 0 0 1-.48 0 .24.24 0 0 1 .48 0zm.48 19.77a.4.4 0 1 1-.8 0 .4.4 0 1 1 .8 0zm0-12.7a.25.25 0 1 1-.49 0 .25.25 0 1 1 .49 0zm-.02 6.11a.23.23 0 1 1-.46 0 .23.23 0 1 1 .46 0z"/><path d="M66.94 50.72a.31.31 0 1 1-.62 0 .31.31 0 1 1 .62 0zM67 71.44a.21.21 0 1 1-.41 0 .21.21 0 1 1 .41 0zm.51-31.12a.17.17 0 1 1-.33 0 .17.17 0 1 1 .33 0zm.08-5a.17.17 0 0 1-.34 0 .17.17 0 1 1 .34 0zm.09 21.99a.25.25 0 1 1-.5 0 .25.25 0 0 1 .5 0zm1.03-15.64a.25.25 0 0 1-.5 0 .25.25 0 0 1 .5 0zm.35 12.78a.21.21 0 0 1-.42 0 .21.21 0 1 1 .42 0zm.42-16.28a.235.235 0 0 1-.47 0 .235.235 0 0 1 .47 0zm.35 9.85a.215.215 0 0 1-.43 0 .215.215 0 0 1 .43 0zm.29 7.07a.16.16 0 0 1-.32 0 .16.16 0 1 1 .32 0zm.09 1.98a.17.17 0 1 1-.34 0 .17.17 0 1 1 .34 0zm.41-8.02a.26.26 0 1 1-.51 0 .26.26 0 1 1 .51 0zm-.12-17.62a.14.14 0 1 1-.28 0 .14.14 0 1 1 .28 0zm.02 33.03a.16.16 0 0 1-.32 0 .16.16 0 0 1 .32 0zm.09-19.93a.245.245 0 1 1-.49 0 .245.245 0 1 1 .49 0zm.76 16.35a.38.38 0 0 1-.75 0 .38.38 0 0 1 .75 0zm.35-17.38a.33.33 0 0 1-.66 0 .33.33 0 0 1 .66 0zm.27 8.17a.2.2 0 1 1-.39 0 .2.2 0 1 1 .39 0zm.28-4.12a.17.17 0 1 1-.33 0 .17.17 0 1 1 .33 0zm.01-6.59a.17.17 0 0 1-.34 0 .17.17 0 0 1 .34 0zM73.27 67a.37.37 0 1 1-.73 0 .37.37 0 1 1 .73 0zm.2-19.06a.25.25 0 0 1-.5 0 .25.25 0 0 1 .5 0zm.42 2.15a.28.28 0 1 1-.55 0 .28.28 0 0 1 .55 0zm-.06-3.58a.23.23 0 1 1-.46 0 .23.23 0 1 1 .46 0zm.13 5.8a.27.27 0 1 1-.54 0 .27.27 0 1 1 .54 0zm1.18.95a.26.26 0 0 1-.52 0 .26.26 0 0 1 .52 0zm-56.31-9.2l2.78-8.57v3.42zm2.75-8.49l-2.7 8.33 2.7-5v-3.33zm-4.25 18.37l-.66-2.77 1.31 1.31zm-.6-2.7l.61 2.61.61-1.38zm2.92-.25l-1.62-.82 1.3-2zm-1.58-.82l1.55.77-.31-2.71zm4.76 14.45l-.8-3.68 1 .49-.16 3.17zm-.76-3.63l.76 3.51.15-3.05zm1.38-4.62l3.59-2.71.41 1.46zm3.56-2.69l-3.49 2.63 3.87-1.24z"/><path d="M20.27 55.9l-3-2 4.2.08zm-2.89-2l2.88 1.95 1.17-1.87zm6.45 5.41l-4.49-.32 4.1-2.66zm-4.42-.35l4.42.32-.39-2.9z"/><path d="M22.1 60.98l-2.74-2 4.47.3zm-2.65-2l2.65 1.95 1.73-1.62zm5.28-6.66l1-4.32 1.3 1.78zm.95-4.26l-.93 4.2 2.18-2.49zm-4.22 5.95l-1.86-3.08 2.67 1.13zm-1.79-3l1.79 3 .78-1.87z"/><path d="M23.06 61.46l-1-.49 1.77-1.69zm-.94-.5l.92.46.79-2.07zm1.36-4.58l-3.24-.49 1.21-1.94zm-3.19-.51l3.11.47L21.45 54z"/><path d="M19.37 59.01l.89-3.15 3.21.48zm.91-3.11l-.86 3 4-2.58zm6.04 10.56l-3.49-1.85 3.55-.57zm-3.39-1.84l3.35 1.79.08-2.34zm-.66-12.54l2.87-5 .57 1zm2.85-5l-2.76 4.84 3.3-3.92zm-6.29-2.99l2.81-5.22 2.19 2.25zm2.82-5.17l-2.82 5.09 5-2.9z"/><path d="M23.45 56.39l-2-2.4 3.3-1.69zm-2-2.41l2 2.35 1.25-4z"/><path d="M21.43 54.01l.81-2 2.51.24zm.83-1.92l-.77 1.86 3.17-1.63zm4.72 1.59l3-3 .95 2.49zm3.05-2.93l-3 2.89 3.86-.47z"/><path d="M22.26 52.1l-3-3.93 5.83-1.12zm-2.92-3.93l2.91 3.85 2.83-5z"/><path d="M19.32 48.17l4.51-3.19 1.29 2.1zm4.51-3.14l-4.45 3.14 5.71-1.09zm-1 19.6l.16-3.2 3.36 2.64zm.19-3.16l-.16 3.13 3.44-.55zM21.6 35.51l.64-5.34 4.31 1.76zm.67-5.34l-.63 5.27 4.87-3.54zm4.92 9.3l-3.61-.56 3.55-2.34zm-3.55-.58l3.52.55-.08-2.81zm5.78 6.15l-3.3-2.17 2.48-3.76zm-3.25-2.18l3.22 2.12-.79-5.81z"/><path d="M23.83 41.17l-.24-2.26 3.62.56zm-.21-2.23l.21 2.15 3.27-1.64zm-.02-.03l-2-3.44 5.54 1.13zm-2-3.41l2 3.37 3.45-2.27zm3.51 11.59l-1.28-2.1 3.8-.24zm-1.28-2.07l1.25 2 2.42-2.26zm4.94-10.3l-2.23-2.79 3.14-1.85zm-2.21-2.81l2.19 2.74.86-4.54zm-1.63 37.01l1.37-2.5 1.68 2.24zm1.38-2.45l-1.33 2.42 3-.23z"/><path d="M25.64 48.04l1.93-3.31 1.26 3.07zm1.93-3.24L25.69 48l3-.23zm-1.19 19.29l-2.55-4.81 6-1.11zm-2.55-4.78l2.52 4.72 3.42-5.86zm2.71-27.39l-4.29-1.75 7.44-.08zm-4.21-1.75l4.21 1.72 3-1.79z"/><path d="M28.77 47.83l-1.22-3.08 1.87.24zm-1.17-3l1.16 2.95.62-2.72zm3.13 15.6l.16-3.26 2.34 1.94zm.19-3.26l-.16 3.2 2.42-1.33zm.48 10.57l-5-3.66 4.39-3.67zm-5-3.68l5 3.62-.63-7.24zm-4.15-33.89l9.58-3.45-2.17 3.38zm9.49-3.4l-9.4 3.4 7.29-.08z"/><path d="M26.39 64.07l3.44-5.9 1 2.23zm3.44-5.9l-3.36 5.78 4.29-3.59zm1.27-20.68l-4-.89 1.69-1.94zm-4-.91l3.9.86-2.26-2.73z"/><path d="M28.74 34.71l.89-4.67 1.85 3.22zm.9-4.54l-.81 4.49 2.66-1.41zm-1.68 38.51l-1.7-2.26 5.17 1.29h-.04zm-1.62-2.22l1.64 2.18 3.35-.93zm3.05-21.41l-.8-5.94 3.37 1.61zm-.77-5.88l.78 5.81 2.51-4.24zm8.21-5.62l-1.5-2.68 1.5-.57zm-1.42-2.67l1.39 2.56.03-3.1zm-3.58 17.29l-3-.32.64-2.81zm-3-.35l3 .31-2.34-3z"/><path d="M30.03 50.75l-1.29-3 3 .32zm-1.24-3l1.25 2.89 1.72-2.58zm2.81 26.17l.88-3.12.4 2.79zm.89-3l-.85 3 1.19-.35zM29.6 30.11l2.23-3.39.81 2.1zm2.18-3.33l-2.1 3.27 2.88-1.25z"/><path d="M34.33 71.54l-1.85-.72 2.82-2.5zm-1.81-.74l1.79.7.93-3.11z"/><path d="M32.49 70.83l-1.13-3.14 3.95.64zm-1.08-3.1l1.1 3.05 2.74-2.43zm3.93-36.83l.08-1.15 1.48.58zm.11-1.11l-.08 1.07 1.46-.54zm4.05-4.3l-4.24-.48 3.7-3.14zm-4.19-.5l4.15.47-.55-3.53zm-1.12 13.93l-3.14-1.45.4-4.3zm-3.11-1.47l3 1.41-2.66-5.55zm13.32-2.51l6.53-1.17.44.85zm6.51-1.16l-6.28 1.12 6.69-.33z"/><path d="M31.37 67.75l-.64-7.38 4 3.11zm-.61-7.31l.63 7.23 3.3-4.17zm1.81-31.6l-.81-2.1 3.5-1.75zm-.74-2.08l.78 2 2.65-3.74z"/><path d="M35.29 68.36l-3.91-.64 3.35-4.25zm-3.88-.66l3.85.63-.55-4.79zm5.79-32.1l-3.69-3.52 3.32 1.4zm-3.6-3.49l3.56 3.4-.39-2zm-1.06-3.28L35.26 25l1 3zm2.73-3.8l-2.66 3.76 3.68-.78z"/><path d="M35.4 29.79l.9-1.8.82 1.18zm.9-1.74l-.85 1.69 1.63-.57zm2.53 44.21l-3.6-3.92 4.82.24zm-3.54-3.9l3.54 3.81 1.18-3.61zm6.61 2.08l3.15-3.56.08 2.67zm3.13-3.48l-3 3.43 3.12-.86z"/><path d="M40.07 68.6l-4.82-.24 1.84-3.75zm-4.77-.27l4.71.24-2.9-3.92zm2.71-39.89l-1.72-.41.33-1.56zm-1.68-.43l1.62.38-1.32-1.84zm3.19 3.69l-2.69-1.39 1.8-.25zm-2.61-1.38l2.54 1.31-.85-1.54zm-4.08 43.29l1.46-2.1 4.54.71zm1.47-2.07l-1.4 2 5.84-1.32z"/><path d="M38.89 72.26l-4.54-.72 1-3.2zm-4.55-.75l4.49.66-3.55-3.8z"/><path d="M38.83 72.27l1.21-3.71 1.94 1.86zm1.22-3.66l-1.22 3.56 3-1.8zm.01-34.86l-3.3-.24 2.75-1.86zm-3.23-.27l3.19.23-.54-2zm1.14-5.04L36.6 26.5l2.91-1.05zm-1.33-1.93l1.32 1.87 1.48-2.88zm3.13 50.58l-8.2-3.19 1.32-.33 6.94 3.49zm-8.1-3.18l7.83 3-6.61-3.35z"/><path d="M36.77 33.52l.06-3.22 2.66 1.37zm.06-3.18v3.13l2.65-1.8zm10 42.16l-1.76-3 3.63.73zm-1.71-2.94l1.71 2.89 1.8-2.19zm-5.35 7.54l-.94-4.93 4.18 3.46zm-.94-4.83l1 4.79 3.16-1.41zm1.62-43.76l-2.5-.08 1.54-3zm-2.46-.11l2.42.08-.94-3z"/><path d="M37.17 35.58l-.4-2.1 3.3.24zm-.34-2.07l.39 2 2.8-1.79zm1.77-3.4l-.65-1.71 2.52.08zm-.61-1.68l.62 1.63 1.78-1.55zm2.7 37.24l-3.59-1 2.15-3.5zm-3.57-1.06l3.53 1-1.41-4.39z"/><path d="M40.03 33.76l-.57-2.11h2.67zm-.53-2.08l.54 2 2-2H39.5z"/><path d="M42.12 31.68h-2.66l1-3.23zm-2.62 0h2.58l-1.64-3.12zm5.22-1.97l-2-2.92 3 1.22zm-1.95-2.85l1.94 2.8.93-1.63zm5.45 48.04l-1.39-2.43 1.88-2.3zm-1.34-2.43l1.32 2.33.47-4.51z"/><path d="M44.76 29.71L40.4 28.5l2.34-1.69zm-4.29-1.22l4.22 1.17-2-2.81zm-3.29 7.08l2.86-1.83 4.37 1.19zm2.86-1.82l-2.8 1.79 7.08-.62z"/><path d="M42.1 31.69l-1.7-3.22 4.35 1.21zm-1.63-3.17l1.64 3.13 2.58-2zm-.45 40.09l.64-3 4.41 1.28zm.67-2.94l-.63 2.9 4.93-1.64zm9.67-38.72L49.23 25l2.07-2.56zm-1.1-1.94l1.09 1.86.94-4.37z"/><path d="M45.68 28.03l3.58-3 1.12 1.92zm3.57-3l-3.51 3 4.6-1.09zm5.09 6.73l.32-2.65.67.5zm.31-2.59l-.3 2.5.91-2zm-9.62 37.77l-.65-1.86 3.63-.4zm-.61-1.84l.62 1.79 2.88-2.18z"/><path d="M52.27 28.17l-1.94-1.26 3.9-4zm-1.89-1.29l1.87 1.29 2-5.16zm.01 40.05h-5.4l3-2.26zm-5.31 0h5.24l-2.34-2.19z"/><path d="M48.69 70.27l-3.68-3.36h5.38zm-3.62-3.34l3.61 3.3 1.65-3.3h-5.25zm10.76-31.91l-4.55-.43 3-2.85zm-4.48-.45l4.48.42-1.51-3.22zm-2.1-9.55l-3.62-1.29 5.73-1.31zm-3.52-1.29l3.52 1.25 2-2.52z"/><path d="M50.37 66.94l-2.41-2.25 3.53-3zM48 64.69l2.35 2.19 1.1-5.17zm6.17 5.82l-3.81-3.57 5.1 2.47zm-3.73-3.54l3.73 3.5 1.24-1.09zm-.11-40.02l1-4.48 3 .5zm1-4.49l-.95 4.4 3.84-3.91zm-.42 52.82l-2.23-5 5.53.24zm-2.2-5l2.2 5 3.23-4.72zm6.57-40.65l-.66-.46 1.42-.67zm-.61-.46l.6.45.68-1.06zm8.08 39.52l-1.54-1.38 2.09-.8zm-1.49-1.37l1.47 1.32.54-2.09z"/><path d="M57.35 32.42l-2.08-2.8h2.75zm-2-2.8l2 2.73.62-2.73h-2.66zm.65-1.1l-1.06-.57 1.83-1.67zm-1-.58l1 .54.77-2.15zm2.83 12.68l-1.95-1 1.78-.73zm-1.87-1l1.84 1-.16-1.65z"/><path d="M57.38 32.41l-3.07-.65 1-2.17zm-3-.67l3 .62-2-2.73z"/><path d="M58.03 29.62h-2.78l.74-1.15zm-2.73 0h2.62L56 28.54zm1.45 12.11l-.92-2.16 1.95 1zm-.84-2.1l.85 2 1-1.08zm2.35 30.41l-2.85-.65 1-1.28zm-2.8-.67l2.71.62-1.78-1.82zm4.24-25.8l-1.12-.4-.81-2.58zm-1.1-.4l1 .35-1.77-2.83zm7.01 16.94l-.66-.42 1-2.24zm-.63-.43l.6.38.38-2.5zm-5.2.67l-2.77-.42 2.69-.35zm-2.66-.44l2.63.4-.07-.73zm2.71-23.69l-4-1.21 1.53-2.66zm-4-1.23l3.94 1.18-2.43-3.76zm4 1.25v-3.87h2.66zm0-3.84v3.77l2.58-3.75h-2.58zm-1.18 14.13l.36-2.87 2.09 1.67zm.38-2.81l-.35 2.76 2.36-1.16z"/><path d="M59.83 36.24l-2.5-3.87h2.5v3.88zm-2.45-3.85l2.45 3.78V32.4h-2.46z"/><path d="M59.83 32.4h-2.51l.64-2.81zm-2.47 0h2.41l-1.79-2.73zm1.82 6.51h-1.6l2.25-2.74zm-1.54 0h1.52l.62-2.63z"/><path d="M57.61 38.92l-1.78-3.94 4 1.19zm-1.78-3.89l1.75 3.84 2.2-2.7zm5.4 32.34v-.05l-1.48-7 3 2.49zm-1.4-7l1.45 6.89 1.49-4.46zm2.68-5.63l-1.94-3.32 2.57-1.67zm-1.9-3.31l1.88 3.22.63-4.85zm2.86-22.26l-4.82-.08 4.74-3.92zm-4.74-.11l4.71.08-.08-3.97zm6.8 10.83l-1.7-2.72 1.87.49zm-1.65-2.64l1.62 2.55.15-2.09z"/><path d="M65.71 37.73l-1.88-.49 1-1.39zm-1.88-.56l1.77.46-.77-1.72zm-3.25 14.27l-1.94-5 4.48 3.28zm-1.88-4.9l1.9 4.85 2.51-1.63z"/><path d="M63.83 37.24l-4-1 5-.32zm-4-1l4 .93.93-1.32zm0-3.83l-1.12-3.37 4.82.08zm-1.12-3.34l1.12 3.29 3.59-3.19z"/><path d="M59.15 38.92l.68-2.75 4.1 1zm.68-2.75l-.64 2.7 4.64-1.64zm2.89 26.67l.24-4 2 .89zm.27-4l-.23 3.9 2.18-3zm1.04-15.09l-3.2-.08 1.78-2.83zm-3.1-.1l3.05.07-1.33-2.81z"/><path d="M65.39 47.02l-4.35-1.69 3-1.61zm-4.28-1.7l4.22 1.64L64 43.75z"/><path d="M64.01 43.77l-1.37-2.9 2.89-1zm-1.33-2.89l1.33 2.81 1.48-3.83zm.6 25.66l-.08-3.63 2.32 2.48zm0-3.56l.08 3.51 2.18-1.09z"/><path d="M62.75 68.67l.56-2.15 2.22-1.11zm.56-2.14l-.54 2.08 2.69-3.15zm2.86-15.63l-3.06-1.13 2.24-2.8zm-3-1.14l3 1.1-.78-3.83zm-.53-8.86l1.19-3.73 1.69 2.66zm1.19-3.64l-1.17 3.59 2.81-1zm2.33 7.53l-2.18-1 3.39-3.47zm-2.13-1.06l2.11 1 1.17-4.37z"/><path d="M66.83 71.47l-4.11-2.8 2.8-3.28zm-4-2.81l4 2.75-1.26-6zm4 2.79l3.58-7 2.57 2.57zm3.57-7l-3.57 6.94 6-4.4z"/><path d="M66.83 71.46l-8.57-1.43 4.53-1.35 4 2.78zm-8.51-1.45l8.45 1.41-4-2.74zm6.51-34.12l-2.38-3.49 5 3zm-2.32-3.46l2.32 3.43 2.57-.55z"/><path d="M67.42 35.33l-5-2.94 1-3.28 4 6.19zm-5-3l4.94 2.9-3.9-6.06zm6.84 5.84l-1.85-2.9 2.94-3.89zm-1.82-2.9l1.8 2.9 1.1-6.65zm-.82 15.48l-1.28-3.78 4.26 1zm-1.24-3.74l1.25 3.68 2.9-2.66zm4.59 8.09l3.74-2.79 1.22 1zm3.73-2.77l-3.64 2.71 4.77-1.78z"/><path d="M66.64 50.73l2.95-2.71.81 1zm2.93-2.69l-2.86 2.63 3.63-1.62zm-3.45-3.26l2.33-3.14 1.92 2.88zm2.33-3.09l-2.27 3.05 4.15-.23zm1.92 22.79l-4.8-4.4 5.41.8zm-4.73-4.37l4.71 4.32.63-3.53z"/><path d="M71.04 60.9l-5.42-.8 1.84-2.79zm-5.41-.83l5.33.78-3.53-3.52zm4.73-10.99l-.82-1.06 2.62-.49zm-.77-1l.77 1 1.69-1.46z"/><path d="M71.83 51.7l-1.5-2.67 3.28 1zm-1.39-2.62l1.39 2.57 1.79-1.56z"/><path d="M73.6 50.09l-1.53-2.58 1.16.41.4 2.14zm-1.46-2.52L73.59 50l-.38-2.05z"/><path d="M73.65 50.11l-3.32-1.05 1.78-1.54zm-3.26-1.06l3.19 1-1.48-2.48zm3.22-2.52l-3.27-2 1.06-1.06 2.22 3zm-3.22-2l3.18 1.94-2.17-2.94z"/><path d="M73.6 46.52l-2.23-3 .73-2.59v.05l1.51 5.56zm-2.19-3l2.17 2.95-1.47-5.43zm3.51 9.79l-1.24-1-.08-2.22zm-1.21-1l1.12.86-1.2-3zm-2.72 8.61l-1-3.82 4.84-3.85zm-.93-3.85l.94 3.76 3.83-7.51zm-53.23-9.13a.25.25 0 1 1-.5 0 .25.25 0 1 1 .5 0zm.06 3.23a.19.19 0 0 1-.38 0 .19.19 0 1 1 .38 0zm2.61-3a.19.19 0 0 1-.37 0 .19.19 0 1 1 .37 0zm.19 10.81a.3.3 0 1 1-.59 0 .3.3 0 0 1 .59 0zm.2-8.02a.26.26 0 0 1-.52 0 .26.26 0 1 1 .52 0zm.61 4.92a.23.23 0 1 1-.46 0 .23.23 0 1 1 .46 0zm1.16-1.9a.205.205 0 1 1-.41 0 .205.205 0 1 1 .41 0zm.66 6.98a.225.225 0 1 1-.45 0 .225.225 0 0 1 .45 0zm.87 3.65a.3.3 0 1 1-.6 0 .3.3 0 1 1 .6 0zm.74-25.72a.33.33 0 1 1-.66 0 .33.33 0 1 1 .66 0zm.25 6.12a.34.34 0 1 1-.67 0 .34.34 0 0 1 .67 0zm.77 7.3a.24.24 0 0 1-.48 0 .24.24 0 1 1 .48 0zm.21 16.59a.21.21 0 1 1-.41 0 .21.21 0 0 1 .41 0zm.23-21.83a.28.28 0 1 1-.55 0 .28.28 0 1 1 .55 0zm.95-4.21a.2.2 0 1 1-.4 0 .2.2 0 1 1 .4 0zm.32 21.2a.28.28 0 0 1-.55 0 .28.28 0 1 1 .55 0zm.72-27.47a.28.28 0 1 1-.56 0 .28.28 0 1 1 .56 0zm.27 18.5a.235.235 0 1 1-.47 0 .235.235 0 1 1 .47 0zm1.18-15.92a.23.23 0 0 1-.46 0 .23.23 0 1 1 .46 0zm1.18-9.09a.37.37 0 1 1-.74 0 .37.37 0 1 1 .74 0zm.15 28.09a.37.37 0 1 1-.73 0 .37.37 0 0 1 .73 0zm.11-7.45a.235.235 0 1 1-.47 0 .235.235 0 1 1 .47 0zm.78 9.69a.31.31 0 1 1-.61 0 .31.31 0 0 1 .61 0zm.03-7.24a.17.17 0 0 1-.34 0 .17.17 0 1 1 .34 0zm.49 14.54a.19.19 0 1 1-.38 0 .19.19 0 1 1 .38 0zm.11-34.45a.22.22 0 0 1-.43 0 .22.22 0 1 1 .43 0zm.22 40.64a.28.28 0 0 1-.56 0 .28.28 0 1 1 .56 0zm.23-33.18a.195.195 0 1 1-.39 0 .195.195 0 1 1 .39 0zm.7-11.91a.225.225 0 1 1-.45 0 .225.225 0 1 1 .45 0zm.25 44.77a.19.19 0 1 1-.38 0 .19.19 0 0 1 .38 0zm.36-14.52a.23.23 0 1 1-.45 0 .23.23 0 1 1 .45 0zm.12-13.82a.27.27 0 1 1-.54 0 .27.27 0 1 1 .54 0zm.12-13.17a.16.16 0 1 1-.31 0 .16.16 0 1 1 .31 0zm.23 10.48a.23.23 0 1 1-.46 0 .23.23 0 1 1 .46 0zm1.79-11.67a.35.35 0 1 1-.69 0 .35.35 0 0 1 .69 0zm1.34 2.62a.26.26 0 1 1-.52 0 .26.26 0 0 1 .52 0zm-.02-3.18a.165.165 0 1 1-.33 0 .165.165 0 0 1 .33 0zm.31 34.29a.23.23 0 0 1-.46 0 .23.23 0 1 1 .46 0zm.81-36.19a.17.17 0 0 1-.33 0 .17.17 0 1 1 .33 0zm.62 1.66a.155.155 0 1 1-.31 0 .155.155 0 1 1 .31 0zm.23 26.36a.225.225 0 1 1-.45 0 .225.225 0 1 1 .45 0zm.1 15.79a.24.24 0 1 1-.48 0 .24.24 0 0 1 .48 0zm.06-50.32a.23.23 0 0 1-.46 0 .23.23 0 0 1 .46 0zm.23 39.26a.14.14 0 0 1-.28 0 .14.14 0 0 1 .28 0zm.28-29.5a.18.18 0 1 1-.36 0 .18.18 0 1 1 .36 0zm2.44 38.74a.16.16 0 0 1-.32 0 .16.16 0 1 1 .32 0zm3.14-3.49a.2.2 0 1 1-.4 0 .2.2 0 1 1 .4 0zm.59-38.9a.21.21 0 0 1-.41 0 .21.21 0 1 1 .41 0zm2.34 35.32a.12.12 0 1 1-.24 0 .12.12 0 1 1 .24 0zm.25 11.51a.21.21 0 1 1-.41 0 .21.21 0 1 1 .41 0zM49.52 25a.27.27 0 0 1-.54 0 .27.27 0 0 1 .54 0zm1.05 1.91a.215.215 0 1 1-.43 0 .215.215 0 1 1 .43 0zm.06 40.01a.28.28 0 0 1-.56 0 .28.28 0 0 1 .56 0zm.47 8.33a.19.19 0 1 1-.37 0 .19.19 0 0 1 .37 0zm.09-41.49a.27.27 0 0 1-.54 0 .27.27 0 1 1 .54 0zm.32.82a.17.17 0 0 1-.33 0 .17.17 0 0 1 .33 0zm.21 27.1a.255.255 0 0 1-.51 0 .255.255 0 0 1 .51 0zm.11-3.73a.19.19 0 1 1-.38 0 .19.19 0 0 1 .38 0zm2.1 2.3a.32.32 0 0 1-.63 0 .32.32 0 0 1 .63 0zm.11 1.67a.19.19 0 0 1-.37 0 .19.19 0 0 1 .37 0zm.52-38.98a.305.305 0 1 1-.61 0 .305.305 0 0 1 .61 0zm.59 5a.19.19 0 1 1-.38 0 .19.19 0 1 1 .38 0zm.38 1.67a.25.25 0 0 1-.5 0 .25.25 0 0 1 .5 0zm.06 39.77a.155.155 0 0 1-.31 0 .155.155 0 0 1 .31 0zm.53-9.29a.29.29 0 1 1-.58 0 .29.29 0 1 1 .58 0zm.93-4.21a.265.265 0 1 1-.53 0 .265.265 0 1 1 .53 0zm.48-10.5a.23.23 0 1 1-.46 0 .23.23 0 0 1 .46 0zm.5-4.79a.26.26 0 0 1-.52 0 .26.26 0 1 1 .52 0zm.04 3.18a.21.21 0 1 1-.41 0 .21.21 0 0 1 .41 0zm.12-14.16a.21.21 0 0 1-.42 0 .21.21 0 0 1 .42 0zm.13 28.8a.185.185 0 0 1-.37 0 .185.185 0 1 1 .37 0z"/><path d="M58.4 43.73a.23.23 0 0 1-.46 0 .23.23 0 1 1 .46 0zm.02 26.28a.2.2 0 1 1-.4 0 .2.2 0 1 1 .4 0zm.47-23.51a.22.22 0 1 1-.44 0 .22.22 0 1 1 .44 0zm-.06-17.45a.17.17 0 0 1-.34 0 .17.17 0 0 1 .34 0zm.48-4.21a.305.305 0 1 1-.61 0 .305.305 0 1 1 .61 0zm.06 14.05a.21.21 0 0 1-.41 0 .21.21 0 0 1 .41 0zm.52 4.66a.23.23 0 1 1-.46 0 .23.23 0 0 1 .46 0zm-.06 16.02a.145.145 0 0 1-.29 0 .145.145 0 0 1 .29 0zm.24-23.4a.27.27 0 1 1-.53 0 .27.27 0 1 1 .53 0zm-.05-3.79a.22.22 0 0 1-.43 0 .22.22 0 0 1 .43 0zm.7 21.15a.26.26 0 0 1-.51 0 .26.26 0 1 1 .51 0zm.49-8.21a.14.14 0 1 1-.28 0 .14.14 0 1 1 .28 0zm.2 21.99a.18.18 0 1 1-.36 0 .18.18 0 1 1 .36 0zm1.29-34.93a.28.28 0 1 1-.56 0 .28.28 0 1 1 .56 0zm-.04 22.31a.16.16 0 0 1-.32 0 .16.16 0 1 1 .32 0zm.28 13.97a.2.2 0 1 1-.39 0 .2.2 0 0 1 .39 0zm.46-18.89a.26.26 0 1 1-.52 0 .26.26 0 1 1 .52 0zm.23 16.75a.33.33 0 1 1-.66 0 .33.33 0 1 1 .66 0zm-.05-41.35a.21.21 0 1 1-.41 0 .21.21 0 1 1 .41 0zm.54 12.06a.27.27 0 0 1-.53 0 .27.27 0 1 1 .53 0zm1.13 22.46a.285.285 0 0 1-.57 0 .285.285 0 1 1 .57 0zm.58 5.72a.26.26 0 1 1-.52 0 .26.26 0 0 1 .52 0zm-.12-25.56a.2.2 0 0 1-.39 0 .2.2 0 0 1 .39 0zm.69 17.62a.4.4 0 1 1-.8 0 .4.4 0 1 1 .8 0zm-.02-6.59a.23.23 0 1 1-.46 0 .23.23 0 1 1 .46 0zm1.21-15.56a.17.17 0 0 1-.34 0 .17.17 0 1 1 .34 0zm1.12 6.35a.25.25 0 0 1-.5 0 .25.25 0 0 1 .5 0zm.35 12.78a.21.21 0 0 1-.42 0 .21.21 0 1 1 .42 0zm.42-16.28a.235.235 0 0 1-.47 0 .235.235 0 0 1 .47 0zm.64 16.92a.16.16 0 0 1-.32 0 .16.16 0 1 1 .32 0zm.09 1.98a.17.17 0 1 1-.34 0 .17.17 0 1 1 .34 0zm.4-12.54a.245.245 0 1 1-.49 0 .245.245 0 1 1 .49 0zm.76 16.35a.38.38 0 0 1-.75 0 .38.38 0 0 1 .75 0zm.62-9.21a.2.2 0 1 1-.39 0 .2.2 0 1 1 .39 0zm.29-10.71a.17.17 0 0 1-.34 0 .17.17 0 0 1 .34 0zm1.19 6.98a.25.25 0 0 1-.5 0 .25.25 0 0 1 .5 0zm.49 4.37a.27.27 0 1 1-.54 0 .27.27 0 1 1 .54 0z"/></g><path d="M21.59 83.77a.266.266 0 1 1-.25.47.266.266 0 1 1 .25-.47z" fill="#333" opacity=".79"/><path d="M27.83 86.58a.2.2 0 0 1-.19.35.2.2 0 0 1 .19-.35z" fill="#333" opacity=".96"/><path d="M17.94 80.63a.22.22 0 0 1-.2.38.22.22 0 0 1 .2-.38z" fill="#333" opacity=".71"/><path d="M8.26 70.37a.454.454 0 1 1-.43.8.454.454 0 1 1 .43-.8z" fill="#333" opacity=".66"/><path d="M31.49 81.74a.27.27 0 1 1-.25.48.27.27 0 0 1 .25-.48z" fill="#333" opacity=".77"/><path d="M38.31 83.17a.385.385 0 1 1-.36.68.385.385 0 1 1 .36-.68z" fill="#333" opacity=".82"/><path d="M33.66 78.43a.374.374 0 1 1-.35.66.374.374 0 0 1 .35-.66z" fill="#333" opacity=".81"/><path d="M28.41 74.08a.28.28 0 1 1-.26.49.28.28 0 1 1 .26-.49z" fill="#333" opacity=".97"/><path d="M6.9 61.06a.356.356 0 0 1-.33.63.356.356 0 0 1 .33-.63z" fill="#333" opacity=".72"/><path d="M37.18 76.27a.351.351 0 0 1-.33.62.351.351 0 0 1 .33-.62z" fill="#333" opacity=".88"/><path d="M17.78 65.62a.43.43 0 1 1-.4.75.43.43 0 1 1 .4-.75z" fill="#333" opacity=".62"/><path d="M39.45 76.75a.362.362 0 1 1-.34.64.362.362 0 1 1 .34-.64z" fill="#333" opacity=".74"/><path d="M12.36 59.99a.39.39 0 1 1-.36.68.39.39 0 1 1 .36-.68z" fill="#333" opacity=".63"/><path d="M35.35 69.96a.37.37 0 1 1-.34.65.37.37 0 0 1 .34-.65z" fill="#333" opacity=".71"/><path d="M49.25 75.94a.474.474 0 1 1-.44.84.474.474 0 1 1 .44-.84z" fill="#333" opacity=".7"/><path d="M39.33 70.64a.266.266 0 1 1-.25.47.266.266 0 1 1 .25-.47z" fill="#333" opacity=".94"/><path d="M17.94 58.72a.54.54 0 1 1-.5.95.54.54 0 1 1 .5-.95z" fill="#333" opacity=".61"/><path d="M68.44 84.62a.44.44 0 0 1-.41.77.44.44 0 1 1 .41-.77z" fill="#333" opacity=".85"/><path d="M3.62 50.09a.344.344 0 1 1-.32.61.344.344 0 1 1 .32-.61z" fill="#333" opacity=".9"/><path d="M22.94 60.1a.304.304 0 0 1-.28.54.304.304 0 1 1 .28-.54z" fill="#333" opacity=".74"/><path d="M64.75 81.29a.29.29 0 0 1-.27.5.29.29 0 1 1 .27-.5z" fill="#333" opacity=".73"/><path d="M49.13 71.68a.351.351 0 1 1-.33.62.351.351 0 1 1 .33-.62z" fill="#333" opacity=".69"/><path d="M12.17 51.65a.244.244 0 1 1-.23.43.244.244 0 1 1 .23-.43z" fill="#333" opacity=".96"/><path d="M22.07 55.67a.34.34 0 1 1-.32.6.34.34 0 0 1 .32-.6z" fill="#333" opacity=".86"/><path d="M67.09 79.24a.351.351 0 1 1-.33.62.351.351 0 0 1 .33-.62z" fill="#333" opacity=".9"/><path d="M8.68 44.76a.38.38 0 1 1-.35.66.38.38 0 1 1 .35-.66z" fill="#333" opacity=".92"/><path d="M10.83 44.59a.32.32 0 1 1-.3.56.32.32 0 0 1 .3-.56z" fill="#333" opacity=".62"/><path d="M49.58 62.17a.351.351 0 1 1-.33.62.351.351 0 1 1 .33-.62z" fill="#333" opacity=".71"/><path d="M15.98 43.17a.28.28 0 1 1-.26.49.28.28 0 1 1 .26-.49z" fill="#333" opacity=".87"/><path d="M78.65 75.92a.204.204 0 1 1-.19.36.204.204 0 0 1 .19-.36z" fill="#333" opacity=".86"/><path d="M17.94 39.44a.39.39 0 1 1-.36.68.39.39 0 1 1 .36-.68z" fill="#333" opacity=".81"/><path d="M24.19 38.47a.59.59 0 1 1-.55 1 .59.59 0 1 1 .55-1z" fill="#333" opacity=".99"/><path d="M68.55 61.17a.31.31 0 1 1-.29.55.31.31 0 0 1 .29-.55z" fill="#333" opacity=".81"/><path d="M9.61 28.76a.362.362 0 1 1-.34.64.362.362 0 1 1 .34-.64z" fill="#333" opacity=".86"/><path d="M15.49 31.92a.322.322 0 1 1-.3.57.322.322 0 1 1 .3-.57z" fill="#333" opacity=".62"/><path d="M65.78 54.53a.186.186 0 1 1-.17.33.186.186 0 0 1 .17-.33z" fill="#333" opacity=".79"/><path d="M75.83 58.62a.262.262 0 1 1-.25.46.262.262 0 0 1 .25-.46z" fill="#333" opacity=".73"/><path d="M19.99 27.65a.514.514 0 1 1-.48.91.514.514 0 1 1 .48-.91z" fill="#333" opacity=".66"/><path d="M66.07 48.43a.391.391 0 0 1-.37.69.391.391 0 0 1 .37-.69z" fill="#333" opacity=".84"/><path d="M71.96 47.36a.39.39 0 1 1-.36.68.39.39 0 1 1 .36-.68z" fill="#333" opacity=".77"/><path d="M22.14 19.1a.3.3 0 0 1-.28.53.3.3 0 0 1 .28-.53z" fill="#333" opacity=".82"/><path d="M38.89 26.29a.351.351 0 0 1-.33.62.351.351 0 1 1 .33-.62z" fill="#333" opacity=".94"/><path d="M23.75 17.92a.49.49 0 1 1-.46.86.49.49 0 1 1 .46-.86z" fill="#333" opacity=".99"/><path d="M61.98 36.86a.414.414 0 0 1-.39.73.414.414 0 0 1 .39-.73z" fill="#333" opacity=".81"/><path d="M66.38 36.96a.284.284 0 1 1-.27.5.284.284 0 1 1 .27-.5z" fill="#333" opacity=".97"/><path d="M82.43 45.29a.31.31 0 0 1-.29.55.31.31 0 1 1 .29-.55z" fill="#333" opacity=".83"/><path d="M20.91 11.11a.47.47 0 1 1-.44.83.47.47 0 1 1 .44-.83z" fill="#333" opacity=".71"/><path d="M61.42 30.1a.4.4 0 0 1-.37.7.4.4 0 1 1 .37-.7z" fill="#333" opacity=".97"/><path d="M48.19 22.24a.463.463 0 1 1-.43.82.463.463 0 1 1 .43-.82z" fill="#333" opacity=".95"/><path d="M45.58 17.91a.33.33 0 1 1-.3.57.33.33 0 0 1 .3-.57z" fill="#333" opacity=".71"/><path d="M70.54 30.48a.414.414 0 1 1-.39.73.414.414 0 1 1 .39-.73z" fill="#333" opacity=".98"/><path d="M24.47 5.47a.322.322 0 1 1-.3.57.322.322 0 1 1 .3-.57z" fill="#333" opacity=".67"/><path d="M29.98 8.27a.304.304 0 1 1-.28.54.304.304 0 1 1 .28-.54z" fill="#333" opacity=".72"/><path d="M50.5 18.17a.333.333 0 0 1-.31.59.333.333 0 0 1 .31-.59z" fill="#333" opacity=".77"/><path d="M40.22 11.38a.25.25 0 0 1-.23.44.25.25 0 1 1 .23-.44z" fill="#333" opacity=".98"/><path d="M81.46 31.8a.41.41 0 1 1-.38.72.41.41 0 1 1 .38-.72z" fill="#333" opacity=".8"/><path d="M46.23 13.25a.306.306 0 1 1-.29.54.306.306 0 1 1 .29-.54z" fill="#333" opacity=".73"/><path d="M74.21 27.79a.43.43 0 1 1-.4.76.43.43 0 0 1 .4-.76z" fill="#333" opacity=".74"/><path d="M53.51 15.89a.385.385 0 0 1-.36.68.385.385 0 1 1 .36-.68z" fill="#333" opacity=".98"/><path d="M62.09 19.49a.48.48 0 1 1-.45.85.48.48 0 0 1 .45-.85z" fill="#333" opacity=".74"/><path d="M90.65 34.53a.322.322 0 1 1-.3.57.322.322 0 1 1 .3-.57z" fill="#333" opacity=".63"/><path d="M71.7 23.28a.391.391 0 1 1-.37.69.391.391 0 0 1 .37-.69z" fill="#333" opacity=".85"/><path d="M50.93 10.46a.391.391 0 0 1-.37.69.391.391 0 1 1 .37-.69z" fill="#333" opacity=".71"/><path d="M60.45 13.61a.333.333 0 1 1-.31.59.333.333 0 0 1 .31-.59z" fill="#333" opacity=".69"/><path d="M62.48 13.17a.4.4 0 1 1-.37.71.4.4 0 1 1 .37-.71z" fill="#333" opacity=".86"/><path d="M38.14.52a.22.22 0 1 1-.2.38.22.22 0 1 1 .2-.38z" fill="#333" opacity=".82"/><path d="M56.25 9.93a.38.38 0 1 1-.36.67.38.38 0 1 1 .36-.67z" fill="#333" opacity=".95"/><path d="M55.64 7.64a.514.514 0 0 1-.48.91.514.514 0 1 1 .48-.91z" fill="#333" opacity=".74"/><path d="M63.03 8.48a.391.391 0 1 1-.37.69.391.391 0 1 1 .37-.69z" fill="#333" opacity=".83"/><path d="M61.34 6.92a.36.36 0 0 1-.34.63.36.36 0 1 1 .34-.63z" fill="#333" opacity=".88"/><path d="M69.4 10.98a.42.42 0 0 1-.39.74.42.42 0 1 1 .39-.74z" fill="#333" opacity=".74"/><path d="M17.83 80.81L8.05 70.76l4.7 2.49zm-9.67-10l9.5 9.79-4.93-7.37z" fill="#333" opacity=".85"/><path d="M49.08 90.27l-5.65-1.58 1.4-1 4.26 2.53zm-5.55-1.6l5.4 1.5-4.1-2.43z" fill="#333" opacity=".95"/><path d="M35.19 87.49l-4.96 2.68 3.18-5.73zm-4.85 2.53l4.78-2.55-1.72-3z" fill="#333" opacity=".6"/><path d="M42.5 85.05L38.78 91l-.66-7.59zm-3.67 5.83l3.63-5.8-4.27-1.57z" fill="#333" opacity=".86"/><path d="M43.51 88.69l-4.77 2.3 3.75-6zm-4.68 2.2l4.61-2.22-1-3.55z" fill="#333" opacity=".73"/><path d="M33.51 78.75l-5.28-4.44 3.4-.48zm-5.18-4.41l5.1 4.35-1.84-4.81z" fill="#333" opacity=".98"/><path d="M44.83 87.72l-1.4 1-1-3.65zm-1.37.92l1.3-.93-2.25-2.54z" fill="#333" opacity=".96"/><path d="M38.18 83.43l-3 4.1-1.79-3.09zm-3 4l2.91-3.95-4.64 1z" fill="#333" opacity=".94"/><path d="M31.38 81.97l-4.86-7.6 1.77-.07zm-4.78-7.55l4.64 7.33-3-7.4z" fill="#333" opacity=".96"/><path d="M17.83 80.91l-5.1-7.68 4.74-1.46zm-5-7.66l5 7.49-.39-8.91z" fill="#333" opacity=".92"/><path d="M38.18 83.48l-4.75 1 .08-5.78zm-4.75 1l4.66-1-4.58-4.63z" fill="#333" opacity=".88"/><path d="M33.43 84.52l-2.1-2.54 2.17-3.28v.08zm-2-2.55l2 2.42.08-5.55z" fill="#333" opacity=".93"/><path d="M31.4 81.99l-7.57 1.18 2.71-8.83zm-7.5 1.18l7.42-1.19-4.75-7.51z" fill="#333" opacity=".75"/><path d="M23.89 83.17l-1.07-8.57 3.82-.25zm-1.06-8.51l1 8.41 2.66-8.65z" fill="#333" opacity=".73"/><path d="M26.9 66.99l-5.34 2.93-3.37-6.16h.06zm-5.37 2.88l5.3-2.88-8.6-3.15z" fill="#333" opacity=".84"/><path d="M17.46 71.83l-3.29-1.32 3.41-4.57zm-3.22-1.34l3.17 1.27.13-5.7z" fill="#333" opacity=".62"/><path d="M50.91 85.06h-8.48l2.84-9.08zm-8.42 0h8.33l-5.55-8.91z" fill="#333" opacity=".86"/><path d="M49.05 76.4l-4.44-2.63 4.37-1.81zm-4.34-2.63L49 76.32l-.06-4.3z" fill="#333" opacity=".8"/><path d="M59.6 80.82l-8.77 4.25-1.85-8.71zm-8.71 4.19l8.6-4.18-10.43-4.43z" fill="#333" opacity=".84"/><path d="M50.89 85.03l-5.62-9 3.77.31zm-5.57-9l5.51 8.88-1.81-8.53z" fill="#333" opacity=".85"/><path d="M17.75 59.17l-4.16 4.91-1.43-3.75zm-4.15 4.82l4-4.75-5.41 1.12z" fill="#333" opacity=".8"/><path d="M6.5 55.85l-3.08-5.48 3.49.42zm-3-5.43l3 5.28.33-4.87z" fill="#333" opacity=".66"/><path d="M64.64 81.57l-5.14-.74 3.76-5zm-5.06-.77l5 .72-1.34-5.54z" fill="#333" opacity=".72"/><path d="M21.97 55.96l-4.29 3.27-5.58-3.67zm-4.29 3.21L21.83 56l-9.58-.39z" fill="#333" opacity=".98"/><path d="M6.92 50.84l-3.48-.42.14-6.1zm-3.44-.46l3.35.4-3.21-6.37z" fill="#333" opacity=".93"/><path d="M63.29 75.92l-3.73 4.92-3.38-7.71zm-3.74 4.85l3.67-4.84-6.99-2.76z" fill="#333" opacity=".82"/><path d="M10.29 47.63l-1.82-2.55 2.29-.23zm-1.74-2.52l1.71 2.4.44-2.62z" fill="#333" opacity=".67"/><path d="M67.1 69.51l-3.84 6.46-3.85-5.3zm-3.85 6.37l3.76-6.31-7.52 1.13z" fill="#333" opacity=".7"/><path d="M15.92 43.36l-3.89 2.71 1-2.66zm-3.8 2.58l3.65-2.54h-2.73z" fill="#333" opacity=".65"/><path d="M71.27 73.81v.05l-4.3 5.73-3.71-3.66zm-4.34 5.71l4.23-5.63-7.86 2.05z" fill="#333" opacity=".89"/><path d="M19.13 44.11l-2.74 4.36-.56-5.11zm-2.72 4.26l2.65-4.2-3.23-.75z" fill="#333" opacity=".79"/><path d="M10.31 43.11l-3.67.48.68-4.77zm-3.62.42l3.54-.46-2.89-4.14z" fill="#333" opacity=".68"/><path d="M16.42 48.48l-4.38-2.46 3.79-2.67zm-4.3-2.47l4.24 2.39-.54-5z" fill="#333" opacity=".79"/><path d="M77.42 63.01l-5.37.26 3.65-4.46zm-5.3.21l5.23-.26-1.7-4.07z" fill="#333" opacity=".72"/><path d="M78.58 76.17l-7.43-2.28 7.8-3.23zm-7.29-2.28l7.25 2.22.36-5.37z" fill="#333" opacity=".92"/><path d="M12.21 39.74l-1.94 3.43-3-4.29zm-1.94 3.3l1.87-3.27-4.76-.87z" fill="#333" opacity=".7"/><path d="M17.83 39.76l-2 3.67-3.74-3.69zm-2 3.59l1.88-3.54h-5.49z" fill="#333" opacity=".85"/><path d="M81.72 62.89l-4.35.12-1.76-4.21h.06zm-4.32.08l4.17-.12-5.87-3.93z" fill="#333" opacity=".65"/><path d="M19.54 49.4l-.43-5.28 4.82-5.14zm-.42-5.23l.42 5.16 4.29-10.23z" fill="#333" opacity=".96"/><path d="M67.07 69.59l-3.63-3.06 5-5.14v.07zm-3.56-3.06l3.53 3 1.34-8z" fill="#333" opacity=".67"/><path d="M15.36 32.17l-1.55-7.14 3.46-.14zm-1.53-7.06l1.52 7 1.85-7.13z" fill="#333" opacity=".82"/><path d="M26.83 23l-3.41-2.37 1.17-.55zm-3.37-2.33l3.22 2.24-2.16-2.74z" fill="#333" opacity=".87"/><path d="M20.4 23.26l-3.19 1.72-2.62-8.26zm-3.16 1.66l3.09-1.67-5.67-6.46z" fill="#333" opacity=".82"/><path d="M75.7 58.86l-7.31 2.61 3.92-7.41zm-7.24 2.54l7.17-2.56-3.34-4.67z" fill="#333" opacity=".74"/><path d="M32.4 23.29l-3.91 6-1.73-6.21zm-3.88 5.88l3.81-5.8-5.5-.33z" fill="#333" opacity=".69"/><path d="M13.83 25.09l-4.41 4 2.38-8.85zM9.49 29l4.28-3.93-2-4.64z" fill="#333" opacity=".97"/><path d="M29.91 19.34l-5.42.83 2-3.78zm-5.34.77l5.23-.8-3.3-2.85z" fill="#333" opacity=".81"/><path d="M82.35 45.52l-3 3.45-1.06-2.26zm-3 3.36l2.83-3.28-3.85 1.1z" fill="#333" opacity=".61"/><path d="M70.12 36.37l-2.6 3.5 1.48-4zm-2.54 3.34l2.47-3.32-1.06-.43z" fill="#333" opacity=".94"/><path d="M36.95 18.77l-5.33-2.82 1.94-3.66zm-5.27-2.84l5.15 2.73-3.28-6.28z" fill="#333" opacity=".7"/><path d="M43.31 11.71l-2 2.23-1.2-2.36zm-2 2.15l1.93-2.1-3.06-.13z" fill="#333" opacity=".77"/><path d="M31.68 15.97l-5.47-.91 3.62-6.58v.06zm-5.39-.95l5.33.89-1.79-7.31z" fill="#333" opacity=".85"/><path d="M75.7 34.17l-5.39-3.28 2.7-2.13zm-5.3-3.29l5.19 3.16L73 28.82z" fill="#333" opacity=".67"/><path d="M50.38 18.41l-2.41 4.29-2.58-4.53zm-2.41 4.19l2.33-4.15-4.84-.22z" fill="#333" opacity=".82"/><path d="M55.83 18.93l-5.5 4.75V18.4zm-5.45 4.65l5.34-4.62-5.38-.51zm33.36 14.77l-2.55-2.33.06-3.85zm-2.54-2.33l2.46 2.25-2.37-6z" fill="#333" opacity=".94"/><path d="M41.26 7.61l-7.71 4.75-3.72-3.84 11.42-.95zm-7.7 4.69l7.59-4.68-11.27.94z" fill="#333" opacity=".76"/><path d="M83.54 24.81l-9.59 3.36v-.06l5-6.87zm-9.47 3.36l9.37-3.33-4.4-3.44z" fill="#333" opacity=".82"/><path d="M79.1 21.28v.06l-5.09 6.83-2.51-4.56zm-5.09 6.89l5-6.77-7.43 2.28z" fill="#333" opacity=".78"/><path d="M61.19 7.25l-5.13 3-.69-2.18 5.8-.9zm-5.1 3l5-3-5.63.84z" fill="#333" opacity=".92"/><path d="M61.18 7.26l-5.79.86-3-2.89h.08l8.75 2zm-5.77.81l5.64-.84L52.5 5.3z" fill="#333" opacity=".65"/><path d="M79.09 21.36h-.06l-6-1.47-1.71-9.44zm-6-1.52l5.87 1.45-7.53-10.78z" fill="#333" opacity=".8"/><path d="M24 82.92a.29.29 0 1 1-.27.51.29.29 0 0 1 .27-.51z" fill="#333" opacity=".68"/><path d="M39 90.54a.46.46 0 1 1-.43.81.46.46 0 1 1 .43-.81z" fill="#333" opacity=".79"/><path d="M28.11 84.41a.403.403 0 1 1-.38.71.403.403 0 0 1 .38-.71z" fill="#333" opacity=".66"/><path d="M35.33 87.17a.36.36 0 1 1-.33.63.36.36 0 1 1 .33-.63z" fill="#333" opacity=".91"/><path d="M21.67 69.63a.31.31 0 1 1-.29.55.31.31 0 1 1 .29-.55z" fill="#333" opacity=".95"/><path d="M13.83 63.63a.44.44 0 1 1-.41.78.44.44 0 1 1 .41-.78z" fill="#333" opacity=".61"/><path d="M18.35 63.48a.36.36 0 0 1-.34.63.36.36 0 0 1 .34-.63z" fill="#333" opacity=".85"/><path d="M6.75 55.27a.58.58 0 1 1-.54 1 .58.58 0 1 1 .54-1z" fill="#333" opacity=".72"/><path d="M35.35 69.96a.37.37 0 1 1-.34.65.37.37 0 0 1 .34-.65z" fill="#333" opacity=".79"/><path d="M59.68 80.56a.295.295 0 0 1-.28.52.295.295 0 1 1 .28-.52z" fill="#333" opacity=".72"/><path d="M12.34 55.28a.34.34 0 0 1-.32.6.34.34 0 0 1 .32-.6z" fill="#333" opacity=".97"/><path d="M68.44 84.62a.44.44 0 0 1-.41.77.44.44 0 1 1 .41-.77z" fill="#333" opacity=".94"/><path d="M49.13 71.68a.351.351 0 1 1-.33.62.351.351 0 1 1 .33-.62z" fill="#333" opacity=".9"/><path d="M71.39 73.51a.38.38 0 1 1-.35.67.38.38 0 1 1 .35-.67z" fill="#333" opacity=".97"/><path d="M56.42 65.06a.22.22 0 0 1-.2.38.22.22 0 1 1 .2-.38z" fill="#333" opacity=".7"/><path d="M15.98 43.17a.28.28 0 1 1-.26.49.28.28 0 1 1 .26-.49z" fill="#333" opacity=".67"/><path d="M65.78 54.53a.186.186 0 1 1-.17.33.186.186 0 0 1 .17-.33z" fill="#333" opacity=".83"/><path d="M17.38 24.65a.333.333 0 1 1-.31.59.333.333 0 1 1 .31-.59z" fill="#333" opacity=".99"/><path d="M84.3 59.17a.29.29 0 1 1-.27.51.29.29 0 1 1 .27-.51z" fill="#333" opacity=".87"/><path d="M61.01 45.57a.3.3 0 1 1-.28.52.3.3 0 1 1 .28-.52z" fill="#333" opacity=".9"/><path d="M68.09 45.41a.29.29 0 1 1-.27.51.29.29 0 1 1 .27-.51z" fill="#333" opacity=".78"/><path d="M14.83 16.27a.47.47 0 1 1-.44.83.47.47 0 0 1 .44-.83z" fill="#333" opacity=".62"/><path d="M67.1 41.17a.454.454 0 1 1-.43.8.454.454 0 0 1 .43-.8z" fill="#333" opacity=".9"/><path d="M41.66 24.36a.403.403 0 1 1-.38.71.403.403 0 1 1 .38-.71z" fill="#333" opacity=".97"/><path d="M26.65 16.17a.322.322 0 0 1-.3.57.322.322 0 1 1 .3-.57z" fill="#333" opacity=".96"/><path d="M66.38 36.96a.284.284 0 1 1-.27.5.284.284 0 1 1 .27-.5z" fill="#333" opacity=".98"/><path d="M82.43 45.29a.31.31 0 0 1-.29.55.31.31 0 1 1 .29-.55z" fill="#333" opacity=".68"/><path d="M40.3 21.28a.322.322 0 0 1-.3.57.322.322 0 1 1 .3-.57z" fill="#333" opacity=".78"/><path d="M33.77 11.95a.436.436 0 1 1-.41.77.436.436 0 0 1 .41-.77z" fill="#333" opacity=".88"/><path d="M83.83 38.08a.31.31 0 1 1-.29.54.31.31 0 1 1 .29-.54z" fill="#333" opacity=".66"/><path d="M24.47 5.47a.322.322 0 1 1-.3.57.322.322 0 1 1 .3-.57z" fill="#333" opacity=".99"/><path d="M41.46 13.53a.414.414 0 1 1-.39.73.414.414 0 1 1 .39-.73z" fill="#333" opacity=".72"/><path d="M46.23 13.25a.306.306 0 1 1-.29.54.306.306 0 1 1 .29-.54z" fill="#333" opacity=".82"/><path d="M73.22 19.62a.266.266 0 1 1-.25.47.266.266 0 0 1 .25-.47z" fill="#333" opacity=".79"/><path d="M52.55 5.03a.26.26 0 1 1-.24.46.26.26 0 0 1 .24-.46z" fill="#333" opacity=".76"/><path d="M69.4 10.98a.42.42 0 0 1-.39.74.42.42 0 1 1 .39-.74z" fill="#333" opacity=".82"/></svg>