<svg xmlns="http://www.w3.org/2000/svg" viewBox="0 0 47.27 47.27"><title>Vector Smart Object</title><rect width="47.27" height="47.27" fill="#ed1c24"/><path d="M34.61,42.16a4.14,4.14,0,0,1-.3,1.62,3.51,3.51,0,0,1-2.09,2,4.67,4.67,0,0,1-1.59.26,5.17,5.17,0,0,1-2-.41A3.69,3.69,0,0,1,27,44.39a0.44,0.44,0,0,1-.13-0.27A0.58,0.58,0,0,1,27,43.8L27.75,43A0.25,0.25,0,0,1,28,42.85a0.8,0.8,0,0,1,.25.22,3.39,3.39,0,0,0,1.1.81,2.91,2.91,0,0,0,1.23.29,2.3,2.3,0,0,0,1.62-.52,1.84,1.84,0,0,0,.56-1.43,1.67,1.67,0,0,0-.2-0.84,2.14,2.14,0,0,0-.52-0.6,3.55,3.55,0,0,0-.73-0.45q-0.41-.19-0.86-0.37t-1.12-.51a4.63,4.63,0,0,1-1-.72,3.32,3.32,0,0,1-.76-1.06,3.56,3.56,0,0,1-.29-1.51,4.3,4.3,0,0,1,.27-1.57,3.25,3.25,0,0,1,1.88-1.91,3.68,3.68,0,0,1,1.38-.26,6.47,6.47,0,0,1,1.63.22,4.22,4.22,0,0,1,1.58.82,0.31,0.31,0,0,1,.16.28A1.17,1.17,0,0,1,34,34L33.56,35a0.27,0.27,0,0,1-.23.17A0.57,0.57,0,0,1,33,35.05a7.29,7.29,0,0,0-1.13-.57,2.79,2.79,0,0,0-1-.21,2.47,2.47,0,0,0-.7.1,1.42,1.42,0,0,0-.57.32,1.66,1.66,0,0,0-.39.58,2.32,2.32,0,0,0-.15.9,1.28,1.28,0,0,0,.2.71,2.1,2.1,0,0,0,.5.53,3.66,3.66,0,0,0,.68.4l0.71,0.32q0.62,0.26,1.23.56a5.26,5.26,0,0,1,1.11.73,3.16,3.16,0,0,1,.8,1.09A3.93,3.93,0,0,1,34.61,42.16Z" transform="translate(-16.65 -16.19)" fill="#fff"/><path d="M41.09,46a4,4,0,0,1-1.46-.26A3.23,3.23,0,0,1,38.49,45a3.34,3.34,0,0,1-.74-1.18,4.4,4.4,0,0,1-.26-1.58V36.15a4.34,4.34,0,0,1,.26-1.56,3.42,3.42,0,0,1,.73-1.18,3.3,3.3,0,0,1,1.12-.76A3.65,3.65,0,0,1,41,32.4a4.5,4.5,0,0,1,1.77.36,3.66,3.66,0,0,1,1.56,1.44,0.37,0.37,0,0,1,.08.25,0.47,0.47,0,0,1-.16.27l-0.86.78a0.21,0.21,0,0,1-.24.05A0.41,0.41,0,0,1,43,35.36a2.38,2.38,0,0,0-.83-0.79,2.12,2.12,0,0,0-1.07-.29,1.55,1.55,0,0,0-1.29.55,2.12,2.12,0,0,0-.44,1.37v6.09a2,2,0,0,0,.47,1.34,1.65,1.65,0,0,0,1.31.54,1.88,1.88,0,0,0,1-.31A3.2,3.2,0,0,0,43,43.13l0.2-.21a0.17,0.17,0,0,1,.25,0l0.94,0.76a0.31,0.31,0,0,1,.09.43A3.77,3.77,0,0,1,43,45.6,4,4,0,0,1,41.09,46Z" transform="translate(-16.65 -16.19)" fill="#fff"/><path d="M54.12,34.45H51.77a0.2,0.2,0,0,0-.23.22l0,11a0.25,0.25,0,0,1-.26.3H50a0.26,0.26,0,0,1-.3-0.28l0-11a0.34,0.34,0,0,0,0-.17,0.2,0.2,0,0,0-.19-0.06H47.21a0.27,0.27,0,0,1-.28-0.32V32.89a0.26,0.26,0,0,1,.28-0.3h6.91a0.24,0.24,0,0,1,.26.28v1.25A0.26,0.26,0,0,1,54.12,34.45Z" transform="translate(-16.65 -16.19)" fill="#fff"/></svg>