<svg xmlns="http://www.w3.org/2000/svg" xmlns:xlink="http://www.w3.org/1999/xlink" viewBox="0 0 123.04 74.78"><defs><clipPath id="a" transform="translate(-6.53 -59.25)"><polygon points="59.73 98.76 59.74 91.86 72.41 99.17 72.39 106.08 59.73 98.76" fill="none"/></clipPath><clipPath id="b" transform="translate(-6.53 -59.25)"><polygon points="12.7 101.69 12.71 98.15 22.95 104.06 22.94 107.61 12.7 101.69" fill="none"/></clipPath><clipPath id="c" transform="translate(-6.53 -59.25)"><polygon points="42.54 80.73 42.55 76.64 49.38 80.58 49.37 84.68 42.54 80.73" fill="none"/></clipPath><clipPath id="d" transform="translate(-6.53 -59.25)"><polygon points="103.65 107.09 103.65 103.66 113.69 109.45 113.67 112.89 103.65 107.09" fill="none"/></clipPath><clipPath id="e" transform="translate(-6.53 -59.25)"><polygon points="116.07 113.13 116.07 109.5 124.75 104.49 124.75 108.11 116.07 113.13" fill="none"/></clipPath></defs><title>scheme_2</title><g style="isolation:isolate"><g style="mix-blend-mode:multiply"><path d="M54.3,99.42c-1.09,1.76-2.06,1.59-4.54,0L39.59,95.26c-2.48-1.54-3.11-4.76-2-6.51l5.75-15.08c1.09-1.76-1.6-.88.87,0.67l16.73,6.9c2.48,1.54.39,9-.71,10.74Z" transform="translate(-6.53 -59.25)" fill="#fff" opacity="0"/><path d="M54.27,99.24c-1.09,1.75-2.05,1.57-4.5,0L39.67,95.1c-2.46-1.53-3.11-4.71-2-6.46l5.73-14.89c1.09-1.75-1.57-.89.89,0.64l16.58,6.83c2.46,1.53.45,8.88-.63,10.62Z" transform="translate(-6.53 -59.25)" fill="#fefefe" opacity="0.01"/><path d="M54.23,99.06c-1.08,1.73-2,1.56-4.46,0l-10-4.17c-2.44-1.52-3.11-4.67-2-6.4l5.7-14.71c1.08-1.73-1.53-.91.92,0.62L60.76,81.2c2.44,1.52.52,8.77-.56,10.51Z" transform="translate(-6.53 -59.25)" fill="#fdfdfd" opacity="0.03"/><path d="M54.2,98.87c-1.07,1.72-2,1.54-4.42.05l-9.94-4.15c-2.43-1.51-3.12-4.63-2-6.35L43.47,73.9c1.07-1.72-1.49-.92.94,0.59l16.27,6.69c2.43,1.51.59,8.67-.49,10.39Z" transform="translate(-6.53 -59.25)" fill="#fcfcfc" opacity="0.04"/><path d="M54.16,98.69c-1.07,1.71-2,1.53-4.39.05l-9.86-4.14c-2.41-1.5-3.12-4.58-2.05-6.3L43.51,74c1.07-1.71-1.45-.94,1,0.57l16.12,6.63c2.41,1.5.65,8.56-.41,10.28Z" transform="translate(-6.53 -59.25)" fill="#fbfbfb" opacity="0.06"/><path d="M54.12,98.5c-1.06,1.7-2,1.51-4.35.06L40,94.44c-2.4-1.49-3.12-4.54-2.06-6.24l5.64-14.14c1.06-1.7-1.42-1,1,.54l16,6.56c2.4,1.49.72,8.46-.34,10.16Z" transform="translate(-6.53 -59.25)" fill="#fafafa" opacity="0.07"/><path d="M54.09,98.32c-1.05,1.69-2,1.5-4.31.06l-9.71-4.1c-2.38-1.48-3.12-4.5-2.07-6.19l5.61-14c1.05-1.69-1.38-1,1,.51l15.81,6.49c2.38,1.48.78,8.35-.27,10Z" transform="translate(-6.53 -59.25)" fill="#f9f9f9" opacity="0.09"/><path d="M54.05,98.13c-1,1.68-2,1.48-4.28.06l-9.63-4.08C37.78,92.64,37,89.66,38.07,88l5.59-13.77c1-1.68-1.34-1,1,.49l15.66,6.43c2.37,1.47.85,8.25-.2,9.93Z" transform="translate(-6.53 -59.25)" fill="#f8f8f9" opacity="0.1"/><path d="M54,98c-1,1.67-2,1.47-4.24.06l-9.55-4.06c-2.35-1.46-3.13-4.41-2.09-6.08L43.7,74.29c1-1.67-1.3-1,1,.46l15.5,6.36c2.35,1.46.92,8.14-.12,9.81Z" transform="translate(-6.53 -59.25)" fill="#f7f7f8" opacity="0.12"/><path d="M54,97.77c-1,1.66-2,1.45-4.2.06l-9.47-4c-2.34-1.45-3.13-4.37-2.1-6l5.54-13.39c1-1.66-1.26-1,1.07.44l15.35,6.29c2.33,1.45,1,8,0,9.69Z" transform="translate(-6.53 -59.25)" fill="#f6f6f7" opacity="0.13"/><path d="M53.94,97.58c-1,1.65-2,1.44-4.16.06l-9.39-4c-2.32-1.44-3.14-4.33-2.11-6l5.52-13.21c1-1.65-1.23-1,1.09.41l15.19,6.22c2.32,1.44,1,7.93,0,9.58Z" transform="translate(-6.53 -59.25)" fill="#f5f5f6" opacity="0.15"/><path d="M53.9,97.4c-1,1.64-2,1.42-4.13.07l-9.31-4c-2.31-1.43-3.14-4.29-2.12-5.92l5.5-13c1-1.64-1.19-1,1.12.39l15,6.16c2.3,1.44,1.12,7.83.1,9.46Z" transform="translate(-6.53 -59.25)" fill="#f4f4f5" opacity="0.16"/><path d="M53.87,97.21c-1,1.62-2,1.41-4.09.07l-9.23-4c-2.29-1.43-3.14-4.24-2.13-5.87l5.47-12.83c1-1.62-1.15-1.06,1.14.36L59.91,81c2.29,1.43,1.18,7.72.17,9.35Z" transform="translate(-6.53 -59.25)" fill="#f3f4f4" opacity="0.18"/><path d="M53.83,97c-1,1.61-2,1.39-4.05.07l-9.16-4c-2.27-1.42-3.14-4.2-2.14-5.81l5.45-12.64c1-1.61-1.11-1.08,1.16.34l14.73,6c2.27,1.42,1.25,7.62.24,9.23Z" transform="translate(-6.53 -59.25)" fill="#f2f3f3" opacity="0.19"/><path d="M53.8,96.85c-1,1.6-2,1.38-4,.07L40.7,93c-2.26-1.41-3.15-4.16-2.15-5.76L44,74.74c1-1.6-1.08-1.1,1.18.31l14.58,6c2.26,1.41,1.31,7.51.32,9.11Z" transform="translate(-6.53 -59.25)" fill="#f1f2f2" opacity="0.21"/><path d="M53.76,96.66c-1,1.59-2,1.36-4,.08l-9-3.94c-2.24-1.4-3.15-4.12-2.16-5.71L44,74.82c1-1.59-1-1.11,1.2.29L59.66,81c2.24,1.4,1.38,7.41.39,9Z" transform="translate(-6.53 -59.25)" fill="#f0f1f1" opacity="0.22"/><path d="M53.72,96.48c-1,1.58-2,1.35-3.94.08l-8.92-3.92c-2.23-1.39-3.15-4.07-2.17-5.65L44.08,74.9c1-1.58-1-1.13,1.23.26L59.57,81c2.23,1.39,1.45,7.3.46,8.88Z" transform="translate(-6.53 -59.25)" fill="#eff0f0" opacity="0.24"/><path d="M53.69,96.29c-1,1.57-1.95,1.34-3.9.08l-8.84-3.91c-2.21-1.38-3.15-4-2.18-5.6L44.12,75c1-1.57-1-1.14,1.25.23L59.49,81c2.21,1.38,1.51,7.2.54,8.77Z" transform="translate(-6.53 -59.25)" fill="#eeefef" opacity="0.25"/><path d="M53.65,96.11c-1,1.56-1.94,1.32-3.87.08L41,92.3c-2.2-1.37-3.16-4-2.19-5.54l5.33-11.71c1-1.56-.92-1.16,1.27.21l14,5.69C61.6,82.31,61,88,60,89.6Z" transform="translate(-6.53 -59.25)" fill="#edeeee" opacity="0.26"/><path d="M53.61,95.93c-1,1.55-1.94,1.31-3.83.08L41.1,92.14c-2.18-1.36-3.16-3.94-2.2-5.49l5.31-11.52c1-1.55-.89-1.17,1.29.18l13.81,5.62c2.18,1.36,1.65,7,.68,8.53Z" transform="translate(-6.53 -59.25)" fill="#eceded" opacity="0.28"/><path d="M53.58,95.74c-1,1.54-1.93,1.29-3.79.08L41.18,92C39,90.63,38,88.07,39,86.54L44.26,75.2c1-1.54-.85-1.19,1.32.16l13.66,5.55c2.16,1.35,1.71,6.88.76,8.42Z" transform="translate(-6.53 -59.25)" fill="#ebecec" opacity="0.29"/><path d="M53.54,95.56c-0.95,1.53-1.92,1.28-3.76.09l-8.53-3.84c-2.15-1.34-3.17-3.86-2.22-5.38l5.27-11.14c1-1.52-.81-1.21,1.34.13l13.5,5.49c2.15,1.34,1.78,6.78.83,8.3Z" transform="translate(-6.53 -59.25)" fill="#eaebec" opacity="0.31"/><path d="M53.51,95.37c-0.94,1.51-1.92,1.26-3.72.09l-8.45-3.82c-2.13-1.33-3.17-3.82-2.22-5.33l5.24-11c0.94-1.51-.77-1.22,1.36.11l13.35,5.42c2.13,1.33,1.84,6.67.9,8.18Z" transform="translate(-6.53 -59.25)" fill="#e9eaeb" opacity="0.32"/><path d="M53.47,95.19c-0.94,1.5-1.91,1.25-3.68.09l-8.37-3.8c-2.12-1.32-3.17-3.77-2.24-5.28L44.4,75.43c0.94-1.5-.74-1.24,1.38.08L59,80.87c2.12,1.32,1.91,6.57,1,8.07Z" transform="translate(-6.53 -59.25)" fill="#e8e9ea" opacity="0.34"/><path d="M53.43,95c-0.93,1.49-1.9,1.23-3.64.09L41.5,91.31c-2.1-1.31-3.17-3.73-2.24-5.22l5.2-10.58c0.93-1.49-.7-1.25,1.4.06l13,5.28c2.1,1.31,2,6.46,1,8Z" transform="translate(-6.53 -59.25)" fill="#e7e8e9" opacity="0.35"/><path d="M53.4,94.82c-0.92,1.48-1.9,1.22-3.61.09l-8.21-3.77c-2.09-1.3-3.18-3.69-2.25-5.17L44.5,75.59c0.92-1.48-.66-1.27,1.43,0l12.89,5.22c2.09,1.3,2,6.36,1.12,7.84Z" transform="translate(-6.53 -59.25)" fill="#e6e7e8" opacity="0.37"/><path d="M53.36,94.64c-0.92,1.47-1.89,1.2-3.57.1L41.66,91c-2.07-1.29-3.18-3.65-2.26-5.12l5.15-10.21c0.92-1.47-.62-1.28,1.45,0l12.73,5.15c2.07,1.29,2.11,6.25,1.19,7.72Z" transform="translate(-6.53 -59.25)" fill="#e5e6e7" opacity="0.38"/><path d="M53.32,94.45c-0.91,1.46-1.88,1.19-3.53.1l-8.05-3.73c-2.06-1.28-3.18-3.6-2.27-5.06l5.13-10c0.91-1.46-.58-1.3,1.47,0L58.64,80.8c2.06,1.28,2.18,6.15,1.27,7.6Z" transform="translate(-6.53 -59.25)" fill="#e4e5e6" opacity="0.4"/><path d="M53.29,94.27c-0.9,1.45-1.88,1.17-3.5.1l-8-3.71c-2-1.27-3.18-3.56-2.28-5l5.1-9.83c0.9-1.45-.55-1.32,1.49,0l12.43,5c2,1.27,2.24,6,1.34,7.49Z" transform="translate(-6.53 -59.25)" fill="#e3e4e5" opacity="0.41"/><path d="M53.25,94.09c-0.89,1.44-1.87,1.16-3.46.1l-7.9-3.7c-2-1.26-3.19-3.52-2.29-5l5.08-9.64c0.9-1.44-.51-1.33,1.52-0.07l12.27,4.95c2,1.26,2.31,5.94,1.41,7.37Z" transform="translate(-6.53 -59.25)" fill="#e2e3e4" opacity="0.43"/><path d="M53.22,93.9c-0.89,1.43-1.86,1.14-3.42.1L42,90.33c-2-1.25-3.19-3.48-2.3-4.9L44.73,76c0.89-1.43-.47-1.35,1.54-0.09l12.12,4.88c2,1.25,2.38,5.83,1.49,7.26Z" transform="translate(-6.53 -59.25)" fill="#e1e2e3" opacity="0.44"/><path d="M53.18,93.72c-0.88,1.42-1.86,1.13-3.38.11l-7.74-3.66c-2-1.24-3.19-3.43-2.31-4.85l5-9.27c0.88-1.42-.43-1.36,1.56-0.12l12,4.81c2,1.24,2.44,5.72,1.56,7.14Z" transform="translate(-6.53 -59.25)" fill="#e0e1e2" opacity="0.46"/><path d="M53.14,93.53c-0.87,1.4-1.85,1.11-3.35.11L42.14,90c-2-1.23-3.2-3.39-2.32-4.79l5-9.08c0.87-1.4-.4-1.38,1.58-0.15l11.81,4.75c2,1.23,2.51,5.62,1.63,7Z" transform="translate(-6.53 -59.25)" fill="#dfe0e1" opacity="0.47"/><path d="M53.11,93.35c-0.87,1.39-1.84,1.1-3.31.11l-7.58-3.63c-2-1.22-3.2-3.35-2.33-4.74l5-8.89c0.87-1.39-.36-1.39,1.6-0.17l11.66,4.68c2,1.22,2.57,5.52,1.71,6.91Z" transform="translate(-6.53 -59.25)" fill="#dedfe0" opacity="0.49"/><path d="M53.07,93.17c-0.86,1.38-1.84,1.08-3.27.11l-7.5-3.61c-1.95-1.21-3.2-3.3-2.34-4.69l5-8.71c0.86-1.38-.32-1.41,1.63-0.2L58,80.69c1.95,1.21,2.64,5.41,1.78,6.79Z" transform="translate(-6.53 -59.25)" fill="#dddee0" opacity="0.5"/><path d="M53,93c-0.85,1.37-1.83,1.07-3.24.11L42.37,89.5c-1.93-1.2-3.2-3.26-2.35-4.63L45,76.35c0.85-1.37-.28-1.43,1.65-0.22L58,80.68c1.93,1.2,2.71,5.31,1.85,6.68Z" transform="translate(-6.53 -59.25)" fill="#dcdddf" opacity="0.51"/><path d="M53,92.8c-0.85,1.36-1.82,1.05-3.2.12l-7.34-3.57c-1.92-1.19-3.21-3.22-2.36-4.58L45,76.43c0.85-1.36-.25-1.44,1.67-0.25l11.2,4.48c1.92,1.19,2.77,5.2,1.93,6.56Z" transform="translate(-6.53 -59.25)" fill="#dbddde" opacity="0.53"/><path d="M53,92.61c-0.84,1.35-1.82,1-3.16.12l-7.27-3.56C40.63,88,39.32,86,40.16,84.65l4.9-8.14c0.84-1.35-.21-1.46,1.69-0.27l11,4.41c1.9,1.18,2.84,5.09,2,6.44Z" transform="translate(-6.53 -59.25)" fill="#dbdcdd" opacity="0.54"/><path d="M52.92,92.43c-0.83,1.34-1.81,1-3.12.12L42.61,89c-1.88-1.17-3.21-3.13-2.38-4.47l4.87-8c0.83-1.34-.17-1.47,1.71-0.3l10.89,4.34c1.88,1.17,2.91,5,2.07,6.33Z" transform="translate(-6.53 -59.25)" fill="#dadbdc" opacity="0.56"/><path d="M52.89,92.25c-0.83,1.33-1.8,1-3.09.12l-7.11-3.52c-1.87-1.16-3.22-3.09-2.39-4.42l4.85-7.77c0.83-1.33-.13-1.49,1.74-0.32l10.73,4.28c1.87,1.16,3,4.88,2.15,6.21Z" transform="translate(-6.53 -59.25)" fill="#d9dadb" opacity="0.57"/><path d="M52.85,92.06c-0.82,1.32-1.8,1-3.05.12l-7-3.5c-1.85-1.15-3.22-3-2.4-4.36l4.83-7.58c0.82-1.32-.09-1.5,1.76-0.35L57.54,80.6c1.85,1.15,3,4.78,2.22,6.1Z" transform="translate(-6.53 -59.25)" fill="#d8d9da" opacity="0.59"/><path d="M52.82,91.88c-0.81,1.3-1.79,1-3,.13l-7-3.49c-1.84-1.14-3.22-3-2.41-4.31l4.8-7.39c0.81-1.3-.06-1.52,1.78-0.37l10.43,4.14c1.84,1.14,3.1,4.67,2.29,6Z" transform="translate(-6.53 -59.25)" fill="#d7d8d9" opacity="0.6"/><path d="M52.78,91.69c-0.81,1.29-1.78,1-3,.13l-6.87-3.47c-1.82-1.13-3.22-3-2.42-4.26l4.78-7.21c0.81-1.29,0-1.54,1.8-.4l10.27,4.08c1.82,1.13,3.17,4.57,2.37,5.86Z" transform="translate(-6.53 -59.25)" fill="#d6d7d8" opacity="0.62"/><path d="M52.74,91.51c-0.8,1.28-1.78,1-2.94.13L43,88.19c-1.81-1.12-3.23-2.92-2.43-4.2l4.76-7c0.8-1.28,0-1.55,1.83-.43l10.12,4c1.81,1.13,3.24,4.46,2.44,5.75Z" transform="translate(-6.53 -59.25)" fill="#d5d6d7" opacity="0.63"/><path d="M52.71,91.32c-0.79,1.27-1.77.94-2.9,0.13L43.09,88c-1.79-1.12-3.23-2.88-2.44-4.15L45.39,77c0.79-1.27.06-1.57,1.85-.45l10,3.94c1.79,1.12,3.3,4.36,2.51,5.63Z" transform="translate(-6.53 -59.25)" fill="#d4d5d6" opacity="0.65"/><path d="M52.67,91.14c-0.78,1.26-1.76.92-2.86,0.13l-6.64-3.42c-1.78-1.11-3.23-2.84-2.45-4.1l4.71-6.64c0.79-1.26.09-1.58,1.87-.48l9.81,3.87c1.78,1.11,3.37,4.25,2.59,5.52Z" transform="translate(-6.53 -59.25)" fill="#d3d4d5" opacity="0.66"/><path d="M52.63,91c-0.78,1.25-1.76.91-2.83,0.14l-6.56-3.4c-1.76-1.1-3.23-2.79-2.46-4l4.69-6.46c0.78-1.25.13-1.6,1.89-.5L57,80.5c1.76,1.1,3.43,4.15,2.66,5.4Z" transform="translate(-6.53 -59.25)" fill="#d2d3d4" opacity="0.68"/><path d="M52.6,90.77c-0.77,1.24-1.75.89-2.79,0.14l-6.48-3.38c-1.75-1.09-3.24-2.75-2.47-4l4.67-6.27c0.77-1.24.17-1.61,1.91-.53l9.5,3.74c1.74,1.09,3.5,4,2.73,5.28Z" transform="translate(-6.53 -59.25)" fill="#d1d2d3" opacity="0.69"/><path d="M52.56,90.59c-0.76,1.23-1.75.88-2.75,0.14l-6.4-3.36c-1.73-1.08-3.24-2.71-2.48-3.93l4.64-6.08c0.76-1.23.21-1.63,1.94-.55l9.35,3.67c1.73,1.08,3.57,3.94,2.8,5.17Z" transform="translate(-6.53 -59.25)" fill="#d0d1d3" opacity="0.71"/><path d="M52.53,90.4c-0.76,1.22-1.74.86-2.72,0.14L43.49,87.2c-1.71-1.07-3.24-2.66-2.49-3.88l4.62-5.89c0.76-1.22.25-1.65,2-.58l9.2,3.6c1.71,1.07,3.63,3.83,2.88,5.05Z" transform="translate(-6.53 -59.25)" fill="#cfd0d2" opacity="0.72"/><path d="M52.49,90.22c-0.75,1.21-1.73.85-2.68,0.14L43.57,87c-1.7-1.06-3.25-2.62-2.49-3.83l4.6-5.71c0.75-1.21.28-1.66,2-.6l9,3.54c1.7,1.06,3.7,3.73,3,4.93Z" transform="translate(-6.53 -59.25)" fill="#cecfd1" opacity="0.74"/><path d="M52.45,90c-0.74,1.19-1.72.83-2.64,0.15l-6.16-3.31c-1.68-1-3.25-2.58-2.5-3.77l4.57-5.52c0.74-1.19.32-1.68,2-.63l8.89,3.47c1.68,1,3.77,3.62,3,4.82Z" transform="translate(-6.53 -59.25)" fill="#cdced0" opacity="0.75"/><path d="M52.42,89.85C51.68,91,50.7,90.67,49.81,90l-6.09-3.29c-1.67-1-3.25-2.54-2.51-3.72l4.55-5.33c0.74-1.18.36-1.69,2-.65l8.73,3.4c1.67,1,3.83,3.52,3.1,4.7Z" transform="translate(-6.53 -59.25)" fill="#cccdcf" opacity="0.76"/><path d="M52.38,89.67c-0.73,1.17-1.71.8-2.57,0.15l-6-3.28c-1.65-1-3.25-2.49-2.52-3.67l4.53-5.14c0.73-1.17.4-1.71,2-.68l8.58,3.34c1.65,1,3.9,3.41,3.17,4.59Z" transform="translate(-6.53 -59.25)" fill="#cbccce" opacity="0.78"/><path d="M52.34,89.48c-0.72,1.16-1.7.79-2.53,0.15l-5.93-3.26c-1.64-1-3.26-2.45-2.53-3.61l4.5-5c0.72-1.16.43-1.72,2.07-.71l8.43,3.27c1.64,1,4,3.31,3.24,4.47Z" transform="translate(-6.53 -59.25)" fill="#cacbcd" opacity="0.79"/><path d="M52.31,89.3c-0.72,1.15-1.7.77-2.49,0.15L44,86.21c-1.62-1-3.26-2.41-2.54-3.56l4.48-4.77c0.72-1.15.47-1.74,2.09-.73l8.27,3.2c1.62,1,4,3.2,3.32,4.35Z" transform="translate(-6.53 -59.25)" fill="#c9cacc" opacity="0.81"/><path d="M52.27,89.12c-0.71,1.14-1.69.76-2.46,0.15L44,86c-1.6-1-3.26-2.37-2.55-3.5L46,78c0.71-1.14.51-1.75,2.11-.76l8.12,3.13c1.61,1,4.1,3.1,3.39,4.24Z" transform="translate(-6.53 -59.25)" fill="#c8c9cb" opacity="0.82"/><path d="M52.23,88.93c-0.7,1.13-1.68.74-2.42,0.16l-5.69-3.21c-1.59-1-3.27-2.32-2.56-3.45L46,78c0.7-1.13.55-1.77,2.14-.78l8,3.07c1.59,1,4.16,3,3.46,4.12Z" transform="translate(-6.53 -59.25)" fill="#c7c8ca" opacity="0.84"/><path d="M52.2,88.75c-0.7,1.12-1.68.73-2.38,0.16L44.2,85.72c-1.57-1-3.27-2.28-2.57-3.4L46,78.12c0.69-1.12.58-1.79,2.16-.81l7.81,3c1.57,1,4.23,2.89,3.54,4Z" transform="translate(-6.53 -59.25)" fill="#c6c7c9" opacity="0.85"/><path d="M52.16,88.56c-0.69,1.11-1.67.71-2.34,0.16l-5.53-3.17c-1.56-1-3.27-2.24-2.58-3.34l4.39-4c0.69-1.11.62-1.8,2.18-.83l7.66,2.93c1.56,1,4.3,2.78,3.61,3.89Z" transform="translate(-6.53 -59.25)" fill="#c5c6c8" opacity="0.87"/><path d="M52.13,88.38c-0.68,1.1-1.67.7-2.31,0.16l-5.46-3.15c-1.54-1-3.27-2.2-2.59-3.29l4.37-3.83c0.68-1.09.66-1.82,2.2-.86l7.5,2.87c1.54,1,4.36,2.68,3.68,3.77Z" transform="translate(-6.53 -59.25)" fill="#c4c6c7" opacity="0.88"/><path d="M52.09,88.19c-0.67,1.08-1.66.68-2.27,0.17l-5.38-3.13c-1.53-1-3.28-2.15-2.6-3.24l4.34-3.64c0.67-1.08.7-1.83,2.23-.88l7.35,2.8c1.53,1,4.43,2.57,3.76,3.66Z" transform="translate(-6.53 -59.25)" fill="#c3c5c7" opacity="0.9"/><path d="M52.05,88a1.36,1.36,0,0,1-2.23.17l-5.3-3.12C43,84.12,41.24,83,41.91,81.88l4.32-3.45c0.67-1.07.74-1.85,2.25-.91l7.2,2.73c1.51,0.94,4.5,2.47,3.83,3.54Z" transform="translate(-6.53 -59.25)" fill="#c2c4c6" opacity="0.91"/><path d="M52,87.83a1.34,1.34,0,0,1-2.2.17L44.6,84.9c-1.5-.93-3.28-2.07-2.62-3.13l4.3-3.27c0.66-1.06.77-1.87,2.27-.93l7,2.66c1.5,0.93,4.56,2.36,3.9,3.42Z" transform="translate(-6.53 -59.25)" fill="#c1c3c5" opacity="0.93"/><path d="M52,87.64a1.32,1.32,0,0,1-2.16.17l-5.14-3.08c-1.48-.92-3.28-2-2.63-3.08l4.27-3.08c0.65-1.05.81-1.88,2.29-1l6.89,2.6c1.48,0.92,4.63,2.26,4,3.31Z" transform="translate(-6.53 -59.25)" fill="#c0c2c4" opacity="0.94"/><path d="M51.94,87.46a1.3,1.3,0,0,1-2.12.17l-5.06-3.06c-1.46-.91-3.29-2-2.64-3l4.25-2.89c0.65-1,.85-1.9,2.31-1l6.73,2.53c1.46,0.91,4.69,2.15,4,3.19Z" transform="translate(-6.53 -59.25)" fill="#bfc1c3" opacity="0.96"/><path d="M51.91,87.27a1.27,1.27,0,0,1-2.09.17l-5-3c-1.45-.9-3.29-1.94-2.65-3l4.23-2.71c0.64-1,.89-1.91,2.34-1l6.58,2.46c1.45,0.9,4.76,2,4.12,3.08Z" transform="translate(-6.53 -59.25)" fill="#bec0c2" opacity="0.97"/><path d="M51.87,87.09a1.25,1.25,0,0,1-2,.18l-4.91-3c-1.43-.89-3.29-1.9-2.66-2.91l4.21-2.52c0.63-1,.92-1.93,2.36-1l6.43,2.4c1.43,0.89,4.83,1.94,4.19,3Z" transform="translate(-6.53 -59.25)" fill="#bdbfc1" opacity="0.99"/><path d="M51.84,86.91a1.23,1.23,0,0,1-2,.18l-4.83-3c-1.42-.88-3.3-1.85-2.67-2.86l4.18-2.33c0.63-1,1-1.94,2.38-1.06l6.27,2.33C56.59,81,60.06,82,59.43,83Z" transform="translate(-6.53 -59.25)" fill="#b3b3b3"/></g><polygon points="53.1 13.29 43.94 7.97 34.76 13.24 43.91 18.56 53.1 13.29" fill="#fafafa"/><polygon points="43.91 18.56 43.89 29.15 53.07 23.88 53.1 13.29 43.91 18.56" fill="#b3b3b3"/><polygon points="34.76 13.24 34.73 23.83 43.89 29.15 43.91 18.56 34.76 13.24" fill="#e6e6e6"/><g style="mix-blend-mode:multiply"><path d="M28.54,126.92c-1.4,2.24-2.63,2-5.79.06l-13-5.37c-3.16-2-4-6.07-2.57-8.31l7.34-19.25c1.4-2.24-2-1.12,1.11.85L37,103.71c3.16,2,.49,11.46-0.9,13.71Z" transform="translate(-6.53 -59.25)" fill="#fff" opacity="0"/><path d="M28.5,126.68c-1.39,2.23-2.62,2-5.74.06L9.86,121.4c-3.14-2-4-6-2.58-8.24l7.31-19c1.39-2.23-2-1.14,1.14.82l21.16,8.71c3.14,2,.58,11.33-0.81,13.56Z" transform="translate(-6.53 -59.25)" fill="#fefefe" opacity="0.01"/><path d="M28.45,126.45c-1.38,2.21-2.61,2-5.7.06L10,121.19c-3.12-1.94-4-6-2.59-8.17l7.28-18.77c1.38-2.21-2-1.16,1.17.79l21,8.63c3.12,1.94.66,11.19-.72,13.41Z" transform="translate(-6.53 -59.25)" fill="#fdfdfd" opacity="0.03"/><path d="M28.4,126.21c-1.37,2.2-2.6,2-5.65.07L10.07,121c-3.1-1.93-4-5.91-2.61-8.1l7.25-18.53c1.37-2.2-1.9-1.18,1.2.75l20.76,8.54c3.1,1.93.75,11.06-.62,13.26Z" transform="translate(-6.53 -59.25)" fill="#fcfcfc" opacity="0.04"/><path d="M28.36,126c-1.36,2.19-2.6,1.95-5.6.07l-12.59-5.28c-3.08-1.92-4-5.85-2.62-8l7.22-18.29c1.36-2.19-1.86-1.2,1.23.72l20.57,8.46c3.08,1.92.83,10.93-.53,13.11Z" transform="translate(-6.53 -59.25)" fill="#fbfbfb" opacity="0.06"/><path d="M28.31,125.74c-1.35,2.17-2.59,1.93-5.55.07l-12.49-5.25c-3.06-1.91-4-5.8-2.63-8l7.19-18c1.35-2.17-1.81-1.22,1.25.69l20.37,8.37c3.06,1.91.92,10.79-.44,13Z" transform="translate(-6.53 -59.25)" fill="#fafafa" opacity="0.07"/><path d="M28.26,125.51c-1.34,2.16-2.58,1.91-5.51.07l-12.39-5.23c-3-1.89-4-5.74-2.64-7.9l7.16-17.81c1.34-2.16-1.76-1.24,1.28.66l20.17,8.29c3,1.89,1,10.66-.34,12.82Z" transform="translate(-6.53 -59.25)" fill="#f9f9f9" opacity="0.09"/><path d="M28.22,125.27c-1.34,2.14-2.57,1.89-5.46.08l-12.29-5.21c-3-1.88-4-5.69-2.66-7.83l7.13-17.57c1.34-2.14-1.71-1.26,1.31.63l20,8.2c3,1.88,1.08,10.52-.25,12.67Z" transform="translate(-6.53 -59.25)" fill="#f8f8f9" opacity="0.1"/><path d="M28.17,125c-1.33,2.13-2.56,1.87-5.41.08l-12.19-5.19c-3-1.87-4-5.63-2.67-7.76L15,94.84c1.33-2.13-1.66-1.28,1.34.59l19.78,8.11c3,1.87,1.17,10.39-.16,12.52Z" transform="translate(-6.53 -59.25)" fill="#f7f7f8" opacity="0.12"/><path d="M28.12,124.8c-1.32,2.12-2.55,1.86-5.36.08l-12.09-5.16c-3-1.86-4-5.58-2.68-7.69l7.07-17.09c1.32-2.11-1.61-1.3,1.37.56l19.59,8c3,1.86,1.25,10.26-.06,12.37Z" transform="translate(-6.53 -59.25)" fill="#f6f6f7" opacity="0.13"/><path d="M28.08,124.57c-1.31,2.1-2.55,1.84-5.32.08l-12-5.14c-3-1.84-4-5.52-2.69-7.63l7-16.85c1.31-2.1-1.57-1.32,1.4.53l19.39,7.94c3,1.84,1.34,10.12,0,12.22Z" transform="translate(-6.53 -59.25)" fill="#f5f5f6" opacity="0.15"/><path d="M28,124.33c-1.3,2.09-2.54,1.82-5.27.09L10.88,119.3c-2.94-1.83-4-5.47-2.7-7.56l7-16.61c1.3-2.09-1.52-1.34,1.42.5l19.19,7.86c2.94,1.83,1.42,10,.12,12.08Z" transform="translate(-6.53 -59.25)" fill="#f4f4f5" opacity="0.16"/><path d="M28,124.1c-1.29,2.07-2.53,1.8-5.22.09L11,119.09c-2.92-1.82-4-5.42-2.72-7.49l7-16.37c1.29-2.07-1.47-1.36,1.45.46l19,7.77c2.92,1.82,1.51,9.85.22,11.93Z" transform="translate(-6.53 -59.25)" fill="#f3f4f4" opacity="0.18"/><path d="M27.94,123.87c-1.28,2.06-2.52,1.78-5.17.09l-11.68-5.07c-2.9-1.81-4-5.36-2.73-7.42l7-16.13c1.28-2.06-1.42-1.38,1.48.43l18.8,7.69c2.9,1.81,1.59,9.72.31,11.78Z" transform="translate(-6.53 -59.25)" fill="#f2f3f3" opacity="0.19"/><path d="M27.89,123.63c-1.27,2-2.51,1.76-5.13.09l-11.58-5.05c-2.88-1.79-4-5.31-2.74-7.35l6.93-15.9c1.27-2-1.37-1.4,1.51.4l18.6,7.6c2.88,1.79,1.68,9.59.4,11.63Z" transform="translate(-6.53 -59.25)" fill="#f1f2f2" opacity="0.21"/><path d="M27.85,123.4c-1.27,2-2.5,1.74-5.08.1l-11.48-5c-2.86-1.78-4-5.25-2.75-7.28l6.9-15.66c1.27-2-1.32-1.42,1.54.37l18.41,7.51c2.86,1.78,1.76,9.45.5,11.48Z" transform="translate(-6.53 -59.25)" fill="#f0f1f1" opacity="0.22"/><path d="M27.8,123.16c-1.26,2-2.5,1.72-5,.1l-11.38-5c-2.84-1.77-4-5.2-2.77-7.21l6.87-15.42c1.26-2-1.28-1.44,1.57.33l18.21,7.43c2.84,1.77,1.85,9.32.59,11.34Z" transform="translate(-6.53 -59.25)" fill="#eff0f0" opacity="0.24"/><path d="M27.75,122.93c-1.25,2-2.49,1.7-5,.1l-11.28-5c-2.82-1.76-4-5.14-2.78-7.15l6.84-15.18c1.25-2-1.23-1.46,1.59.3l18,7.34c2.82,1.76,1.93,9.18.68,11.19Z" transform="translate(-6.53 -59.25)" fill="#eeefef" opacity="0.25"/><path d="M27.71,122.69c-1.24,2-2.48,1.69-4.94.1l-11.18-5c-2.8-1.75-4-5.09-2.79-7.08l6.81-14.94c1.24-2-1.18-1.48,1.62.27L35,103.34c2.8,1.75,2,9,.78,11Z" transform="translate(-6.53 -59.25)" fill="#edeeee" opacity="0.26"/><path d="M27.66,122.46c-1.23,2-2.47,1.67-4.89.11l-11.08-4.94c-2.78-1.73-4-5-2.8-7l6.78-14.7c1.23-2-1.13-1.5,1.65.24l17.62,7.17c2.78,1.73,2.1,8.92.87,10.89Z" transform="translate(-6.53 -59.25)" fill="#eceded" opacity="0.28"/><path d="M27.61,122.22c-1.22,2-2.46,1.65-4.84.11l-11-4.92c-2.76-1.72-4-5-2.82-6.94L15.73,96c1.22-2-1.08-1.52,1.68.2l17.43,7.09c2.76,1.72,2.19,8.78,1,10.74Z" transform="translate(-6.53 -59.25)" fill="#ebecec" opacity="0.29"/><path d="M27.57,122c-1.21,1.95-2.45,1.63-4.79.11l-10.88-4.9c-2.74-1.71-4-4.92-2.83-6.87l6.72-14.22c1.21-1.95-1-1.54,1.71.17l17.23,7c2.74,1.71,2.27,8.65,1.06,10.59Z" transform="translate(-6.53 -59.25)" fill="#eaebec" opacity="0.31"/><path d="M27.52,121.75c-1.2,1.93-2.45,1.61-4.75.11L12,117c-2.72-1.7-4-4.87-2.84-6.8l6.69-14c1.2-1.93-1-1.56,1.74.14l17,6.91c2.72,1.7,2.35,8.51,1.15,10.45Z" transform="translate(-6.53 -59.25)" fill="#e9eaeb" opacity="0.32"/><path d="M27.48,121.52c-1.2,1.92-2.44,1.59-4.7.12L12.1,116.78C9.39,115.1,8,112,9.24,110L15.91,96.3c1.2-1.92-.94-1.58,1.76.11l16.84,6.83c2.7,1.68,2.44,8.38,1.24,10.3Z" transform="translate(-6.53 -59.25)" fill="#e8e9ea" opacity="0.34"/><path d="M27.43,121.28c-1.19,1.9-2.43,1.57-4.65.12L12.2,116.57c-2.68-1.67-4-4.76-2.86-6.67L16,96.4c1.19-1.9-.89-1.6,1.79.07l16.64,6.74c2.68,1.67,2.52,8.24,1.34,10.15Z" transform="translate(-6.53 -59.25)" fill="#e7e8e9" opacity="0.35"/><path d="M27.38,121c-1.18,1.89-2.42,1.55-4.6.12L12.3,116.36c-2.66-1.66-4.05-4.71-2.88-6.6L16,96.5c1.18-1.89-.84-1.62,1.82,0l16.45,6.66c2.66,1.66,2.61,8.11,1.43,10Z" transform="translate(-6.53 -59.25)" fill="#e6e7e8" opacity="0.37"/><path d="M27.34,120.81c-1.17,1.88-2.41,1.53-4.56.12L12.4,116.15c-2.64-1.65-4.06-4.65-2.89-6.53l6.57-13c1.17-1.88-.8-1.64,1.85,0l16.25,6.57c2.64,1.65,2.69,8,1.52,9.85Z" transform="translate(-6.53 -59.25)" fill="#e5e6e7" opacity="0.38"/><path d="M27.29,120.58c-1.16,1.86-2.4,1.52-4.51.13L12.5,115.94c-2.62-1.63-4.06-4.6-2.9-6.46L16.15,96.7c1.16-1.86-.75-1.66,1.88,0l16.05,6.49c2.62,1.63,2.78,7.84,1.62,9.71Z" transform="translate(-6.53 -59.25)" fill="#e4e5e6" opacity="0.4"/><path d="M27.24,120.34c-1.15,1.85-2.39,1.5-4.46.13L12.6,115.73c-2.6-1.62-4.06-4.54-2.91-6.39l6.51-12.55c1.15-1.85-.7-1.68,1.91-0.06L34,103.14c2.6,1.62,2.86,7.71,1.71,9.56Z" transform="translate(-6.53 -59.25)" fill="#e3e4e5" opacity="0.41"/><path d="M27.2,120.11c-1.14,1.83-2.39,1.48-4.41.13l-10.08-4.72c-2.58-1.61-4.07-4.49-2.93-6.32l6.48-12.31c1.14-1.83-.65-1.7,1.93-0.09l15.66,6.31c2.58,1.61,2.95,7.58,1.8,9.41Z" transform="translate(-6.53 -59.25)" fill="#e2e3e4" opacity="0.43"/><path d="M27.15,119.87c-1.13,1.82-2.38,1.46-4.37.13l-10-4.69c-2.56-1.6-4.07-4.44-2.94-6.25L16.33,97c1.13-1.82-.6-1.72,2-0.12l15.46,6.23c2.56,1.6,3,7.44,1.9,9.26Z" transform="translate(-6.53 -59.25)" fill="#e1e2e3" opacity="0.44"/><path d="M27.11,119.64c-1.13,1.81-2.37,1.44-4.32.13l-9.88-4.67c-2.54-1.58-4.07-4.38-3-6.19l6.43-11.83c1.12-1.81-.55-1.74,2-0.15l15.27,6.14c2.54,1.58,3.11,7.31,2,9.11Z" transform="translate(-6.53 -59.25)" fill="#e0e1e2" opacity="0.46"/><path d="M27.06,119.4c-1.12,1.79-2.36,1.42-4.27.14L13,114.89c-2.52-1.57-4.08-4.33-3-6.12l6.4-11.59c1.12-1.79-.51-1.76,2-0.19l15.07,6.06c2.52,1.57,3.2,7.17,2.08,9Z" transform="translate(-6.53 -59.25)" fill="#dfe0e1" opacity="0.47"/><path d="M27,119.17c-1.11,1.78-2.35,1.4-4.22.14l-9.67-4.63c-2.5-1.56-4.08-4.27-3-6L16.5,97.28c1.11-1.78-.46-1.78,2-0.22l14.88,6c2.5,1.56,3.28,7,2.18,8.82Z" transform="translate(-6.53 -59.25)" fill="#dedfe0" opacity="0.49"/><path d="M27,118.93c-1.1,1.76-2.34,1.38-4.18.14l-9.57-4.6c-2.48-1.55-4.09-4.22-3-6l6.34-11.11c1.1-1.76-.41-1.8,2.08-0.25L33.32,103c2.48,1.55,3.37,6.9,2.27,8.67Z" transform="translate(-6.53 -59.25)" fill="#dddee0" opacity="0.5"/><path d="M26.92,118.7c-1.09,1.75-2.34,1.36-4.13.15l-9.47-4.58c-2.46-1.54-4.09-4.16-3-5.91l6.31-10.87c1.09-1.75-.36-1.82,2.1-0.28L33.21,103c2.46,1.54,3.45,6.77,2.37,8.52Z" transform="translate(-6.53 -59.25)" fill="#dcdddf" opacity="0.51"/><path d="M26.87,118.46c-1.08,1.74-2.33,1.35-4.08.15l-9.37-4.56c-2.44-1.52-4.09-4.11-3-5.84l6.28-10.63c1.08-1.74-.31-1.84,2.13-0.32L33.1,103c2.44,1.52,3.54,6.64,2.46,8.37Z" transform="translate(-6.53 -59.25)" fill="#dbddde" opacity="0.53"/><path d="M26.83,118.23c-1.07,1.72-2.32,1.33-4,.15l-9.27-4.54c-2.43-1.51-4.1-4.05-3-5.77l6.25-10.39c1.07-1.72-.26-1.86,2.16-0.35L33,103c2.42,1.51,3.62,6.5,2.55,8.22Z" transform="translate(-6.53 -59.25)" fill="#dbdcdd" opacity="0.54"/><path d="M26.78,118c-1.06,1.71-2.31,1.31-4,.15l-9.17-4.51c-2.4-1.5-4.1-4-3-5.71L16.8,97.77c1.06-1.71-.22-1.88,2.19-0.38l13.89,5.54c2.41,1.5,3.71,6.37,2.64,8.08Z" transform="translate(-6.53 -59.25)" fill="#dadbdc" opacity="0.56"/><path d="M26.73,117.76c-1.05,1.69-2.3,1.29-3.94.16l-9.07-4.49c-2.39-1.49-4.1-3.95-3-5.64l6.19-9.91c1.05-1.69-.17-1.9,2.22-0.41l13.7,5.46c2.39,1.49,3.79,6.23,2.74,7.93Z" transform="translate(-6.53 -59.25)" fill="#d9dadb" opacity="0.57"/><path d="M26.69,117.52c-1,1.68-2.29,1.27-3.89.16l-9-4.47c-2.37-1.47-4.11-3.89-3.06-5.57L16.92,98c1-1.68-.12-1.92,2.25-0.45l13.5,5.37c2.37,1.47,3.88,6.1,2.83,7.78Z" transform="translate(-6.53 -59.25)" fill="#d8d9da" opacity="0.59"/><path d="M26.64,117.29c-1,1.67-2.29,1.25-3.85.16L13.92,113c-2.35-1.46-4.11-3.84-3.07-5.5L17,98.06c1-1.66-.07-1.94,2.27-0.48l13.3,5.29c2.35,1.46,4,6,2.92,7.63Z" transform="translate(-6.53 -59.25)" fill="#d7d8d9" opacity="0.6"/><path d="M26.6,117.05c-1,1.65-2.28,1.23-3.8.16L14,112.79c-2.33-1.45-4.11-3.78-3.09-5.43l6.1-9.2c1-1.65,0-2,2.3-.51l13.11,5.2c2.33,1.45,4,5.83,3,7.48Z" transform="translate(-6.53 -59.25)" fill="#d6d7d8" opacity="0.62"/><path d="M26.55,116.82c-1,1.64-2.27,1.21-3.75.16l-8.67-4.4c-2.31-1.44-4.12-3.73-3.1-5.36l6.07-9c1-1.64,0-2,2.33-.54l12.91,5.11c2.31,1.44,4.13,5.7,3.11,7.33Z" transform="translate(-6.53 -59.25)" fill="#d5d6d7" opacity="0.63"/><path d="M26.5,116.58c-1,1.62-2.26,1.19-3.7.17l-8.57-4.38c-2.29-1.42-4.12-3.67-3.11-5.3l6-8.72c1-1.62.07-2,2.36-.58l12.72,5c2.29,1.42,4.21,5.56,3.2,7.19Z" transform="translate(-6.53 -59.25)" fill="#d4d5d6" opacity="0.65"/><path d="M26.46,116.35c-1,1.61-2.25,1.18-3.66.17l-8.47-4.36c-2.27-1.41-4.12-3.62-3.12-5.23l6-8.48c1-1.61.12-2,2.39-.61l12.52,4.94c2.27,1.41,4.3,5.43,3.3,7Z" transform="translate(-6.53 -59.25)" fill="#d3d4d5" opacity="0.66"/><path d="M26.41,116.11c-1,1.6-2.24,1.16-3.61.17L14.43,112c-2.25-1.4-4.13-3.56-3.14-5.16l6-8.24c1-1.59.17-2,2.42-.64L32,102.77c2.25,1.4,4.38,5.29,3.39,6.89Z" transform="translate(-6.53 -59.25)" fill="#d2d3d4" opacity="0.68"/><path d="M26.36,115.88c-1,1.58-2.23,1.14-3.56.17l-8.27-4.31c-2.23-1.39-4.13-3.51-3.15-5.09l6-8c1-1.58.22-2.06,2.44-.67l12.13,4.77c2.23,1.39,4.47,5.16,3.49,6.74Z" transform="translate(-6.53 -59.25)" fill="#d1d2d3" opacity="0.69"/><path d="M26.32,115.64c-1,1.57-2.23,1.12-3.51.18l-8.17-4.29c-2.21-1.37-4.13-3.45-3.16-5l5.93-7.76c1-1.57.26-2.08,2.47-.7l11.93,4.69c2.21,1.37,4.55,5,3.58,6.59Z" transform="translate(-6.53 -59.25)" fill="#d0d1d3" opacity="0.71"/><path d="M26.27,115.41c-1,1.55-2.22,1.1-3.47.18l-8.07-4.27c-2.19-1.36-4.14-3.4-3.17-5l5.9-7.52c1-1.55.31-2.1,2.5-.74l11.73,4.6c2.19,1.36,4.64,4.89,3.67,6.45Z" transform="translate(-6.53 -59.25)" fill="#cfd0d2" opacity="0.72"/><path d="M26.22,115.17c-1,1.54-2.21,1.08-3.42.18l-8-4.25c-2.17-1.35-4.14-3.35-3.18-4.88l5.87-7.28c1-1.54.36-2.12,2.53-.77l11.54,4.51c2.17,1.35,4.72,4.76,3.76,6.3Z" transform="translate(-6.53 -59.25)" fill="#cecfd1" opacity="0.74"/><path d="M26.18,114.94c-0.95,1.52-2.2,1.06-3.37.19l-7.87-4.22c-2.15-1.34-4.14-3.29-3.2-4.82l5.84-7c0.95-1.52.41-2.14,2.56-.8l11.34,4.43c2.15,1.34,4.81,4.62,3.86,6.15Z" transform="translate(-6.53 -59.25)" fill="#cdced0" opacity="0.75"/><path d="M26.13,114.7c-0.94,1.51-2.19,1-3.32.19L15,110.69c-2.13-1.32-4.15-3.24-3.21-4.75l5.81-6.8c0.94-1.51.46-2.16,2.59-.83l11.15,4.34c2.13,1.32,4.89,4.49,4,6Z" transform="translate(-6.53 -59.25)" fill="#cccdcf" opacity="0.76"/><path d="M26.09,114.47c-0.93,1.5-2.18,1-3.28.19l-7.67-4.18C13,109.17,11,107.3,11.92,105.8l5.78-6.56c0.93-1.5.51-2.18,2.61-.87l10.95,4.26c2.11,1.31,5,4.36,4,5.85Z" transform="translate(-6.53 -59.25)" fill="#cbccce" opacity="0.78"/><path d="M26,114.23c-0.92,1.48-2.18,1-3.23.19l-7.57-4.16c-2.09-1.3-4.16-3.13-3.23-4.61l5.75-6.32c0.92-1.48.55-2.2,2.64-.9l10.75,4.17c2.09,1.3,5.06,4.22,4.14,5.7Z" transform="translate(-6.53 -59.25)" fill="#cacbcd" opacity="0.79"/><path d="M26,114c-0.91,1.47-2.17,1-3.18.19l-7.47-4.13c-2.07-1.29-4.16-3.07-3.25-4.54l5.72-6.09c0.91-1.47.6-2.22,2.67-.93L31,102.59c2.07,1.29,5.14,4.09,4.23,5.56Z" transform="translate(-6.53 -59.25)" fill="#c9cacc" opacity="0.81"/><path d="M25.95,113.76c-0.9,1.45-2.16,1-3.13.2l-7.37-4.11c-2-1.27-4.16-3-3.26-4.47l5.69-5.85c0.91-1.45.65-2.24,2.7-1l10.36,4c2,1.28,5.23,4,4.33,5.41Z" transform="translate(-6.53 -59.25)" fill="#c8c9cb" opacity="0.82"/><path d="M25.9,113.53c-0.9,1.44-2.15.95-3.09,0.2l-7.26-4.09c-2-1.26-4.17-3-3.27-4.4l5.66-5.61c0.9-1.44.7-2.26,2.73-1l10.16,3.91c2,1.26,5.31,3.82,4.42,5.26Z" transform="translate(-6.53 -59.25)" fill="#c7c8ca" opacity="0.84"/><path d="M25.85,113.29c-0.89,1.43-2.14.93-3,.2l-7.16-4.07c-2-1.25-4.17-2.91-3.28-4.34L18,99.73c0.89-1.43.75-2.28,2.75-1l10,3.83c2,1.25,5.4,3.69,4.51,5.11Z" transform="translate(-6.53 -59.25)" fill="#c6c7c9" opacity="0.85"/><path d="M25.81,113.06c-0.88,1.41-2.13.91-3,.21l-7.06-4c-2-1.24-4.17-2.86-3.29-4.27l5.6-5.13c0.88-1.41.79-2.3,2.78-1.06l9.77,3.74c2,1.24,5.48,3.55,4.61,5Z" transform="translate(-6.53 -59.25)" fill="#c5c6c8" opacity="0.87"/><path d="M25.76,112.82c-0.87,1.4-2.13.89-2.94,0.21l-7-4c-2-1.23-4.18-2.8-3.31-4.2l5.57-4.89c0.87-1.4.84-2.32,2.81-1.09l9.58,3.66c2,1.23,5.57,3.42,4.7,4.82Z" transform="translate(-6.53 -59.25)" fill="#c4c6c7" opacity="0.88"/><path d="M25.72,112.59c-0.86,1.38-2.12.87-2.9,0.21l-6.86-4c-1.95-1.21-4.18-2.75-3.32-4.13L18.18,100c0.86-1.38.89-2.34,2.84-1.13l9.38,3.57c1.95,1.21,5.65,3.28,4.79,4.67Z" transform="translate(-6.53 -59.25)" fill="#c3c5c7" opacity="0.9"/><path d="M25.67,112.35c-0.85,1.37-2.11.86-2.85,0.21l-6.76-4c-1.93-1.2-4.18-2.69-3.33-4.06l5.51-4.41c0.85-1.37.94-2.36,2.87-1.16l9.18,3.49c1.93,1.2,5.74,3.15,4.89,4.52Z" transform="translate(-6.53 -59.25)" fill="#c2c4c6" opacity="0.91"/><path d="M25.62,112.12c-0.84,1.36-2.1.84-2.8,0.21l-6.66-4c-1.91-1.19-4.19-2.64-3.34-4l5.48-4.17c0.84-1.35,1-2.38,2.9-1.19l9,3.4c1.91,1.19,5.82,3,5,4.37Z" transform="translate(-6.53 -59.25)" fill="#c1c3c5" opacity="0.93"/><path d="M25.58,111.88a1.68,1.68,0,0,1-2.75.22l-6.56-3.93c-1.89-1.18-4.19-2.58-3.36-3.92l5.45-3.93c0.84-1.34,1-2.4,2.93-1.22l8.79,3.31c1.89,1.18,5.91,2.88,5.07,4.22Z" transform="translate(-6.53 -59.25)" fill="#c0c2c4" opacity="0.94"/><path d="M25.53,111.65a1.65,1.65,0,0,1-2.71.22L16.36,108c-1.87-1.16-4.19-2.53-3.37-3.86l5.42-3.69c0.83-1.33,1.08-2.42,3-1.26L30,102.38c1.87,1.16,6,2.75,5.17,4.07Z" transform="translate(-6.53 -59.25)" fill="#bfc1c3" opacity="0.96"/><path d="M25.48,111.41a1.62,1.62,0,0,1-2.66.22l-6.36-3.89c-1.85-1.15-4.2-2.47-3.38-3.79l5.4-3.45c0.82-1.31,1.13-2.44,3-1.29l8.4,3.14c1.85,1.15,6.08,2.61,5.26,3.93Z" transform="translate(-6.53 -59.25)" fill="#bec0c2" opacity="0.97"/><path d="M25.44,111.18a1.6,1.6,0,0,1-2.61.22l-6.26-3.86c-1.83-1.14-4.2-2.42-3.39-3.72l5.37-3.21c0.81-1.3,1.18-2.46,3-1.32l8.2,3.06c1.83,1.14,6.16,2.48,5.35,3.78Z" transform="translate(-6.53 -59.25)" fill="#bdbfc1" opacity="0.99"/><path d="M25.39,110.94a1.57,1.57,0,0,1-2.56.23l-6.16-3.84c-1.81-1.13-4.21-2.37-3.41-3.65l5.34-3c0.8-1.28,1.23-2.48,3-1.35l8,3c1.81,1.13,6.25,2.35,5.45,3.63Z" transform="translate(-6.53 -59.25)" fill="#b3b3b3"/></g><polygon points="28.8 33.36 17.12 26.57 5.4 33.3 17.09 40.09 28.8 33.36" fill="#fafafa"/><polygon points="17.09 40.09 17.05 53.6 28.77 46.87 28.8 33.36 17.09 40.09" fill="#b3b3b3"/><polygon points="5.4 33.3 5.37 46.81 17.05 53.6 17.09 40.09 5.4 33.3" fill="#e6e6e6"/><path d="M55.25,80.83a2.85,2.85,0,0,0,2.8,1.94c2.57-.27,3.31-2.33,8.32-1.48,3.92,1.77,6.57,3.17,8.16,5.11" transform="translate(-6.53 -59.25)" fill="none" stroke="#231f20" stroke-miterlimit="10" stroke-width="0.14"/><g style="mix-blend-mode:multiply"><path d="M119.55,132.43c-1.39,2.24-2.62,2-5.78.06l-13-5.36c-3.15-2-4-6.06-2.57-8.29l7.32-19.2c1.39-2.24-2-1.11,1.11.85L128,109.26c3.15,2,.49,11.44-0.9,13.68Z" transform="translate(-6.53 -59.25)" fill="#fff" opacity="0"/><path d="M119.51,132.19c-1.38,2.22-2.62,2-5.73.06l-12.86-5.33c-3.13-2-4-6-2.58-8.23l7.29-19c1.38-2.22-2-1.13,1.14.82l21.11,8.7c3.13,2,.57,11.3-0.81,13.53Z" transform="translate(-6.53 -59.25)" fill="#fefefe" opacity="0.01"/><path d="M119.46,132c-1.38,2.21-2.61,2-5.68.06L101,126.71c-3.11-1.94-4-5.95-2.59-8.16l7.26-18.73c1.38-2.21-1.95-1.15,1.17.78l20.92,8.61c3.11,1.94.66,11.17-.71,13.38Z" transform="translate(-6.53 -59.25)" fill="#fdfdfd" opacity="0.03"/><path d="M119.41,131.72c-1.37,2.2-2.6,2-5.64.07l-12.66-5.29c-3.09-1.93-4-5.89-2.6-8.09l7.24-18.49c1.37-2.2-1.9-1.17,1.2.75l20.72,8.52c3.09,1.93.74,11-.62,13.23Z" transform="translate(-6.53 -59.25)" fill="#fcfcfc" opacity="0.04"/><path d="M119.37,131.49c-1.36,2.18-2.59,1.95-5.59.07l-12.56-5.27c-3.07-1.91-4-5.84-2.61-8L105.81,100c1.36-2.18-1.85-1.19,1.22.72l20.53,8.44c3.07,1.91.83,10.9-.53,13.09Z" transform="translate(-6.53 -59.25)" fill="#fbfbfb" opacity="0.06"/><path d="M119.32,131.25c-1.35,2.17-2.58,1.93-5.54.07l-12.46-5.24c-3.05-1.9-4-5.79-2.63-8l7.18-18c1.35-2.17-1.8-1.21,1.25.69l20.33,8.35c3.05,1.9.91,10.77-.44,12.94Z" transform="translate(-6.53 -59.25)" fill="#fafafa" opacity="0.07"/><path d="M119.28,131c-1.34,2.15-2.58,1.91-5.49.07l-12.36-5.22c-3-1.89-4-5.73-2.64-7.88l7.15-17.77c1.34-2.15-1.75-1.23,1.28.65l20.13,8.27c3,1.89,1,10.64-.34,12.79Z" transform="translate(-6.53 -59.25)" fill="#f9f9f9" opacity="0.09"/><path d="M119.23,130.79c-1.33,2.14-2.57,1.89-5.45.08l-12.26-5.2c-3-1.88-4-5.68-2.65-7.81L106,100.32c1.33-2.14-1.71-1.25,1.31.62l19.94,8.18c3,1.88,1.08,10.5-.25,12.64Z" transform="translate(-6.53 -59.25)" fill="#f8f8f9" opacity="0.1"/><path d="M119.18,130.55c-1.32,2.13-2.56,1.87-5.4.08l-12.16-5.18c-3-1.87-4-5.62-2.66-7.75L106,100.41c1.32-2.12-1.66-1.27,1.34.59l19.74,8.1c3,1.86,1.17,10.37-.16,12.49Z" transform="translate(-6.53 -59.25)" fill="#f7f7f8" opacity="0.12"/><path d="M119.14,130.32c-1.32,2.11-2.55,1.85-5.35.08l-12.06-5.15c-3-1.85-4-5.57-2.68-7.68l7.06-17.06c1.32-2.11-1.61-1.29,1.37.56l19.54,8c3,1.85,1.25,10.24-.06,12.35Z" transform="translate(-6.53 -59.25)" fill="#f6f6f7" opacity="0.13"/><path d="M119.09,130.08c-1.31,2.1-2.54,1.83-5.3.08l-12-5.13c-3-1.84-4-5.51-2.69-7.61l7-16.82c1.31-2.1-1.56-1.31,1.39.53l19.35,7.93c3,1.84,1.34,10.1,0,12.2Z" transform="translate(-6.53 -59.25)" fill="#f5f5f6" opacity="0.15"/><path d="M119,129.85c-1.3,2.08-2.53,1.81-5.26.09l-11.86-5.11c-2.94-1.83-4-5.46-2.7-7.54l7-16.58c1.3-2.08-1.51-1.33,1.42.49L126.8,109c2.93,1.83,1.42,10,.12,12.05Z" transform="translate(-6.53 -59.25)" fill="#f4f4f5" opacity="0.16"/><path d="M119,129.61c-1.29,2.07-2.53,1.79-5.21.09L102,124.62c-2.92-1.82-4-5.41-2.71-7.47l7-16.34c1.29-2.07-1.46-1.35,1.45.46l19,7.76c2.92,1.82,1.51,9.83.22,11.9Z" transform="translate(-6.53 -59.25)" fill="#f3f4f4" opacity="0.18"/><path d="M119,129.38c-1.28,2.05-2.52,1.78-5.16.09l-11.66-5.06c-2.9-1.8-4-5.35-2.72-7.4l6.94-16.1c1.28-2.05-1.42-1.37,1.48.43L126.59,109c2.9,1.8,1.59,9.7.31,11.75Z" transform="translate(-6.53 -59.25)" fill="#f2f3f3" opacity="0.19"/><path d="M118.9,129.14c-1.27,2-2.51,1.76-5.11.09l-11.56-5c-2.88-1.79-4-5.3-2.74-7.34L106.41,101c1.27-2-1.37-1.39,1.51.4L126.48,109c2.87,1.79,1.67,9.57.4,11.61Z" transform="translate(-6.53 -59.25)" fill="#f1f2f2" opacity="0.21"/><path d="M118.86,128.91c-1.26,2-2.5,1.74-5.07.1l-11.46-5c-2.86-1.78-4-5.24-2.75-7.27l6.88-15.62c1.26-2-1.32-1.41,1.54.36l18.37,7.5c2.86,1.78,1.76,9.43.5,11.46Z" transform="translate(-6.53 -59.25)" fill="#f0f1f1" opacity="0.22"/><path d="M118.81,128.68c-1.25,2-2.49,1.72-5,.1l-11.36-5c-2.84-1.77-4-5.19-2.76-7.2l6.85-15.38c1.25-2-1.27-1.43,1.56.33l18.17,7.41c2.84,1.77,1.84,9.3.59,11.31Z" transform="translate(-6.53 -59.25)" fill="#eff0f0" opacity="0.24"/><path d="M118.77,128.44c-1.24,2-2.48,1.7-5,.1l-11.26-5c-2.82-1.75-4-5.13-2.77-7.13l6.82-15.15c1.24-2-1.22-1.45,1.59.3l18,7.33c2.82,1.75,1.93,9.16.68,11.16Z" transform="translate(-6.53 -59.25)" fill="#eeefef" opacity="0.25"/><path d="M118.72,128.21c-1.24,2-2.47,1.68-4.93.1l-11.16-5c-2.8-1.74-4-5.08-2.79-7.06l6.79-14.91c1.24-2-1.18-1.47,1.62.27L126,108.9c2.8,1.74,2,9,.78,11Z" transform="translate(-6.53 -59.25)" fill="#edeeee" opacity="0.26"/><path d="M118.67,128c-1.23,2-2.47,1.66-4.88.11l-11.06-4.93c-2.78-1.73-4-5-2.8-7l6.77-14.67c1.23-2-1.13-1.5,1.65.23l17.59,7.16c2.78,1.73,2.1,8.9.87,10.87Z" transform="translate(-6.53 -59.25)" fill="#eceded" opacity="0.28"/><path d="M118.63,127.74c-1.22,2-2.46,1.64-4.83.11l-11-4.91c-2.76-1.72-4-5-2.81-6.93l6.74-14.43c1.22-2-1.08-1.51,1.68.2l17.39,7.07c2.76,1.72,2.18,8.76,1,10.72Z" transform="translate(-6.53 -59.25)" fill="#ebecec" opacity="0.29"/><path d="M118.58,127.5c-1.21,1.94-2.45,1.63-4.79.11l-10.86-4.88c-2.74-1.71-4-4.92-2.82-6.86l6.71-14.19c1.21-1.94-1-1.53,1.71.17l17.19,7c2.74,1.71,2.26,8.63,1.05,10.57Z" transform="translate(-6.53 -59.25)" fill="#eaebec" opacity="0.31"/><path d="M118.54,127.27c-1.2,1.93-2.44,1.61-4.74.11L103,122.52c-2.72-1.69-4-4.86-2.83-6.79l6.68-14c1.2-1.93-1-1.55,1.73.14l17,6.9c2.72,1.69,2.35,8.5,1.15,10.42Z" transform="translate(-6.53 -59.25)" fill="#e9eaeb" opacity="0.32"/><path d="M118.49,127c-1.19,1.92-2.43,1.59-4.69.12l-10.66-4.84c-2.7-1.68-4-4.81-2.85-6.72l6.65-13.71c1.19-1.91-.94-1.57,1.76.11l16.8,6.81c2.7,1.68,2.43,8.36,1.24,10.28Z" transform="translate(-6.53 -59.25)" fill="#e8e9ea" opacity="0.34"/><path d="M118.44,126.8c-1.18,1.9-2.42,1.57-4.64.12l-10.56-4.82c-2.68-1.67-4-4.75-2.86-6.65L107,102c1.18-1.9-.89-1.59,1.79.07l16.61,6.73c2.68,1.67,2.52,8.23,1.34,10.13Z" transform="translate(-6.53 -59.25)" fill="#e7e8e9" opacity="0.35"/><path d="M118.4,126.57c-1.18,1.89-2.42,1.55-4.59.12l-10.46-4.8c-2.66-1.66-4-4.7-2.87-6.58l6.59-13.24c1.18-1.89-.84-1.61,1.82,0l16.41,6.64c2.66,1.66,2.6,8.09,1.43,10Z" transform="translate(-6.53 -59.25)" fill="#e6e7e8" opacity="0.37"/><path d="M118.35,126.33c-1.17,1.87-2.41,1.53-4.55.12l-10.36-4.77c-2.64-1.64-4-4.64-2.88-6.52l6.56-13c1.17-1.87-.79-1.63,1.85,0l16.21,6.56c2.64,1.64,2.69,8,1.52,9.83Z" transform="translate(-6.53 -59.25)" fill="#e5e6e7" opacity="0.38"/><path d="M118.3,126.1c-1.16,1.86-2.4,1.51-4.5.13l-10.26-4.75c-2.62-1.63-4.05-4.59-2.89-6.45l6.53-12.76c1.16-1.86-.74-1.66,1.87,0l16,6.47c2.62,1.63,2.77,7.83,1.61,9.69Z" transform="translate(-6.53 -59.25)" fill="#e4e5e6" opacity="0.4"/><path d="M118.26,125.86c-1.15,1.85-2.39,1.49-4.45.13l-10.16-4.73c-2.6-1.62-4.05-4.54-2.91-6.38l6.5-12.52c1.15-1.84-.7-1.68,1.9-0.06L125,108.69c2.6,1.62,2.86,7.69,1.71,9.54Z" transform="translate(-6.53 -59.25)" fill="#e3e4e5" opacity="0.41"/><path d="M118.21,125.63c-1.14,1.83-2.38,1.48-4.4.13l-10.06-4.71c-2.58-1.61-4.06-4.48-2.92-6.31l6.47-12.28c1.14-1.83-.65-1.7,1.93-0.09l15.63,6.3c2.58,1.61,2.94,7.56,1.8,9.39Z" transform="translate(-6.53 -59.25)" fill="#e2e3e4" opacity="0.43"/><path d="M118.17,125.39c-1.13,1.82-2.37,1.46-4.36.13l-10-4.68c-2.56-1.59-4.06-4.43-2.93-6.24l6.44-12c1.13-1.82-.6-1.71,2-0.12l15.43,6.22c2.56,1.59,3,7.42,1.89,9.24Z" transform="translate(-6.53 -59.25)" fill="#e1e2e3" opacity="0.44"/><path d="M118.12,125.16c-1.12,1.8-2.37,1.44-4.31.14L104,120.63c-2.54-1.58-4.07-4.37-2.95-6.17l6.41-11.8c1.12-1.8-.55-1.73,2-0.15l15.23,6.13c2.54,1.58,3.11,7.29,2,9.09Z" transform="translate(-6.53 -59.25)" fill="#e0e1e2" opacity="0.46"/><path d="M118.07,124.92c-1.11,1.79-2.36,1.42-4.26.14l-9.76-4.64c-2.52-1.57-4.07-4.32-3-6.11l6.38-11.56c1.11-1.79-.5-1.75,2-0.19l15,6c2.52,1.57,3.19,7.16,2.08,8.95Z" transform="translate(-6.53 -59.25)" fill="#dfe0e1" opacity="0.47"/><path d="M118,124.69c-1.1,1.78-2.35,1.4-4.21.14l-9.65-4.62c-2.5-1.56-4.07-4.26-3-6l6.35-11.33c1.1-1.77-.46-1.77,2-0.22l14.84,6c2.5,1.56,3.28,7,2.17,8.8Z" transform="translate(-6.53 -59.25)" fill="#dedfe0" opacity="0.49"/><path d="M118,124.46c-1.1,1.76-2.34,1.38-4.17.14L104.26,120c-2.48-1.54-4.08-4.21-3-6l6.32-11.09c1.1-1.76-.41-1.79,2.07-0.25l14.65,5.87c2.48,1.54,3.36,6.89,2.27,8.65Z" transform="translate(-6.53 -59.25)" fill="#dddee0" opacity="0.5"/><path d="M117.93,124.22c-1.09,1.75-2.33,1.36-4.12.15l-9.46-4.57c-2.46-1.53-4.08-4.15-3-5.9L107.66,103c1.09-1.75-.36-1.81,2.1-0.28l14.45,5.79c2.46,1.53,3.45,6.76,2.36,8.5Z" transform="translate(-6.53 -59.25)" fill="#dcdddf" opacity="0.51"/><path d="M117.89,124c-1.08,1.73-2.32,1.34-4.07.15l-9.36-4.55c-2.44-1.52-4.08-4.1-3-5.83l6.27-10.61c1.08-1.73-.31-1.83,2.13-0.32l14.26,5.7c2.44,1.52,3.53,6.62,2.45,8.35Z" transform="translate(-6.53 -59.25)" fill="#dbddde" opacity="0.53"/><path d="M117.84,123.75c-1.07,1.72-2.31,1.32-4,.15l-9.26-4.53c-2.42-1.51-4.09-4-3-5.76l6.24-10.37c1.07-1.72-.27-1.86,2.16-0.35L124,108.51c2.42,1.51,3.62,6.49,2.54,8.21Z" transform="translate(-6.53 -59.25)" fill="#dbdcdd" opacity="0.54"/><path d="M117.79,123.52c-1.06,1.7-2.31,1.31-4,.15l-9.15-4.5c-2.4-1.5-4.09-4-3-5.69l6.21-10.13c1.06-1.7-.21-1.87,2.19-0.38l13.87,5.53c2.4,1.5,3.7,6.35,2.64,8.06Z" transform="translate(-6.53 -59.25)" fill="#dadbdc" opacity="0.56"/><path d="M117.75,123.28c-1.05,1.69-2.3,1.29-3.93.16L104.76,119c-2.38-1.48-4.09-3.94-3-5.63l6.18-9.89c1.05-1.69-.17-1.9,2.21-0.41l13.67,5.45c2.38,1.48,3.79,6.22,2.73,7.91Z" transform="translate(-6.53 -59.25)" fill="#d9dadb" opacity="0.57"/><path d="M117.7,123c-1,1.68-2.29,1.27-3.88.16l-9-4.46c-2.36-1.47-4.1-3.88-3.05-5.56l6.15-9.65c1-1.68-.12-1.91,2.24-0.44l13.47,5.36c2.36,1.47,3.87,6.09,2.83,7.76Z" transform="translate(-6.53 -59.25)" fill="#d8d9da" opacity="0.59"/><path d="M117.66,122.81c-1,1.66-2.28,1.25-3.84.16L105,118.54c-2.34-1.46-4.1-3.83-3.07-5.49l6.12-9.42c1-1.66-.07-1.94,2.27-0.48l13.28,5.27c2.34,1.46,4,6,2.92,7.61Z" transform="translate(-6.53 -59.25)" fill="#d7d8d9" opacity="0.6"/><path d="M117.61,122.58c-1,1.65-2.27,1.23-3.79.16l-8.75-4.41c-2.32-1.45-4.11-3.77-3.08-5.42l6.09-9.18c1-1.65,0-2,2.3-.51l13.08,5.19c2.32,1.45,4,5.82,3,7.47Z" transform="translate(-6.53 -59.25)" fill="#d6d7d8" opacity="0.62"/><path d="M117.56,122.35c-1,1.63-2.27,1.21-3.74.17l-8.65-4.39c-2.3-1.43-4.11-3.72-3.09-5.35l6.06-8.94c1-1.63,0-2,2.33-.54l12.88,5.1c2.3,1.43,4.12,5.69,3.11,7.32Z" transform="translate(-6.53 -59.25)" fill="#d5d6d7" opacity="0.63"/><path d="M117.52,122.11c-1,1.62-2.26,1.19-3.7.17l-8.55-4.37c-2.28-1.42-4.11-3.66-3.1-5.28l6-8.7c1-1.62.07-2,2.35-.57l12.69,5c2.28,1.42,4.21,5.55,3.2,7.17Z" transform="translate(-6.53 -59.25)" fill="#d4d5d6" opacity="0.65"/><path d="M117.47,121.88c-1,1.61-2.25,1.17-3.65.17l-8.45-4.35c-2.26-1.41-4.12-3.61-3.12-5.22l6-8.46c1-1.61.12-2,2.38-.61l12.49,4.93c2.26,1.41,4.29,5.42,3.29,7Z" transform="translate(-6.53 -59.25)" fill="#d3d4d5" opacity="0.66"/><path d="M117.43,121.64c-1,1.59-2.24,1.16-3.6.17l-8.35-4.33c-2.24-1.4-4.12-3.56-3.13-5.15l6-8.22c1-1.59.17-2,2.41-.64l12.3,4.85c2.24,1.4,4.38,5.28,3.38,6.88Z" transform="translate(-6.53 -59.25)" fill="#d2d3d4" opacity="0.68"/><path d="M117.38,121.41c-1,1.58-2.23,1.14-3.55.18l-8.25-4.3c-2.22-1.39-4.12-3.5-3.14-5.08l5.94-8c1-1.58.21-2.06,2.44-.67l12.1,4.76c2.22,1.38,4.46,5.15,3.48,6.73Z" transform="translate(-6.53 -59.25)" fill="#d1d2d3" opacity="0.69"/><path d="M117.33,121.17c-1,1.56-2.22,1.12-3.5.18l-8.15-4.28c-2.2-1.37-4.13-3.45-3.15-5l5.91-7.74c1-1.56.26-2.08,2.47-.7l11.91,4.68c2.2,1.37,4.54,5,3.57,6.58Z" transform="translate(-6.53 -59.25)" fill="#d0d1d3" opacity="0.71"/><path d="M117.29,120.94c-1,1.55-2.21,1.1-3.46.18l-8.05-4.26c-2.18-1.36-4.13-3.39-3.16-4.94l5.88-7.51c1-1.55.31-2.1,2.49-.74l11.71,4.59c2.18,1.36,4.63,4.88,3.66,6.43Z" transform="translate(-6.53 -59.25)" fill="#cfd0d2" opacity="0.72"/><path d="M117.24,120.7c-1,1.54-2.2,1.08-3.41.18l-8-4.24c-2.16-1.35-4.13-3.34-3.18-4.87l5.85-7.27c1-1.54.36-2.11,2.52-.77l11.51,4.5c2.16,1.35,4.71,4.75,3.76,6.28Z" transform="translate(-6.53 -59.25)" fill="#cecfd1" opacity="0.74"/><path d="M117.19,120.47c-0.95,1.52-2.2,1.06-3.36.19L106,116.44c-2.14-1.34-4.13-3.29-3.19-4.81l5.82-7c0.95-1.52.41-2.14,2.55-.8l11.32,4.42c2.14,1.33,4.8,4.62,3.85,6.14Z" transform="translate(-6.53 -59.25)" fill="#cdced0" opacity="0.75"/><path d="M117.15,120.24c-0.94,1.51-2.19,1-3.32.19l-7.75-4.19c-2.12-1.32-4.14-3.23-3.2-4.74l5.79-6.79c0.94-1.51.46-2.16,2.58-.83l11.12,4.33c2.12,1.32,4.88,4.48,3.94,6Z" transform="translate(-6.53 -59.25)" fill="#cccdcf" opacity="0.76"/><path d="M117.1,120c-0.93,1.49-2.18,1-3.27.19L106.18,116c-2.1-1.31-4.14-3.18-3.21-4.67l5.77-6.55c0.93-1.49.5-2.17,2.61-.87l10.92,4.25c2.1,1.31,5,4.35,4,5.84Z" transform="translate(-6.53 -59.25)" fill="#cbccce" opacity="0.78"/><path d="M117.05,119.77c-0.92,1.48-2.17,1-3.22.19l-7.55-4.15c-2.08-1.3-4.15-3.12-3.22-4.6l5.73-6.31c0.92-1.48.55-2.2,2.64-.9l10.73,4.16c2.08,1.3,5.05,4.21,4.13,5.69Z" transform="translate(-6.53 -59.25)" fill="#cacbcd" opacity="0.79"/><path d="M117,119.53c-0.91,1.47-2.16,1-3.17.19l-7.45-4.12c-2.06-1.29-4.15-3.07-3.24-4.53l5.71-6.07c0.91-1.46.6-2.21,2.67-.93l10.53,4.08c2.06,1.29,5.13,4.08,4.22,5.54Z" transform="translate(-6.53 -59.25)" fill="#c9cacc" opacity="0.81"/><path d="M117,119.3c-0.9,1.45-2.16,1-3.13.2l-7.35-4.1c-2-1.27-4.15-3-3.25-4.46l5.68-5.83c0.9-1.45.65-2.24,2.69-1l10.34,4c2,1.27,5.22,3.95,4.32,5.4Z" transform="translate(-6.53 -59.25)" fill="#c8c9cb" opacity="0.82"/><path d="M116.92,119.06c-0.89,1.44-2.15.95-3.08,0.2l-7.25-4.08c-2-1.26-4.16-3-3.26-4.39l5.65-5.6c0.89-1.44.7-2.26,2.72-1l10.14,3.91c2,1.26,5.3,3.81,4.41,5.25Z" transform="translate(-6.53 -59.25)" fill="#c7c8ca" opacity="0.84"/><path d="M116.87,118.83c-0.88,1.42-2.14.93-3,.2L106.69,115c-2-1.25-4.16-2.9-3.28-4.33l5.62-5.36c0.88-1.42.74-2.27,2.75-1l9.95,3.82c2,1.25,5.39,3.68,4.5,5.1Z" transform="translate(-6.53 -59.25)" fill="#c6c7c9" opacity="0.85"/><path d="M116.82,118.59c-0.88,1.41-2.13.91-3,.21l-7.05-4c-2-1.24-4.16-2.85-3.29-4.26l5.59-5.12c0.88-1.41.79-2.29,2.78-1.06l9.75,3.73c2,1.24,5.47,3.55,4.6,5Z" transform="translate(-6.53 -59.25)" fill="#c5c6c8" opacity="0.87"/><path d="M116.78,118.36c-0.87,1.4-2.12.89-2.94,0.21l-6.95-4c-2-1.23-4.17-2.8-3.3-4.19l5.56-4.88c0.87-1.39.84-2.32,2.81-1.09l9.55,3.65c2,1.22,5.56,3.41,4.69,4.81Z" transform="translate(-6.53 -59.25)" fill="#c4c6c7" opacity="0.88"/><path d="M116.73,118.13c-0.86,1.38-2.11.87-2.89,0.21l-6.85-4c-1.94-1.21-4.17-2.74-3.31-4.12l5.53-4.64c0.86-1.38.89-2.33,2.84-1.12L121.4,108c1.95,1.21,5.64,3.28,4.78,4.66Z" transform="translate(-6.53 -59.25)" fill="#c3c5c7" opacity="0.9"/><path d="M116.69,117.89c-0.85,1.37-2.11.85-2.84,0.21l-6.75-4c-1.92-1.2-4.18-2.69-3.32-4.05l5.5-4.4c0.85-1.37.94-2.36,2.86-1.16L121.3,108c1.93,1.2,5.73,3.14,4.87,4.51Z" transform="translate(-6.53 -59.25)" fill="#c2c4c6" opacity="0.91"/><path d="M116.64,117.66c-0.84,1.35-2.1.84-2.79,0.21l-6.65-3.94c-1.9-1.19-4.18-2.63-3.34-4l5.47-4.16c0.84-1.35,1-2.37,2.89-1.19l9,3.39c1.9,1.19,5.81,3,5,4.36Z" transform="translate(-6.53 -59.25)" fill="#c1c3c5" opacity="0.93"/><path d="M116.59,117.42a1.67,1.67,0,0,1-2.75.22l-6.55-3.92c-1.88-1.18-4.18-2.58-3.35-3.92l5.44-3.92c0.83-1.34,1-2.4,2.92-1.22l8.77,3.31c1.89,1.18,5.9,2.88,5.06,4.21Z" transform="translate(-6.53 -59.25)" fill="#c0c2c4" opacity="0.94"/><path d="M116.55,117.19a1.65,1.65,0,0,1-2.7.22l-6.45-3.9c-1.87-1.16-4.19-2.52-3.36-3.85l5.41-3.69c0.82-1.32,1.08-2.42,2.95-1.25l8.57,3.22c1.87,1.16,6,2.74,5.16,4.07Z" transform="translate(-6.53 -59.25)" fill="#bfc1c3" opacity="0.96"/><path d="M116.5,117a1.62,1.62,0,0,1-2.65.22l-6.35-3.88c-1.85-1.15-4.19-2.47-3.37-3.78l5.38-3.45c0.81-1.31,1.13-2.44,3-1.29l8.38,3.14c1.85,1.15,6.06,2.61,5.25,3.92Z" transform="translate(-6.53 -59.25)" fill="#bec0c2" opacity="0.97"/><path d="M116.45,116.72a1.59,1.59,0,0,1-2.61.22l-6.25-3.86c-1.82-1.14-4.19-2.42-3.38-3.71l5.35-3.21c0.8-1.3,1.18-2.45,3-1.32l8.18,3.05c1.83,1.14,6.15,2.48,5.34,3.77Z" transform="translate(-6.53 -59.25)" fill="#bdbfc1" opacity="0.99"/><path d="M116.41,116.48a1.56,1.56,0,0,1-2.56.23l-6.15-3.83c-1.8-1.13-4.2-2.36-3.4-3.64l5.32-3c0.8-1.28,1.22-2.48,3-1.35l8,3c1.81,1.13,6.23,2.34,5.44,3.62Z" transform="translate(-6.53 -59.25)" fill="#b3b3b3"/></g><path d="M29.75,102.66A13,13,0,0,0,37.85,104c9.75-1.36,9.06-10.41,16.85-12.33,3.88-.72,4-0.24,4-0.24" transform="translate(-6.53 -59.25)" fill="none" stroke="#231f20" stroke-miterlimit="10" stroke-width="0.2"/><polygon points="119.8 38.94 108.14 32.17 96.45 38.88 108.11 45.65 119.8 38.94" fill="#fafafa"/><polygon points="108.11 45.65 108.08 59.14 119.77 52.42 119.8 38.94 108.11 45.65" fill="#b3b3b3"/><polygon points="96.45 38.88 96.41 52.36 108.08 59.14 108.11 45.65 96.45 38.88" fill="#e6e6e6"/><g style="mix-blend-mode:multiply"><path d="M79.65,129.31c-1.78,2.86-3.35,2.58-7.38.07L55.7,122.54c-4-2.51-5.06-7.74-3.28-10.6L61.78,87.4c1.78-2.86-2.61-1.42,1.42,1.09L90.43,99.71c4,2.51.63,14.62-1.15,17.48Z" transform="translate(-6.53 -59.25)" fill="#fff" opacity="0"/><path d="M79.59,129c-1.77,2.84-3.34,2.56-7.32.08l-16.44-6.82c-4-2.49-5.06-7.67-3.29-10.51l9.32-24.24c1.77-2.84-2.55-1.45,1.45,1l27,11.11c4,2.49.74,14.45-1,17.29Z" transform="translate(-6.53 -59.25)" fill="#fefefe" opacity="0.01"/><path d="M79.53,128.71c-1.76,2.82-3.33,2.53-7.26.08L56,122c-4-2.48-5.07-7.6-3.31-10.42l9.28-23.93c1.76-2.82-2.49-1.48,1.49,1l26.73,11c4,2.48.85,14.28-.91,17.1Z" transform="translate(-6.53 -59.25)" fill="#fdfdfd" opacity="0.03"/><path d="M79.47,128.41c-1.75,2.81-3.32,2.51-7.2.08l-16.18-6.76c-4-2.46-5.07-7.53-3.32-10.33L62,87.77c1.75-2.81-2.43-1.5,1.53,1L90,99.63c4,2.46,1,14.11-.79,16.91Z" transform="translate(-6.53 -59.25)" fill="#fcfcfc" opacity="0.04"/><path d="M79.41,128.11c-1.74,2.79-3.31,2.49-7.14.09l-16.05-6.73c-3.93-2.44-5.08-7.46-3.34-10.25L62.09,87.9c1.74-2.79-2.37-1.53,1.56.92L89.88,99.6c3.92,2.45,1.06,13.93-.68,16.72Z" transform="translate(-6.53 -59.25)" fill="#fbfbfb" opacity="0.06"/><path d="M79.35,127.81c-1.73,2.77-3.3,2.46-7.08.09l-15.93-6.7c-3.9-2.43-5.08-7.39-3.36-10.16l9.17-23c1.73-2.77-2.3-1.55,1.6.88l26,10.68c3.9,2.43,1.17,13.76-.56,16.53Z" transform="translate(-6.53 -59.25)" fill="#fafafa" opacity="0.07"/><path d="M79.29,127.51c-1.71,2.75-3.29,2.44-7,.09l-15.8-6.67c-3.88-2.41-5.08-7.32-3.37-10.07l9.13-22.71C64,85.39,60,86.57,63.87,89L89.61,99.55c3.87,2.41,1.28,13.59-.44,16.34Z" transform="translate(-6.53 -59.25)" fill="#f9f9f9" opacity="0.09"/><path d="M79.23,127.21c-1.7,2.73-3.28,2.41-7,.1l-15.67-6.65c-3.85-2.4-5.09-7.25-3.39-10l9.1-22.41c1.7-2.73-2.18-1.6,1.67.8L89.47,99.52c3.85,2.4,1.38,13.42-.32,16.15Z" transform="translate(-6.53 -59.25)" fill="#f8f8f9" opacity="0.1"/><path d="M79.18,126.91c-1.69,2.71-3.27,2.39-6.9.1l-15.54-6.62c-3.83-2.38-5.09-7.18-3.4-9.9l9.06-22.1c1.69-2.72-2.12-1.63,1.71.76L89.33,99.5c3.82,2.38,1.49,13.25-.2,16Z" transform="translate(-6.53 -59.25)" fill="#f7f7f8" opacity="0.12"/><path d="M79.12,126.61c-1.68,2.7-3.26,2.36-6.84.1l-15.41-6.59c-3.8-2.37-5.1-7.11-3.42-9.81l9-21.8c1.68-2.7-2.06-1.65,1.74.71l25,10.24c3.8,2.37,1.6,13.08-.08,15.78Z" transform="translate(-6.53 -59.25)" fill="#f6f6f7" opacity="0.13"/><path d="M79.06,126.31c-1.67,2.68-3.25,2.34-6.78.11L57,119.86c-3.78-2.35-5.1-7-3.43-9.72l9-21.49c1.67-2.68-2-1.68,1.78.67L89.05,99.45c3.77,2.35,1.71,12.91,0,15.59Z" transform="translate(-6.53 -59.25)" fill="#f5f5f6" opacity="0.15"/><path d="M79,126c-1.66,2.66-3.24,2.32-6.72.11l-15.16-6.53c-3.75-2.33-5.11-7-3.45-9.63l8.95-21.19c1.66-2.66-1.94-1.71,1.82.63l24.48,10c3.75,2.34,1.82,12.74.16,15.4Z" transform="translate(-6.53 -59.25)" fill="#f4f4f5" opacity="0.16"/><path d="M78.94,125.71c-1.65,2.64-3.23,2.29-6.66.11l-15-6.5c-3.73-2.32-5.11-6.9-3.47-9.55L62.7,88.89c1.65-2.64-1.87-1.73,1.85.59l24.23,9.91c3.72,2.32,1.92,12.57.28,15.21Z" transform="translate(-6.53 -59.25)" fill="#f3f4f4" opacity="0.18"/><path d="M78.88,125.41c-1.64,2.63-3.21,2.27-6.6.12l-14.9-6.47c-3.7-2.3-5.12-6.84-3.48-9.46L62.77,89c1.64-2.63-1.81-1.76,1.89.55l24,9.8c3.7,2.3,2,12.4.4,15Z" transform="translate(-6.53 -59.25)" fill="#f2f3f3" opacity="0.19"/><path d="M78.82,125.11c-1.62,2.61-3.2,2.24-6.54.12l-14.77-6.45c-3.67-2.29-5.12-6.77-3.5-9.37l8.83-20.27c1.62-2.61-1.75-1.78,1.92.51L88.5,99.34c3.67,2.29,2.14,12.22.51,14.83Z" transform="translate(-6.53 -59.25)" fill="#f1f2f2" opacity="0.21"/><path d="M78.76,124.81c-1.61,2.59-3.19,2.22-6.48.12l-14.64-6.42c-3.65-2.27-5.12-6.7-3.51-9.29l8.8-20c1.61-2.59-1.69-1.81,2,.47l23.48,9.58C92,101.59,90.61,111.37,89,114Z" transform="translate(-6.53 -59.25)" fill="#f0f1f1" opacity="0.22"/><path d="M78.7,124.51c-1.6,2.57-3.18,2.2-6.42.13l-14.52-6.39c-3.62-2.26-5.13-6.63-3.53-9.2L63,89.39c1.6-2.57-1.63-1.83,2,.42l23.23,9.47c3.62,2.26,2.36,11.88.75,14.45Z" transform="translate(-6.53 -59.25)" fill="#eff0f0" opacity="0.24"/><path d="M78.64,124.21c-1.59,2.55-3.17,2.17-6.36.13L57.9,118c-3.6-2.24-5.13-6.56-3.54-9.11l8.72-19.36c1.59-2.55-1.57-1.86,2,.38l23,9.36c3.6,2.24,2.46,11.71.87,14.27Z" transform="translate(-6.53 -59.25)" fill="#eeefef" opacity="0.25"/><path d="M78.58,123.91c-1.58,2.54-3.16,2.15-6.29.13L58,117.71c-3.57-2.22-5.14-6.49-3.56-9l8.68-19.05c1.58-2.54-1.51-1.88,2.07.34l22.73,9.25c3.57,2.22,2.57,11.54,1,14.08Z" transform="translate(-6.53 -59.25)" fill="#edeeee" opacity="0.26"/><path d="M78.53,123.61c-1.57,2.52-3.15,2.12-6.23.13l-14.13-6.3c-3.55-2.21-5.14-6.42-3.57-8.94l8.65-18.75c1.57-2.52-1.44-1.91,2.1.3l22.48,9.15c3.54,2.21,2.68,11.37,1.11,13.89Z" transform="translate(-6.53 -59.25)" fill="#eceded" opacity="0.28"/><path d="M78.47,123.31c-1.56,2.5-3.14,2.1-6.17.14l-14-6.27c-3.52-2.19-5.15-6.35-3.59-8.85l8.61-18.44c1.56-2.5-1.38-1.94,2.14.26l22.23,9c3.52,2.19,2.79,11.2,1.23,13.7Z" transform="translate(-6.53 -59.25)" fill="#ebecec" opacity="0.29"/><path d="M78.41,123c-1.55,2.48-3.13,2.08-6.11.14l-13.88-6.25c-3.5-2.18-5.15-6.28-3.61-8.76L63.38,90c1.55-2.48-1.32-2,2.18.22l22,8.93c3.5,2.18,2.89,11,1.35,13.51Z" transform="translate(-6.53 -59.25)" fill="#eaebec" opacity="0.31"/><path d="M78.35,122.72c-1.53,2.46-3.12,2.05-6.05.14l-13.75-6.22c-3.47-2.16-5.16-6.21-3.62-8.67l8.53-17.83c1.53-2.46-1.26-2,2.21.18L87.4,99.13c3.47,2.16,3,10.86,1.47,13.32Z" transform="translate(-6.53 -59.25)" fill="#e9eaeb" opacity="0.32"/><path d="M78.29,122.42c-1.52,2.45-3.11,2-6,.15l-13.62-6.19c-3.45-2.14-5.16-6.14-3.64-8.59l8.5-17.52c1.52-2.45-1.2-2,2.25.13l21.47,8.71c3.45,2.15,3.11,10.69,1.59,13.13Z" transform="translate(-6.53 -59.25)" fill="#e8e9ea" opacity="0.34"/><path d="M78.23,122.12c-1.51,2.43-3.1,2-5.93.15l-13.49-6.16c-3.42-2.13-5.16-6.07-3.65-8.5l8.46-17.22c1.51-2.43-1.14-2,2.28.09l21.22,8.6c3.42,2.13,3.22,10.52,1.71,12.94Z" transform="translate(-6.53 -59.25)" fill="#e7e8e9" opacity="0.35"/><path d="M78.17,121.82c-1.5,2.41-3.09,2-5.87.15l-13.36-6.13c-3.4-2.11-5.17-6-3.67-8.41l8.42-16.91c1.5-2.41-1.08-2.06,2.32.05l21,8.49c3.39,2.11,3.32,10.34,1.82,12.75Z" transform="translate(-6.53 -59.25)" fill="#e6e7e8" opacity="0.37"/><path d="M78.11,121.52c-1.49,2.39-3.08,2-5.81.16l-13.23-6.1c-3.37-2.1-5.17-5.93-3.68-8.32l8.38-16.61c1.49-2.39-1-2.09,2.36,0L86.85,99c3.37,2.1,3.43,10.17,1.94,12.56Z" transform="translate(-6.53 -59.25)" fill="#e5e6e7" opacity="0.38"/><path d="M78.05,121.22c-1.48,2.37-3.06,1.93-5.75.16L59.2,115.3c-3.35-2.08-5.18-5.86-3.7-8.24l8.35-16.3c1.48-2.37-1-2.11,2.39,0L86.71,99c3.34,2.08,3.54,10,2.06,12.38Z" transform="translate(-6.53 -59.25)" fill="#e4e5e6" opacity="0.4"/><path d="M78,120.92c-1.47,2.36-3.05,1.91-5.69.16l-13-6c-3.32-2.07-5.18-5.79-3.72-8.15l8.31-16c1.47-2.36-.89-2.14,2.43-0.07L86.57,99c3.32,2.07,3.65,9.83,2.18,12.19Z" transform="translate(-6.53 -59.25)" fill="#e3e4e5" opacity="0.41"/><path d="M77.94,120.62c-1.46,2.34-3,1.88-5.63.17l-12.85-6c-3.3-2.05-5.19-5.73-3.73-8.06L64,91c1.46-2.34-.83-2.17,2.47-0.11l20,8.05c3.29,2.05,3.76,9.66,2.3,12Z" transform="translate(-6.53 -59.25)" fill="#e2e3e4" opacity="0.43"/><path d="M77.88,120.32c-1.44,2.32-3,1.86-5.57.17l-12.72-6c-3.27-2-5.19-5.66-3.75-8l8.23-15.39c1.45-2.32-.77-2.19,2.5-0.15l19.72,7.94c3.27,2,3.86,9.49,2.42,11.81Z" transform="translate(-6.53 -59.25)" fill="#e1e2e3" opacity="0.44"/><path d="M77.82,120c-1.43,2.3-3,1.83-5.51.17l-12.59-6c-3.25-2-5.2-5.59-3.76-7.89l8.2-15.08c1.43-2.3-.71-2.22,2.54-0.2L86.16,98.9c3.24,2,4,9.32,2.54,11.62Z" transform="translate(-6.53 -59.25)" fill="#e0e1e2" opacity="0.46"/><path d="M77.76,119.72c-1.42,2.28-3,1.81-5.45.18L59.84,114c-3.22-2-5.2-5.52-3.78-7.8l8.16-14.78c1.42-2.28-.65-2.24,2.57-0.24L86,98.87c3.22,2,4.08,9.15,2.66,11.43Z" transform="translate(-6.53 -59.25)" fill="#dfe0e1" opacity="0.47"/><path d="M77.7,119.42c-1.41,2.27-3,1.79-5.39.18L60,113.7c-3.19-2-5.21-5.45-3.79-7.71L64.3,91.51c1.41-2.27-.58-2.27,2.61-0.28l19,7.61c3.19,2,4.19,9,2.78,11.24Z" transform="translate(-6.53 -59.25)" fill="#dedfe0" opacity="0.49"/><path d="M77.64,119.12c-1.4,2.25-3,1.76-5.33.18L60.1,113.43c-3.17-2-5.21-5.38-3.81-7.62l8.08-14.17c1.4-2.25-.52-2.29,2.65-0.32l18.72,7.51c3.17,2,4.3,8.81,2.9,11.05Z" transform="translate(-6.53 -59.25)" fill="#dddee0" opacity="0.5"/><path d="M77.58,118.82c-1.39,2.23-3,1.74-5.27.19l-12.08-5.85c-3.14-2-5.21-5.31-3.83-7.54l8-13.86c1.39-2.23-.46-2.32,2.68-0.36L85.6,98.8c3.14,2,4.4,8.63,3,10.87Z" transform="translate(-6.53 -59.25)" fill="#dcdddf" opacity="0.51"/><path d="M77.52,118.52c-1.38,2.21-3,1.71-5.21.19l-12-5.82c-3.12-1.94-5.22-5.24-3.84-7.45l8-13.56c1.38-2.21-.4-2.34,2.72-0.4l18.22,7.29c3.12,1.94,4.51,8.46,3.13,10.68Z" transform="translate(-6.53 -59.25)" fill="#dbddde" opacity="0.53"/><path d="M77.46,118.22c-1.37,2.19-3,1.69-5.15.19l-11.83-5.79c-3.09-1.92-5.22-5.17-3.86-7.36L64.6,92c1.37-2.2-.34-2.37,2.75-0.44l18,7.18c3.09,1.93,4.62,8.29,3.25,10.49Z" transform="translate(-6.53 -59.25)" fill="#dbdcdd" opacity="0.54"/><path d="M77.4,117.92c-1.35,2.18-2.95,1.67-5.08.19l-11.7-5.76c-3.07-1.91-5.23-5.1-3.87-7.28l7.93-12.95c1.36-2.18-.28-2.4,2.79-0.48l17.72,7.07c3.06,1.91,4.73,8.12,3.37,10.3Z" transform="translate(-6.53 -59.25)" fill="#dadbdc" opacity="0.56"/><path d="M77.34,117.62c-1.34,2.16-2.94,1.64-5,.2l-11.57-5.73c-3-1.89-5.23-5-3.89-7.19l7.89-12.64c1.34-2.16-.22-2.42,2.83-0.53l17.47,7c3,1.89,4.84,8,3.49,10.11Z" transform="translate(-6.53 -59.25)" fill="#d9dadb" opacity="0.57"/><path d="M77.29,117.32c-1.33,2.14-2.93,1.62-5,.2l-11.44-5.7c-3-1.88-5.24-5-3.9-7.1l7.86-12.34c1.33-2.14-.15-2.45,2.86-0.57l17.22,6.85c3,1.88,4.94,7.78,3.61,9.92Z" transform="translate(-6.53 -59.25)" fill="#d8d9da" opacity="0.59"/><path d="M77.23,117c-1.32,2.12-2.92,1.59-4.9.2L61,111.55c-3-1.86-5.24-4.89-3.92-7l7.82-12c1.32-2.12-.09-2.47,2.9-0.61l17,6.74c3,1.86,5.05,7.61,3.73,9.73Z" transform="translate(-6.53 -59.25)" fill="#d7d8d9" opacity="0.6"/><path d="M77.17,116.72c-1.31,2.1-2.91,1.57-4.84.21l-11.19-5.65c-3-1.85-5.25-4.82-3.94-6.93L65,92.63c1.31-2.1,0-2.5,2.94-.65l16.72,6.63c3,1.85,5.16,7.44,3.85,9.54Z" transform="translate(-6.53 -59.25)" fill="#d6d7d8" opacity="0.62"/><path d="M77.11,116.43c-1.3,2.09-2.89,1.54-4.78.21L61.27,111c-2.94-1.83-5.25-4.75-4-6.84l7.74-11.42c1.3-2.09,0-2.52,3-.69L84.5,98.59c2.94,1.83,5.27,7.27,4,9.35Z" transform="translate(-6.53 -59.25)" fill="#d5d6d7" opacity="0.63"/><path d="M77,116.13c-1.29,2.07-2.88,1.52-4.72.21L61.4,110.75c-2.92-1.81-5.25-4.68-4-6.75l7.71-11.12c1.29-2.07.09-2.55,3-.73l16.22,6.41c2.91,1.82,5.38,7.1,4.09,9.16Z" transform="translate(-6.53 -59.25)" fill="#d4d5d6" opacity="0.65"/><path d="M77,115.83c-1.28,2.05-2.87,1.5-4.66.22l-10.8-5.56c-2.89-1.8-5.26-4.61-4-6.66L65.21,93c1.28-2.05.15-2.58,3-.77l16,6.3c2.89,1.8,5.48,6.92,4.21,9Z" transform="translate(-6.53 -59.25)" fill="#d3d4d5" opacity="0.66"/><path d="M76.93,115.53c-1.27,2-2.86,1.47-4.6.22l-10.67-5.53c-2.87-1.78-5.26-4.54-4-6.58l7.63-10.51c1.27-2,.21-2.6,3.08-0.82l15.72,6.19c2.86,1.78,5.59,6.75,4.32,8.79Z" transform="translate(-6.53 -59.25)" fill="#d2d3d4" opacity="0.68"/><path d="M76.87,115.23c-1.25,2-2.85,1.45-4.54.22l-10.54-5.5c-2.84-1.77-5.27-4.48-4-6.49l7.59-10.2c1.26-2,.28-2.63,3.12-0.86l15.47,6.09c2.84,1.77,5.7,6.58,4.44,8.6Z" transform="translate(-6.53 -59.25)" fill="#d1d2d3" opacity="0.69"/><path d="M76.81,114.93c-1.24,2-2.84,1.42-4.48.23l-10.42-5.47c-2.81-1.75-5.27-4.41-4-6.4l7.56-9.9c1.24-2,.34-2.65,3.15-0.9l15.22,6c2.81,1.75,5.81,6.41,4.56,8.41Z" transform="translate(-6.53 -59.25)" fill="#d0d1d3" opacity="0.71"/><path d="M76.75,114.63c-1.23,2-2.83,1.4-4.42.23L62,109.41c-2.79-1.74-5.28-4.34-4-6.31l7.52-9.59c1.23-2,.4-2.68,3.19-0.94l15,5.87c2.79,1.74,5.91,6.24,4.68,8.22Z" transform="translate(-6.53 -59.25)" fill="#cfd0d2" opacity="0.72"/><path d="M76.7,114.33c-1.22,2-2.82,1.38-4.36.23l-10.16-5.42c-2.76-1.72-5.28-4.27-4.06-6.23l7.48-9.29c1.22-2,.46-2.7,3.22-1l14.72,5.76c2.76,1.72,6,6.07,4.8,8Z" transform="translate(-6.53 -59.25)" fill="#cecfd1" opacity="0.74"/><path d="M76.64,114c-1.21,1.94-2.81,1.35-4.3.24l-10-5.39c-2.74-1.7-5.29-4.2-4.08-6.14l7.44-9c1.21-1.94.52-2.73,3.26-1L83.4,98.38c2.74,1.71,6.13,5.9,4.92,7.84Z" transform="translate(-6.53 -59.25)" fill="#cdced0" opacity="0.75"/><path d="M76.58,113.73c-1.2,1.92-2.8,1.33-4.24.24l-9.9-5.36c-2.71-1.69-5.29-4.13-4.09-6.05l7.41-8.68c1.2-1.93.58-2.75,3.3-1.06l14.22,5.54c2.71,1.69,6.24,5.73,5,7.65Z" transform="translate(-6.53 -59.25)" fill="#cccdcf" opacity="0.76"/><path d="M76.52,113.43c-1.19,1.91-2.79,1.3-4.18.24l-9.78-5.33c-2.69-1.67-5.3-4.06-4.11-6L65.82,94c1.19-1.91.64-2.78,3.33-1.11l14,5.43c2.69,1.67,6.35,5.56,5.16,7.46Z" transform="translate(-6.53 -59.25)" fill="#cbccce" opacity="0.78"/><path d="M76.46,113.13c-1.18,1.89-2.78,1.28-4.12.24l-9.65-5.3c-2.66-1.66-5.3-4-4.12-5.88l7.33-8.06c1.18-1.89.71-2.81,3.37-1.15L83,98.3c2.66,1.66,6.45,5.39,5.28,7.27Z" transform="translate(-6.53 -59.25)" fill="#cacbcd" opacity="0.79"/><path d="M76.4,112.83c-1.17,1.87-2.77,1.26-4.06.25l-9.52-5.27c-2.64-1.64-5.3-3.92-4.14-5.79L66,94.25c1.16-1.87.77-2.83,3.4-1.19l13.46,5.21c2.64,1.64,6.56,5.21,5.39,7.09Z" transform="translate(-6.53 -59.25)" fill="#c9cacc" opacity="0.81"/><path d="M76.34,112.53c-1.15,1.85-2.75,1.23-4,.25L63,107.54c-2.61-1.63-5.31-3.85-4.15-5.7l7.26-7.46c1.15-1.85.83-2.86,3.44-1.23l13.21,5.1c2.61,1.63,6.67,5,5.52,6.9Z" transform="translate(-6.53 -59.25)" fill="#c8c9cb" opacity="0.82"/><path d="M76.28,112.23c-1.14,1.83-2.74,1.21-3.94.25l-9.26-5.22c-2.59-1.61-5.31-3.78-4.17-5.62l7.22-7.15c1.14-1.84.89-2.88,3.48-1.27l13,5c2.59,1.61,6.78,4.87,5.63,6.71Z" transform="translate(-6.53 -59.25)" fill="#c7c8ca" opacity="0.84"/><path d="M76.22,111.93c-1.13,1.82-2.73,1.18-3.88.26L63.21,107c-2.56-1.59-5.32-3.71-4.19-5.53l7.18-6.84c1.13-1.82,1-2.91,3.51-1.31L82.43,98.2c2.56,1.6,6.88,4.7,5.75,6.52Z" transform="translate(-6.53 -59.25)" fill="#c6c7c9" opacity="0.85"/><path d="M76.16,111.63c-1.12,1.8-2.72,1.16-3.82.26l-9-5.16c-2.54-1.58-5.32-3.64-4.2-5.44l7.14-6.54c1.12-1.8,1-2.93,3.55-1.35l12.46,4.77c2.54,1.58,7,4.53,5.87,6.33Z" transform="translate(-6.53 -59.25)" fill="#c5c6c8" opacity="0.87"/><path d="M76.1,111.33c-1.11,1.78-2.71,1.14-3.76.26l-8.88-5.13c-2.51-1.56-5.33-3.57-4.22-5.35l7.11-6.23c1.11-1.78,1.07-3,3.59-1.4l12.21,4.66c2.51,1.56,7.1,4.36,6,6.14Z" transform="translate(-6.53 -59.25)" fill="#c4c6c7" opacity="0.88"/><path d="M76,111c-1.1,1.76-2.7,1.11-3.7.27l-8.75-5.1c-2.48-1.55-5.33-3.5-4.23-5.27L66.43,95c1.1-1.76,1.14-3,3.62-1.44l12,4.55c2.48,1.55,7.21,4.19,6.11,6Z" transform="translate(-6.53 -59.25)" fill="#c3c5c7" opacity="0.9"/><path d="M76,110.73c-1.09,1.74-2.69,1.09-3.63.27l-8.62-5.07c-2.46-1.53-5.34-3.43-4.25-5.18l7-5.62c1.09-1.75,1.2-3,3.66-1.48l11.71,4.44c2.46,1.53,7.31,4,6.23,5.76Z" transform="translate(-6.53 -59.25)" fill="#c2c4c6" opacity="0.91"/><path d="M75.93,110.43c-1.08,1.73-2.68,1.06-3.57.27l-8.5-5c-2.43-1.52-5.34-3.36-4.26-5.09l7-5.32c1.08-1.73,1.26-3,3.69-1.52l11.46,4.33c2.43,1.52,7.42,3.85,6.35,5.57Z" transform="translate(-6.53 -59.25)" fill="#c1c3c5" opacity="0.93"/><path d="M75.87,110.13c-1.06,1.71-2.67,1-3.51.28l-8.37-5c-2.41-1.5-5.35-3.29-4.28-5l7-5c1.06-1.71,1.32-3.06,3.73-1.56L81.6,98c2.41,1.5,7.53,3.68,6.47,5.39Z" transform="translate(-6.53 -59.25)" fill="#c0c2c4" opacity="0.94"/><path d="M75.81,109.84c-1.05,1.69-2.66,1-3.45.28l-8.24-5c-2.38-1.48-5.35-3.23-4.3-4.92l6.92-4.71c1.05-1.69,1.38-3.09,3.77-1.6l11,4.12c2.38,1.49,7.64,3.51,6.59,5.2Z" transform="translate(-6.53 -59.25)" fill="#bfc1c3" opacity="0.96"/><path d="M75.75,109.54a2.07,2.07,0,0,1-3.39.28l-8.11-5c-2.36-1.47-5.35-3.16-4.31-4.83l6.88-4.4c1-1.67,1.44-3.11,3.8-1.64l10.71,4c2.36,1.47,7.75,3.33,6.71,5Z" transform="translate(-6.53 -59.25)" fill="#bec0c2" opacity="0.97"/><path d="M75.69,109.24a2,2,0,0,1-3.33.29l-8-4.93C62,103.14,59,101.5,60,99.85l6.84-4.1c1-1.66,1.5-3.14,3.84-1.68L81.19,98c2.33,1.45,7.86,3.16,6.82,4.82Z" transform="translate(-6.53 -59.25)" fill="#bdbfc1" opacity="0.99"/><path d="M75.63,108.94a2,2,0,0,1-3.27.29l-7.85-4.9c-2.31-1.44-5.36-3-4.34-4.66L67,95.88c1-1.64,1.57-3.16,3.87-1.73l10.21,3.79c2.31,1.44,8,3,6.94,4.63Z" transform="translate(-6.53 -59.25)" fill="#b3b3b3"/></g><polygon points="81.78 26.3 66.88 17.65 51.94 26.23 66.84 34.88 81.78 26.3" fill="#fafafa"/><polygon points="66.84 34.88 66.8 52.11 81.74 43.53 81.78 26.3 66.84 34.88" fill="#b3b3b3"/><polygon points="51.94 26.23 51.9 43.46 66.8 52.11 66.84 34.88 51.94 26.23" fill="#e6e6e6"/><path d="M81.39,98.38a6.87,6.87,0,0,0,6.93,3c5.66-.74,6.09-3.94,11.34-5.5,2.94-.87,4.19-0.85,6.31.49" transform="translate(-6.53 -59.25)" fill="none" stroke="#231f20" stroke-miterlimit="10" stroke-width="0.2"/><ellipse cx="29.75" cy="101.98" rx="1.14" ry="0.39" transform="translate(-80.13 67.31) rotate(-87.12)" fill="#231f20"/><ellipse cx="55.26" cy="80.47" rx="0.67" ry="0.23" transform="translate(-34.44 72.33) rotate(-87.1)" fill="#231f20"/><ellipse cx="81.39" cy="98.38" rx="1.22" ry="0.42" transform="translate(-27.55 115.38) rotate(-87.07)" fill="#231f20"/><g style="isolation:isolate"><g clip-path="url(#a)"><path d="M63.87,94.33l-0.33-.19-0.12,0-0.08.07-1.11,3.27,0,0.13,0,0.13,0,0.13,0,0.14,0,0.14,0,0.13,0,0.13,0,0.13-0.08-.06-0.31-1.38-1.09-4.55-0.06-.18,0,0,0,0,0,0-0.06,0L59.89,92l-0.07,0h0a0.1,0.1,0,0,0,0,.05,0.37,0.37,0,0,0,0,.09v6.42a0.24,0.24,0,0,0,0,.06l0,0,0,0,0,0L60.29,99h0.07l0,0a0.21,0.21,0,0,0,0-.05V94.74h0l0.35,1.54,0.75,3.08,0.06,0.15,0.1,0.08L62,99.8h0.11l0-.07L63,97.47l0.35-1.08h0v4.27a0.24,0.24,0,0,0,0,.06l0,0,0,0,0,0,0.48,0.28H64l0,0a0.21,0.21,0,0,0,0-.05l0-6.42,0-.16-0.12-.13" transform="translate(-6.53 -59.25)" fill="#010101"/><path d="M66.82,95.95l-0.16-.08-0.16-.06-0.15,0-0.14,0H66.08l-0.12,0-0.11,0-0.1.06-0.1.07L65.56,96l-0.07.11-0.06.13a1.22,1.22,0,0,0-.05.15,1.6,1.6,0,0,0,0,.17q0,0.09,0,.19t0,0.21v3.19q0,0.11,0,.22t0,0.22,0,0.21L65.42,101l0.07,0.21,0.08,0.2,0.09,0.19,0.1,0.18,0.11,0.18L66,102.11l0.13,0.16,0.14,0.15,0.14,0.14,0.15,0.12,0.16,0.11,0.16,0.1,0.2,0.1,0.2,0.07,0.19,0h0.19l0.18,0L68,103l0.15-.09,0.13-.12v-0.09l0-.1-0.33-.55L67.78,102l-0.08.05-0.07,0-0.09,0-0.1,0-0.11,0H67.22l-0.12,0-0.12,0-0.13-.06L66.67,102l-0.17-.15-0.15-.18a1.77,1.77,0,0,1-.13-0.21,2,2,0,0,1-.1-0.22,1.86,1.86,0,0,1-.07-0.22,1.78,1.78,0,0,1,0-.22,1.76,1.76,0,0,1,0-.23V97.35a1.67,1.67,0,0,1,0-.22,1,1,0,0,1,0-.18,0.61,0.61,0,0,1,.07-0.14,0.42,0.42,0,0,1,.09-0.1,0.33,0.33,0,0,1,.12-0.06h0.14l0.17,0,0.19,0.09L67,96.84l0.12,0.1,0.12,0.12,0.12,0.14,0.12,0.15,0.1,0.15,0.09,0.16,0.08,0.16,0.09,0.13,0.09,0,0.31-.16,0.06-.1,0-.13-0.16-.31L67.91,97l-0.17-.24-0.17-.2-0.18-.18-0.18-.16L67,96.07l-0.19-.12" transform="translate(-6.53 -59.25)" fill="#010101"/><path d="M70.09,101.13L70,101V98.77l0.08,0,0.75,0.44L71,99.23l0.1,0.08,0.09,0.09,0.08,0.1,0.07,0.1,0.07,0.11,0.06,0.11,0.06,0.12,0,0.12,0,0.12,0,0.12,0,0.13,0,0.12,0,0.12s0,0.08,0,.11,0,0.07,0,.11a2,2,0,0,1,0,.25,1.19,1.19,0,0,1,0,.21,0.7,0.7,0,0,1-.07.16,0.48,0.48,0,0,1-.11.12,0.38,0.38,0,0,1-.13.07l-0.15,0-0.17,0-0.18-.09-0.77-.44m0.78-2.76-1.42-.82,0,0h0l0,0a0.15,0.15,0,0,0,0,0l0,6.51a0.22,0.22,0,0,0,0,.06l0,0,0,0,0,0,0.5,0.29,0,0h0l0,0a0.2,0.2,0,0,0,0-.05V102l0.07-.06,0.76,0.44L71,102.43l0.16,0.06,0.15,0,0.15,0h0.14l0.13,0,0.12,0,0.11-.07,0.1-.08,0.09-.1,0.08-.12,0.06-.14,0.05-.16q0-.08,0-0.17t0-.18,0-.2,0-.21,0-.21,0-.21l0-.21-0.06-.21L72.17,100l-0.08-.2L72,99.6l-0.11-.19-0.12-.18-0.13-.17-0.14-.16-0.15-.15-0.16-.14L71,98.48l-0.18-.11" transform="translate(-6.53 -59.25)" fill="#010101"/></g></g><g style="isolation:isolate"><g clip-path="url(#b)"><path d="M13.1,101.51l0-.07v-1.17l0,0,0.43,0.25,0.06,0,0.06,0,0.05,0,0,0.06,0.15,0.23,0,0.06L14,101l0,0.06v0.25s0,0,0,.06a1.06,1.06,0,0,1,0,.13,0.65,0.65,0,0,1,0,.11l0,0.08-0.05.06-0.06,0H13.76l-0.08,0-0.1,0-0.48-.28m0-1.68,0-.07V98.82l0,0L13.53,99l0.09,0.06,0.08,0.07,0.07,0.08,0.05,0.09,0,0.1,0,0.11a0.9,0.9,0,0,1,0,.11,0.92,0.92,0,0,1,0,.11,0.77,0.77,0,0,1,0,.1,0.52,0.52,0,0,1,0,.09l0,0.07,0,0.06-0.06,0H13.71l-0.08,0-0.09,0-0.43-.25m0.43-1.2-0.78-.45-0.05,0v3.41l0.06,0.1,0.83,0.48,0.08,0,0.08,0,0.08,0H14l0.06,0,0.05,0,0,0,0-.05,0-.07,0-.08,0-.08,0-.1s0-.07,0-0.1,0-.07,0-0.11,0-.08,0-0.13,0-.09,0-0.13l0-.14,0-.14,0-.14-0.06-.13-0.07-.12L14,100.55v0l0.12-.07,0.09-.12,0.06-.15,0-.18a1.81,1.81,0,0,0,0-.22,1.64,1.64,0,0,0,0-.21,1.56,1.56,0,0,0-.15-0.38L14,99l-0.13-.15-0.15-.13-0.16-.11" transform="translate(-6.53 -59.25)" fill="#010101"/><polyline points="9.93 41.07 8.54 40.26 8.48 40.3 8.47 43.71 8.53 43.81 9.94 44.63 9.99 44.58 9.99 44.3 9.94 44.21 8.87 43.59 8.84 43.52 8.84 42.4 8.88 42.37 9.75 42.88 9.8 42.84 9.8 42.55 9.74 42.45 8.88 41.95 8.84 41.89 8.85 40.91 8.88 40.88 9.94 41.49 9.99 41.45 9.99 41.17 9.93 41.07" fill="#010101"/><path d="M18.68,101.6l-0.26-.15-0.06,0,0,0-0.05.11-0.05.11-0.05.11-0.05.12-0.05.11-0.06.11-0.06.11-0.05.11,0,0L17.45,101l0-.07-0.06,0-0.29-.17,0,0.05,0.6,1.89,0,0.06v0.08L17,104.06l0,0.12,0.27,0.15,0.06,0,0,0,0.49-1h0l0,0,0.48,1.55,0,0.07,0.06,0,0.27,0.15,0-.07,0-.12,0-.12,0-.13,0-.13,0-.13,0-.13,0-.13,0-.13,0-.14,0-.14,0-.14,0-.13,0-.13,0-.13,0-.12,0-.12v-0.12l0.08-.15,0.08-.15,0.08-.15,0.08-.15,0.08-.15,0.08-.15,0.08-.15,0.08-.15,0-.11" transform="translate(-6.53 -59.25)" fill="#010101"/><polyline points="14.24 43.55 12.84 42.75 12.79 42.78 12.78 46.2 12.83 46.29 14.24 47.11 14.29 47.06 14.29 46.78 14.24 46.69 13.17 46.07 13.14 46 13.14 44.89 13.18 44.85 14.05 45.36 14.1 45.32 14.1 45.03 14.05 44.94 13.17 44.43 13.15 44.37 13.15 43.39 13.18 43.37 14.24 43.97 14.29 43.93 14.29 43.65 14.24 43.55" fill="#010101"/><polyline points="15.25 44.14 14.99 43.99 14.94 44.03 14.93 47.44 14.98 47.54 16.36 48.33 16.41 48.29 16.41 48 16.36 47.91 15.33 47.32 15.29 47.24 15.3 44.23 15.25 44.14" fill="#010101"/></g></g><g style="isolation:isolate"><g clip-path="url(#c)"><path d="M43.48,80.8l-0.12-.08-0.1-.09-0.09-.11-0.07-.12L43,80.27l0-.13A1.14,1.14,0,0,1,43,80a1.24,1.24,0,0,1,0-.15V78a0.83,0.83,0,0,1,0-.12,0.53,0.53,0,0,1,0-.1l0-.08,0.06-.06,0.08,0h0.09l0.1,0,0.11,0.05,0.11,0.08,0.1,0.09,0.09,0.11,0.08,0.13,0.06,0.13,0,0.13a1.07,1.07,0,0,1,0,.14,1.1,1.1,0,0,1,0,.14v1.86a1,1,0,0,1,0,.14,0.58,0.58,0,0,1,0,.11l0,0.09-0.06.06-0.08,0H43.7l-0.1,0-0.12-.06m0-3.62-0.09,0-0.09,0-0.09,0-0.09,0H43l-0.07,0-0.06,0-0.06,0-0.05.05,0,0.06,0,0.07,0,0.09,0,0.1s0,0.07,0,.11,0,0.08,0,.13v1.88s0,0.09,0,.14,0,0.09,0,.13l0,0.13,0,0.12,0,0.12,0,0.12,0.05,0.11,0.06,0.11,0.07,0.1L43,80.81,43,80.9,43.11,81l0.09,0.08,0.09,0.08,0.09,0.07,0.1,0.06,0.1,0.05,0.09,0,0.09,0,0.09,0H44l0.07,0,0.06,0,0.06,0,0.05-.05,0-.06,0-.08,0-.09,0-.1s0-.07,0-0.11,0-.08,0-0.13V78.83s0-.09,0-0.14,0-.09,0-0.13l0-.13,0-.13,0-.12,0-.12L44.21,78l-0.06-.11-0.07-.11L44,77.64l-0.08-.09-0.08-.08-0.09-.08-0.09-.07-0.09-.07-0.09-.06" transform="translate(-6.53 -59.25)" fill="#010101"/><path d="M46,82.24l-0.12-.08-0.1-.09L45.66,82l-0.07-.12-0.06-.13a1.07,1.07,0,0,1,0-.13,1.1,1.1,0,0,1,0-.14,1.22,1.22,0,0,1,0-.15V79.43a0.74,0.74,0,0,1,0-.12,0.5,0.5,0,0,1,0-.1l0-.08,0.06-.06,0.08,0h0.09l0.1,0L46,79.1l0.11,0.07,0.1,0.09,0.09,0.11,0.08,0.13,0.06,0.13,0,0.13a1.07,1.07,0,0,1,0,.14,1.1,1.1,0,0,1,0,.14v1.86a1,1,0,0,1,0,.14,0.55,0.55,0,0,1,0,.11,0.32,0.32,0,0,1,0,.08l-0.06.06-0.07,0H46.18l-0.1,0L46,82.24m0-3.62-0.1-.05-0.09,0-0.09,0-0.08,0H45.45l-0.07,0-0.06,0-0.06,0-0.05.05,0,0.06,0,0.07,0,0.09,0,0.1s0,0.07,0,.11,0,0.08,0,.13v1.88s0,0.09,0,.14,0,0.09,0,.13l0,0.13,0,0.12,0,0.12,0,0.12,0.05,0.11L45.3,82l0.07,0.1,0.07,0.1,0.08,0.09,0.08,0.09,0.08,0.08,0.09,0.08,0.1,0.07L46,82.71l0.1,0.05,0.09,0,0.09,0,0.09,0H46.5l0.07,0,0.07,0,0.06,0,0.05-.05,0-.06,0-.08,0-.09,0-.1s0-.07,0-0.11,0-.08,0-0.13V80.27s0-.09,0-0.14,0-.09,0-0.13l0-.13,0-.13,0-.12,0-.12-0.06-.11-0.06-.11-0.07-.11-0.07-.1L46.41,79l-0.08-.09-0.08-.08-0.09-.07-0.09-.07L46,78.62" transform="translate(-6.53 -59.25)" fill="#010101"/><path d="M48,81.74l0-.08V80.34l0,0,0.45,0.26,0.06,0,0.06,0,0.05,0.05,0.05,0.06L48.84,81l0,0.07,0,0.07,0,0.07,0,0.07v0.21s0,0,0,.06a1.25,1.25,0,0,1,0,.15,0.71,0.71,0,0,1,0,.12,0.39,0.39,0,0,1,0,.1L48.82,82l-0.08,0H48.66l-0.1,0L48.45,82,48,81.74m0.46-1.64-0.84-.48-0.06,0v3.86l0.06,0.11,0.29,0.17,0.06,0V82.24l0,0,0.45,0.26,0.09,0,0.09,0,0.09,0H48.9l0.07,0,0.07,0,0.06,0,0.06-.05,0.05-.06,0-.07,0-.08,0-.09,0-.1s0-.07,0-0.11,0-.08,0-0.12,0-.08,0-0.13,0-.08,0-0.13l0-.13,0-.13,0-.13,0-.12,0-.12-0.06-.11-0.06-.11L49,80.62l-0.08-.1-0.08-.1-0.08-.09-0.09-.08-0.1-.07-0.11-.07" transform="translate(-6.53 -59.25)" fill="#010101"/></g></g><g style="isolation:isolate"><g clip-path="url(#d)"><path d="M104,106.88l0-.06V105.7l0,0,0.41,0.24,0.06,0,0.06,0,0.05,0,0,0.05,0.13,0.22,0,0.06,0,0.06,0,0.06v0.25s0,0,0,.06a1,1,0,0,1,0,.12,0.6,0.6,0,0,1,0,.1l0,0.08,0,0.06-0.06,0h-0.07l-0.08,0-0.09,0-0.46-.27m0-1.58,0-.07v-0.89l0,0,0.4,0.23,0.09,0.06,0.08,0.07,0.07,0.08,0.05,0.09,0,0.1,0,0.1a0.89,0.89,0,0,1,0,.1,1,1,0,0,1,0,.11,0.72,0.72,0,0,1,0,.09,0.53,0.53,0,0,1,0,.08l0,0.07,0,0.05-0.05,0H104.6l-0.08,0-0.09,0-0.4-.23m0.4-1.14-0.73-.42,0,0V107l0,0.09,0.8,0.46,0.08,0,0.08,0,0.07,0h0.19l0.06,0,0.05,0,0,0,0-.05,0-.06,0-.07,0-.08,0-.09s0-.06,0-0.1,0-.07,0-0.11,0-.08,0-0.12,0-.08,0-0.13l0-.13,0-.13,0-.13-0.06-.12-0.07-.12-0.08-.11v0l0.11-.07,0.09-.11,0.06-.14,0-.17a1.77,1.77,0,0,0,0-.21,1.53,1.53,0,0,0,0-.2,1.38,1.38,0,0,0-.06-0.19,1.32,1.32,0,0,0-.09-0.17l-0.1-.16-0.12-.14-0.14-.12-0.16-.11" transform="translate(-6.53 -59.25)" fill="#010101"/><polyline points="99.63 45.9 99.38 45.76 99.33 45.79 99.33 49.03 99.38 49.12 100.69 49.88 100.73 49.84 100.73 49.57 100.68 49.47 99.7 48.91 99.67 48.84 99.67 45.98 99.63 45.9" fill="#010101"/><path d="M108.57,109.54l-0.1-.07-0.09-.08-0.08-.09-0.06-.1-0.05-.11,0-.11a0.94,0.94,0,0,1,0-.12,1,1,0,0,1,0-.12v-1.56a0.61,0.61,0,0,1,0-.1,0.43,0.43,0,0,1,0-.09l0-.07,0.05-.05,0.06,0h0.07l0.09,0,0.1,0,0.1,0.06,0.09,0.08,0.07,0.09,0.06,0.1,0.05,0.11,0,0.11a0.89,0.89,0,0,1,0,.11,0.91,0.91,0,0,1,0,.12v1.56a0.78,0.78,0,0,1,0,.11,0.44,0.44,0,0,1,0,.09l0,0.07-0.05,0-0.06,0h-0.07l-0.09,0-0.1,0m0-3-0.08,0-0.08,0-0.08,0-0.07,0h-0.19l-0.06,0-0.05,0,0,0,0,0.05,0,0.07,0,0.07,0,0.08s0,0.06,0,.09,0,0.07,0,.11v1.58s0,0.08,0,.11,0,0.07,0,.11l0,0.11,0,0.11,0,0.1,0,0.1,0,0.1,0.05,0.09,0.05,0.08,0.06,0.08,0.06,0.08,0.07,0.08,0.07,0.07,0.08,0.06,0.08,0.06,0.08,0.05,0.08,0,0.08,0,0.08,0,0.07,0h0.19l0.06,0,0,0,0,0,0-.05,0-.06,0-.08,0-.09s0-.06,0-0.1,0-.07,0-0.11v-1.58s0-.07,0-0.11,0-.07,0-0.11l0-.11,0-.11,0-.1,0-.1,0-.1-0.05-.09-0.06-.09-0.06-.08-0.07-.08-0.07-.07-0.07-.07-0.07-.06-0.08-.05-0.08,0" transform="translate(-6.53 -59.25)" fill="#010101"/><path d="M110.8,107.79l-0.08,0-0.08,0-0.07,0h-0.2l-0.06,0-0.05,0,0,0,0,0,0,0.06,0,0.07,0,0.07,0,0.08s0,0.06,0,.09,0,0.07,0,.1v1.59s0,0.07,0,.11,0,0.07,0,.11l0,0.1,0,0.1,0,0.1,0,0.1,0,0.09,0,0.09,0.05,0.08,0.06,0.08,0.06,0.08,0.07,0.07,0.07,0.07,0.08,0.06,0.08,0.06,0.08,0.05,0.1,0.05,0.1,0,0.1,0h0.18l0.08,0,0.07,0,0.07-.06v-0.08l-0.17-.28-0.05,0,0,0,0,0,0,0,0,0h-0.17l-0.06,0-0.06,0-0.09-.06-0.08-.08-0.07-.09-0.06-.1-0.05-.11,0-.11a0.88,0.88,0,0,1,0-.11,0.9,0.9,0,0,1,0-.11v-1.58a0.76,0.76,0,0,1,0-.11,0.49,0.49,0,0,1,0-.09l0-.07,0-.05,0.06,0h0.07l0.08,0,0.09,0,0.07,0,0.06,0,0.06,0.06,0.06,0.07,0.06,0.08,0.05,0.08,0,0.08,0,0.08,0,0.06h0l0.15-.09,0,0,0-.07-0.08-.16-0.08-.14-0.08-.12-0.09-.1-0.09-.09-0.09-.08-0.09-.07-0.09-.06" transform="translate(-6.53 -59.25)" fill="#010101"/><path d="M113.63,109.46l-0.27-.16H113.3l-0.86.89h0l0-.06V108.8l0-.07-0.27-.15,0,0v3.26l0,0.08,0.27,0.16,0,0v-0.94a1.13,1.13,0,0,1,0-.13,0.68,0.68,0,0,1,0-.11,0.4,0.4,0,0,1,0-.09l0.05-.06,0.07,0h0.08l0.1,0,0.11,0.05,0.07,0,0.06,0,0.05,0.05,0,0.06,0.13,0.23,0.06,0.24,0,0.2,0,1,0,0.08,0.24,0.14,0,0-0.06-1.08q0-.1,0-0.2t0-.19a1.78,1.78,0,0,0,0-.18l-0.06-.16-0.08-.15-0.1-.14-0.11-.12-0.13-.1-0.06,0-0.06,0,0,0v0l0.77-.79v0l-0.05-.05" transform="translate(-6.53 -59.25)" fill="#010101"/></g></g><g style="isolation:isolate"><g clip-path="url(#e)"><path d="M116.77,109.1l-0.08,0-0.07.05-0.07.06-0.06.07-0.06.07-0.06.08-0.05.08,0,0.09,0,0.09,0,0.1,0,0.1,0,0.11,0,0.11,0,0.11s0,0.07,0,.11,0,0.07,0,.11v1.68s0,0.08,0,.11,0,0.07,0,.1l0,0.09,0,0.08,0,0.07,0,0.06,0,0,0,0,0,0,0.05,0h0.19l0.07,0,0.07,0,0.08,0,0.09-.06,0.09-.07,0.09-.09,0.09-.1,0.08-.11,0.08-.12,0.07-.13,0.06-.14v-0.09l-0.16-.1-0.05,0,0,0.07,0,0.07,0,0.07,0,0.07,0,0.07-0.05.07-0.06.06-0.06,0-0.06,0-0.09,0-0.08,0h-0.07l-0.06,0,0-.06,0-.08a0.54,0.54,0,0,1,0-.09,0.87,0.87,0,0,1,0-.11v-1.67s0-.08,0-0.12a1.09,1.09,0,0,1,0-.12l0-.11,0-.11,0.05-.1,0.07-.09,0.08-.07,0.09-.06,0.06,0,0.06,0h0.17l0,0,0,0,0,0h0l0,0,0.15-.27,0-.08,0-.05-0.07-.07-0.08,0-0.08,0H117l-0.09,0-0.09,0-0.09,0" transform="translate(-6.53 -59.25)" fill="#010101"/><polyline points="112.89 48.37 112.66 48.5 112.61 48.59 112.61 49.98 112.58 50.05 111.76 50.52 111.73 50.49 111.73 49.1 111.68 49.06 111.45 49.2 111.41 49.28 111.4 52.7 111.45 52.74 111.69 52.6 111.73 52.5 111.73 51.01 111.76 50.93 112.58 50.46 112.61 50.49 112.61 52 112.65 52.04 112.89 51.9 112.94 51.8 112.94 48.4 112.89 48.37" fill="#010101"/><path d="M120.5,109.32h0v0l0.17-1.15,0.1-.77h0l0.11,0.66,0.17,0.93v0l0,0-0.53.31m0.44-2.59-0.33.19,0,0,0,0.06L120,110.75v0.07h0l0.21-.12,0-.07,0.12-.82v0h0l0.69-.4h0l0.13,0.67h0.05l0.23-.13,0-.05v-0.06l-0.58-3-0.06,0" transform="translate(-6.53 -59.25)" fill="#010101"/><polyline points="115.9 46.63 115.66 46.77 115.62 46.85 115.61 50.27 115.65 50.3 115.89 50.17 115.94 50.07 115.94 46.66 115.9 46.63" fill="#010101"/><polyline points="118.17 45.32 117.95 45.44 117.91 45.53 117.9 48.03 117.9 48.03 117.89 48.03 117 46.09 116.97 46.04 116.9 46.05 116.76 46.13 116.69 46.21 116.68 46.33 116.67 49.65 116.72 49.69 116.94 49.56 116.98 49.47 116.98 47 116.99 46.99 117.89 48.93 117.93 48.98 117.99 48.95 118.14 48.87 118.19 48.83 118.21 48.71 118.22 45.35 118.17 45.32" fill="#010101"/></g></g><text transform="translate(17.1 21.89) scale(1 1.15)" font-size="2.76" fill="#444" font-family="Roboto Slab">Material<tspan x="0" y="2.88">Objects</tspan></text><text transform="translate(43.93 2.72) scale(1 1.15)" font-size="2.76" fill="#444" font-family="Roboto Slab">Object-Oriented <tspan x="0" y="2.88">P</tspan><tspan x="1.76" y="2.88">r</tspan><tspan x="2.87" y="2.88">ogrammi</tspan><tspan x="14.79" y="2.88">n</tspan><tspan x="16.55" y="2.88">g</tspan></text><text transform="translate(66.86 12.39) scale(1 1.15)" font-size="2.76" fill="#444" font-family="Roboto Slab">Main Cont<tspan x="13.59" y="0">ro</tspan><tspan x="16.23" y="0">l</tspan><tspan x="0" y="2.88">P</tspan><tspan x="1.76" y="2.88">r</tspan><tspan x="2.87" y="2.88">ogram</tspan></text><text transform="translate(108.12 24.37) scale(1 1.15)" font-size="2.76" fill="#444" font-family="Roboto Slab">Fina<tspan x="5.93" y="0">n</tspan><tspan x="7.69" y="0">cial &amp;</tspan><tspan x="0" y="2.88">Real Estate</tspan><tspan x="0" y="5.77">Operations</tspan></text></g></svg>